**ABCDEFGHIJKLMNOPQRSTUVWXYZabcdefghijklmnopqrstuvwxyz**************************
**PARASOLID !"#$%&'()*+,-./:;<=>?@[\]^_`{|}~0123456789**************************
**PART1;
MC=;
MC_MODEL=;
MC_ID=unknown;
OS=Windows;
OS_RELEASE=;
FRU=;
APPL=Autodesk Inventor 2023;
SITE=unknown;
USER=unknown;
FORMAT=text;
GUISE=transmit;
KEY=INT-207-01-009;
FILE=D:\мои документы\Ирина\_WorldSkills\2022_08 Роскосмос\Задание\the-first-satellite-sputnik-1.snapshot.4\Inventor\GIVEN\PARASOLID\INT-207-01-009.x_t;
DATE=2022-Aug-07 12:41:07;
**PART2;
SCH=SCH_3301154_33103;
USFLD_SIZE=0;
**PART3;
**END_OF_HEADER*****************************************************************
T51 : TRANSMIT FILE created by modeller version 330115417 SCH_3300000_320010 12
 1 113 2 3 0 0 0 0 0 0 1e3 1e-8 0 0 0 1 0 1 1 4 5 6 7 0 0 8 9 10 0 0 0 0 0 0 0 8
1 1 2 113 11 1 12 0 0 0 0 70 3 0 4 T1 0 0 6 20 1 13 13 13 4 56 0 1 0 14 0 0 15 0
 52 5 86 0 14 16 0 0 +-.1835788571898505 .1234381146800256 -.1859646069474225 -.
635220959134431 .4271215040831335 -.643476148606999 .002 .707106781186566 .70710
6781186529 -.3819934420881605 -.897869244393114 -.2188877113375225 31 6 78 0 9 1
7 0 0 +-.2196734816145955 .135983419280694 -.1359834192806944 -.752414908895721
 .465763783946027 -.465763783946029 .526340828916259 0 -.850273680538064 .004957
90649204232 29 7 67 0 10 18 0 -.2170639330018845 .135983419280694 -.140198996681
4468 19 8 1 0 1 15 0 19 V0 16 9 38 0 ?20 0 21 6 0 0 1 18 10 39 0 20 0 22 7 ?1 17
 20 0 23 20 20 10 24 9 0 24 +18 22 36 0 25 10 26 18 ?1 17 25 0 27 25 25 22 28 21
 0 28 +18 26 33 0 29 22 30 31 ?1 29 18 66 0 22 31 7 -.1819294525859645 .19135101
291122 -.124701500149844 29 31 65 0 26 32 18 -.1512420811629155 .173080260793 -.
180091799395023 29 32 64 0 30 33 31 -.1819294525859645 .124701500149844 -.191351
01291122 18 30 30 0 34 26 35 32 ?1 29 33 63 0 35 36 32 -.15282173430419 .1558480
066724935 -.1939611206929625 18 35 27 0 37 30 38 33 ?1 29 36 62 0 38 39 33 -.150
486209141483 .154780554571997 -.194161996241826 18 38 22 0 40 35 41 36 ?1 29 39
 61 0 41 42 36 -.2166178287834825 .1350643436006504 -.1376021051468882 18 41 18
 0 43 38 44 39 ?1 29 42 60 0 44 45 39 -.182080281177579 .188694990917368 -.12385
86759536374 18 44 15 0 46 41 47 42 ?1 29 45 59 0 47 48 42 -.1502198762549105 .17
32820724189635 -.177502991963934 18 47 12 0 49 44 50 45 ?1 29 48 58 0 50 51 45 -
.182080281177579 .1238586759536374 -.188694990917368 18 50 9 0 52 47 53 48 ?1 29
 51 57 0 53 0 48 -.216632116005104 .1545889738650295 -.1152075321952014 18 53 6
 0 54 50 0 51 ?1 17 54 0 55 54 54 53 56 57 0 56 +15 55 23 0 54 58 59 17 56 0 60
 56 56 53 54 57 0 0 -16 57 5 0 ?54 61 0 62 0 0 1 16 61 8 0 ?52 63 57 64 0 0 1 31
 62 68 0 57 0 64 0 +-.183445491410158 .1545889738650295 -.15458897386503 -.64278
7609686542 .541675220419701 -.541675220419701 -.644400477571769 0 .7646881877636
63 .0515 31 64 69 0 61 62 65 0 +-.18420432168425 .1238586759536374 -.18659819983
8462 .635220959134431 -.4271215040831335 .643476148606999 .711656988378967 0 -.7
02527103314441 .00298464083309183 31 65 70 0 63 64 66 0 +-.1502198762549105 .175
392532191449 -.1753925321914485 .51802700937314 -.604833868744105 .6048338687441
04 0 -.707106781186547 -.707106781186549 .00298464083309195 16 63 11 0 ?49 67 61
 65 0 0 1 31 66 71 0 67 65 68 0 +-.18420432168425 .186598199838462 -.12385867595
36374 .635220959134431 -.643476148606999 .427121504083133 .711656988378967 .7025
27103314441 0 .00298464083309183 16 67 14 0 ?46 69 63 66 0 0 1 31 68 72 0 69 66
 70 0 +-.2181887671135895 .1350643436006504 -.135064343600651 .752414908895721 -
.465763783946027 .465763783946029 .526340828916259 0 -.850273680538064 .00298464
083309195 16 69 17 0 ?43 71 67 68 0 0 1 31 70 73 0 71 68 72 0 +-.183672833736429
 .154780554571997 -.1547805545719975 .642787609686542 -.541675220419701 .5416752
20419701 .64440047757177 0 -.764688187763663 .0515 16 71 21 0 ?40 73 69 70 0 0 1
 31 72 74 0 73 70 74 0 +-.1849395429346115 .1558480066724935 -.1558480066724935
 -.642787609686542 .541675220419701 -.541675220419701 .64440047757177 0 -.764688
187763663 .0498413793103447 16 73 26 0 ?37 75 71 72 0 0 1 31 74 75 0 75 72 76 0
 +-.1854577813887555 .124701500149844 -.1878679492248615 -.635220959134431 .4271
215040831335 -.643476148606999 .711656988378967 0 -.702527103314441 .00495790649
20422 16 75 29 0 ?34 77 73 74 0 0 1 31 76 76 0 77 74 17 0 +-.1512420811629155 .1
765860300940115 -.176586030094011 -.51802700937314 .604833868744105 -.6048338687
44104 0 -.707106781186547 -.707106781186549 .00495790649204232 16 77 32 0 ?29 21
 75 76 0 0 1 31 17 77 0 21 76 6 0 +-.1854577813887555 .1878679492248615 -.124701
500149844 -.635220959134431 .643476148606999 -.427121504083133 .711656988378967
 .702527103314441 0 .0049579064920422 16 21 35 0 ?25 9 77 17 0 0 1 17 29 0 78 29
 29 26 79 77 0 79 +15 78 51 0 29 80 81 17 79 0 82 79 79 26 29 77 0 0 -15 82 31 0
 79 83 84 14 83 24 85 ?58 86 87 4 88 +0 0 58 86 19 15 84 28 0 89 83 90 17 89 0 8
4 89 89 30 34 75 0 0 -15 90 25 0 37 83 0 17 37 0 90 37 37 35 91 73 0 91 +17 91 0
 92 91 91 35 37 73 0 0 -15 92 42 0 91 86 93 14 86 40 94 ?83 95 92 4 96 +0 0 83 9
5 19 15 93 41 0 97 86 0 17 97 0 93 97 97 38 40 71 0 0 -17 40 0 59 40 40 38 97 71
 0 97 +15 59 20 0 40 58 0 14 58 19 98 ?99 83 55 4 100 +0 0 99 83 19 81 1 98 94 1
01 58 102 0 103 85 104 14 99 3 103 ?0 58 105 4 106 -0 0 0 58 19 51 100 80 0 58 1
06 88 0 +-.186408406809097 .157085813921713 -.1570858139217135 -.642787609686542
 .541675220419701 -.541675220419701 .0515 -.644400477571769 -902070452368287e-31
 .764688187763663 13 19 2 0 0 0 0 0 0 8 14 14 14 52 107 ?80 0 108 4 5 -0 0 80 0
 19 81 1 107 112 101 14 109 0 110 0 111 14 80 49 110 ?112 14 78 4 16 -0 0 112 14
 19 15 108 54 0 34 14 113 17 34 0 108 34 34 30 89 75 0 89 +15 113 53 0 52 14 0 1
7 52 0 113 52 52 50 114 61 0 114 +17 114 0 115 114 114 50 52 61 0 0 -15 115 7 0
 114 99 60 15 60 4 0 56 99 0 81 1 110 109 101 80 116 0 117 107 118 14 112 46 117
 ?95 80 27 4 119 -0 0 95 80 19 52 16 85 0 80 119 5 0 +-.1497098057088374 .174796
9880670465 -.174796988067046 -.51802700937314 .604833868744105 -.604833868744104
 .002 .707106781186566 .707106781186529 .683498311385003 -.1324361463631436 -.71
7837534174921 52 119 84 0 112 120 16 0 +-.1835788571898505 .1859646069474225 -.1
234381146800254 -.635220959134431 .643476148606999 -.427121504083133 .002 .70710
6781186566 .707106781186529 .5391509245569 .765433098029971 .3513238577006715 52
 120 83 0 95 96 119 0 +-.2174479086708635 .134605733560402 -.1346057335604022 -.
752414908895721 .465763783946027 -.465763783946029 .002 .707106781186566 .707106
781186529 -.526340828916259 -517101676973416e-31 .850273680538064 14 95 43 121 ?
86 112 23 4 120 -0 0 86 112 19 54 96 82 0 86 88 120 0 +-.183672833736429 .154780
554571997 -.1547805545719975 .642787609686542 -.541675220419701 .541675220419701
 .0495 .002 .644400477571769 -1503450753947145e-31 -.764688187763663 53 88 81 0
 83 100 96 0 +0 0 0 .292 612323399573677e-31 0 1 1 0 -612323399573677e-31 81 1 1
21 103 101 95 122 0 94 117 123 15 23 45 0 20 95 124 15 124 44 0 43 95 0 17 43 0
 124 43 43 41 125 69 0 125 +17 125 0 105 125 125 41 43 69 0 0 -15 105 16 0 125 9
9 126 15 126 13 0 127 99 128 17 127 0 126 127 127 44 46 67 0 0 -15 128 10 0 129
 99 115 17 129 0 128 129 129 47 49 63 0 0 -17 49 0 81 49 49 47 129 63 0 129 +15
 81 50 0 49 80 0 17 46 0 130 46 46 44 127 67 0 127 +15 130 47 0 46 112 0 80 1 10
1 131 132 8015 0 0 0 0 3 5 0 0 0 FFFFTFFFFFFFFF2 81 2 122 102 131 95 133 121 134
 135 136 137 81 1 94 100 101 86 134 0 85 121 138 81 1 117 106 101 112 135 0 121
 110 139 83 1 123 0 81 2 135 105 131 112 140 117 122 116 141 142 83 1 139 0 80 2
 131 143 144 8014 0 0 0 0 3 5 0 0 0 FFFFTFFFFFFFFF2 1 81 1 140 104 145 112 0 135
 133 146 147 81 2 116 108 131 80 146 110 135 109 148 149 83 4 141 1 0 .001217782
569991502 .001217782569991502 82 1 142 1 81 1 146 107 145 80 0 116 140 150 151 8
1 2 109 111 131 14 150 107 116 0 152 153 83 4 148 1 0 .001217782569991502 .00121
7782569991502 82 1 149 1 81 1 150 110 145 14 0 109 146 0 154 83 4 152 1 0 .00121
7782569991502 .001217782569991502 82 1 153 1 80 1 145 0 155 8001 0 0 0 0 3 5 0 0
 0 FFFFTFTFFFFFFF2 83 3 154 .811764705882353 .3098039215686275 0 79 15 155 SDL/T
YSA_COLOUR83 3 151 .811764705882353 .3098039215686275 0 81 1 133 101 145 95 0 12
2 156 140 157 83 3 147 .811764705882353 .3098039215686275 0 81 1 156 98 145 86 0
 134 158 133 159 83 3 157 .811764705882353 .3098039215686275 0 81 2 134 99 131 8
6 156 94 160 122 161 162 81 1 158 95 145 83 0 160 163 156 164 83 3 159 .81176470
5882353 .3098039215686275 0 81 2 160 96 131 83 158 85 102 134 165 166 81 1 163 9
2 145 58 0 102 167 158 168 83 3 164 .811764705882353 .3098039215686275 0 81 2 10
2 93 131 58 163 98 169 160 170 171 81 1 167 89 145 99 0 169 0 163 172 83 3 168 .
811764705882353 .3098039215686275 0 81 2 169 90 131 99 167 103 0 102 173 174 83
 3 172 .811764705882353 .3098039215686275 0 81 1 103 91 101 99 169 0 0 98 175 83
 4 173 1 0 .001217782569991502 .001217782569991502 82 1 174 1 83 1 175 0 83 4 17
0 1 0 .001217782569991502 .001217782569991502 82 1 171 1 81 1 85 97 101 83 160 0
 98 94 176 83 4 165 1 0 .001217782569991502 .001217782569991502 82 1 166 1 83 1
 176 0 83 4 161 1 0 .001217782569991502 .001217782569991502 82 1 162 1 79 21 144
 SDL/TYSA_REFLECTIVITY83 1 138 0 83 4 136 1 0 .001217782569991502 .0012177825699
91502 82 1 137 1 79 21 132 SDL/TYSA_TRANSLUCENCY15 27 48 0 25 112 130 83 1 118 0
 83 1 111 0 53 106 79 0 99 0 100 0 +0 0 0 .29 612323399573677e-31 0 1 1 0 -61232
3399573677e-31 83 1 104 0 15 87 37 0 24 83 177 17 24 0 87 24 24 10 20 9 0 0 -15
 177 34 0 28 83 82 17 28 0 177 28 28 22 25 21 0 0 -19 15 55 0 1 0 8 4 S0 74 20 1
3 6 0 0 178 12 150 109 107 2 0 0 0 0 0 0 0 0 0 0 0 0 0 0 81 1 178 87 179 1 0 12
 0 0 180 81 1 12 88 181 1 178 2 0 0 182 80 1 181 101 183 8041 0 0 0 0 3 5 0 0 0
 TTTFFFFFFFFFFF2 83 1 182 0 79 23 183 SDL/TYSA_TRANSLUCENCY_280 1 179 145 184 80
40 0 0 0 0 3 5 0 0 0 TTTFFFFFFFFFFF2 83 3 180 .811764705882353 .3098039215686275
 0 79 17 184 SDL/TYSA_COLOUR_280 1 11 185 186 8017 0 0 0 0 0 0 0 0 0 TTTTTTTTTTT
TTF3 79 13 186 SDL/TYSA_NAME1 0 
