                                                                        S      1
,,,14HINT-207-02-002,22HAutodesk Inventor 2023,7Hunknown,32,38,7,99,15,,G      1
1.,2,2HMM,1,0.08,15H20220807.124559,0.01,10000.,,,11,0,15H16010101.00000G      2
0;                                                                      G      3
     186       1                                                00000000D      1
     186            -167       1       0                               0D      2
     514       2                                                00010000D      3
     514                       2       1                               0D      4
     510       4                                                00010000D      5
     510            -167       1       1                               0D      6
     510       5                                                00010000D      7
     510            -167       1       1                               0D      8
     510       6                                                00010000D      9
     510            -167       1       1                               0D     10
     510       7                                                00010000D     11
     510            -167       1       1                               0D     12
     510       8                                                00010000D     13
     510            -167       1       1                               0D     14
     510       9                                                00010000D     15
     510            -167       1       1                               0D     16
     510      10                                                00010000D     17
     510            -167       1       1                               0D     18
     510      11                                                00010000D     19
     510            -167       1       1                               0D     20
     510      12                                                00010000D     21
     510            -167       1       1                               0D     22
     510      13                                                00010000D     23
     510            -167       1       1                               0D     24
     510      14                                                00010000D     25
     510            -167       1       1                               0D     26
     510      15                                                00010000D     27
     510            -167       1       1                               0D     28
     510      16                                                00010000D     29
     510            -167       1       1                               0D     30
     510      17                                                00010000D     31
     510            -167       1       1                               0D     32
     508      18                                                00010000D     33
     508                       1       1                               0D     34
     508      19                                                00010000D     35
     508                       1       1                               0D     36
     508      20                                                00010000D     37
     508                       2       1                               0D     38
     508      22                                                00010000D     39
     508                       1       1                               0D     40
     508      23                                                00010000D     41
     508                       1       1                               0D     42
     508      24                                                00010000D     43
     508                       2       1                               0D     44
     508      26                                                00010000D     45
     508                       1       1                               0D     46
     508      27                                                00010000D     47
     508                       1       1                               0D     48
     508      28                                                00010000D     49
     508                       1       1                               0D     50
     508      29                                                00010000D     51
     508                       1       1                               0D     52
     508      30                                                00010000D     53
     508                       2       1                               0D     54
     508      32                                                00010000D     55
     508                       2       1                               0D     56
     508      34                                                00010000D     57
     508                       2       1                               0D     58
     508      36                                                00010000D     59
     508                       2       1                               0D     60
     508      38                                                00010000D     61
     508                       1       1                               0D     62
     508      39                                                00010000D     63
     508                       1       1                               0D     64
     508      40                                                00010000D     65
     508                       2       1                               0D     66
     508      42                                                00010000D     67
     508                       2       1                               0D     68
     126      44                                                00010000D     69
     126       0               6       0                               0D     70
     126      50                                                00010000D     71
     126       0               8       0                               0D     72
     126      58                                                00010000D     73
     126       0               8       0                               0D     74
     126      66                                                00010000D     75
     126       0              10       0                               0D     76
     126      76                                                00010000D     77
     126       0               8       0                               0D     78
     126      84                                                00010000D     79
     126       0              10       0                               0D     80
     126      94                                                00010000D     81
     126       0               4       0                               0D     82
     126      98                                                00010000D     83
     126       0               7       0                               0D     84
     126     105                                                00010000D     85
     126       0               8       0                               0D     86
     126     113                                                00010000D     87
     126       0               8       0                               0D     88
     126     121                                                00010000D     89
     126       0              10       0                               0D     90
     126     131                                                00010000D     91
     126       0               6       0                               0D     92
     126     137                                                00010000D     93
     126       0              11       0                               0D     94
     126     148                                                00010000D     95
     126       0               6       0                               0D     96
     126     154                                                00010000D     97
     126       0               8       0                               0D     98
     126     162                                                00010000D     99
     126       0               5       0                               0D    100
     126     167                                                00010000D    101
     126       0               7       0                               0D    102
     126     174                                                00010000D    103
     126       0               4       0                               0D    104
     126     178                                                00010000D    105
     126       0               5       0                               0D    106
     126     183                                                00010000D    107
     126       0               8       0                               0D    108
     126     191                                                00010000D    109
     126       0               3       0                               0D    110
     126     194                                                00010000D    111
     126       0               5       0                               0D    112
     126     199                                                00010000D    113
     126       0               8       0                               0D    114
     126     207                                                00010000D    115
     126       0               3       0                               0D    116
     126     210                                                00010000D    117
     126       0               3       0                               0D    118
     126     213                                                00010000D    119
     126       0               9       0                               0D    120
     126     222                                                00010000D    121
     126       0               5       0                               0D    122
     126     227                                                00010000D    123
     126       0               7       0                               0D    124
     126     234                                                00010000D    125
     126       0               5       0                               0D    126
     126     239                                                00010000D    127
     126       0               7       0                               0D    128
     126     246                                                00010000D    129
     126       0               3       0                               0D    130
     126     249                                                00010000D    131
     126       0               3       0                               0D    132
     128     252                                                00010000D    133
     128       0    -167      16       0                               0D    134
     128     268                                                00010000D    135
     128       0    -167      24       0                               0D    136
     128     292                                                00010000D    137
     128       0    -167      16       0                               0D    138
     128     308                                                00010000D    139
     128       0    -167      31       0                               0D    140
     128     339                                                00010000D    141
     128       0    -167       9       0                               0D    142
     128     348                                                00010000D    143
     128       0    -167      36       0                               0D    144
     128     384                                                00010000D    145
     128       0    -167      16       0                               0D    146
     128     400                                                00010000D    147
     128       0    -167      15       0                               0D    148
     128     415                                                00010000D    149
     128       0    -167      14       0                               0D    150
     128     429                                                00010000D    151
     128       0    -167      14       0                               0D    152
     128     443                                                00010000D    153
     128       0    -167      14       0                               0D    154
     128     457                                                00010000D    155
     128       0    -167       4       0                               0D    156
     128     461                                                00010000D    157
     128       0    -167      14       0                               0D    158
     128     475                                                00010000D    159
     128       0    -167      17       0                               0D    160
     502     492                                                00010000D    161
     502                      10       1                               0D    162
     504     502                                                00010001D    163
     504                       9       1                               0D    164
     406     511                                                00000000D    165
     406                       1      15                               0D    166
     314     512                                                00000200D    167
     314                       1       0                               0D    168
186,3,1,0,0,1,165;                                                     1P      1
514,14,5,1,7,1,9,1,11,1,13,1,15,1,17,1,19,1,21,1,23,1,25,1,27,1,       3P      2
29,1,31,1;                                                             3P      3
510,133,2,1,33,35;                                                     5P      4
510,135,1,1,37;                                                        7P      5
510,137,2,1,39,41;                                                     9P      6
510,139,1,1,43;                                                       11P      7
510,141,2,1,45,47;                                                    13P      8
510,143,1,1,49;                                                       15P      9
510,145,1,1,51;                                                       17P     10
510,147,1,1,53;                                                       19P     11
510,149,1,1,55;                                                       21P     12
510,151,1,1,57;                                                       23P     13
510,153,1,1,59;                                                       25P     14
510,155,2,1,61,63;                                                    27P     15
510,157,1,1,65;                                                       29P     16
510,159,1,1,67;                                                       31P     17
508,2,0,163,1,0,0,0,163,2,0,0;                                        33P     18
508,2,0,163,3,1,0,0,163,4,1,0;                                        35P     19
508,6,0,163,5,0,0,0,163,6,0,0,0,163,7,1,0,0,163,2,1,0,0,163,1,1,      37P     20
0,0,163,7,0,0;                                                        37P     21
508,2,0,163,8,0,0,0,163,9,0,0;                                        39P     22
508,2,0,163,5,1,0,0,163,6,1,0;                                        41P     23
508,6,0,163,10,0,0,0,163,11,0,0,0,163,12,1,0,0,163,9,1,0,0,163,       43P     24
8,1,0,0,163,12,0,0;                                                   43P     25
508,2,0,163,10,1,0,0,163,11,1,0;                                      45P     26
508,1,0,163,13,0,0;                                                   47P     27
508,1,0,163,13,1,0;                                                   49P     28
508,2,0,163,14,0,0,0,163,15,0,0;                                      51P     29
508,6,0,163,16,0,0,0,163,17,0,0,0,163,18,1,0,0,163,15,1,0,0,163,      53P     30
14,1,0,0,163,18,0,0;                                                  53P     31
508,6,0,163,19,0,0,0,163,20,0,0,0,163,21,1,0,0,163,17,1,0,0,163,      55P     32
16,1,0,0,163,21,0,0;                                                  55P     33
508,6,0,163,22,0,0,0,163,23,0,0,0,163,24,1,0,0,163,20,1,0,0,163,      57P     34
19,1,0,0,163,24,0,0;                                                  57P     35
508,5,0,163,22,1,0,0,163,23,1,0,0,163,25,1,0,0,163,26,0,0,0,163,      59P     36
25,0,0;                                                               59P     37
508,2,0,163,27,0,0,0,163,28,0,0;                                      61P     38
508,1,0,163,26,1,0;                                                   63P     39
508,6,0,163,29,0,0,0,163,30,0,0,0,163,31,1,0,0,163,28,1,0,0,163,      65P     40
27,1,0,0,163,31,0,0;                                                  65P     41
508,6,0,163,3,0,0,0,163,4,0,0,0,163,32,1,0,0,163,30,1,0,0,163,        67P     42
29,1,0,0,163,32,0,0;                                                  67P     43
126,4,2,0,0,0,0,0.,0.,0.,1.5707963267949,1.5707963267949,             69P     44
3.14159265358979,3.14159265358979,3.14159265358979,1.,                69P     45
0.707106781186548,1.,0.707106781186548,1.,287.499565217063,0.,        69P     46
38.,287.499565217063,38.,38.,287.499565217063,38.,                    69P     47
2.32682891837997D-15,287.499565217063,38.,-38.,287.499565217063,      69P     48
4.65365783675994D-15,-38.,0.,3.14159265358979,0.,0.,0.;               69P     49
126,4,2,0,0,0,0,3.14159265358979,3.14159265358979,                    71P     50
3.14159265358979,4.71238898038469,4.71238898038469,                   71P     51
6.28318530717959,6.28318530717959,6.28318530717959,1.,                71P     52
0.707106781186548,1.,0.707106781186548,1.,287.499565217063,           71P     53
4.65365783675994D-15,-38.,287.499565217063,-38.,-38.,                 71P     54
287.499565217063,-38.,-6.98048675513991D-15,287.499565217063,         71P     55
-38.,38.,287.499565217063,-9.30731567351988D-15,38.,                  71P     56
3.14159265358979,6.28318530717959,0.,0.,0.;                           71P     57
126,4,2,0,0,0,0,0.,0.,0.,1.5707963267949,1.5707963267949,             73P     58
3.14159265358979,3.14159265358979,3.14159265358979,1.,                73P     59
0.707106781186548,1.,0.707106781186548,1.,289.050367092866,0.,        73P     60
23.4496329071339,289.050367092866,23.4496329071339,                   73P     61
23.4496329071339,289.050367092866,23.4496329071339,                   73P     62
1.4358758940451D-15,289.050367092866,23.4496329071339,                73P     63
-23.4496329071339,289.050367092866,2.8717517880902D-15,               73P     64
-23.4496329071339,0.,3.14159265358979,0.,0.,0.;                       73P     65
126,4,2,0,0,0,0,3.14159265358979,3.14159265358979,                    75P     66
3.14159265358979,4.71238898038469,4.71238898038469,                   75P     67
6.28318530717959,6.28318530717959,6.28318530717959,1.,                75P     68
0.707106781186548,1.,0.707106781186547,1.,289.050367092866,           75P     69
2.8717517880902D-15,-23.4496329071339,289.050367092866,               75P     70
-23.4496329071339,-23.4496329071339,289.050367092866,                 75P     71
-23.4496329071339,-4.3076276821353D-15,289.050367092866,              75P     72
-23.4496329071339,23.4496329071339,289.050367092866,                  75P     73
-5.7435035761804D-15,23.4496329071339,3.14159265358979,               75P     74
6.28318530717959,0.,0.,0.;                                            75P     75
126,4,2,0,0,0,0,0.,0.,0.,1.5707963267949,1.5707963267949,             77P     76
3.14159265358979,3.14159265358979,3.14159265358979,1.,                77P     77
0.707106781186548,1.,0.707106781186548,1.,285.482048472404,0.,        77P     78
37.9999999999999,285.482048472404,37.9999999999999,                   77P     79
37.9999999999999,285.482048472404,37.9999999999999,                   77P     80
2.32682891837996D-15,285.482048472404,37.9999999999999,               77P     81
-37.9999999999999,285.482048472404,4.65365783675993D-15,              77P     82
-37.9999999999999,0.,3.14159265358979,0.,0.,0.;                       77P     83
126,4,2,0,0,0,0,3.14159265358979,3.14159265358979,                    79P     84
3.14159265358979,4.71238898038469,4.71238898038469,                   79P     85
6.28318530717959,6.28318530717959,6.28318530717959,1.,                79P     86
0.707106781186548,1.,0.707106781186548,1.,285.482048472404,           79P     87
4.65365783675993D-15,-37.9999999999999,285.482048472404,              79P     88
-37.9999999999999,-37.9999999999999,285.482048472404,                 79P     89
-37.9999999999999,-6.98048675513989D-15,285.482048472404,             79P     90
-37.9999999999999,37.9999999999999,285.482048472404,                  79P     91
-9.30731567351986D-15,37.9999999999999,3.14159265358979,              79P     92
6.28318530717959,0.,0.,0.;                                            79P     93
126,1,1,0,0,1,0,0.280386693592872,0.280386693592872,                  81P     94
0.333479239504942,0.333479239504942,1.,1.,285.482048472404,0.,        81P     95
-37.9999999999999,287.499565217063,0.,-37.9999999999999,              81P     96
0.280386693592872,0.333479239504942,0.,0.,0.;                         81P     97
126,4,2,0,0,0,0,0.,0.,0.,1.5707963267949,1.5707963267949,             83P     98
3.14159265358979,3.14159265358979,3.14159265358979,1.,                83P     99
0.707106781186548,1.,0.707106781186548,1.,284.541297529902,0.,        83P    100
44.5,284.541297529902,44.5,44.5,284.541297529902,44.5,                83P    101
2.72483912810286D-15,284.541297529902,44.5,-44.5,                     83P    102
284.541297529902,5.44967825620572D-15,-44.5,0.,3.14159265358979,      83P    103
0.,0.,0.;                                                             83P    104
126,4,2,0,0,0,0,3.14159265358979,3.14159265358979,                    85P    105
3.14159265358979,4.71238898038469,4.71238898038469,                   85P    106
6.28318530717959,6.28318530717959,6.28318530717959,1.,                85P    107
0.707106781186548,1.,0.707106781186547,1.,284.541297529902,           85P    108
5.44967825620572D-15,-44.5,284.541297529902,-44.5,-44.5,              85P    109
284.541297529902,-44.5,-8.17451738430858D-15,284.541297529902,        85P    110
-44.5,44.5,284.541297529902,-1.08993565124114D-14,44.5,               85P    111
3.14159265358979,6.28318530717959,0.,0.,0.;                           85P    112
126,4,2,0,0,0,0,0.,0.,0.,1.5707963267949,1.5707963267949,             87P    113
3.14159265358979,3.14159265358979,3.14159265358979,1.,                87P    114
0.707106781186548,1.,0.707106781186548,1.,282.220598900771,0.,        87P    115
41.5779203214945,282.220598900771,41.5779203214945,                   87P    116
41.5779203214945,282.220598900771,41.5779203214945,                   87P    117
2.5459133518461D-15,282.220598900771,41.5779203214945,                87P    118
-41.5779203214945,282.220598900771,5.09182670369219D-15,              87P    119
-41.5779203214945,0.,3.14159265358979,0.,0.,0.;                       87P    120
126,4,2,0,0,0,0,3.14159265358979,3.14159265358979,                    89P    121
3.14159265358979,4.71238898038469,4.71238898038469,                   89P    122
6.28318530717959,6.28318530717959,6.28318530717959,1.,                89P    123
0.707106781186548,1.,0.707106781186548,1.,282.220598900771,           89P    124
5.09182670369219D-15,-41.5779203214945,282.220598900771,              89P    125
-41.5779203214945,-41.5779203214945,282.220598900771,                 89P    126
-41.5779203214945,-7.63774005553829D-15,282.220598900771,             89P    127
-41.5779203214945,41.5779203214945,282.220598900771,                  89P    128
-1.01836534073844D-14,41.5779203214945,3.14159265358979,              89P    129
6.28318530717959,0.,0.,0.;                                            89P    130
126,2,2,0,0,0,0,-1.5707963267949,-1.5707963267949,                    91P    131
-1.5707963267949,-0.228414808742306,-0.228414808742306,               91P    132
-0.228414808742306,1.,0.783081665693274,1.,282.220598900771,0.,       91P    133
-41.5779203214945,282.220598900771,0.,-43.9605028152587,              91P    134
284.541297529902,0.,-44.5,-1.5707963267949,-0.228414808742306,        91P    135
0.,0.,0.;                                                             91P    136
126,8,2,0,1,0,0,0.,0.,0.,1.5707963267949,1.5707963267949,             93P    137
3.14159265358979,3.14159265358979,4.71238898038469,                   93P    138
4.71238898038469,6.28318530717959,6.28318530717959,                   93P    139
6.28318530717959,1.,0.707106781186548,1.,0.707106781186548,1.,        93P    140
0.707106781186548,1.,0.707106781186547,1.,282.220598900771,0.,        93P    141
24.,282.220598900771,24.,24.,282.220598900771,24.,                    93P    142
1.46957615897682D-15,282.220598900771,24.,-24.,282.220598900771,      93P    143
2.93915231795365D-15,-24.,282.220598900771,-24.,-24.,                 93P    144
282.220598900771,-24.,-4.40872847693047D-15,282.220598900771,         93P    145
-24.,24.,282.220598900771,-5.8783046359073D-15,24.,0.,                93P    146
6.28318530717959,0.,0.,0.;                                            93P    147
126,4,2,0,0,0,0,0.,0.,0.,1.5707963267949,1.5707963267949,             95P    148
3.14159265358979,3.14159265358979,3.14159265358979,1.,                95P    149
0.707106781186548,1.,0.707106781186548,1.,279.798308872449,0.,        95P    150
14.,279.798308872449,14.,14.,279.798308872449,14.,                    95P    151
8.57252759403147D-16,279.798308872449,14.,-14.,279.798308872449,      95P    152
1.71450551880629D-15,-14.,0.,3.14159265358979,0.,0.,0.;               95P    153
126,4,2,0,0,0,0,3.14159265358979,3.14159265358979,                    97P    154
3.14159265358979,4.71238898038469,4.71238898038469,                   97P    155
6.28318530717959,6.28318530717959,6.28318530717959,1.,                97P    156
0.707106781186548,1.,0.707106781186547,1.,279.798308872449,           97P    157
1.71450551880629D-15,-14.,279.798308872449,-14.,-14.,                 97P    158
279.798308872449,-14.,-2.57175827820944D-15,279.798308872449,         97P    159
-14.,14.,279.798308872449,-3.42901103761259D-15,14.,                  97P    160
3.14159265358979,6.28318530717959,0.,0.,0.;                           97P    161
126,4,2,0,0,0,0,0.,0.,0.,1.5707963267949,1.5707963267949,             99P    162
3.14159265358979,3.14159265358979,3.14159265358979,1.,                99P    163
0.707106781186548,1.,0.707106781186548,1.,286.,0.,14.,286.,14.,       99P    164
14.,286.,14.,8.57252759403147D-16,286.,14.,-14.,286.,                 99P    165
1.71450551880629D-15,-14.,0.,3.14159265358979,0.,0.,0.;               99P    166
126,4,2,0,0,0,0,3.14159265358979,3.14159265358979,                   101P    167
3.14159265358979,4.71238898038469,4.71238898038469,                  101P    168
6.28318530717959,6.28318530717959,6.28318530717959,1.,               101P    169
0.707106781186548,1.,0.707106781186547,1.,286.,                      101P    170
1.71450551880629D-15,-14.,286.,-14.,-14.,286.,-14.,                  101P    171
-2.57175827820944D-15,286.,-14.,14.,286.,-3.42901103761259D-15,      101P    172
14.,3.14159265358979,6.28318530717959,0.,0.,0.;                      101P    173
126,1,1,0,0,1,0,-0.798046134580372,-0.798046134580372,               103P    174
-0.355068196898186,-0.355068196898186,1.,1.,286.,0.,-14.,            103P    175
279.798308872449,0.,-14.,-0.798046134580372,-0.355068196898186,      103P    176
0.,0.,0.;                                                            103P    177
126,4,2,0,0,0,0,0.,0.,0.,1.5707963267949,1.5707963267949,            105P    178
3.14159265358979,3.14159265358979,3.14159265358979,1.,               105P    179
0.707106781186548,1.,0.707106781186548,1.,287.5,0.,12.5,287.5,       105P    180
12.5,12.5,287.5,12.5,7.65404249467096D-16,287.5,12.5,-12.5,          105P    181
287.5,1.53080849893419D-15,-12.5,0.,3.14159265358979,0.,0.,0.;       105P    182
126,4,2,0,0,0,0,3.14159265358979,3.14159265358979,                   107P    183
3.14159265358979,4.71238898038469,4.71238898038469,                  107P    184
6.28318530717959,6.28318530717959,6.28318530717959,1.,               107P    185
0.707106781186547,1.,0.707106781186547,1.,287.5,                     107P    186
1.53080849893419D-15,-12.5,287.5,-12.5,-12.5,287.5,-12.5,            107P    187
-2.29621274840129D-15,287.5,-12.5,12.5,287.5,                        107P    188
-3.06161699786838D-15,12.5,3.14159265358979,6.28318530717959,0.,     107P    189
0.,0.;                                                               107P    190
126,1,1,0,0,1,0,-4.64885743210286D-17,-4.64885743210286D-17,         109P    191
0.169705627484769,0.169705627484769,1.,1.,287.5,0.,-12.5,286.,       109P    192
0.,-14.,-4.64885743210286D-17,0.169705627484769,0.,0.,0.;            109P    193
126,4,2,0,0,0,0,0.,0.,0.,1.5707963267949,1.5707963267949,            111P    194
3.14159265358979,3.14159265358979,3.14159265358979,1.,               111P    195
0.707106781186548,1.,0.707106781186548,1.,298.5,0.,12.5,298.5,       111P    196
12.5,12.5,298.5,12.5,7.65404249467096D-16,298.5,12.5,-12.5,          111P    197
298.5,1.53080849893419D-15,-12.5,0.,3.14159265358979,0.,0.,0.;       111P    198
126,4,2,0,0,0,0,3.14159265358979,3.14159265358979,                   113P    199
3.14159265358979,4.71238898038469,4.71238898038469,                  113P    200
6.28318530717959,6.28318530717959,6.28318530717959,1.,               113P    201
0.707106781186548,1.,0.707106781186548,1.,298.5,                     113P    202
1.53080849893419D-15,-12.5,298.5,-12.5,-12.5,298.5,-12.5,            113P    203
-2.29621274840129D-15,298.5,-12.5,12.5,298.5,                        113P    204
-3.06161699786838D-15,12.5,3.14159265358979,6.28318530717959,0.,     113P    205
0.,0.;                                                               113P    206
126,1,1,0,0,1,0,-1.89381167073002,-1.89381167073002,                 115P    207
-1.01381167073001,-1.01381167073001,1.,1.,298.5,0.,-12.5,287.5,      115P    208
0.,-12.5,-1.89381167073002,-1.01381167073001,0.,0.,0.;               115P    209
126,1,1,0,0,1,0,-0.151522881682833,-0.151522881682833,               117P    210
8.32667268468867D-17,8.32667268468867D-17,1.,1.,298.5,0.,12.5,       117P    211
300.,0.,14.,-0.151522881682833,8.32667268468867D-17,0.,0.,0.;        117P    212
126,8,2,0,1,0,0,0.,0.,0.,1.5707963267949,1.5707963267949,            119P    213
3.14159265358979,3.14159265358979,4.71238898038469,                  119P    214
4.71238898038469,6.28318530717959,6.28318530717959,                  119P    215
6.28318530717959,1.,0.707106781186548,1.,0.707106781186548,1.,       119P    216
0.707106781186548,1.,0.707106781186547,1.,300.,0.,14.,300.,14.,      119P    217
14.,300.,14.,8.57252759403147D-16,300.,14.,-14.,300.,                119P    218
1.71450551880629D-15,-14.,300.,-14.,-14.,300.,-14.,                  119P    219
-2.57175827820944D-15,300.,-14.,14.,300.,-3.42901103761259D-15,      119P    220
14.,0.,6.28318530717959,0.,0.,0.;                                    119P    221
126,4,2,0,0,0,0,0.,0.,0.,1.5707963267949,1.5707963267949,            121P    222
3.14159265358979,3.14159265358979,3.14159265358979,1.,               121P    223
0.707106781186548,1.,0.707106781186547,1.,300.,0.,17.5,300.,         121P    224
17.5,17.5,300.,17.5,1.07156594925393D-15,300.,17.5,-17.5,300.,       121P    225
2.14313189850787D-15,-17.5,0.,3.14159265358979,0.,0.,0.;             121P    226
126,4,2,0,0,0,0,3.14159265358979,3.14159265358979,                   123P    227
3.14159265358979,4.71238898038469,4.71238898038469,                  123P    228
6.28318530717959,6.28318530717959,6.28318530717959,1.,               123P    229
0.707106781186548,1.,0.707106781186547,1.,300.,                      123P    230
2.14313189850787D-15,-17.5,300.,-17.5,-17.5,300.,-17.5,              123P    231
-3.2146978477618D-15,300.,-17.5,17.5,300.,-4.28626379701574D-15,     123P    232
17.5,3.14159265358979,6.28318530717959,0.,0.,0.;                     123P    233
126,4,2,0,0,0,0,0.,0.,0.,1.5707963267949,1.5707963267949,            125P    234
3.14159265358979,3.14159265358979,3.14159265358979,1.,               125P    235
0.707106781186548,1.,0.707106781186547,1.,295.,0.,17.5,295.,         125P    236
17.5,17.5,295.,17.5,1.07156594925393D-15,295.,17.5,-17.5,295.,       125P    237
2.14313189850787D-15,-17.5,0.,3.14159265358979,0.,0.,0.;             125P    238
126,4,2,0,0,0,0,3.14159265358979,3.14159265358979,                   127P    239
3.14159265358979,4.71238898038469,4.71238898038469,                  127P    240
6.28318530717959,6.28318530717959,6.28318530717959,1.,               127P    241
0.707106781186548,1.,0.707106781186547,1.,295.,                      127P    242
2.14313189850787D-15,-17.5,295.,-17.5,-17.5,295.,-17.5,              127P    243
-3.2146978477618D-15,295.,-17.5,17.5,295.,-4.28626379701574D-15,     127P    244
17.5,3.14159265358979,6.28318530717959,0.,0.,0.;                     127P    245
126,1,1,0,0,1,0,1.15272262195001,1.15272262195001,                   129P    246
1.4384369076643,1.4384369076643,1.,1.,295.,0.,-17.5,300.,0.,         129P    247
-17.5,1.15272262195001,1.4384369076643,0.,0.,0.;                     129P    248
126,1,1,0,0,1,0,0.,0.,0.358813785347159,0.358813785347159,1.,1.,     131P    249
289.050367092866,0.,-23.4496329071339,295.,0.,-17.5,0.,              131P    250
0.358813785347159,0.,0.,0.;                                          131P    251
128,2,2,2,2,0,0,0,0,0,-0.131979247393394,-0.131979247393394,         133P    252
-0.131979247393394,0.131412387782384,0.131412387782384,              133P    253
0.131412387782384,-0.131663924489269,-0.131663924489269,             133P    254
-0.131663924489269,0.13222175053783,0.13222175053783,                133P    255
0.13222175053783,1.,0.99134063219595,1.,0.991308164415013,           133P    256
0.982724062412185,0.991308164415013,1.,0.99134063219595,1.,          133P    257
285.011204657966,-37.7440487946816,38.,290.001213349779,             133P    258
-38.4048759076918,-0.0829126133103264,284.989804640933,              133P    259
-37.7412147893025,-38.1629657777101,290.020363348938,                133P    260
0.0808904587420615,38.,295.098072962674,0.0823066981235696,          133P    261
-0.0829126133103264,289.998587220091,0.0808843850959502,             133P    262
-38.1629657777101,284.990105702009,37.9030295881203,38.,             133P    263
289.979744990894,38.5666401550022,-0.0829126133103264,               133P    264
284.968707269188,37.9001836456958,-38.1629657777101,                 133P    265
-0.131979247393394,0.131412387782384,-0.131663924489269,             133P    266
0.13222175053783;                                                    133P    267
128,1,8,1,2,0,1,0,0,1,-0.333479239504942,-0.333479239504942,         135P    268
-0.280386693592872,-0.280386693592872,-3.14159265358979,             135P    269
-3.14159265358979,-3.14159265358979,-1.5707963267949,                135P    270
-1.5707963267949,0.,0.,1.5707963267949,1.5707963267949,              135P    271
3.14159265358979,3.14159265358979,3.14159265358979,1.,1.,            135P    272
0.707106781186548,0.707106781186548,1.,1.,0.707106781186548,         135P    273
0.707106781186548,1.,1.,0.707106781186548,0.707106781186548,1.,      135P    274
1.,0.707106781186548,0.707106781186548,1.,1.,285.482048472404,       135P    275
0.,-37.9999999999999,287.499565217063,0.,-37.9999999999999,          135P    276
285.482048472404,-37.9999999999999,-37.9999999999999,                135P    277
287.499565217063,-37.9999999999999,-37.9999999999999,                135P    278
285.482048472404,-37.9999999999999,0.,287.499565217063,              135P    279
-37.9999999999999,0.,285.482048472404,-37.9999999999999,             135P    280
37.9999999999999,287.499565217063,-37.9999999999999,                 135P    281
37.9999999999999,285.482048472404,0.,37.9999999999999,               135P    282
287.499565217063,0.,37.9999999999999,285.482048472404,               135P    283
37.9999999999999,37.9999999999999,287.499565217063,                  135P    284
37.9999999999999,37.9999999999999,285.482048472404,                  135P    285
37.9999999999999,0.,287.499565217063,37.9999999999999,0.,            135P    286
285.482048472404,37.9999999999999,-37.9999999999999,                 135P    287
287.499565217063,37.9999999999999,-37.9999999999999,                 135P    288
285.482048472404,0.,-37.9999999999999,287.499565217063,0.,           135P    289
-37.9999999999999,-0.333479239504942,-0.280386693592872,             135P    290
-3.14159265358979,3.14159265358979;                                  135P    291
128,2,2,2,2,0,0,0,0,0,-0.157187309712064,-0.157187309712064,         137P    292
-0.157187309712064,0.155135414425263,0.155135414425263,              137P    293
0.155135414425263,-0.156681636804961,-0.156681636804961,             137P    294
-0.156681636804961,0.157037671006775,0.157037671006775,              137P    295
0.157037671006775,1.,0.987831573327007,1.,0.987722728959186,         137P    296
0.975703697358598,0.987722728959186,1.,0.987831573327007,1.,         137P    297
281.055815347808,-44.4002101253883,44.5,287.976218303081,            137P    298
-45.4934710671205,-0.299112599195137,280.965032901704,               137P    299
-44.3858686335471,-45.083754859038,288.078106009738,                 137P    300
0.0512828298082819,44.5,295.17141796883,0.0525455606524054,          137P    301
-0.299112599195137,287.985055328327,0.0512662651955647,              137P    302
-45.083754859038,281.039989541403,44.5002727920635,44.5,             137P    303
287.96000281978,45.595997564595,-0.299112599195137,                  137P    304
280.949212207114,44.4858989794763,-45.083754859038,                  137P    305
-0.157187309712064,0.155135414425263,-0.156681636804961,             137P    306
0.157037671006775;                                                   137P    307
128,2,8,2,2,0,1,0,0,1,0.228414808742306,0.228414808742306,           139P    308
0.228414808742306,1.5707963267949,1.5707963267949,                   139P    309
1.5707963267949,-3.14159265358979,-3.14159265358979,                 139P    310
-3.14159265358979,-1.5707963267949,-1.5707963267949,0.,0.,           139P    311
1.5707963267949,1.5707963267949,3.14159265358979,                    139P    312
3.14159265358979,3.14159265358979,1.,0.783081665693274,1.,           139P    313
0.707106781186548,0.553722356034571,0.707106781186548,1.,            139P    314
0.783081665693274,1.,0.707106781186548,0.553722356034571,            139P    315
0.707106781186548,1.,0.783081665693274,1.,0.707106781186548,         139P    316
0.553722356034571,0.707106781186548,1.,0.783081665693274,1.,         139P    317
0.707106781186548,0.553722356034571,0.707106781186548,1.,            139P    318
0.783081665693274,1.,282.220598900771,0.,-41.5779203214945,          139P    319
282.220598900771,0.,-43.9605028152587,284.541297529902,0.,-44.5,     139P    320
282.220598900771,-41.5779203214945,-41.5779203214945,                139P    321
282.220598900771,-43.9605028152587,-43.9605028152587,                139P    322
284.541297529902,-44.5,-44.5,282.220598900771,-41.5779203214945,     139P    323
0.,282.220598900771,-43.9605028152587,0.,284.541297529902,-44.5,     139P    324
0.,282.220598900771,-41.5779203214945,41.5779203214945,              139P    325
282.220598900771,-43.9605028152587,43.9605028152587,                 139P    326
284.541297529902,-44.5,44.5,282.220598900771,0.,                     139P    327
41.5779203214945,282.220598900771,0.,43.9605028152587,               139P    328
284.541297529902,0.,44.5,282.220598900771,41.5779203214945,          139P    329
41.5779203214945,282.220598900771,43.9605028152587,                  139P    330
43.9605028152587,284.541297529902,44.5,44.5,282.220598900771,        139P    331
41.5779203214945,0.,282.220598900771,43.9605028152587,0.,            139P    332
284.541297529902,44.5,0.,282.220598900771,41.5779203214945,          139P    333
-41.5779203214945,282.220598900771,43.9605028152587,                 139P    334
-43.9605028152587,284.541297529902,44.5,-44.5,282.220598900771,      139P    335
0.,-41.5779203214945,282.220598900771,0.,-43.9605028152587,          139P    336
284.541297529902,0.,-44.5,0.228414808742306,1.5707963267949,         139P    337
-3.14159265358979,3.14159265358979;                                  139P    338
128,1,1,1,1,0,0,1,0,0,-4.15879203214945,-4.15879203214945,           141P    339
4.15879203214945,4.15879203214945,-1.75879203214945,                 141P    340
-1.75879203214945,6.55879203214945,6.55879203214945,1.,1.,1.,1.,     141P    341
282.220598900771,-41.5879203214945,-41.5879203214945,                141P    342
282.220598900771,-41.5879203214945,41.5879203214945,                 141P    343
282.220598900771,41.5879203214945,-41.5879203214945,                 141P    344
282.220598900771,41.5879203214945,41.5879203214945,                  141P    345
-4.15879203214945,4.15879203214945,-1.75879203214945,                141P    346
6.55879203214945;                                                    141P    347
128,4,4,2,2,0,0,0,0,0,-1.02397127900059,-1.02397127900059,           143P    348
-1.02397127900059,-0.00298159880768578,-0.00298159880768578,         143P    349
1.01800808138522,1.01800808138522,1.01800808138522,                  143P    350
2.11794723287677,2.11794723287677,2.11794723287677,                  143P    351
3.14160831930698,3.14160831930698,4.16526940573718,                  143P    352
4.16526940573718,4.16526940573718,1.,0.872502831126651,1.,           143P    353
0.872502831126644,1.,0.871849416363436,0.760691084093216,            143P    354
0.871849416363436,0.76069108409321,0.871849416363436,1.,             143P    355
0.872502831126651,1.,0.872502831126644,1.,0.871849416363436,         143P    356
0.760691084093216,0.871849416363436,0.76069108409321,                143P    357
0.871849416363436,1.,0.872502831126651,1.,0.872502831126644,1.,      143P    358
289.324048085488,12.6451206479893,24.,282.33169800345,               143P    359
24.1231938352111,15.708090299483,282.356194816789,                   143P    360
24.0829818588292,-0.0840809617976121,282.380691630127,               143P    361
24.0427698824474,-15.8762522230782,289.398641978613,                 143P    362
12.5226733799663,-24.0878683686513,282.220468596578,                 143P    363
8.31767702466958,24.,268.780144822971,15.8676963795274,              143P    364
15.708090299483,268.827231295878,15.8412458424879,                   143P    365
-0.0840809617976121,268.874317768784,15.8147953054485,               143P    366
-15.8762522230782,282.36384901423,8.23713395542412,                  143P    367
-24.0878683686513,282.220598902588,-0.000231958439573764,24.,        143P    368
268.780393408747,-0.000442508897725762,15.708090299483,              143P    369
268.827479467276,-0.000441771260849581,-0.0840809617976121,          143P    370
268.874565525804,-0.000441033623973399,-15.8762522230782,            143P    371
282.36397805844,-0.00022971230226821,-24.0878683686513,              143P    372
282.220729208598,-8.31814094154873,24.,268.780641994523,             143P    373
-15.8685813973228,15.708090299483,268.827727638674,                  143P    374
-15.8421293850096,-0.0840809617976121,268.874813282824,              143P    375
-15.8156773726964,-15.8762522230782,282.364107102649,                143P    376
-8.23759338002865,-24.0878683686513,289.324444279037,                143P    377
-12.6453619974099,24.,282.332453824927,-24.1236542593556,            143P    378
15.708090299483,282.356949378355,-24.0834415154731,                  143P    379
-0.0840809617976121,282.381444931782,-24.0432287715907,              143P    380
-15.8762522230782,289.399034335676,-12.5229123923134,                143P    381
-24.0878683686513,-1.02397127900059,1.01800808138522,                143P    382
2.11794723287677,4.16526940573718;                                   143P    383
128,2,2,2,2,0,0,0,0,0,-0.683375885363316,-0.683375885363316,         145P    384
-0.683375885363316,0.68236552486147,0.68236552486147,                145P    385
0.68236552486147,-3.83591569509582,-3.83591569509582,                145P    386
-3.83591569509582,-2.44773024878017,-2.44773024878017,               145P    387
-2.44773024878017,1.,0.775764437915594,1.,0.768634392479545,         145P    388
0.596279227444489,0.768634392479545,1.,0.775764437915594,1.,         145P    389
283.797933173951,11.015212554574,-14.017400398039,                   145P    390
275.035613736779,18.3109824522316,-0.0144567094665915,               145P    391
283.787056132444,11.0242691054761,14.,274.630631933396,              145P    392
0.00515837614934205,-14.017400398039,259.796480463729,               145P    393
0.00857495347317561,-0.0144567094665915,274.612217667354,            145P    394
0.00516261729275506,14.,283.792860566559,-11.0091174293938,          145P    395
-14.017400398039,275.027181359784,-18.300850307285,                  145P    396
-0.0144567094665915,283.781979354427,-11.0181689689708,14.,          145P    397
-0.683375885363316,0.68236552486147,-3.83591569509582,               145P    398
-2.44773024878017;                                                   145P    399
128,1,8,1,2,0,1,0,0,1,-0.798046134580372,-0.798046134580372,         147P    400
-0.355068196898186,-0.355068196898186,-3.14159265358979,             147P    401
-3.14159265358979,-3.14159265358979,-1.5707963267949,                147P    402
-1.5707963267949,0.,0.,1.5707963267949,1.5707963267949,              147P    403
3.14159265358979,3.14159265358979,3.14159265358979,1.,1.,            147P    404
0.707106781186548,0.707106781186548,1.,1.,0.707106781186548,         147P    405
0.707106781186548,1.,1.,0.707106781186548,0.707106781186548,1.,      147P    406
1.,0.707106781186548,0.707106781186548,1.,1.,286.,0.,-14.,           147P    407
279.798308872449,0.,-14.,286.,-14.,-14.,279.798308872449,-14.,       147P    408
-14.,286.,-14.,0.,279.798308872449,-14.,0.,286.,-14.,14.,            147P    409
279.798308872449,-14.,14.,286.,0.,14.,279.798308872449,0.,14.,       147P    410
286.,14.,14.,279.798308872449,14.,14.,286.,14.,0.,                   147P    411
279.798308872449,14.,0.,286.,14.,-14.,279.798308872449,14.,-14.,     147P    412
286.,0.,-14.,279.798308872449,0.,-14.,-0.798046134580372,            147P    413
-0.355068196898186,-3.14159265358979,3.14159265358979;               147P    414
128,1,8,1,2,0,1,0,0,1,-4.64885743210286D-17,                         149P    415
-4.64885743210286D-17,0.169705627484769,0.169705627484769,           149P    416
-3.14159265358979,-3.14159265358979,-3.14159265358979,               149P    417
-1.5707963267949,-1.5707963267949,0.,0.,1.5707963267949,             149P    418
1.5707963267949,3.14159265358979,3.14159265358979,                   149P    419
3.14159265358979,1.,1.,0.707106781186548,0.707106781186548,1.,       149P    420
1.,0.707106781186548,0.707106781186548,1.,1.,0.707106781186548,      149P    421
0.707106781186548,1.,1.,0.707106781186548,0.707106781186548,1.,      149P    422
1.,287.5,0.,-12.5,286.,0.,-14.,287.5,-12.5,-12.5,286.,-14.,-14.,     149P    423
287.5,-12.5,0.,286.,-14.,0.,287.5,-12.5,12.5,286.,-14.,14.,          149P    424
287.5,0.,12.5,286.,0.,14.,287.5,12.5,12.5,286.,14.,14.,287.5,        149P    425
12.5,0.,286.,14.,0.,287.5,12.5,-12.5,286.,14.,-14.,287.5,0.,         149P    426
-12.5,286.,0.,-14.,-4.64885743210286D-17,0.169705627484769,          149P    427
-3.14159265358979,3.14159265358979;                                  149P    428
128,1,8,1,2,0,1,0,0,1,-1.89381167073002,-1.89381167073002,           151P    429
-1.01381167073001,-1.01381167073001,-3.14159265358979,               151P    430
-3.14159265358979,-3.14159265358979,-1.5707963267949,                151P    431
-1.5707963267949,0.,0.,1.5707963267949,1.5707963267949,              151P    432
3.14159265358979,3.14159265358979,3.14159265358979,1.,1.,            151P    433
0.707106781186548,0.707106781186548,1.,1.,0.707106781186548,         151P    434
0.707106781186548,1.,1.,0.707106781186548,0.707106781186548,1.,      151P    435
1.,0.707106781186548,0.707106781186548,1.,1.,298.5,0.,-12.5,         151P    436
287.5,0.,-12.5,298.5,-12.5,-12.5,287.5,-12.5,-12.5,298.5,-12.5,      151P    437
0.,287.5,-12.5,0.,298.5,-12.5,12.5,287.5,-12.5,12.5,298.5,0.,        151P    438
12.5,287.5,0.,12.5,298.5,12.5,12.5,287.5,12.5,12.5,298.5,12.5,       151P    439
0.,287.5,12.5,0.,298.5,12.5,-12.5,287.5,12.5,-12.5,298.5,0.,         151P    440
-12.5,287.5,0.,-12.5,-1.89381167073002,-1.01381167073001,            151P    441
-3.14159265358979,3.14159265358979;                                  151P    442
128,1,8,1,2,0,1,0,0,1,-0.151522881682833,-0.151522881682833,         153P    443
8.32667268468867D-17,8.32667268468867D-17,-3.14159265358979,         153P    444
-3.14159265358979,-3.14159265358979,-1.5707963267949,                153P    445
-1.5707963267949,0.,0.,1.5707963267949,1.5707963267949,              153P    446
3.14159265358979,3.14159265358979,3.14159265358979,1.,1.,            153P    447
0.707106781186548,0.707106781186548,1.,1.,0.707106781186548,         153P    448
0.707106781186548,1.,1.,0.707106781186548,0.707106781186548,1.,      153P    449
1.,0.707106781186548,0.707106781186548,1.,1.,298.5,0.,12.5,300.,     153P    450
0.,14.,298.5,-12.5,12.5,300.,-14.,14.,298.5,-12.5,0.,300.,-14.,      153P    451
0.,298.5,-12.5,-12.5,300.,-14.,-14.,298.5,0.,-12.5,300.,0.,-14.,     153P    452
298.5,12.5,-12.5,300.,14.,-14.,298.5,12.5,0.,300.,14.,0.,298.5,      153P    453
12.5,12.5,300.,14.,14.,298.5,0.,12.5,300.,0.,14.,                    153P    454
-0.151522881682833,8.32667268468867D-17,-3.14159265358979,           153P    455
3.14159265358979;                                                    153P    456
128,1,1,1,1,0,0,1,0,0,-1.751,-1.751,1.751,1.751,                     155P    457
-0.00100000000000022,-0.00100000000000022,3.501,3.501,1.,1.,1.,      155P    458
1.,300.,-17.51,17.51,300.,-17.51,-17.51,300.,17.51,17.51,300.,       155P    459
17.51,-17.51,-1.751,1.751,-0.00100000000000022,3.501;                155P    460
128,1,8,1,2,0,1,0,0,1,-1.4384369076643,-1.4384369076643,             157P    461
-1.15272262195001,-1.15272262195001,-3.14159265358979,               157P    462
-3.14159265358979,-3.14159265358979,-1.5707963267949,                157P    463
-1.5707963267949,0.,0.,1.5707963267949,1.5707963267949,              157P    464
3.14159265358979,3.14159265358979,3.14159265358979,1.,1.,            157P    465
0.707106781186548,0.707106781186548,1.,1.,0.707106781186548,         157P    466
0.707106781186548,1.,1.,0.707106781186548,0.707106781186548,1.,      157P    467
1.,0.707106781186548,0.707106781186548,1.,1.,295.,0.,-17.5,300.,     157P    468
0.,-17.5,295.,-17.5,-17.5,300.,-17.5,-17.5,295.,-17.5,0.,300.,       157P    469
-17.5,0.,295.,-17.5,17.5,300.,-17.5,17.5,295.,0.,17.5,300.,0.,       157P    470
17.5,295.,17.5,17.5,300.,17.5,17.5,295.,17.5,0.,300.,17.5,0.,        157P    471
295.,17.5,-17.5,300.,17.5,-17.5,295.,0.,-17.5,300.,0.,-17.5,         157P    472
-1.4384369076643,-1.15272262195001,-3.14159265358979,                157P    473
3.14159265358979;                                                    157P    474
128,1,8,1,2,0,1,0,0,1,-0.358813785347159,-0.358813785347159,0.,      159P    475
0.,-3.14159265358979,-3.14159265358979,-3.14159265358979,            159P    476
-1.5707963267949,-1.5707963267949,0.,0.,1.5707963267949,             159P    477
1.5707963267949,3.14159265358979,3.14159265358979,                   159P    478
3.14159265358979,1.,1.,0.707106781186548,0.707106781186548,1.,       159P    479
1.,0.707106781186548,0.707106781186548,1.,1.,0.707106781186548,      159P    480
0.707106781186548,1.,1.,0.707106781186548,0.707106781186548,1.,      159P    481
1.,289.050367092866,0.,-23.4496329071339,295.,0.,-17.5,              159P    482
289.050367092866,-23.4496329071339,-23.4496329071339,295.,-17.5,     159P    483
-17.5,289.050367092866,-23.4496329071339,0.,295.,-17.5,0.,           159P    484
289.050367092866,-23.4496329071339,23.4496329071339,295.,-17.5,      159P    485
17.5,289.050367092866,0.,23.4496329071339,295.,0.,17.5,              159P    486
289.050367092866,23.4496329071339,23.4496329071339,295.,17.5,        159P    487
17.5,289.050367092866,23.4496329071339,0.,295.,17.5,0.,              159P    488
289.050367092866,23.4496329071339,-23.4496329071339,295.,17.5,       159P    489
-17.5,289.050367092866,0.,-23.4496329071339,295.,0.,-17.5,           159P    490
-0.358813785347159,0.,-3.14159265358979,3.14159265358979;            159P    491
502,24,287.499565217063,0.,38.,287.499565217063,0.,                  161P    492
-37.9999999999999,289.050367092866,0.,23.4496329071339,              161P    493
289.050367092866,0.,-23.4496329071339,285.482048472404,0.,           161P    494
37.9999999999999,285.482048472404,0.,-37.9999999999999,              161P    495
284.541297529902,0.,44.5,284.541297529902,0.,-44.5,                  161P    496
282.220598900771,0.,41.5779203214945,282.220598900771,0.,            161P    497
-41.5779203214945,282.220598900771,0.,24.,279.798308872449,0.,       161P    498
14.,279.798308872449,0.,-14.,286.,0.,14.,286.,0.,-14.,287.5,0.,      161P    499
12.5,287.5,0.,-12.5,298.5,0.,12.5,298.5,0.,-12.5,300.,0.,14.,        161P    500
300.,0.,17.5,300.,0.,-17.5,295.,0.,17.5,295.,0.,-17.5;               161P    501
504,32,69,161,1,161,2,71,161,2,161,1,73,161,3,161,4,75,161,4,        163P    502
161,3,77,161,5,161,6,79,161,6,161,5,81,161,6,161,2,83,161,7,161,     163P    503
8,85,161,8,161,7,87,161,9,161,10,89,161,10,161,9,91,161,10,161,      163P    504
8,93,161,11,161,11,95,161,12,161,13,97,161,13,161,12,99,161,14,      163P    505
161,15,101,161,15,161,14,103,161,15,161,13,105,161,16,161,17,        163P    506
107,161,17,161,16,109,161,17,161,15,111,161,18,161,19,113,161,       163P    507
19,161,18,115,161,19,161,17,117,161,18,161,20,119,161,20,161,20,     163P    508
121,161,21,161,22,123,161,22,161,21,125,161,23,161,24,127,161,       163P    509
24,161,23,129,161,24,161,22,131,161,4,161,24;                        163P    510
406,1,24H 1;                                   165P    511
314,95.6862745098039,95.6862745098039,95.6862745098039,;             167P    512
S      1G      3D    168P    512                                        T      1
