**ABCDEFGHIJKLMNOPQRSTUVWXYZabcdefghijklmnopqrstuvwxyz**************************
**PARASOLID !"#$%&'()*+,-./:;<=>?@[\]^_`{|}~0123456789**************************
**PART1;
MC=;
MC_MODEL=;
MC_ID=unknown;
OS=Windows;
OS_RELEASE=;
FRU=;
APPL=Autodesk Inventor 2023;
SITE=unknown;
USER=unknown;
FORMAT=text;
GUISE=transmit;
KEY=INT-207-02-001;
FILE=D:\мои документы\Ирина\_WorldSkills\2022_08 Роскосмос\Задание\the-first-satellite-sputnik-1.snapshot.4\Inventor\GIVEN\PARASOLID\INT-207-02-001.x_t;
DATE=2022-Aug-07 12:46:31;
**PART2;
SCH=SCH_3301154_33103;
USFLD_SIZE=0;
**PART3;
**END_OF_HEADER*****************************************************************
T51 : TRANSMIT FILE created by modeller version 330115417 SCH_3300000_320010 12
 1 112 2 3 0 0 0 0 0 0 1e3 1e-8 0 0 0 1 0 1 1 4 5 6 7 0 0 8 9 10 0 0 0 0 0 0 0 8
1 1 2 112 11 1 12 0 0 0 0 70 3 0 4 T1 0 0 6 20 1 13 13 13 4 37 0 1 0 14 0 0 15 0
 51 5 62 0 14 16 0 17 +.258000233082928 -.099 0 1 0 0 .038 0 0 1 137 6 110 0 1 1
8 0 19 +20 21 0 ?29 7 45 0 10 22 0 .1189295963132216 -.2567708333333335 0 19 8 1
 0 1 15 0 23 V0 16 9 26 0 720054962251304e-20 24 0 25 0 0 0 1 18 10 24 0 26 0 27
 7 ?1 17 26 0 28 26 26 10 29 25 0 29 +18 27 22 0 24 10 30 22 1e-5 1 17 24 0 31 3
2 32 27 33 9 34 35 +18 30 20 0 33 27 36 37 1e-5 1 29 22 44 0 27 37 7 .2397374161
236475 -.137 -485722573273506e-32 29 37 43 0 30 38 22 .258 -.061 0 29 38 42 0 36
 39 37 .258 -.0525 0 18 36 18 0 40 30 41 38 ?1 29 39 41 0 41 42 38 .256 -.0525 -
633031878282684e-32 18 41 12 0 43 36 44 39 ?1 29 42 40 0 44 45 39 .256 -.061 0 1
8 44 10 0 46 41 47 42 1e-5 1 29 45 39 0 47 48 42 .2374659817139295 -.137 -237450
9551948225e-33 18 47 8 0 49 44 50 45 1e-5 1 29 48 38 0 50 0 45 .118 -.255 -30747
26265944465e-32 18 50 6 0 51 47 0 48 ?1 17 51 0 52 53 49 50 54 55 0 53 -15 52 4
 0 53 56 0 17 53 0 52 54 51 50 57 58 0 57 +17 49 0 52 51 59 47 46 60 61 62 +17 5
4 0 52 63 53 47 51 55 0 0 +16 55 7 0 ?54 64 58 65 0 0 1 16 64 9 0 1e-5 63 66 55
 0 0 0 1 16 58 5 0 ?53 55 0 67 0 0 1 133 65 87 0 55 68 69 0 +69 .118 -.255 -3074
726265944465e-32 .2374659817139295 -.137 -2374509551948195e-33 5.691548967762 6.
28318530717959 137 68 83 0 1 70 65 71 +5 72 0 ?31 69 88 0 1 65 73 74 +-.01586186
91039384 -746069872548105e-30 707230401685707e-32 -599302115875849e-31 -17977230
12361195e-31 1 .879610593117598 -.475694444444443 -328014360027962e-31 .288 133
 73 89 0 66 69 75 0 +75 .256 -.061 0 .256 -.0525 -633031878282684e-32 0 .0085 14
1 74 65 74 74 69 16 66 11 0 ?76 77 64 73 0 0 1 30 75 90 0 1 73 61 78 +.256 -.061
 0 0 1 -744743386214922e-30 133 61 91 0 49 75 79 0 +79 .256 -.061 0 .23746598171
39295 -.137 0 0 1 141 78 73 78 78 75 137 79 92 0 1 61 80 81 +82 83 0 ?133 80 93
 0 46 79 84 0 +84 .2374659817139295 -.137 2763991387983355e-32 .256 -.061 232682
891837997e-32 0 1 141 81 61 81 81 79 124 82 58 0 56 0 20 85 +86 87 134 83 0 0 0
 0 0 0 +88 89 136 88 2 19 2 10 5 FFF1 90 91 92 135 89 2 0 45 38 90 .033261499441
0725 0 .0332614994410725 .0913346688955679 .0413505718588012 .1687483078047765 .
0492699211970586 .2445376713323035 .0642596784589567 .2978761806993015 .07944795
89267282 .351921101230339 .101191065847261 .3801146366071975 .1227875521770882 .
408118054130791 .1498590107557312 .4094077038024315 .1757178690817965 .410639586
748536 .2048447451545425 .3874157333332235 .231495205924782 .366166410445565 .25
6576750413217 .327917070738579 .2816526580556035 .2896763272183015 .300430334983
8105 .2415973289433975 .320552533972148 .1900757709707885 .331387446455293 .1321
100303878124 .343302373907528 .0683663135063344 .343302373907528 0 127 10 91 3 2
 2 2 2 2 2 2 2 3 128 10 92 0 .0625 .125 .25 .375 .5 .625 .75 .875 1 14 56 3 93 ?
0 94 52 4 82 +0 0 0 94 23 124 20 59 0 94 82 95 96 +97 98 141 85 99 100 100 82 12
6 86 FT3 2 18 9 1 5 10 5 TFT8 4 101 102 103 104 105 125 87 0 1 0 6.2831853071795
9 0 1 0 6.28318530717959 2 BBPPBBPP????0 0 0 0 45 648 101 .256 -.0525 0 1 .18101
9335983756 -.03712310601229375 .03712310601229375 .707106781186548 .256 0 .0525
 1 .181019335983756 .03712310601229375 .03712310601229375 .707106781186548 .256
 .0525 0 1 .181019335983756 .03712310601229375 -.03712310601229375 .707106781186
548 .256 0 -.0525 1 .181019335983756 -.03712310601229375 -.03712310601229375 .70
7106781186548 .256 -.0525 0 1 .256 -.0589489566283011 0 1 .181019335983756 -.041
6832069757434 .0416832069757434 .707106781186548 .256 0 .0589489566283011 1 .181
019335983756 .0416832069757434 .0416832069757434 .707106781186548 .256 .05894895
66283011 0 1 .181019335983756 .0416832069757434 -.0416832069757434 .707106781186
548 .256 0 -.0589489566283011 1 .181019335983756 -.0416832069757434 -.0416832069
757434 .707106781186548 .256 -.0589489566283011 0 1 .256 -.0659355632675336 0 1
 .181019335983756 -.0466234839078276 .0466234839078276 .707106781186548 .256 0 .
0659355632675336 1 .181019335983756 .0466234839078276 .0466234839078276 .7071067
81186548 .256 .0659355632675336 0 1 .181019335983756 .0466234839078276 -.0466234
839078276 .707106781186548 .256 0 -.0659355632675336 1 .181019335983756 -.046623
4839078276 -.0466234839078276 .707106781186548 .256 -.0659355632675336 0 1 .256
 -.0734598199176975 0 1 .181019335983756 -.0519439368085465 .0519439368085465 .7
07106781186548 .256 0 .0734598199176975 1 .181019335983756 .0519439368085465 .05
19439368085465 .707106781186548 .256 .0734598199176975 0 1 .181019335983756 .051
9439368085465 -.0519439368085465 .707106781186548 .256 0 -.0734598199176975 1 .1
81019335983756 -.0519439368085465 -.0519439368085465 .707106781186548 .256 -.073
4598199176975 0 1 .255960245868552 -.0750728063356553 0 1 .1809912255678295 -.05
30844904426463 .0530844904426463 .707106781186548 .255960245868552 0 .0750728063
356553 1 .1809912255678295 .0530844904426463 .0530844904426463 .707106781186548
 .255960245868552 .0750728063356553 0 1 .1809912255678295 .0530844904426463 -.05
30844904426463 .707106781186548 .255960245868552 0 -.0750728063356553 1 .1809912
255678295 -.0530844904426463 -.0530844904426463 .707106781186548 .25596024586855
2 -.0750728063356553 0 1 .255924115365324 -.0761475234839223 0 1 .18096567744398
9 -.0538444302260433 .0538444302260433 .707106781186548 .255924115365324 0 .0761
475234839223 1 .180965677443989 .0538444302260433 .0538444302260433 .70710678118
6548 .255924115365324 .0761475234839223 0 1 .180965677443989 .0538444302260433 -
.0538444302260433 .707106781186548 .255924115365324 0 -.0761475234839223 1 .1809
65677443989 -.0538444302260433 -.0538444302260433 .707106781186548 .255924115365
324 -.0761475234839223 0 1 .255902439707189 -.0766847363840829 0 1 .180950350439
135 -.0542242971106878 .0542242971106878 .707106781186548 .255902439707189 0 .07
66847363840829 1 .180950350439135 .0542242971106878 .0542242971106878 .707106781
186548 .255902439707189 .0766847363840829 0 1 .180950350439135 .0542242971106878
 -.0542242971106878 .707106781186548 .255902439707189 0 -.0766847363840829 1 .18
0950350439135 -.0542242971106878 -.0542242971106878 .707106781186548 .2559024397
07189 -.0766847363840829 0 1 .253630763237934 -.0877376851276685 0 .992950839721
512 .179344032603063 -.0620399121193845 .0620399121193845 .702122272151958 .2536
30763237934 0 .0877376851276685 .992950839721512 .179344032603063 .0620399121193
845 .0620399121193845 .702122272151958 .253630763237934 .0877376851276685 0 .992
950839721512 .179344032603063 .0620399121193845 -.0620399121193845 .702122272151
958 .253630763237934 0 -.0877376851276685 .992950839721512 .179344032603063 -.06
20399121193845 -.0620399121193845 .702122272151958 .253630763237934 -.0877376851
276685 0 .992950839721512 .2514864442738055 -.0991407648877133 0 .99295083972151
2 .1778277701225005 -.0701031071441232 .0701031071441232 .702122272151958 .25148
64442738055 0 .0991407648877133 .992950839721512 .1778277701225005 .070103107144
1232 .0701031071441232 .702122272151958 .2514864442738055 .0991407648877133 0 .9
92950839721512 .1778277701225005 .0701031071441232 -.0701031071441232 .702122272
151958 .2514864442738055 0 -.0991407648877133 .992950839721512 .1778277701225005
 -.0701031071441232 -.0701031071441232 .702122272151958 .2514864442738055 -.0991
407648877133 0 .992950839721512 .249469482814804 -.1108939756642172 0 1 .1764015
629974485 -.078413882184904 .078413882184904 .707106781186548 .249469482814804 0
 .1108939756642172 1 .1764015629974485 .078413882184904 .078413882184904 .707106
781186548 .249469482814804 .1108939756642172 0 1 .1764015629974485 .078413882184
904 -.078413882184904 .707106781186548 .249469482814804 0 -.1108939756642172 1 .
1764015629974485 -.078413882184904 -.078413882184904 .707106781186548 .249469482
814804 -.1108939756642172 0 1 .248511614576697 -.1136775062592128 0 1 .175724247
8708 -.0803821355442656 .0803821355442656 .707106781186548 .248511614576697 0 .1
136775062592128 1 .1757242478708 .0803821355442656 .0803821355442656 .7071067811
86548 .248511614576697 .1136775062592128 0 1 .1757242478708 .0803821355442656 -.
0803821355442656 .707106781186548 .248511614576697 0 -.1136775062592128 1 .17572
42478708 -.0803821355442656 -.0803821355442656 .707106781186548 .248511614576697
 -.1136775062592128 0 1 .246391028945069 -.1191740747806746 0 1 .174224767390589
 -.0842687964190477 .0842687964190477 .707106781186548 .246391028945069 0 .11917
40747806746 1 .174224767390589 .0842687964190477 .0842687964190477 .707106781186
548 .246391028945069 .1191740747806746 0 1 .174224767390589 .0842687964190477 -.
0842687964190477 .707106781186548 .246391028945069 0 -.1191740747806746 1 .17422
4767390589 -.0842687964190477 -.0842687964190477 .707106781186548 .2463910289450
69 -.1191740747806746 0 1 .242586455174053 -.127178883814443 0 1 .17153452747757
95 -.0899290511689287 .0899290511689287 .707106781186548 .242586455174053 0 .127
178883814443 1 .1715345274775795 .0899290511689287 .0899290511689287 .7071067811
86548 .242586455174053 .127178883814443 0 1 .1715345274775795 .0899290511689287
 -.0899290511689287 .707106781186548 .242586455174053 0 -.127178883814443 1 .171
5345274775795 -.0899290511689287 -.0899290511689287 .707106781186548 .2425864551
74053 -.127178883814443 0 1 .2399059944256855 -.1324215448468504 0 1 .1696391555
057045 -.0936361723364064 .0936361723364064 .707106781186548 .2399059944256855 0
 .1324215448468504 1 .1696391555057045 .0936361723364064 .0936361723364064 .7071
06781186548 .2399059944256855 .1324215448468504 0 1 .1696391555057045 .093636172
3364064 -.0936361723364064 .707106781186548 .2399059944256855 0 -.13242154484685
04 1 .1696391555057045 -.0936361723364064 -.0936361723364064 .707106781186548 .2
399059944256855 -.1324215448468504 0 1 .238525898401716 -.1350217158218966 0 1 .
168663280248467 -.0954747708651061 .0954747708651061 .707106781186548 .238525898
401716 0 .1350217158218966 1 .168663280248467 .0954747708651061 .095474770865106
1 .707106781186548 .238525898401716 .1350217158218966 0 1 .168663280248467 .0954
747708651061 -.0954747708651061 .707106781186548 .238525898401716 0 -.1350217158
218966 1 .168663280248467 -.0954747708651061 -.0954747708651061 .707106781186548
 .238525898401716 -.1350217158218966 0 1 .2048604826255675 -.181080515842682 0 .
97028052947486 .1448582364616878 -.1280432606931186 .1280432606931186 .686091942
044947 .2048604826255675 0 .181080515842682 .97028052947486 .1448582364616878 .1
280432606931186 .1280432606931186 .686091942044947 .2048604826255675 .1810805158
42682 0 .97028052947486 .1448582364616878 .1280432606931186 -.1280432606931186 .
686091942044947 .2048604826255675 0 -.181080515842682 .97028052947486 .144858236
4616878 -.1280432606931186 -.1280432606931186 .686091942044947 .2048604826255675
 -.181080515842682 0 .97028052947486 .164685183158329 -.2210732772353835 0 .9702
8052947486 .116450009772203 -.156322413472273 .156322413472273 .686091942044947
 .164685183158329 0 .2210732772353835 .97028052947486 .116450009772203 .15632241
3472273 .156322413472273 .686091942044947 .164685183158329 .2210732772353835 0 .
97028052947486 .116450009772203 .156322413472273 -.156322413472273 .686091942044
947 .164685183158329 0 -.2210732772353835 .97028052947486 .116450009772203 -.156
322413472273 -.156322413472273 .686091942044947 .164685183158329 -.2210732772353
835 0 .97028052947486 .118 -.255 0 1 .0834386001800126 -.1803122292025695 .18031
22292025695 .707106781186548 .118 0 .255 1 .0834386001800126 .1803122292025695 .
1803122292025695 .707106781186548 .118 .255 0 1 .0834386001800126 .1803122292025
695 -.1803122292025695 .707106781186548 .118 0 -.255 1 .0834386001800126 -.18031
22292025695 -.1803122292025695 .707106781186548 .118 -.255 0 1 127 10 102 4 1 1
 1 3 3 1 1 3 4 127 5 103 3 2 2 2 3 128 10 104 0 .0757065766897898 .0820182398208
795 .0883299029519693 .0946415660830591 .230852629881708 .265410130331175 .29996
76307806425 .3345251312301095 1 128 5 105 0 1.570796326794895 3.141592653589795
 4.71238898038469 6.28318530717959 137 99 81 0 1 106 70 107 +82 108 0 ?141 100 7
9 85 85 82 133 106 80 0 63 109 99 0 +99 .2374659817139295 -.137 0 .256 -.061 0 0
 1 133 70 82 0 62 99 68 0 +68 .256 -.061 -698048675513991e-32 .2374659817139295
 -.137 2763991387983355e-32 0 1 141 107 106 107 107 99 134 108 0 0 0 0 0 0 +110
 111 136 110 2 19 2 10 5 FFF1 112 113 114 135 111 2 0 45 38 112 .343302373907527
5 6.28318530717959 .3433023739075275 6.22627603170822 .3350194381842475 6.172408
99779546 .326613014297369 6.11773887409443 .309884581359377 6.06771625157534 .29
32914331925375 6.01809816778771 .2696513435304235 5.97665724960654 .244941282409
79 5.93334067865491 .2171480709464915 5.90657176388394 .1849821110648925 5.87559
125485805 .155743698271247 5.87387465235046 .1192823493664286 5.87173398748599 .
0924860786603519 5.91582980916162 .0650410168665361 5.96099327851194 .0498219242
231297 6.05135291318375 .0418931366342925 6.0984281473455 .03769059153196395 6.1
5570389930499 .0332614994410725 6.21606722053693 .0332614994410725 6.28318530717
959 127 10 113 3 2 2 2 2 2 2 2 2 3 128 10 114 0 .125 .25 .375 .5 .625 .75 .875 .
9375 1 17 62 0 115 46 46 47 63 64 70 54 -15 115 34 0 46 14 0 17 46 0 115 62 62 4
4 49 60 80 59 -17 63 0 52 76 54 44 62 64 106 0 +17 76 0 52 116 63 41 59 66 0 0 +
17 116 0 52 59 76 41 43 77 0 76 -17 59 0 52 49 116 44 76 66 0 63 -17 43 0 117 43
 43 41 116 77 0 116 +16 77 13 0 ?43 60 66 118 0 0 1 16 60 14 0 1e-5 49 119 77 0
 0 0 1 31 118 50 0 77 67 120 0 +.256 0 0 -1 0 0 0 0 1 .0525 31 67 46 0 58 0 118
 0 +.118 0 0 -1 0 0 0 0 1 .255 31 120 52 0 119 118 109 0 +.258 0 0 -1 0 0 0 0 1
 .0525 16 119 17 0 ?121 122 60 120 0 0 1 31 109 56 0 25 120 106 0 +.118929596313
2216 0 0 -1 0 0 0 0 1 .2567708333333335 16 25 25 0 ?26 9 123 109 0 0 1 16 123 23
 0 ?124 25 125 126 0 0 1 17 124 0 127 29 128 10 35 123 0 0 +16 125 21 0 1e-5 32
 123 122 0 0 0 1 133 126 103 0 123 129 130 0 +130 .2397374161236475 -.137 -48572
2573273506e-32 .1189295963132216 -.2567708333333335 0 .3391071562701685 1 137 12
9 99 0 1 131 126 132 +20 133 0 ?134 130 104 0 1 126 134 135 +136 137 133 134 105
 0 122 130 138 0 +138 .258 -.0525 0 .258 -.061 0 0 .0085 141 135 126 135 135 130
 136 136 3 16 3 8 1 FFF1 139 140 141 135 137 1 0 45 48 139 .2397374161236475 -.1
37 -485722573273506e-32 .2395491606571575 -.1373512367809356 -485722573273506e-3
2 .2393601357633485 -.137702168517111 0 .2378927437964845 -.1404129584876634 0 .
236579790189453 -.142760174186909 0 .2298399893870485 -.154423882948564 0 .22388
62798894765 -.163522816853562 0 .2109303970561905 -.181063951650916 0 .203928369
1619935 -.1895057335496475 0 .188994567060283 -.2055578080426025 0 .181063073733
42 -.213167748184685 0 .164426041185521 -.227411942037102 0 .1557208829980505 -.
2340459576857535 0 .1377191164651208 -.2462336938754945 0 .1284229369275626 -.25
17873183581335 0 .1189295963132216 -.2567708333333335 0 127 8 140 4 2 2 2 2 2 2
 4 128 8 141 .3391071562701685 .34375 .375 .5 .625 .75 .875 1 16 122 19 0 ?142 1
25 119 134 0 0 1 30 138 106 0 1 134 34 143 +.258 -.0525 0 0 -1 0 133 34 107 0 24
 138 144 0 +144 .258 -.061 -698048675513991e-32 .2397374161236475 -.137 11634144
59189986e-32 0 1 141 143 134 143 143 138 137 144 108 0 1 34 18 145 +5 146 0 ?133
 18 109 0 33 144 6 0 +6 .2397374161236475 -.137 0 .258 -.061 0 0 1 141 145 34 14
5 145 144 134 146 0 0 0 0 0 0 +147 148 136 147 2 23 2 12 5 FFF1 149 150 151 135
 148 2 0 45 46 149 4.71238898038469 -23308292806945e-20 4.95845319689846 -233082
92806945e-20 5.20451741341222 -23308292806945e-20 5.37419827314468 -233082928069
45e-20 5.39161215192572 -671332121016111e-20 5.46748554103194 -3494813591517455e
-20 5.54624063961611 -.000191078231586095 5.72735186027386 -.00055012688642526 5
.90370635438679 -.00167105665829803 6.07834314381575 -.00278106849848316 6.27593
533913604 -.00481583633771948 6.27954992501428 -.00485305867378028 6.28318530717
959 -.00489071221679352 6.42715886381928 -.0063819211904839 6.6554352832862 -.00
916859753399007 6.82806333387998 -.01127594837617802 6.84361888210086 -.01146214
909588386 6.95043966287062 -.01274079938685676 7.03491852592576 -.01363471144657
726 7.24391279455543 -.01584618175268925 7.432355354925 -.01697640454676045 7.64
683948139819 -.0182628169592804 7.85398163397448 -.0182628169592804 127 12 150 3
 2 2 2 2 2 2 2 2 2 2 3 128 12 151 0 .125 .1875 .25 .375 .5 .502433776855469 .626
825332641602 .689021110534668 .751216888427734 .875608444213867 1 17 33 0 127 40
 35 30 24 9 18 32 -15 127 16 0 121 94 0 17 40 0 127 121 33 36 142 122 0 121 -17
 35 0 127 33 29 27 124 123 0 128 -17 32 0 31 24 24 30 128 125 152 142 +15 31 35
 0 24 14 115 17 128 0 127 124 142 27 32 125 131 0 -133 152 96 0 32 84 153 0 +153
 .2397374161236475 -.137 -145485610559224e-31 .258 -.061 -698048675513991e-32 0
 1 17 142 0 127 128 121 30 40 122 0 0 +17 121 0 127 142 40 36 154 119 0 154 +17
 154 0 155 154 154 36 121 119 0 0 -15 155 31 0 154 156 0 14 156 30 157 ?158 14 1
17 4 16 -0 0 158 14 23 81 1 157 76 159 156 160 0 161 162 163 14 158 27 161 ?94 1
56 28 4 95 +0 0 94 156 23 14 14 33 162 ?156 0 31 4 5 -0 0 156 0 23 15 117 32 0 4
3 156 155 51 16 61 0 156 95 5 0 +0 0 0 1 0 0 .0525 0 0 1 13 23 2 0 0 0 0 0 0 8 1
4 52 95 60 0 158 20 16 0 +.1189295963132216 0 0 1 0 0 .2567708333333335 .8854166
66666666 .4647981566109 0 0 -1 81 1 162 79 159 14 164 0 157 0 165 80 1 159 166 1
67 8015 0 0 0 0 3 5 0 0 0 FFFFTFFFFFFFFF2 81 2 164 78 166 14 168 162 160 0 169 1
70 83 1 165 0 80 2 166 171 172 8014 0 0 0 0 3 5 0 0 0 FFFFTFFFFFFFFF2 1 81 1 168
 77 173 14 0 164 174 0 175 81 2 160 75 166 156 174 157 176 164 177 178 83 4 169
 1 0 .001217782569991502 .001217782569991502 82 1 170 1 81 1 174 74 173 156 0 16
0 179 168 180 81 2 176 72 166 158 179 161 181 160 182 183 83 4 177 1 0 .00121778
2569991502 .001217782569991502 82 1 178 1 81 1 179 71 173 158 0 176 184 174 185
 81 1 161 73 159 158 176 0 186 157 187 81 2 181 69 166 94 184 186 188 176 189 19
0 83 4 182 1 0 .001217782569991502 .001217782569991502 82 1 183 1 14 94 15 186 ?
56 158 127 4 20 +0 0 56 158 23 81 1 184 68 173 94 0 181 191 179 192 81 1 186 70
 159 94 181 0 93 161 193 81 2 188 66 166 56 191 93 0 181 194 195 83 4 189 1 0 .0
01217782569991502 .001217782569991502 82 1 190 1 81 1 191 65 173 56 0 188 0 184
 196 81 1 93 67 159 56 188 0 0 186 197 83 4 194 1 0 .001217782569991502 .0012177
82569991502 82 1 195 1 83 1 197 0 80 1 173 0 198 8001 0 0 0 0 3 5 0 0 0 FFFFTFTF
FFFFFF2 83 3 196 .811764705882353 .3098039215686275 0 79 15 198 SDL/TYSA_COLOUR8
3 1 193 0 83 3 192 .811764705882353 .3098039215686275 0 83 1 187 0 83 3 185 .811
764705882353 .3098039215686275 0 83 3 180 .811764705882353 .3098039215686275 0 8
3 3 175 .811764705882353 .3098039215686275 0 79 21 172 SDL/TYSA_REFLECTIVITY79 2
1 167 SDL/TYSA_TRANSLUCENCY15 28 29 0 26 158 199 15 199 28 0 57 158 0 17 57 0 19
9 57 57 50 53 58 0 0 -83 1 163 0 137 84 94 0 1 80 152 200 +5 201 0 ?137 153 97 0
 1 152 131 202 +5 203 0 ?133 131 98 0 128 153 129 0 +129 .258 -.061 0 .239737416
1236475 -.137 0 0 1 141 202 152 202 202 153 134 203 0 0 0 0 0 0 +204 205 136 204
 2 25 2 13 5 FFF1 206 207 208 135 205 2 0 45 50 206 1.570796326794895 -.01826281
69592804 1.75540185942532 -.0182628169592804 1.945095718434345 -.017243943534074
35 2.12712562204332 -.01626623433279135 2.324525454686565 -.0143051711255171 2.4
1249453210854 -.01343124474574218 2.514278066172225 -.01225092294365046 2.579445
867354595 -.0114952115485067 2.705248261263595 -.00995311963474943 2.83170473178
608 -.00840301001778887 2.898456588001415 -.0076118202281435 3.006921156161095 -
.006326222137966 3.09527213000868 -.00537899003180509 3.31367636613379 -.0030374
2552413892 3.50175260569686 -.001798291461680535 3.70758608820653 -.000442164393
3985375 3.9204924389748 -.0001176388444217302 3.972607069803875 -382023733230545
5e-20 4.020222624503835 -1276505171710074e-20 4.0436809372388 -23308292806945e-2
0 4.117488786842895 -23308292806945e-20 4.21461056980979 -23308292806945e-20 4.3
1173235277668 -23308292806945e-20 4.51206066658068 -23308292806945e-20 4.7123889
8038469 -23308292806945e-20 127 13 207 3 2 2 2 2 2 2 2 2 2 2 2 3 128 13 208 0 .1
25 .25 .3125 .375 .4375 .5 .625 .75 .78125 .8125 .875 1 141 200 80 200 200 84 13
4 201 0 0 0 0 0 0 +209 210 136 209 2 25 2 13 5 FFF1 211 212 213 135 210 2 0 45 5
0 211 1.570796326794895 -.02053425136899855 1.353262381569648 -.0205342513689985
5 1.126942588314566 -.0190994273583691 .934393642065804 -.01787870402999565 .718
112572837618 -.01550220537318865 .635345205378559 -.01459275667157168 .523250780
504977 -.01321382961049816 .427855163267925 -.01204032255816852 .332459868632974
 -.0108408775402557 .245198064165023 -.00974369830281332 .1417470766662314 -.008
54699251848404 .0678163059242135 -.00769177225306194 0 -.00697814635788482 -.021
2215015775069 -.00675483409022496 -.0420044439562304 -.00654361508680162 -.23825
8873263963 -.00454906281309511 -.411177604730254 -.003500392926617915 -.57581847
7539199 -.0025019243169189 -.745732190865028 -.002176838324294385 -.805765080477
209 -.002061980899736365 -.870766049829924 -.002017572697772475 -.89614631120608
4 -.00200023308292807 -1.041600128028182 -.00200023308292807 -1.30619822741154 -
.00200023308292807 -1.570796326794895 -.00200023308292807 127 13 212 3 2 2 2 2 2
 2 2 2 2 2 2 3 128 13 213 0 .125 .25 .3125 .375 .4383632114955355 .4858856201171
88 .5 .625 .75 .8125 .875 1 17 29 0 127 35 124 10 26 25 0 124 -141 132 131 132 1
32 129 134 133 0 0 0 0 0 0 +214 215 136 214 2 21 2 11 5 FFF1 216 217 218 135 215
 2 0 45 42 216 .966738500558928 6.28318530717959 .966738500558928 6.212603660549
72 .961845253039059 6.14958378226704 .957169089132971 6.08935971246577 .94833578
0396982 6.04083406960775 .940046415607651 5.99529657428076 .928363701357499 5.96
170192952279 .917152725438258 5.92946380871176 .903693849229672 5.90935040738856
 .877918758927256 5.87083123778184 .843838765479949 5.87396279171864 .8156293554
60307 5.87655490750464 .784804190135229 5.90699875732843 .757825031237815 5.9336
4417684794 .733838447241544 5.97646311499258 .71070013538377 6.01776778531844 .6
9436274648014 6.06667751764437 .677854384252157 6.11609909795154 .66933526428299
6 6.17104954330951 .660892843729831 6.22550525833349 .660892843729831 6.28318530
717959 127 11 217 3 2 2 2 2 2 2 2 2 2 3 128 11 218 0 .0625 .125 .1875 .25 .375 .
5 .625 .75 .875 1 141 96 129 219 219 20 126 97 FT3 2 40 9 1 5 20 5 TFT8 4 220 22
1 222 223 224 125 98 0 1 0 6.28318530717959 0 1 0 6.28318530717959 2 BBPPBBPP???
?0 0 0 0 45 1440 220 .1189295963132216 -.2567708333333335 0 1 .0840959240368577
 -.181564397460921 .181564397460921 .707106781186548 .1189295963132216 0 .256770
8333333335 1 .0840959240368577 .181564397460921 .181564397460921 .70710678118654
8 .1189295963132216 .2567708333333335 0 1 .0840959240368577 .181564397460921 -.1
81564397460921 .707106781186548 .1189295963132216 0 -.2567708333333335 1 .084095
9240368577 -.181564397460921 -.181564397460921 .707106781186548 .118929596313221
6 -.2567708333333335 0 1 .1284229369275626 -.2517873183581335 0 1 .0908087295613
718 -.1780405202278125 .1780405202278125 .707106781186548 .1284229369275626 0 .2
517873183581335 1 .0908087295613718 .1780405202278125 .1780405202278125 .7071067
81186548 .1284229369275626 .2517873183581335 0 1 .0908087295613718 .178040520227
8125 -.1780405202278125 .707106781186548 .1284229369275626 0 -.2517873183581335
 1 .0908087295613718 -.1780405202278125 -.1780405202278125 .707106781186548 .128
4229369275626 -.2517873183581335 0 1 .1377191164651208 -.2462336938754945 0 1 .0
973821211515068 -.1741135146959745 .1741135146959745 .707106781186548 .137719116
4651208 0 .2462336938754945 1 .0973821211515068 .1741135146959745 .1741135146959
745 .707106781186548 .1377191164651208 .2462336938754945 0 1 .0973821211515068 .
1741135146959745 -.1741135146959745 .707106781186548 .1377191164651208 0 -.24623
36938754945 1 .0973821211515068 -.1741135146959745 -.1741135146959745 .707106781
186548 .1377191164651208 -.2462336938754945 0 1 .1557208829980505 -.234045957685
7535 0 1 .1101112923402784 -.165495483788896 .165495483788896 .707106781186548 .
1557208829980505 0 .2340459576857535 1 .1101112923402784 .165495483788896 .16549
5483788896 .707106781186548 .1557208829980505 .2340459576857535 0 1 .11011129234
02784 .165495483788896 -.165495483788896 .707106781186548 .1557208829980505 0 -.
2340459576857535 1 .1101112923402784 -.165495483788896 -.165495483788896 .707106
781186548 .1557208829980505 -.2340459576857535 0 1 .164426041185521 -.2274119420
37102 0 1 .1162667687259402 -.160804526337237 .160804526337237 .707106781186548
 .164426041185521 0 .227411942037102 1 .1162667687259402 .160804526337237 .16080
4526337237 .707106781186548 .164426041185521 .227411942037102 0 1 .1162667687259
402 .160804526337237 -.160804526337237 .707106781186548 .164426041185521 0 -.227
411942037102 1 .1162667687259402 -.160804526337237 -.160804526337237 .7071067811
86548 .164426041185521 -.227411942037102 0 1 .18106307373342 -.213167748184685 0
 1 .1280309272593812 -.150732360271657 .150732360271657 .707106781186548 .181063
07373342 0 .213167748184685 1 .1280309272593812 .150732360271657 .15073236027165
7 .707106781186548 .18106307373342 .213167748184685 0 1 .1280309272593812 .15073
2360271657 -.150732360271657 .707106781186548 .18106307373342 0 -.21316774818468
5 1 .1280309272593812 -.150732360271657 -.150732360271657 .707106781186548 .1810
6307373342 -.213167748184685 0 1 .188994567060283 -.2055578080426025 0 1 .133639
3399757416 -.145351319992767 .145351319992767 .707106781186548 .188994567060283
 0 .2055578080426025 1 .1336393399757416 .145351319992767 .145351319992767 .7071
06781186548 .188994567060283 .2055578080426025 0 1 .1336393399757416 .1453513199
92767 -.145351319992767 .707106781186548 .188994567060283 0 -.2055578080426025 1
 .1336393399757416 -.145351319992767 -.145351319992767 .707106781186548 .1889945
67060283 -.2055578080426025 0 1 .2039283691619935 -.1895057335496475 0 1 .144199
132710759 -.134000789266687 .134000789266687 .707106781186548 .2039283691619935
 0 .1895057335496475 1 .144199132710759 .134000789266687 .134000789266687 .70710
6781186548 .2039283691619935 .1895057335496475 0 1 .144199132710759 .13400078926
6687 -.134000789266687 .707106781186548 .2039283691619935 0 -.1895057335496475 1
 .144199132710759 -.134000789266687 -.134000789266687 .707106781186548 .20392836
91619935 -.1895057335496475 0 1 .2109303970561905 -.181063951650916 0 1 .1491503
141168034 -.128031548040796 .128031548040796 .707106781186548 .2109303970561905
 0 .181063951650916 1 .1491503141168034 .128031548040796 .128031548040796 .70710
6781186548 .2109303970561905 .181063951650916 0 1 .1491503141168034 .12803154804
0796 -.128031548040796 .707106781186548 .2109303970561905 0 -.181063951650916 1
 .1491503141168034 -.128031548040796 -.128031548040796 .707106781186548 .2109303
970561905 -.181063951650916 0 1 .2238862798894765 -.163522816853562 0 1 .1583115
06724478 -.1156280926758794 .1156280926758794 .707106781186548 .2238862798894765
 0 .163522816853562 1 .158311506724478 .1156280926758794 .1156280926758794 .7071
06781186548 .2238862798894765 .163522816853562 0 1 .158311506724478 .11562809267
58794 -.1156280926758794 .707106781186548 .2238862798894765 0 -.163522816853562
 1 .158311506724478 -.1156280926758794 -.1156280926758794 .707106781186548 .2238
862798894765 -.163522816853562 0 1 .2298399893870485 -.154423882948564 0 1 .1625
214150834265 -.1091941748100874 .1091941748100874 .707106781186548 .229839989387
0485 0 .154423882948564 1 .1625214150834265 .1091941748100874 .1091941748100874
 .707106781186548 .2298399893870485 .154423882948564 0 1 .1625214150834265 .1091
941748100874 -.1091941748100874 .707106781186548 .2298399893870485 0 -.154423882
948564 1 .1625214150834265 -.1091941748100874 -.1091941748100874 .70710678118654
8 .2298399893870485 -.154423882948564 0 1 .236579790189453 -.142760174186909 0 1
 .167287173934653 -.100946687250936 .100946687250936 .707106781186548 .236579790
189453 0 .142760174186909 1 .167287173934653 .100946687250936 .100946687250936 .
707106781186548 .236579790189453 .142760174186909 0 1 .167287173934653 .10094668
7250936 -.100946687250936 .707106781186548 .236579790189453 0 -.142760174186909
 1 .167287173934653 -.100946687250936 -.100946687250936 .707106781186548 .236579
790189453 -.142760174186909 0 1 .2378927437964845 -.1404129584876634 0 1 .168215
572333568 -.099286955113092 .099286955113092 .707106781186548 .2378927437964845
 0 .1404129584876634 1 .168215572333568 .099286955113092 .099286955113092 .70710
6781186548 .2378927437964845 .1404129584876634 0 1 .168215572333568 .09928695511
3092 -.099286955113092 .707106781186548 .2378927437964845 0 -.1404129584876634 1
 .168215572333568 -.099286955113092 -.099286955113092 .707106781186548 .23789274
37964845 -.1404129584876634 0 1 .240447904892644 -.135692675680461 0 1 .17002234
40716865 -.0959492111310008 .0959492111310008 .707106781186548 .240447904892644
 0 .135692675680461 1 .1700223440716865 .0959492111310008 .0959492111310008 .707
106781186548 .240447904892644 .135692675680461 0 1 .1700223440716865 .0959492111
310008 -.0959492111310008 .707106781186548 .240447904892644 0 -.135692675680461
 1 .1700223440716865 -.0959492111310008 -.0959492111310008 .707106781186548 .240
447904892644 -.135692675680461 0 1 .2416898530937765 -.133319705715336 0 1 .1709
0053406659 -.094271267977109 .094271267977109 .707106781186548 .2416898530937765
 0 .133319705715336 1 .17090053406659 .094271267977109 .094271267977109 .7071067
81186548 .2416898530937765 .133319705715336 0 1 .17090053406659 .094271267977109
 -.094271267977109 .707106781186548 .2416898530937765 0 -.133319705715336 1 .170
90053406659 -.094271267977109 -.094271267977109 .707106781186548 .24168985309377
65 -.133319705715336 0 1 .243507147216231 -.129731002217037 0 1 .172185555063988
 -.0917336713977938 .0917336713977938 .707106781186548 .243507147216231 0 .12973
1002217037 1 .172185555063988 .0917336713977938 .0917336713977938 .7071067811865
48 .243507147216231 .129731002217037 0 1 .172185555063988 .0917336713977938 -.09
17336713977938 .707106781186548 .243507147216231 0 -.129731002217037 1 .17218555
5063988 -.0917336713977938 -.0917336713977938 .707106781186548 .243507147216231
 -.129731002217037 0 1 .24410496574073 -.128531079713065 0 1 .17260827659658 -.0
90885198058337 .090885198058337 .707106781186548 .24410496574073 0 .128531079713
065 1 .17260827659658 .090885198058337 .090885198058337 .707106781186548 .244104
96574073 .128531079713065 0 1 .17260827659658 .090885198058337 -.090885198058337
 .707106781186548 .24410496574073 0 -.128531079713065 1 .17260827659658 -.090885
198058337 -.090885198058337 .707106781186548 .24410496574073 -.128531079713065 0
 1 .2452867978048035 -.126117586997771 0 1 .17344395806331 -.0891786009930083 .0
891786009930083 .707106781186548 .2452867978048035 0 .126117586997771 1 .1734439
5806331 .0891786009930083 .0891786009930083 .707106781186548 .2452867978048035 .
126117586997771 0 1 .17344395806331 .0891786009930083 -.0891786009930083 .707106
781186548 .2452867978048035 0 -.126117586997771 1 .17344395806331 -.089178600993
0083 -.0891786009930083 .707106781186548 .2452867978048035 -.126117586997771 0 1
 .245870428888935 -.1249028891889578 0 1 .1738566475606105 -.0883196799353039 .0
883196799353039 .707106781186548 .245870428888935 0 .1249028891889578 1 .1738566
475606105 .0883196799353039 .0883196799353039 .707106781186548 .245870428888935
 .1249028891889578 0 1 .1738566475606105 .0883196799353039 -.0883196799353039 .7
07106781186548 .245870428888935 0 -.1249028891889578 1 .1738566475606105 -.08831
96799353039 -.0883196799353039 .707106781186548 .245870428888935 -.1249028891889
578 0 1 .2470102510898445 -.122454321788289 0 1 .174662623568221 -.0865882813220
987 .0865882813220987 .707106781186548 .2470102510898445 0 .122454321788289 1 .1
74662623568221 .0865882813220987 .0865882813220987 .707106781186548 .24701025108
98445 .122454321788289 0 1 .174662623568221 .0865882813220987 -.0865882813220987
 .707106781186548 .2470102510898445 0 -.122454321788289 1 .174662623568221 -.086
5882813220987 -.0865882813220987 .707106781186548 .2470102510898445 -.1224543217
88289 0 1 .247566443421162 -.1212204503319746 0 1 .1750559109373395 -.0857158024
482263 .0857158024482263 .707106781186548 .247566443421162 0 .1212204503319746 1
 .1750559109373395 .0857158024482263 .0857158024482263 .707106781186548 .2475664
43421162 .1212204503319746 0 1 .1750559109373395 .0857158024482263 -.08571580244
82263 .707106781186548 .247566443421162 0 -.1212204503319746 1 .1750559109373395
 -.0857158024482263 -.0857158024482263 .707106781186548 .247566443421162 -.12122
04503319746 0 1 .2486383503957705 -.1187301813384498 0 1 .175813863627886 -.0839
549163559263 .0839549163559263 .707106781186548 .2486383503957705 0 .11873018133
84498 1 .175813863627886 .0839549163559263 .0839549163559263 .707106781186548 .2
486383503957705 .1187301813384498 0 1 .175813863627886 .0839549163559263 -.08395
49163559263 .707106781186548 .2486383503957705 0 -.1187301813384498 1 .175813863
627886 -.0839549163559263 -.0839549163559263 .707106781186548 .2486383503957705
 -.1187301813384498 0 1 .249152720145433 -.117476653821533 0 1 .1761775779659095
 -.0830685385483106 .0830685385483106 .707106781186548 .249152720145433 0 .11747
6653821533 1 .1761775779659095 .0830685385483106 .0830685385483106 .707106781186
548 .249152720145433 .117476653821533 0 1 .1761775779659095 .0830685385483106 -.
0830685385483106 .707106781186548 .249152720145433 0 -.117476653821533 1 .176177
5779659095 -.0830685385483106 -.0830685385483106 .707106781186548 .2491527201454
33 -.117476653821533 0 1 .25063117881204 -.1136930319963804 0 1 .177223006114771
5 -.0803931138982997 .0803931138982997 .707106781186548 .25063117881204 0 .11369
30319963804 1 .1772230061147715 .0803931138982997 .0803931138982997 .70710678118
6548 .25063117881204 .1136930319963804 0 1 .1772230061147715 .0803931138982997 -
.0803931138982997 .707106781186548 .25063117881204 0 -.1136930319963804 1 .17722
30061147715 -.0803931138982997 -.0803931138982997 .707106781186548 .250631178812
04 -.1136930319963804 0 1 .251530486755186 -.111141349405666 0 1 .17785891285974
5 -.07858880183497 .07858880183497 .707106781186548 .251530486755186 0 .11114134
9405666 1 .177858912859745 .07858880183497 .07858880183497 .707106781186548 .251
530486755186 .111141349405666 0 1 .177858912859745 .07858880183497 -.07858880183
497 .707106781186548 .251530486755186 0 -.111141349405666 1 .177858912859745 -.0
7858880183497 -.07858880183497 .707106781186548 .251530486755186 -.1111413494056
66 0 1 .2531619329479535 -.105970629328979 0 1 .179012519525792 -.07493255060512
7 .074932550605127 .707106781186548 .2531619329479535 0 .105970629328979 1 .1790
12519525792 .074932550605127 .074932550605127 .707106781186548 .2531619329479535
 .105970629328979 0 1 .179012519525792 .074932550605127 -.074932550605127 .70710
6781186548 .2531619329479535 0 -.105970629328979 1 .179012519525792 -.0749325506
05127 -.074932550605127 .707106781186548 .2531619329479535 -.105970629328979 0 1
 .2538930185704095 -.103352872492195 0 1 .179529475127059 -.0730815169943396 .07
30815169943396 .707106781186548 .2538930185704095 0 .103352872492195 1 .17952947
5127059 .0730815169943396 .0730815169943396 .707106781186548 .2538930185704095 .
103352872492195 0 1 .179529475127059 .0730815169943396 -.0730815169943396 .70710
6781186548 .2538930185704095 0 -.103352872492195 1 .179529475127059 -.0730815169
943396 -.0730815169943396 .707106781186548 .2538930185704095 -.103352872492195 0
 1 .2558227871501225 -.0954279595821786 0 1 .1808940275758945 -.0674777573353543
 .0674777573353543 .707106781186548 .2558227871501225 0 .0954279595821786 1 .180
8940275758945 .0674777573353543 .0674777573353543 .707106781186548 .255822787150
1225 .0954279595821786 0 1 .1808940275758945 .0674777573353543 -.067477757335354
3 .707106781186548 .2558227871501225 0 -.0954279595821786 1 .1808940275758945 -.
0674777573353543 -.0674777573353543 .707106781186548 .2558227871501225 -.0954279
595821786 0 1 .256756760066202 -.0900490151651203 0 1 .181554446158299 -.0636742
692624268 .0636742692624268 .707106781186548 .256756760066202 0 .090049015165120
3 1 .181554446158299 .0636742692624268 .0636742692624268 .707106781186548 .25675
6760066202 .0900490151651203 0 1 .181554446158299 .0636742692624268 -.0636742692
624268 .707106781186548 .256756760066202 0 -.0900490151651203 1 .181554446158299
 -.0636742692624268 -.0636742692624268 .707106781186548 .256756760066202 -.09004
90151651203 0 1 .2576116954122945 -.0819450795068832 0 1 .182158976738997 -.0579
439214041879 .0579439214041879 .707106781186548 .2576116954122945 0 .08194507950
68832 1 .182158976738997 .0579439214041879 .0579439214041879 .707106781186548 .2
576116954122945 .0819450795068832 0 1 .182158976738997 .0579439214041879 -.05794
39214041879 .707106781186548 .2576116954122945 0 -.0819450795068832 1 .182158976
738997 -.0579439214041879 -.0579439214041879 .707106781186548 .2576116954122945
 -.0819450795068832 0 1 .257805918060586 -.0792362747678387 0 1 .182296312890664
 -.0560285072042993 .0560285072042993 .707106781186548 .257805918060586 0 .07923
62747678387 1 .182296312890664 .0560285072042993 .0560285072042993 .707106781186
548 .257805918060586 .0792362747678387 0 1 .182296312890664 .0560285072042993 -.
0560285072042993 .707106781186548 .257805918060586 0 -.0792362747678387 1 .18229
6312890664 -.0560285072042993 -.0560285072042993 .707106781186548 .2578059180605
86 -.0792362747678387 0 1 .2579359361628845 -.0758584293407822 0 1 .182388249572
476 -.0536400097970276 .0536400097970276 .707106781186548 .2579359361628845 0 .0
758584293407822 1 .182388249572476 .0536400097970276 .0536400097970276 .70710678
1186548 .2579359361628845 .0758584293407822 0 1 .182388249572476 .05364000979702
76 -.0536400097970276 .707106781186548 .2579359361628845 0 -.0758584293407822 1
 .182388249572476 -.0536400097970276 -.0536400097970276 .707106781186548 .257935
9361628845 -.0758584293407822 0 1 .257957096886474 -.075188302625722 0 1 .182403
212463621 -.0531661586525544 .0531661586525544 .707106781186548 .257957096886474
 0 .075188302625722 1 .182403212463621 .0531661586525544 .0531661586525544 .7071
06781186548 .257957096886474 .075188302625722 0 1 .182403212463621 .053166158652
5544 -.0531661586525544 .707106781186548 .257957096886474 0 -.075188302625722 1
 .182403212463621 -.0531661586525544 -.0531661586525544 .707106781186548 .257957
096886474 -.075188302625722 0 1 .2579904475653405 -.0738328385702354 0 1 .182426
794954805 -.0522077008272651 .0522077008272651 .707106781186548 .257990447565340
5 0 .0738328385702354 1 .182426794954805 .0522077008272651 .0522077008272651 .70
7106781186548 .2579904475653405 .0738328385702354 0 1 .182426794954805 .05220770
08272651 -.0522077008272651 .707106781186548 .2579904475653405 0 -.0738328385702
354 1 .182426794954805 -.0522077008272651 -.0522077008272651 .707106781186548 .2
579904475653405 -.0738328385702354 0 1 .257998405817947 -.0731418093015307 0 1 .
182432422289189 -.0517190693453657 .0517190693453657 .707106781186548 .257998405
817947 0 .0731418093015307 1 .182432422289189 .0517190693453657 .051719069345365
7 .707106781186548 .257998405817947 .0731418093015307 0 1 .182432422289189 .0517
190693453657 -.0517190693453657 .707106781186548 .257998405817947 0 -.0731418093
015307 1 .182432422289189 -.0517190693453657 -.0517190693453657 .707106781186548
 .257998405817947 -.0731418093015307 0 1 .258000233082928 -.0721318732559236 0 1
 .1824337143606485 -.0510049367189521 .0510049367189521 .707106781186548 .258000
233082928 0 .0721318732559236 1 .1824337143606485 .0510049367189521 .05100493671
89521 .707106781186548 .258000233082928 .0721318732559236 0 1 .1824337143606485
 .0510049367189521 -.0510049367189521 .707106781186548 .258000233082928 0 -.0721
318732559236 1 .1824337143606485 -.0510049367189521 -.0510049367189521 .70710678
1186548 .258000233082928 -.0721318732559236 0 1 .258 -.0717994030371541 0 1 .182
4335495461295 -.0507698447727177 .0507698447727177 .707106781186548 .258 0 .0717
994030371541 1 .1824335495461295 .0507698447727177 .0507698447727177 .7071067811
86548 .258 .0717994030371541 0 1 .1824335495461295 .0507698447727177 -.050769844
7727177 .707106781186548 .258 0 -.0717994030371541 1 .1824335495461295 -.0507698
447727177 -.0507698447727177 .707106781186548 .258 -.0717994030371541 0 1 .258 -
.0651444364726182 0 1 .1824335495461295 -.0460640727863646 .0460640727863646 .70
7106781186548 .258 0 .0651444364726182 1 .1824335495461295 .0460640727863646 .04
60640727863646 .707106781186548 .258 .0651444364726182 0 1 .1824335495461295 .04
60640727863646 -.0460640727863646 .707106781186548 .258 0 -.0651444364726182 1 .
1824335495461295 -.0460640727863646 -.0460640727863646 .707106781186548 .258 -.0
651444364726182 0 1 .258 -.0588222182363091 0 1 .1824335495461295 -.041593589399
32915 .04159358939932915 .707106781186548 .258 0 .0588222182363091 1 .1824335495
461295 .04159358939932915 .04159358939932915 .707106781186548 .258 .058822218236
3091 0 1 .1824335495461295 .04159358939932915 -.04159358939932915 .7071067811865
48 .258 0 -.0588222182363091 1 .1824335495461295 -.04159358939932915 -.041593589
39932915 .707106781186548 .258 -.0588222182363091 0 1 .258 -.0525 0 1 .182433549
5461295 -.03712310601229375 .03712310601229375 .707106781186548 .258 0 .0525 1 .
1824335495461295 .03712310601229375 .03712310601229375 .707106781186548 .258 .05
25 0 1 .1824335495461295 .03712310601229375 -.03712310601229375 .707106781186548
 .258 0 -.0525 1 .1824335495461295 -.03712310601229375 -.03712310601229375 .7071
06781186548 .258 -.0525 0 1 127 20 221 4 2 2 2 2 2 2 2 2 2 2 2 2 2 2 2 2 2 2 4 1
27 5 222 3 2 2 2 3 128 20 223 0 .125 .25 .375 .5 .625 .65625 .6875 .703125 .7187
5 .734375 .75 .78125 .8125 .875 .90625 .9140625 .921875 .925781250000002 1 128 5
 224 0 1.570796326794895 3.141592653589795 4.71238898038469 6.28318530717959 141
 219 6 96 96 20 141 71 70 71 71 68 134 72 0 0 0 0 0 0 +225 226 136 225 2 25 2 13
 5 FFF1 227 228 229 135 226 2 0 45 50 227 4.71238898038469 -.00200023308292807 4
.55975788721872 -.00200023308292807 4.407126794052745 -.00200023308292807 4.3191
6473549945 -.00200023308292807 4.23120267694616 -.00200023308292807 4.1647611617
06415 -.00200023308292807 4.09831964646667 -.00200023308292807 4.01378327461482
 -.00200023308292807 3.95140610477851 -.002076795847014255 3.727628763473345 -.0
02351463835881695 3.51354427574319 -.00375298897670695 3.321321873497255 -.00501
139182613284 3.09840919001525 -.00743895858757221 3.008751784626395 -.0084153468
9280049 2.899310801346675 -.00973718667269652 2.837640886533815 -.01048204243129
366 2.7043327250422 -.01214615993457832 2.582100352105695 -.0136720157336206 2.5
1193328367884 -.01449546580876606 2.41104079714127 -.01567949597396505 2.3205371
07877225 -.0165818320476333 2.12154733356041 -.01856579152063675 1.9403626030459
85 -.01953358539662725 1.75302375017972 -.02053425136899855 1.570796326794895 -.
02053425136899855 127 13 228 3 2 2 2 2 2 2 2 2 2 2 2 3 128 13 229 0 .1 .16 .205
 .25 .375 .5 .5625 .625 .6875 .75 .875 1 19 15 36 0 1 0 8 4 S0 141 19 18 19 19 6
 134 21 0 0 0 0 0 0 +230 231 136 230 2 25 2 13 5 FFF1 232 233 234 135 231 2 0 45
 50 232 .660892843729831 0 .660892843729831 .0652598208904472 .671669663169953 .
126333577980641 .681715273550989 .18326347011097 .700571107423039 .2341392493659
095 .709475283841787 .258164010986172 .72015362226945 .2803644986342335 .7306282
15878516 .3021413965675395 .742274122545382 .3211114358764365 .753998671066135 .
3402095750492805 .766523256973723 .3557993703919725 .779357394730415 .3717744758
767405 .792366996082753 .383257787538804 .8208496412788 .4083988416639855 .84669
0545155142 .409426550756093 .875326377013986 .410565415901918 .898028163840106 .
381662982670065 .909139959797227 .3675161693290475 .918219237248046 .34717994199
505 .930604720971976 .319438305723251 .939637938026811 .283137086358748 .9526631
83615354 .2307933538306845 .959575406069598 .159634505949977 .966738500558928 .0
858930205600695 .966738500558928 0 127 13 233 3 2 2 2 2 2 2 2 2 2 2 2 3 128 13 2
34 0 .125 .25 .3125 .375 .4375 .5 .625 .75 .8125 .875 .9375 1 141 17 68 235 236
 5 141 235 144 237 17 5 141 236 84 17 237 5 141 237 153 236 235 5 74 20 13 6 0 0
 238 12 168 164 162 2 0 0 0 0 0 0 0 0 0 0 0 0 0 0 81 1 238 63 239 1 0 12 0 0 240
 81 1 12 64 241 1 238 2 0 0 242 80 1 241 159 243 8041 0 0 0 0 3 5 0 0 0 TTTFFFFF
FFFFFF2 83 1 242 0 79 23 243 SDL/TYSA_TRANSLUCENCY_280 1 239 173 244 8040 0 0 0
 0 3 5 0 0 0 TTTFFFFFFFFFFF2 83 3 240 .811764705882353 .3098039215686275 0 79 17
 244 SDL/TYSA_COLOUR_280 1 11 245 246 8017 0 0 0 0 0 0 0 0 0 TTTTTTTTTTTTTF3 79
 13 246 SDL/TYSA_NAME1 0 
