                                                                        S      1
,,3HLid,14HINT-207-01-009,22HAutodesk Inventor 2023,7Hunknown,32,38,7,  G      1
99,15,,1.,2,2HMM,1,0.08,15H20220807.124038,0.01,10000.,,,11,0,15H2018111G      2
9.110440;                                                               G      3
     186       1                                                00000000D      1
     186            -127       1       0                               0D      2
     514       2                                                00010000D      3
     514                       1       1                               0D      4
     510       3                                                00010000D      5
     510            -127       1       1                               0D      6
     510       4                                                00010000D      7
     510            -127       1       1                               0D      8
     510       5                                                00010000D      9
     510            -127       1       1                               0D     10
     510       6                                                00010000D     11
     510            -127       1       1                               0D     12
     510       7                                                00010000D     13
     510            -127       1       1                               0D     14
     510       8                                                00010000D     15
     510            -127       1       1                               0D     16
     510       9                                                00010000D     17
     510            -127       1       1                               0D     18
     510      10                                                00010000D     19
     510            -127       1       1                               0D     20
     508      11                                                00010000D     21
     508                       1       1                               0D     22
     508      12                                                00010000D     23
     508                       1       1                               0D     24
     508      13                                                00010000D     25
     508                       1       1                               0D     26
     508      14                                                00010000D     27
     508                       1       1                               0D     28
     508      15                                                00010000D     29
     508                       1       1                               0D     30
     508      16                                                00010000D     31
     508                       2       1                               0D     32
     508      18                                                00010000D     33
     508                       1       1                               0D     34
     508      19                                                00010000D     35
     508                       1       1                               0D     36
     508      20                                                00010000D     37
     508                       1       1                               0D     38
     508      21                                                00010000D     39
     508                       1       1                               0D     40
     508      22                                                00010000D     41
     508                       1       1                               0D     42
     508      23                                                00010000D     43
     508                       2       1                               0D     44
     508      25                                                00010000D     45
     508                       1       1                               0D     46
     508      26                                                00010000D     47
     508                       2       1                               0D     48
     508      28                                                00010000D     49
     508                       2       1                               0D     50
     508      30                                                00010000D     51
     508                       2       1                               0D     52
     126      32                                                00010000D     53
     126       0              10       0                               0D     54
     126      42                                                00010000D     55
     126       0              10       0                               0D     56
     126      52                                                00010000D     57
     126       0               7       0                               0D     58
     126      59                                                00010000D     59
     126       0              16       0                               0D     60
     126      75                                                00010000D     61
     126       0              13       0                               0D     62
     126      88                                                00010000D     63
     126       0              10       0                               0D     64
     126      98                                                00010000D     65
     126       0              13       0                               0D     66
     126     111                                                00010000D     67
     126       0              10       0                               0D     68
     126     121                                                00010000D     69
     126       0              16       0                               0D     70
     126     137                                                00010000D     71
     126       0              10       0                               0D     72
     126     147                                                00010000D     73
     126       0              10       0                               0D     74
     126     157                                                00010000D     75
     126       0               5       0                               0D     76
     126     162                                                00010000D     77
     126       0              10       0                               0D     78
     126     172                                                00010000D     79
     126       0              10       0                               0D     80
     126     182                                                00010000D     81
     126       0              16       0                               0D     82
     126     198                                                00010000D     83
     126       0               7       0                               0D     84
     126     205                                                00010000D     85
     126       0              10       0                               0D     86
     126     215                                                00010000D     87
     126       0              13       0                               0D     88
     126     228                                                00010000D     89
     126       0              10       0                               0D     90
     126     238                                                00010000D     91
     126       0              13       0                               0D     92
     126     251                                                00010000D     93
     126       0              16       0                               0D     94
     126     267                                                00010000D     95
     126       0               7       0                               0D     96
     126     274                                                00010000D     97
     126       0               5       0                               0D     98
     126     279                                                00010000D     99
     126       0               5       0                               0D    100
     126     284                                                00010000D    101
     126       0               5       0                               0D    102
     126     289                                                00010000D    103
     126       0               5       0                               0D    104
     128     294                                                00010000D    105
     128       0    -127      17       0                               0D    106
     128     311                                                00010000D    107
     128       0    -127      27       0                               0D    108
     128     338                                                00010000D    109
     128       0    -127      17       0                               0D    110
     128     355                                                00010000D    111
     128       0    -127      40       0                               0D    112
     128     395                                                00010000D    113
     128       0    -127      27       0                               0D    114
     128     422                                                00010000D    115
     128       0    -127      27       0                               0D    116
     128     449                                                00010000D    117
     128       0    -127      27       0                               0D    118
     128     476                                                00010000D    119
     128       0    -127      27       0                               0D    120
     502     503                                                00010000D    121
     502                      20       1                               0D    122
     504     523                                                00010001D    123
     504                       7       1                               0D    124
     406     530                                                00000000D    125
     406                       1      15                               0D    126
     314     531                                                00000200D    127
     314                       1       0                               0D    128
186,3,1,0,0,1,125;                                                     1P      1
514,8,5,1,7,1,9,1,11,1,13,1,15,1,17,1,19,1;                            3P      2
510,105,5,1,21,23,25,27,29;                                            5P      3
510,107,1,1,31;                                                        7P      4
510,109,5,1,33,35,37,39,41;                                            9P      5
510,111,1,1,43;                                                       11P      6
510,113,1,1,45;                                                       13P      7
510,115,1,1,47;                                                       15P      8
510,117,1,1,49;                                                       17P      9
510,119,1,1,51;                                                       19P     10
508,2,0,123,1,0,0,0,123,2,0,0;                                        21P     11
508,2,0,123,3,0,0,0,123,4,0,0;                                        23P     12
508,2,0,123,5,0,0,0,123,6,0,0;                                        25P     13
508,2,0,123,7,0,0,0,123,8,0,0;                                        27P     14
508,1,0,123,9,0,0;                                                    29P     15
508,6,0,123,10,1,0,0,123,11,1,0,0,123,12,1,0,0,123,2,1,0,0,123,       31P     16
1,1,0,0,123,12,0,0;                                                   31P     17
508,2,0,123,13,1,0,0,123,14,1,0;                                      33P     18
508,2,0,123,15,0,0,0,123,16,0,0;                                      35P     19
508,2,0,123,17,0,0,0,123,18,0,0;                                      37P     20
508,2,0,123,19,0,0,0,123,20,0,0;                                      39P     21
508,1,0,123,21,0,0;                                                   41P     22
508,6,0,123,10,0,0,0,123,11,0,0,0,123,22,1,0,0,123,13,0,0,0,123,      43P     23
14,0,0,0,123,22,0,0;                                                  43P     24
508,4,0,123,9,1,0,0,123,23,1,0,0,123,21,1,0,0,123,23,0,0;             45P     25
508,6,0,123,7,1,0,0,123,24,1,0,0,123,20,1,0,0,123,19,1,0,0,123,       47P     26
24,0,0,0,123,8,1,0;                                                   47P     27
508,6,0,123,5,1,0,0,123,25,1,0,0,123,18,1,0,0,123,17,1,0,0,123,       49P     28
25,0,0,0,123,6,1,0;                                                   49P     29
508,6,0,123,3,1,0,0,123,26,1,0,0,123,16,1,0,0,123,15,1,0,0,123,       51P     30
26,0,0,0,123,4,1,0;                                                   51P     31
126,4,2,0,0,0,0,6.69754675992177D-17,6.69754675992177D-17,            53P     32
6.69754675992177D-17,1.5707963267949,1.5707963267949,                 53P     33
3.14159265358979,3.14159265358979,3.14159265358979,1.,                53P     34
0.707106781186548,1.,0.707106781186548,1.,-216.632116005104,          53P     35
154.588973865029,-115.207532195201,-195.300164908154,                 53P     36
197.879248814442,-97.2311600027481,-162.113540313208,                 53P     37
197.879248814442,-136.612601672577,-128.926915718262,                 53P     38
197.879248814442,-175.994043342405,-150.258866815212,                 53P     39
154.588973865029,-193.970415534859,6.69754675992177D-17,              53P     40
3.14159265358979,0.,0.,0.;                                            53P     41
126,4,2,0,0,0,0,3.14159265358979,3.14159265358979,                    55P     42
3.14159265358979,4.71238898038469,4.71238898038469,                   55P     43
6.28318530717959,6.28318530717959,6.28318530717959,1.,                55P     44
0.707106781186547,1.,0.707106781186547,1.,-150.258866815212,          55P     45
154.588973865029,-193.970415534859,-171.590817912162,                 55P     46
111.298698915617,-211.946787727312,-204.777442507108,                 55P     47
111.298698915617,-172.565346057483,-237.964067102054,                 55P     48
111.298698915617,-133.183904387655,-216.632116005104,                 55P     49
154.588973865029,-115.207532195201,3.14159265358979,                  55P     50
6.28318530717959,0.,0.,0.;                                            55P     51
126,2,2,0,0,0,0,1.09052124377085D-15,1.09052124377085D-15,            57P     52
1.09052124377085D-15,1.45244648595318,1.45244648595318,               57P     53
1.45244648595318,1.,0.747687686397141,1.,-182.080281177579,           57P     54
123.858675953637,-188.694990917368,-181.284877663867,                 57P     55
126.255492087573,-187.88925051754,-183.064208459021,                  57P     56
126.53849316323,-185.944898637342,1.09052124377085D-15,               57P     57
1.45244648595318,0.,0.,0.;                                            57P     58
126,8,2,0,0,0,0,1.45244648595318,1.45244648595318,                    59P     59
1.45244648595318,2.66013119125978,2.66013119125978,                   59P     60
3.86781589656639,3.86781589656639,5.07550060187299,                   59P     61
5.07550060187299,6.28318530717959,6.28318530717959,                   59P     62
6.28318530717959,1.,0.823159972256897,1.,0.823159972256888,1.,        59P     63
0.823159972256895,1.,0.823159972256784,1.,-183.064208459021,          59P     64
126.53849316323,-185.944898637342,-184.446164470497,                  59P     65
126.758292111703,-184.434775406415,-185.672176548334,                 59P     66
125.108374138905,-184.319661393255,-186.898188626171,                 59P     67
123.458456166107,-184.204547380095,-186.387154029416,                 59P     68
122.066606043736,-185.6328971432,-185.876119432662,                   59P     69
120.674755921364,-187.061246906306,-184.287084035543,                 59P     70
121.335946213929,-188.191016826116,-182.698048638423,                 59P     71
121.997136506494,-189.320786745925,-182.080281177579,                 59P     72
123.858675953637,-188.694990917368,1.45244648595318,                  59P     73
6.28318530717959,0.,0.,0.;                                            59P     74
126,6,2,0,0,0,0,8.8020643247212D-15,8.8020643247212D-15,              61P     75
8.8020643247212D-15,1.35578137352486,1.35578137352486,                61P     76
2.71156274704971,2.71156274704971,4.06734412057456,                   61P     77
4.06734412057456,4.06734412057456,1.,0.778897309428172,1.,            61P     78
0.778897309428106,1.,0.778897309428158,1.,-150.219876254911,          61P     79
173.282072418963,-177.502991963934,-148.164291322446,                 61P     80
174.162354236918,-178.383273781889,-147.725707533476,                 61P     81
176.010340734822,-176.910924728084,-147.287123744506,                 61P     82
177.858327232726,-175.438575674279,-149.155554415516,                 61P     83
177.766625742847,-173.930007068943,-151.023985086526,                 61P     84
177.674924252968,-172.421438463607,-152.25987322442,                  61P     85
175.787806521662,-173.250044975424,8.8020643247212D-15,               61P     86
4.06734412057456,0.,0.,0.;                                            61P     87
126,4,2,0,0,0,0,4.06734412057456,4.06734412057456,                    63P     88
4.06734412057456,5.17526471387708,5.17526471387708,                   63P     89
6.2831853071796,6.2831853071796,6.2831853071796,1.,                   63P     90
0.850447845521014,1.,0.850447845521069,1.,-152.25987322442,           63P     91
175.787806521662,-173.250044975424,-153.20932736089,                  63P     92
174.338054168631,-173.886610580375,-152.504189294484,                 63P     93
173.471931068197,-175.356669046555,-151.799051228077,                 63P     94
172.605807967764,-176.826727512735,-150.219876254911,                 63P     95
173.282072418963,-177.502991963934,4.06734412057456,                  63P     96
6.2831853071796,0.,0.,0.;                                             63P     97
126,6,2,0,0,0,0,-1.09563412084176D-15,-1.09563412084176D-15,          65P     98
-1.09563412084176D-15,1.18021636720205,1.18021636720205,              65P     99
2.3604327344041,2.3604327344041,3.54064910160615,                     65P    100
3.54064910160615,3.54064910160615,1.,0.830880485098739,1.,            65P    101
0.830880485098823,1.,0.830880485098875,1.,-182.080281177579,          65P    102
188.694990917368,-123.858675953637,-182.680065208369,                 65P    103
189.302569607238,-122.05132658053,-184.223783532503,                  65P    104
188.235399062302,-121.363223922346,-185.767501856636,                 65P    105
187.168228517367,-120.675121264161,-186.343181405972,                 65P    106
185.748053326086,-121.958515197056,-186.918860955307,                 65P    107
184.327878134805,-123.241909129952,-185.813493548882,                 65P    108
184.313656959082,-124.90725148497,-1.09563412084176D-15,              65P    109
3.54064910160615,0.,0.,0.;                                            65P    110
126,4,2,0,0,0,0,3.54064910160615,3.54064910160615,                    67P    111
3.54064910160615,4.91191720439287,4.91191720439287,                   67P    112
6.28318530717959,6.28318530717959,6.28318530717959,1.,                67P    113
0.774017744247896,1.,0.774017744247896,1.,-185.813493548882,          67P    114
184.313656959082,-124.90725148497,-184.463338683038,                  67P    115
184.296286454497,-126.941389700783,-182.905505784321,                 67P    116
186.124574133213,-126.503829418368,-181.347672885604,                 67P    117
187.95286181193,-126.066269135954,-182.080281177579,                  67P    118
188.694990917368,-123.858675953637,3.54064910160615,                  67P    119
6.28318530717959,0.,0.,0.;                                            67P    120
126,8,2,0,1,0,0,3.2715637313123D-15,3.2715637313123D-15,              69P    121
3.2715637313123D-15,1.5707963267949,1.5707963267949,                  69P    122
3.1415926535898,3.1415926535898,4.71238898038469,                     69P    123
4.71238898038469,6.28318530717959,6.28318530717959,                   69P    124
6.28318530717959,1.,0.707106781186538,1.,0.707106781186536,1.,        69P    125
0.707106781186517,1.,0.707106781186538,1.,-216.617828783482,          69P    126
135.06434360065,-137.602105146888,-215.435831362954,                  69P    127
137.705479404238,-136.870418965912,-217.006769693061,                 69P    128
137.705479404238,-134.332657419674,-218.577708023168,                 69P    129
137.705479404238,-131.794895873437,-219.759705443696,                 69P    130
135.06434360065,-132.526582054414,-220.941702864224,                  69P    131
132.423207797063,-133.25826823539,-219.370764534118,                  69P    132
132.423207797063,-135.796029781627,-217.799826204011,                 69P    133
132.423207797063,-138.333791327865,-216.617828783482,                 69P    134
135.06434360065,-137.602105146888,3.2715637313123D-15,                69P    135
6.28318530717959,0.,0.,0.;                                            69P    136
126,4,2,0,0,0,0,1.00463201398827D-16,1.00463201398827D-16,            71P    137
1.00463201398827D-16,1.5707963267949,1.5707963267949,                 71P    138
3.14159265358979,3.14159265358979,3.14159265358979,1.,                71P    139
0.707106781186551,1.,0.707106781186548,1.,-150.486209141483,          71P    140
154.780554571997,-194.161996241826,-129.154258044533,                 71P    141
198.070829521409,-176.185624049373,-162.340882639479,                 71P    142
198.070829521409,-136.804182379544,-195.527507234425,                 71P    143
198.070829521409,-97.4227407097157,-216.859458331375,                 71P    144
154.780554571997,-115.399112902169,1.00463201398827D-16,              71P    145
3.14159265358979,0.,0.,0.;                                            71P    146
126,4,2,0,0,0,0,3.14159265358979,3.14159265358979,                    73P    147
3.14159265358979,4.71238898038469,4.71238898038469,                   73P    148
6.28318530717959,6.28318530717959,6.28318530717959,1.,                73P    149
0.707106781186549,1.,0.707106781186549,1.,-216.859458331375,          73P    150
154.780554571997,-115.399112902169,-238.191409428325,                 73P    151
111.490279622585,-133.375485094622,-205.004784833379,                 73P    152
111.490279622585,-172.756926764451,-171.818160238433,                 73P    153
111.490279622585,-212.138368434279,-150.486209141483,                 73P    154
154.780554571997,-194.161996241826,3.14159265358979,                  73P    155
6.28318530717959,0.,0.,0.;                                            73P    156
126,1,1,0,0,1,0,0.0826368195974179,0.0826368195974179,                75P    157
0.0895044287980793,0.0895044287980793,1.,1.,-150.486209141483,        75P    158
154.780554571997,-194.161996241826,-150.258866815212,                 75P    159
154.588973865029,-193.970415534859,0.0826368195974179,                75P    160
0.0895044287980793,0.,0.,0.;                                          75P    161
126,4,2,0,0,0,0,-6.28318530717959,-6.28318530717959,                  77P    162
-6.28318530717959,-4.71238898038469,-4.71238898038469,                77P    163
-3.1415926535898,-3.1415926535898,-3.1415926535898,1.,                77P    164
0.707106781186548,1.,0.707106781186548,1.,-152.82173430419,           77P    165
155.848006672494,-193.961120692963,-173.466663742108,                 77P    166
113.951948144284,-211.358541762244,-205.58447237253,                  77P    167
113.951948144284,-173.245427741775,-237.702281002952,                 77P    168
113.951948144284,-135.132313721307,-217.057351565034,                 77P    169
155.848006672494,-117.734892652025,-6.28318530717959,                 77P    170
-3.1415926535898,0.,0.,0.;                                            77P    171
126,4,2,0,0,0,0,-3.1415926535898,-3.1415926535898,                    79P    172
-3.1415926535898,-1.5707963267949,-1.5707963267949,                   79P    173
1.78768137792275D-16,1.78768137792275D-16,1.78768137792275D-16,       79P    174
1.,0.707106781186547,1.,0.707106781186547,1.,-217.057351565034,       79P    175
155.848006672494,-117.734892652025,-196.412422127115,                 79P    176
197.744065200703,-100.337471582743,-164.294613496693,                 79P    177
197.744065200703,-138.450585603212,-132.176804866271,                 79P    178
197.744065200703,-176.563699623681,-152.82173430419,                  79P    179
155.848006672494,-193.961120692963,-3.1415926535898,                  79P    180
1.78768137792275D-16,0.,0.,0.;                                        79P    181
126,8,2,0,0,0,0,-6.28318530717958,-6.28318530717958,                  81P    182
-6.28318530717958,-5.07550060187299,-5.07550060187299,                81P    183
-3.86781589656639,-3.86781589656639,-2.66013119125979,                81P    184
-2.66013119125979,-1.45244648595319,-1.45244648595319,                81P    185
-1.45244648595319,1.,0.82315997225684,1.,0.823159972256852,1.,        81P    186
0.823159972256837,1.,0.823159972256844,1.,-181.929452585964,          81P    187
124.701500149844,-191.35101291122,-182.955650871109,                  81P    188
121.609222376299,-192.390547439696,-185.595261247042,                 81P    189
120.51089268529,-190.513841352372,-188.234871622976,                  81P    190
119.41256299428,-188.637135265048,-189.08377167045,                   81P    191
121.724621008479,-186.264446234967,-189.932671717924,                 81P    192
124.036679022679,-183.891757204887,-187.896093925168,                 81P    193
126.777423884832,-184.082977705138,-185.859516132411,                 81P    194
129.518168746986,-184.274198205388,-183.563893622309,                 81P    195
129.153051905626,-186.782724419793,-6.28318530717958,                 81P    196
-1.45244648595319,0.,0.,0.;                                           81P    197
126,2,2,0,0,0,0,-1.45244648595319,-1.45244648595319,                  83P    198
-1.45244648595319,1.41144379357961D-15,1.41144379357961D-15,          83P    199
1.41144379357961D-15,1.,0.747687686397176,1.,-183.563893622309,       83P    200
129.153051905626,-186.782724419793,-180.608175934951,                 83P    201
128.682947478085,-190.012565244447,-181.929452585964,                 83P    202
124.701500149844,-191.35101291122,-1.45244648595319,                  83P    203
1.41144379357961D-15,0.,0.,0.;                                        83P    204
126,4,2,0,0,0,0,-6.28318530717959,-6.28318530717959,                  85P    205
-6.28318530717959,-5.17526471387708,-5.17526471387708,                85P    206
-4.06734412057457,-4.06734412057457,-4.06734412057457,1.,             85P    207
0.85044784552094,1.,0.850447845521021,1.,-151.242081162915,           85P    208
173.080260793,-180.091799395023,-153.865311993481,                    85P    209
171.956890813013,-178.968429415036,-155.036645092748,                 85P    210
173.395642603491,-176.526456386876,-156.207978192014,                 85P    211
174.83439439397,-174.084483358717,-154.630801878231,                  85P    212
177.242636123847,-173.027058723094,-6.28318530717959,                 85P    213
-4.06734412057457,0.,0.,0.;                                           85P    214
126,6,2,0,0,0,0,-4.06734412057457,-4.06734412057457,                  87P    215
-4.06734412057457,-2.71156274704971,-2.71156274704971,                87P    216
-1.35578137352486,-1.35578137352486,-1.91956355926818D-15,            87P    217
-1.91956355926818D-15,-1.91956355926818D-15,1.,                       87P    218
0.778897309428142,1.,0.778897309428151,1.,0.778897309428133,1.,       87P    219
-154.630801878231,177.242636123847,-173.027058723094,                 87P    220
-152.577818566348,180.377403010219,-171.650627241378,                 87P    221
-149.474093504685,180.529732029831,-174.156571004915,                 87P    222
-146.370368443022,180.682061049444,-176.662514768453,                 87P    223
-147.098917550347,177.612296622991,-179.108292783507,                 87P    224
-147.827466657673,174.542532196539,-181.554070798562,                 87P    225
-151.242081162915,173.080260793,-180.091799395023,                    87P    226
-4.06734412057457,-1.91956355926818D-15,0.,0.,0.;                     87P    227
126,4,2,0,0,0,0,-6.28318530717959,-6.28318530717959,                  89P    228
-6.28318530717959,-4.91191720439286,-4.91191720439286,                89P    229
-3.54064910160614,-3.54064910160614,-3.54064910160614,1.,             89P    230
0.7740177442479,1.,0.77401774424789,1.,-181.929452585964,             89P    231
191.35101291122,-124.701500149844,-180.712487594185,                  89P    232
190.118232514668,-128.368621650375,-183.300266249637,                 89P    233
187.081190586162,-129.095470569947,-185.88804490509,                  89P    234
184.044148657656,-129.822319489519,-188.130841257807,                 89P    235
184.073003498915,-126.443330984747,-6.28318530717959,                 89P    236
-3.54064910160614,0.,0.,0.;                                           89P    237
126,6,2,0,0,0,0,-3.54064910160614,-3.54064910160614,                  91P    238
-3.54064910160614,-2.36043273440409,-2.36043273440409,                91P    239
-1.18021636720205,-1.18021636720205,-1.40655306609199D-15,            91P    240
-1.40655306609199D-15,-1.40655306609199D-15,1.,                       91P    241
0.830880485098842,1.,0.830880485098839,1.,0.83088048509881,1.,        91P    242
-188.130841257807,184.073003498915,-126.443330984747,                 91P    243
-189.96701135226,184.096626863798,-123.676964063182,                  91P    244
-189.010726983521,186.455736785039,-121.545066971511,                 91P    245
-188.054442614782,188.81484670628,-119.41316987984,                   91P    246
-185.490110244787,190.587566463441,-120.556204779846,                 91P    247
-182.925777874792,192.360286220602,-121.699239679852,                 91P    248
-181.929452585964,191.35101291122,-124.701500149844,                  91P    249
-3.54064910160614,-1.40655306609199D-15,0.,0.,0.;                     91P    250
126,8,2,0,1,0,0,-6.28318530717959,-6.28318530717959,                  93P    251
-6.28318530717959,-4.7123889803847,-4.7123889803847,                  93P    252
-3.1415926535898,-3.1415926535898,-1.5707963267949,                   93P    253
-1.5707963267949,-5.32907051820075D-15,-5.32907051820075D-15,         93P    254
-5.32907051820075D-15,1.,0.70710678118655,1.,0.707106781186543,       93P    255
1.,0.70710678118655,1.,0.707106781186543,1.,-217.063933001885,        93P    256
135.983419280694,-140.198996681447,-219.027396283576,                 93P    257
131.596122758517,-141.414429917694,-221.636944896287,                 93P    258
131.596122758517,-137.198852516942,-224.246493508998,                 93P    259
131.596122758517,-132.983275116189,-222.283030227306,                 93P    260
135.983419280694,-131.767841879942,-220.319566945615,                 93P    261
140.370715802871,-130.552408643695,-217.710018332904,                 93P    262
140.370715802871,-134.767986044447,-215.100469720193,                 93P    263
140.370715802871,-138.983563445199,-217.063933001885,                 93P    264
135.983419280694,-140.198996681447,-6.28318530717959,                 93P    265
-5.32907051820075D-15,0.,0.,0.;                                       93P    266
126,2,2,0,0,0,0,-8.88178419700128D-15,-8.88178419700128D-15,          95P    267
-8.88178419700128D-15,1.39926677332832,1.39926677332832,              95P    268
1.39926677332832,1.,0.765078314675053,1.,-216.859458331375,           95P    269
154.780554571997,-115.399112902169,-217.941477970471,                 95P    270
155.692369326471,-116.310927656643,-217.057351565033,                 95P    271
155.848006672494,-117.734892652026,-8.88178419700128D-15,             95P    272
1.39926677332832,0.,0.,0.;                                            95P    273
126,1,1,0,0,1,0,0.696246210112459,0.696246210112459,                  97P    274
2.09155573863877,2.09155573863877,1.,1.,-216.617828783482,            97P    275
135.06434360065,-137.602105146888,-217.063933001885,                  97P    276
135.983419280694,-140.198996681447,0.696246210112459,                 97P    277
2.09155573863877,0.,0.,0.;                                            97P    278
126,1,1,0,0,1,0,0.696246210112407,0.696246210112407,                  99P    279
2.09155573863874,2.09155573863874,1.,1.,-185.813493548882,            99P    280
184.313656959081,-124.90725148497,-188.130841257807,                  99P    281
184.073003498915,-126.443330984747,0.696246210112407,                 99P    282
2.09155573863874,0.,0.,0.;                                            99P    283
126,1,1,0,0,1,0,0.696246210112445,0.696246210112445,                 101P    284
2.09155573863878,2.09155573863878,1.,1.,-152.25987322442,            101P    285
175.787806521662,-173.250044975424,-154.630801878231,                101P    286
177.242636123847,-173.027058723094,0.696246210112445,                101P    287
2.09155573863878,0.,0.,0.;                                           101P    288
126,1,1,0,0,1,0,0.696246210112416,0.696246210112416,                 103P    289
2.09155573863876,2.09155573863876,1.,1.,-183.06420845902,            103P    290
126.538493163231,-185.944898637342,-183.563893622309,                103P    291
129.153051905626,-186.782724419793,0.696246210112416,                103P    292
2.09155573863876,0.,0.,0.;                                           103P    293
128,2,2,2,2,0,0,0,0,0,-0.752892726154337,-0.752892726154337,         105P    294
-0.752892726154337,-0.393770660946422,-0.393770660946422,            105P    295
-0.393770660946422,2.22733168914823,2.22733168914823,                105P    296
2.22733168914823,2.65677504188848,2.65677504188848,                  105P    297
2.65677504188848,1.,0.983922186141674,1.,0.977035735996495,          105P    298
0.961327137300211,0.977035735996495,1.,0.983922186141674,1.,         105P    299
-129.166007243307,167.624355694993,-198.288219394548,                105P    300
-151.134968534238,196.134434006416,-159.876323094027,                105P    301
-163.462385858273,212.132260605114,-111.265234552779,                105P    302
-165.722135978074,139.455363370668,-198.288219394548,                105P    303
-193.908678769435,163.17437075573,-159.876323094027,                 105P    304
-209.724960263558,176.483789379368,-111.265234552779,                105P    305
-187.230306782077,98.6234975633534,-198.288219394548,                105P    306
-219.075026998879,115.397692621224,-159.876323094027,                105P    307
-236.944017274797,124.810176899145,-111.265234552779,                105P    308
-0.752892726154337,-0.393770660946422,2.22733168914823,              105P    309
2.65677504188848;                                                    105P    310
128,1,8,1,2,0,1,0,0,1,-0.0895044287980793,-0.0895044287980793,       107P    311
-0.0826368195974179,-0.0826368195974179,-3.14159265358979,           107P    312
-3.14159265358979,-3.14159265358979,-1.5707963267949,                107P    313
-1.5707963267949,0.,0.,1.5707963267949,1.5707963267949,              107P    314
3.14159265358979,3.14159265358979,3.14159265358979,1.,1.,            107P    315
0.707106781186548,0.707106781186548,1.,1.,0.707106781186548,         107P    316
0.707106781186548,1.,1.,0.707106781186548,0.707106781186548,1.,      107P    317
1.,0.707106781186548,0.707106781186548,1.,1.,-150.486209141483,      107P    318
154.780554571997,-194.161996241826,-150.258866815212,                107P    319
154.588973865029,-193.970415534859,-171.818160238433,                107P    320
111.490279622585,-212.138368434279,-171.590817912162,                107P    321
111.298698915617,-211.946787727312,-205.004784833379,                107P    322
111.490279622585,-172.756926764451,-204.777442507108,                107P    323
111.298698915617,-172.565346057483,-238.191409428325,                107P    324
111.490279622585,-133.375485094622,-237.964067102054,                107P    325
111.298698915617,-133.183904387655,-216.859458331375,                107P    326
154.780554571997,-115.399112902169,-216.632116005104,                107P    327
154.588973865029,-115.207532195201,-195.527507234425,                107P    328
198.070829521409,-97.4227407097157,-195.300164908154,                107P    329
197.879248814442,-97.2311600027482,-162.340882639479,                107P    330
198.070829521409,-136.804182379544,-162.113540313208,                107P    331
197.879248814442,-136.612601672577,-129.154258044533,                107P    332
198.070829521409,-176.185624049373,-128.926915718262,                107P    333
197.879248814442,-175.994043342405,-150.486209141483,                107P    334
154.780554571997,-194.161996241826,-150.258866815212,                107P    335
154.588973865029,-193.970415534859,-0.0895044287980793,              107P    336
-0.0826368195974179,-3.14159265358979,3.14159265358979;              107P    337
128,2,2,2,2,0,0,0,0,0,-0.744119626797849,-0.744119626797849,         109P    338
-0.744119626797849,-0.398572906897843,-0.398572906897843,            109P    339
-0.398572906897843,2.23456264959017,2.23456264959017,                109P    340
2.23456264959017,2.64935733124887,2.64935733124887,                  109P    341
2.64935733124887,1.,0.985111773637174,1.,0.978570151673638,          109P    342
0.964000977743616,0.978570151673638,1.,0.985111773637174,1.,         109P    343
-165.796520492357,211.973302033398,-113.326223874641,                109P    344
-153.612194076645,196.395460618383,-160.289805873532,                109P    345
-132.347914328901,169.208764660556,-197.778723665713,                109P    346
-210.400589138216,177.085892579728,-113.326223874641,                109P    347
-194.938325825903,164.071914286326,-160.289805873532,                109P    348
-167.953338606394,141.359712920387,-197.778723665713,                109P    349
-237.162494991569,127.181437134861,-113.326223874641,                109P    350
-219.73350888281,117.834919249753,-160.289805873532,                 109P    351
-189.316165839677,101.523227967423,-197.778723665713,                109P    352
-0.744119626797849,-0.398572906897843,2.23456264959017,              109P    353
2.64935733124887;                                                    109P    354
128,2,8,2,2,0,1,0,0,1,-1.39926677332832,-1.39926677332832,           111P    355
-1.39926677332832,8.88178419700128D-15,8.88178419700128D-15,         111P    356
8.88178419700128D-15,-3.14159265358979,-3.14159265358979,            111P    357
-3.14159265358979,-1.5707963267949,-1.5707963267949,0.,0.,           111P    358
1.5707963267949,1.5707963267949,3.14159265358979,                    111P    359
3.14159265358979,3.14159265358979,1.,0.765078314675053,1.,           111P    360
0.707106781186548,0.540992064445506,0.707106781186548,1.,            111P    361
0.765078314675053,1.,0.707106781186548,0.540992064445506,            111P    362
0.707106781186548,1.,0.765078314675053,1.,0.707106781186548,         111P    363
0.540992064445506,0.707106781186548,1.,0.765078314675053,1.,         111P    364
0.707106781186548,0.540992064445506,0.707106781186548,1.,            111P    365
0.765078314675053,1.,-216.859458331375,154.780554571997,             111P    366
-115.399112902169,-217.941477970471,155.692369326471,                111P    367
-116.310927656643,-217.057351565033,155.848006672494,                111P    368
-117.734892652026,-238.191409428325,111.490279622585,                111P    369
-133.375485094622,-239.273429067421,112.402094377059,                111P    370
-134.287299849097,-237.702281002951,113.951948144285,                111P    371
-135.132313721307,-205.004784833379,111.490279622585,                111P    372
-172.756926764451,-206.086804472475,112.402094377059,                111P    373
-173.668741518925,-205.58447237253,113.951948144285,                 111P    374
-173.245427741775,-171.818160238433,111.490279622585,                111P    375
-212.138368434279,-172.900179877529,112.402094377059,                111P    376
-213.050183188754,-173.466663742108,113.951948144285,                111P    377
-211.358541762244,-150.486209141483,154.780554571997,                111P    378
-194.161996241826,-151.568228780579,155.692369326471,                111P    379
-195.073810996301,-152.82173430419,155.848006672494,                 111P    380
-193.961120692962,-129.154258044533,198.070829521409,                111P    381
-176.185624049373,-130.236277683629,198.982644275884,                111P    382
-177.097438803847,-132.176804866271,197.744065200702,                111P    383
-176.563699623681,-162.340882639479,198.070829521409,                111P    384
-136.804182379544,-163.422902278575,198.982644275884,                111P    385
-137.715997134019,-164.294613496693,197.744065200702,                111P    386
-138.450585603213,-195.527507234425,198.070829521409,                111P    387
-97.4227407097157,-196.609526873521,198.982644275884,                111P    388
-98.3345554641901,-196.412422127114,197.744065200702,                111P    389
-100.337471582744,-216.859458331375,154.780554571997,                111P    390
-115.399112902169,-217.941477970471,155.692369326471,                111P    391
-116.310927656643,-217.057351565033,155.848006672494,                111P    392
-117.734892652026,-1.39926677332832,8.88178419700128D-15,            111P    393
-3.14159265358979,3.14159265358979;                                  111P    394
128,1,8,1,2,0,1,0,0,1,0.696246210112459,0.696246210112459,           113P    395
2.09155573863877,2.09155573863877,-3.14159265358979,                 113P    396
-3.14159265358979,-3.14159265358979,-1.5707963267949,                113P    397
-1.5707963267949,0.,0.,1.5707963267949,1.5707963267949,              113P    398
3.14159265358979,3.14159265358979,3.14159265358979,1.,1.,            113P    399
0.707106781186548,0.707106781186548,1.,1.,0.707106781186548,         113P    400
0.707106781186548,1.,1.,0.707106781186548,0.707106781186548,1.,      113P    401
1.,0.707106781186548,0.707106781186548,1.,1.,-216.617828783482,      113P    402
135.06434360065,-137.602105146888,-217.063933001885,                 113P    403
135.983419280694,-140.198996681447,-217.799826204011,                113P    404
132.423207797063,-138.333791327865,-219.027396283576,                113P    405
131.596122758517,-141.414429917694,-219.370764534117,                113P    406
132.423207797063,-135.796029781627,-221.636944896287,                113P    407
131.596122758517,-137.198852516942,-220.941702864224,                113P    408
132.423207797063,-133.25826823539,-224.246493508998,                 113P    409
131.596122758517,-132.983275116189,-219.759705443696,                113P    410
135.06434360065,-132.526582054414,-222.283030227306,                 113P    411
135.983419280694,-131.767841879942,-218.577708023168,                113P    412
137.705479404238,-131.794895873437,-220.319566945614,                113P    413
140.370715802871,-130.552408643695,-217.006769693061,                113P    414
137.705479404238,-134.332657419674,-217.710018332904,                113P    415
140.370715802871,-134.767986044447,-215.435831362954,                113P    416
137.705479404238,-136.870418965912,-215.100469720193,                113P    417
140.370715802871,-138.983563445199,-216.617828783482,                113P    418
135.06434360065,-137.602105146888,-217.063933001885,                 113P    419
135.983419280694,-140.198996681447,0.696246210112459,                113P    420
2.09155573863877,-3.14159265358979,3.14159265358979;                 113P    421
128,1,8,1,2,0,1,0,0,1,0.696246210112407,0.696246210112407,           115P    422
2.09155573863874,2.09155573863874,-3.14159265358979,                 115P    423
-3.14159265358979,-3.14159265358979,-1.5707963267949,                115P    424
-1.5707963267949,0.,0.,1.5707963267949,1.5707963267949,              115P    425
3.14159265358979,3.14159265358979,3.14159265358979,1.,1.,            115P    426
0.707106781186548,0.707106781186548,1.,1.,0.707106781186548,         115P    427
0.707106781186548,1.,1.,0.707106781186548,0.707106781186548,1.,      115P    428
1.,0.707106781186548,0.707106781186548,1.,1.,-185.813493548882,      115P    429
184.313656959081,-124.90725148497,-188.130841257807,                 115P    430
184.073003498915,-126.443330984747,-187.464004284091,                115P    431
184.334891711493,-122.420598252047,-190.872570781356,                115P    432
184.108277397091,-122.312651651315,-185.854832419459,                115P    433
186.619434590873,-121.372022720714,-188.199510912304,                115P    434
187.903223123038,-120.570820816412,-184.245660554827,                115P    435
188.903977470254,-120.323447189381,-185.526451043253,                115P    436
191.698168848985,-118.828989981508,-182.595149819618,                115P    437
188.882742717842,-122.810100422305,-182.784721519704,                115P    438
191.662894950808,-122.95966931494,-180.944639084409,                 115P    439
188.86150796543,-125.296753655228,-180.042991996155,                 115P    440
191.627621052632,-127.090348648372,-182.553810949041,                115P    441
186.57696508605,-126.345329186561,-182.716051865207,                 115P    442
187.832675326685,-128.832179483276,-184.162982813673,                115P    443
184.29242220667,-127.393904717894,-185.389111734258,                 115P    444
184.037729600739,-130.574010318179,-185.813493548882,                115P    445
184.313656959081,-124.90725148497,-188.130841257807,                 115P    446
184.073003498915,-126.443330984747,0.696246210112407,                115P    447
2.09155573863874,-3.14159265358979,3.14159265358979;                 115P    448
128,1,8,1,2,0,1,0,0,1,0.696246210112445,0.696246210112445,           117P    449
2.09155573863878,2.09155573863878,-3.14159265358979,                 117P    450
-3.14159265358979,-3.14159265358979,-1.5707963267949,                117P    451
-1.5707963267949,0.,0.,1.5707963267949,1.5707963267949,              117P    452
3.14159265358979,3.14159265358979,3.14159265358979,1.,1.,            117P    453
0.707106781186548,0.707106781186548,1.,1.,0.707106781186548,         117P    454
0.707106781186548,1.,1.,0.707106781186548,0.707106781186548,1.,      117P    455
1.,0.707106781186548,0.707106781186548,1.,1.,-152.25987322442,       117P    456
175.787806521662,-173.250044975424,-154.630801878231,                117P    457
177.242636123847,-173.027058723094,-150.724949090459,                117P    458
178.131532026093,-172.220948495292,-152.081077889944,                117P    459
181.135892479905,-171.317585320728,-148.68495212095,                 117P    460
177.736257695881,-174.363435711316,-148.692357174628,                117P    461
180.47928645007,-174.876556691645,-146.644955151441,                 117P    462
177.340983365668,-176.505922927341,-145.303636459312,                117P    463
179.822680420235,-178.435528062563,-148.179879285402,                117P    464
174.997257861236,-177.535019407473,-147.8533604476,                  117P    465
175.929424064177,-180.145001464929,-149.714803419362,                117P    466
172.653532356804,-178.564115887605,-150.403084435887,                117P    467
172.036167708118,-181.854474867295,-151.754800388871,                117P    468
173.048806687017,-176.421628671581,-153.791805151203,                117P    469
172.692773737953,-178.295503496377,-153.794797358381,                117P    470
173.44408101723,-174.279141455556,-157.180525866518,                 117P    471
173.349379767788,-174.73653212546,-152.25987322442,                  117P    472
175.787806521662,-173.250044975424,-154.630801878231,                117P    473
177.242636123847,-173.027058723094,0.696246210112445,                117P    474
2.09155573863878,-3.14159265358979,3.14159265358979;                 117P    475
128,1,8,1,2,0,1,0,0,1,0.696246210112416,0.696246210112416,           119P    476
2.09155573863876,2.09155573863876,-3.14159265358979,                 119P    477
-3.14159265358979,-3.14159265358979,-1.5707963267949,                119P    478
-1.5707963267949,0.,0.,1.5707963267949,1.5707963267949,              119P    479
3.14159265358979,3.14159265358979,3.14159265358979,1.,1.,            119P    480
0.707106781186548,0.707106781186548,1.,1.,0.707106781186548,         119P    481
0.707106781186548,1.,1.,0.707106781186548,0.707106781186548,1.,      119P    482
1.,0.707106781186548,0.707106781186548,1.,1.,-183.06420845902,       119P    483
126.538493163231,-185.944898637342,-183.563893622309,                119P    484
129.153051905626,-186.782724419793,-181.060771010379,                119P    485
126.219848111663,-188.13414157111,-180.235903392165,                 119P    486
128.623737841331,-190.419363587106,-182.200884235609,                119P    487
123.54003090207,-188.78744277223,-182.129791158611,                  119P    488
124.172186085549,-191.504588392175,-183.340997460838,                119P    489
120.860213692477,-189.44074397335,-184.023678925058,                 119P    490
119.720634329767,-192.589813197244,-185.34443490948,                 119P    491
121.178858744044,-187.251501039582,-187.351669155202,                119P    492
120.249948394062,-188.95317402993,-187.347872358121,                 119P    493
121.497503795612,-185.062258105814,-190.679659385346,                119P    494
120.779262458357,-185.316534862617,-186.207759132891,                119P    495
124.177321005205,-184.408956904694,-188.7857716189,                  119P    496
125.230814214139,-184.231310057548,-185.067645907662,                119P    497
126.857138214798,-183.755655703574,-186.891883852453,                119P    498
129.68236596992,-183.146085252479,-183.06420845902,                  119P    499
126.538493163231,-185.944898637342,-183.563893622309,                119P    500
129.153051905626,-186.782724419793,0.696246210112416,                119P    501
2.09155573863876,-3.14159265358979,3.14159265358979;                 119P    502
502,20,-216.632116005104,154.588973865029,-115.207532195201,         121P    503
-150.258866815212,154.588973865029,-193.970415534859,                121P    504
-182.080281177579,123.858675953637,-188.694990917368,                121P    505
-183.06420845902,126.538493163231,-185.944898637342,                 121P    506
-150.219876254911,173.282072418963,-177.502991963934,                121P    507
-152.25987322442,175.787806521662,-173.250044975424,                 121P    508
-182.080281177579,188.694990917368,-123.858675953637,                121P    509
-185.813493548882,184.313656959081,-124.90725148497,                 121P    510
-216.617828783482,135.06434360065,-137.602105146888,                 121P    511
-150.486209141483,154.780554571997,-194.161996241826,                121P    512
-216.859458331375,154.780554571997,-115.399112902169,                121P    513
-152.82173430419,155.848006672494,-193.961120692963,                 121P    514
-217.057351565033,155.848006672494,-117.734892652026,                121P    515
-181.929452585964,124.701500149844,-191.35101291122,                 121P    516
-183.563893622309,129.153051905626,-186.782724419793,                121P    517
-151.242081162915,173.080260793,-180.091799395023,                   121P    518
-154.630801878231,177.242636123847,-173.027058723094,                121P    519
-181.929452585964,191.35101291122,-124.701500149844,                 121P    520
-188.130841257807,184.073003498915,-126.443330984747,                121P    521
-217.063933001885,135.983419280694,-140.198996681447;                121P    522
504,26,53,121,1,121,2,55,121,2,121,1,57,121,3,121,4,59,121,4,        123P    523
121,3,61,121,5,121,6,63,121,6,121,5,65,121,7,121,8,67,121,8,121,     123P    524
7,69,121,9,121,9,71,121,10,121,11,73,121,11,121,10,75,121,10,        123P    525
121,2,77,121,12,121,13,79,121,13,121,12,81,121,14,121,15,83,121,     123P    526
15,121,14,85,121,16,121,17,87,121,17,121,16,89,121,18,121,19,91,     123P    527
121,19,121,18,93,121,20,121,20,95,121,11,121,13,97,121,9,121,20,     123P    528
99,121,8,121,19,101,121,6,121,17,103,121,4,121,15;                   123P    529
406,1,24H 1;                                   125P    530
314,81.1764705882353,30.9803921568627,0.,;                           127P    531
S      1G      3D    128P    531                                        T      1
