                                                                        S      1
,,23HFront Hemisphere Spacer,14HINT-207-01-005,22HAutodesk Inventor 2023G      1
,7Hunknown,32,38,7,99,15,,1.,2,2HMM,1,0.08,15H20220807.124245,0.01,     G      2
10000.,,,11,0,15H20181119.080603;                                       G      3
     186       1                                                00000000D      1
     186            -175       1       0                               0D      2
     514       2                                                00010000D      3
     514                       2       1                               0D      4
     510       4                                                00010000D      5
     510            -175       1       1                               0D      6
     510       5                                                00010000D      7
     510            -175       1       1                               0D      8
     510       6                                                00010000D      9
     510            -175       1       1                               0D     10
     510       7                                                00010000D     11
     510            -175       1       1                               0D     12
     510       8                                                00010000D     13
     510            -175       1       1                               0D     14
     510       9                                                00010000D     15
     510            -175       1       1                               0D     16
     510      10                                                00010000D     17
     510            -175       1       1                               0D     18
     510      11                                                00010000D     19
     510            -175       1       1                               0D     20
     510      12                                                00010000D     21
     510            -175       1       1                               0D     22
     510      13                                                00010000D     23
     510            -175       1       1                               0D     24
     510      14                                                00010000D     25
     510            -175       1       1                               0D     26
     510      15                                                00010000D     27
     510            -175       1       1                               0D     28
     510      16                                                00010000D     29
     510            -175       1       1                               0D     30
     510      17                                                00010000D     31
     510            -175       1       1                               0D     32
     508      18                                                00010000D     33
     508                       1       1                               0D     34
     508      19                                                00010000D     35
     508                       1       1                               0D     36
     508      20                                                00010000D     37
     508                       1       1                               0D     38
     508      21                                                00010000D     39
     508                       1       1                               0D     40
     508      22                                                00010000D     41
     508                       2       1                               0D     42
     508      24                                                00010000D     43
     508                       1       1                               0D     44
     508      25                                                00010000D     45
     508                       3       1                               0D     46
     508      28                                                00010000D     47
     508                       3       1                               0D     48
     508      31                                                00010000D     49
     508                       2       1                               0D     50
     508      33                                                00010000D     51
     508                       1       1                               0D     52
     508      34                                                00010000D     53
     508                       1       1                               0D     54
     508      35                                                00010000D     55
     508                       2       1                               0D     56
     508      37                                                00010000D     57
     508                       2       1                               0D     58
     508      39                                                00010000D     59
     508                       2       1                               0D     60
     508      41                                                00010000D     61
     508                       2       1                               0D     62
     126      43                                                00010000D     63
     126       0               3       0                               0D     64
     126      46                                                00010000D     65
     126       0               6       0                               0D     66
     126      52                                                00010000D     67
     126       0               3       0                               0D     68
     126      55                                                00010000D     69
     126       0               7       0                               0D     70
     126      62                                                00010000D     71
     126       0               3       0                               0D     72
     126      65                                                00010000D     73
     126       0               6       0                               0D     74
     126      71                                                00010000D     75
     126       0               6       0                               0D     76
     126      77                                                00010000D     77
     126       0               3       0                               0D     78
     126      80                                                00010000D     79
     126       0               7       0                               0D     80
     126      87                                                00010000D     81
     126       0               7       0                               0D     82
     126      94                                                00010000D     83
     126       0               3       0                               0D     84
     126      97                                                00010000D     85
     126       0               7       0                               0D     86
     126     104                                                00010000D     87
     126       0               6       0                               0D     88
     126     110                                                00010000D     89
     126       0               3       0                               0D     90
     126     113                                                00010000D     91
     126       0               6       0                               0D     92
     126     119                                                00010000D     93
     126       0               6       0                               0D     94
     126     125                                                00010000D     95
     126       0               6       0                               0D     96
     126     131                                                00010000D     97
     126       0               7       0                               0D     98
     126     138                                                00010000D     99
     126       0               7       0                               0D    100
     126     145                                                00010000D    101
     126       0               7       0                               0D    102
     126     152                                                00010000D    103
     126       0              15       0                               0D    104
     126     167                                                00010000D    105
     126       0               6       0                               0D    106
     126     173                                                00010000D    107
     126       0               6       0                               0D    108
     126     179                                                00010000D    109
     126       0              10       0                               0D    110
     126     189                                                00010000D    111
     126       0               8       0                               0D    112
     126     197                                                00010000D    113
     126       0               4       0                               0D    114
     126     201                                                00010000D    115
     126       0               9       0                               0D    116
     126     210                                                00010000D    117
     126       0               7       0                               0D    118
     126     217                                                00010000D    119
     126       0               9       0                               0D    120
     126     226                                                00010000D    121
     126       0               7       0                               0D    122
     126     233                                                00010000D    123
     126       0               9       0                               0D    124
     126     242                                                00010000D    125
     126       0               4       0                               0D    126
     126     246                                                00010000D    127
     126       0               5       0                               0D    128
     126     251                                                00010000D    129
     126       0               8       0                               0D    130
     126     259                                                00010000D    131
     126       0               4       0                               0D    132
     126     263                                                00010000D    133
     126       0               3       0                               0D    134
     126     266                                                00010000D    135
     126       0               8       0                               0D    136
     126     274                                                00010000D    137
     126       0               5       0                               0D    138
     126     279                                                00010000D    139
     126       0               4       0                               0D    140
     128     283                                                00010000D    141
     128       0    -175       8       0                               0D    142
     128     291                                                00010000D    143
     128       0    -175       7       0                               0D    144
     128     298                                                00010000D    145
     128       0    -175       9       0                               0D    146
     128     307                                                00010000D    147
     128       0    -175       8       0                               0D    148
     128     315                                                00010000D    149
     128       0    -175       7       0                               0D    150
     128     322                                                00010000D    151
     128       0    -175       9       0                               0D    152
     128     331                                                00010000D    153
     128       0    -175      35       0                               0D    154
     128     366                                                00010000D    155
     128       0    -175      35       0                               0D    156
     128     401                                                00010000D    157
     128       0    -175      21       0                               0D    158
     128     422                                                00010000D    159
     128       0    -175       7       0                               0D    160
     128     429                                                00010000D    161
     128       0    -175      20       0                               0D    162
     128     449                                                00010000D    163
     128       0    -175      17       0                               0D    164
     128     466                                                00010000D    165
     128       0    -175      14       0                               0D    166
     128     480                                                00010000D    167
     128       0    -175      18       0                               0D    168
     502     498                                                00010000D    169
     502                      18       1                               0D    170
     504     516                                                00010001D    171
     504                      11       1                               0D    172
     406     527                                                00000000D    173
     406                       1      15                               0D    174
     314     528                                                00000200D    175
     314                       1       0                               0D    176
186,3,1,0,0,1,173;                                                     1P      1
514,14,5,1,7,1,9,1,11,1,13,1,15,1,17,1,19,1,21,1,23,1,25,1,27,1,       3P      2
29,1,31,1;                                                             3P      3
510,141,1,1,33;                                                        5P      4
510,143,1,1,35;                                                        7P      5
510,145,1,1,37;                                                        9P      6
510,147,1,1,39;                                                       11P      7
510,149,1,1,41;                                                       13P      8
510,151,1,1,43;                                                       15P      9
510,153,1,1,45;                                                       17P     10
510,155,1,1,47;                                                       19P     11
510,157,1,1,49;                                                       21P     12
510,159,2,1,51,53;                                                    23P     13
510,161,1,1,55;                                                       25P     14
510,163,1,1,57;                                                       27P     15
510,165,1,1,59;                                                       29P     16
510,167,1,1,61;                                                       31P     17
508,4,0,171,1,0,0,0,171,2,1,0,0,171,3,1,0,0,171,4,1,0;                33P     18
508,4,0,171,5,0,0,0,171,6,1,0,0,171,1,1,0,0,171,7,0,0;                35P     19
508,4,0,171,8,0,0,0,171,9,1,0,0,171,5,1,0,0,171,10,1,0;               37P     20
508,4,0,171,11,0,0,0,171,12,1,0,0,171,8,1,0,0,171,13,1,0;             39P     21
508,6,0,171,14,0,0,0,171,15,1,0,0,171,16,1,0,0,171,11,1,0,0,171,      41P     22
17,1,0,0,171,18,1,0;                                                  41P     23
508,4,0,171,3,0,0,0,171,19,1,0,0,171,14,1,0,0,171,20,1,0;             43P     24
508,10,0,171,21,0,0,0,171,22,1,0,0,171,17,0,0,0,171,13,0,0,0,         45P     25
171,10,0,0,0,171,7,1,0,0,171,4,0,0,0,171,20,0,0,0,171,18,0,0,0,       45P     26
171,22,0,0;                                                           45P     27
508,11,0,171,6,0,0,0,171,9,0,0,0,171,12,0,0,0,171,16,0,0,0,171,       47P     28
23,1,0,0,171,24,1,0,0,171,25,1,0,0,171,23,0,0,0,171,15,0,0,0,         47P     29
171,19,0,0,0,171,2,0,0;                                               47P     30
508,6,0,171,25,0,0,0,171,24,0,0,0,171,26,1,0,0,171,27,1,0,0,171,      49P     31
28,1,0,0,171,26,0,0;                                                  49P     32
508,2,0,171,29,1,0,0,171,30,1,0;                                      51P     33
508,1,0,171,31,1,0;                                                   53P     34
508,6,0,171,28,0,0,0,171,27,0,0,0,171,32,1,0,0,171,29,0,0,0,171,      55P     35
30,0,0,0,171,32,0,0;                                                  55P     36
508,5,0,171,33,1,0,0,171,34,1,0,0,171,35,1,0,0,171,31,0,0,0,171,      57P     37
35,0,0;                                                               57P     38
508,6,0,171,33,0,0,0,171,34,0,0,0,171,36,1,0,0,171,37,1,0,0,171,      59P     39
38,1,0,0,171,36,0,0;                                                  59P     40
508,5,0,171,38,0,0,0,171,37,0,0,0,171,39,1,0,0,171,21,1,0,0,171,      61P     41
39,0,0;                                                               61P     42
126,1,1,0,0,1,0,0.,0.,1.,1.,1.,1.,7.,4.04145188432739,                63P     43
279.883309017645,7.,4.04145188432739,287.886551729438,0.,1.,0.,       63P     44
0.,0.;                                                                63P     45
126,2,2,0,0,0,0,-1.58523509787842,-1.58523509787842,                  65P     46
-1.58523509787842,-1.55635755571137,-1.55635755571137,                65P     47
-1.55635755571137,1.,0.99989576275575,1.,6.99999999999943,            65P     48
4.0414518843277,279.883309017645,3.5,6.06217782649107,                65P     49
279.941666671736,5.60255145189304D-13,8.08290376865443,               65P     50
279.883309017645,-1.58523509787842,-1.55635755571137,0.,0.,0.;        65P     51
126,1,1,0,0,1,0,0.,0.,1.,1.,1.,1.,7.89739483236496D-16,               67P     52
8.08290376865477,279.883309017645,7.89739483236496D-16,               67P     53
8.08290376865477,287.886551729439,0.,1.,0.,0.,0.;                     67P     54
126,2,2,0,0,0,0,1.55675889989391,1.55675889989391,                    69P     55
1.55675889989391,1.58483375369588,1.58483375369588,                   69P     56
1.58483375369588,1.,0.999901476940841,1.,4.74743750612035D-15,        69P     57
8.08290376865476,287.886551729439,3.49999999999994,                   69P     58
6.06217782649111,287.94328704144,6.99999999999987,                    69P     59
4.04145188432746,287.886551729438,1.55675889989391,                   69P     60
1.58483375369588,0.,0.,0.;                                            69P     61
126,1,1,0,0,1,0,0.,0.,1.,1.,1.,1.,7.,-4.04145188432738,               71P     62
279.883309017645,7.,-4.04145188432738,287.886551729439,0.,1.,0.,      71P     63
0.,0.;                                                                71P     64
126,2,2,0,0,0,0,-1.58523509787842,-1.58523509787842,                  73P     65
-1.58523509787842,-1.55635755571136,-1.55635755571136,                73P     66
-1.55635755571136,1.,0.99989576275575,1.,7.,-4.04145188432584,        73P     67
279.883309017645,7.,1.4322421588039D-12,279.941666671736,7.,          73P     68
4.0414518843287,279.883309017645,-1.58523509787842,                   73P     69
-1.55635755571136,0.,0.,0.;                                           73P     70
126,2,2,0,0,0,0,6.2691478802786,6.2691478802786,6.2691478802786,      75P     71
6.29722273408057,6.29722273408057,6.29722273408057,1.,                75P     72
0.999901476940841,1.,6.9999999999999,-4.04145188432745,               75P     73
287.886551729438,6.9999999999999,-6.94381147825006D-14,               75P     74
287.94328704144,6.9999999999999,4.04145188432731,                     75P     75
287.886551729438,6.2691478802786,6.29722273408057,0.,0.,0.;           75P     76
126,1,1,0,0,1,0,0.,0.,1.,1.,1.,1.,-2.03182201365055D-15,              77P     77
-8.08290376865476,279.883309017645,-2.03182201365055D-15,             77P     78
-8.08290376865476,287.886551729439,0.,1.,0.,0.,0.;                    77P     79
126,2,2,0,0,0,0,-1.58523509787842,-1.58523509787842,                  79P     80
-1.58523509787842,-1.55635755571136,-1.55635755571136,                79P     81
-1.55635755571136,1.,0.999895762755749,1.,5.00906083198913D-13,       79P     82
-8.08290376865446,279.883309017645,3.50000000000155,                  79P     83
-6.06217782649018,279.941666671736,7.00000000000259,                  79P     84
-4.04145188432588,279.883309017645,-1.58523509787842,                 79P     85
-1.55635755571136,0.,0.,0.;                                           79P     86
126,2,2,0,0,0,0,1.55675889989391,1.55675889989391,                    81P     87
1.55675889989391,1.58483375369588,1.58483375369588,                   81P     88
1.58483375369588,1.,0.999901476940841,1.,6.9999999999999,             81P     89
-4.04145188432744,287.886551729439,3.49999999999994,                  81P     90
-6.06217782649111,287.94328704144,-2.49240469071318D-14,              81P     91
-8.08290376865477,287.886551729439,1.55675889989391,                  81P     92
1.58483375369588,0.,0.,0.;                                            81P     93
126,1,1,0,0,1,0,0.,0.,1.,1.,1.,1.,-7.,-4.04145188432738,              83P     94
279.883309017645,-7.,-4.04145188432738,287.886551729438,0.,1.,        83P     95
0.,0.,0.;                                                             83P     96
126,2,2,0,0,0,0,-1.58523509787842,-1.58523509787842,                  85P     97
-1.58523509787842,-1.55635755571136,-1.55635755571136,                85P     98
-1.55635755571136,1.,0.99989576275575,1.,-6.99999999999945,           85P     99
-4.0414518843277,279.883309017645,-3.49999999999915,                  85P    100
-6.06217782649156,279.941666671736,1.14424991517477D-12,              85P    101
-8.08290376865542,279.883309017645,-1.58523509787842,                 85P    102
-1.55635755571136,0.,0.,0.;                                           85P    103
126,2,2,0,0,0,0,1.55675889989391,1.55675889989391,                    87P    104
1.55675889989391,1.58483375369588,1.58483375369588,                   87P    105
1.58483375369588,1.,0.999901476940841,1.,0.,-8.08290376865475,        87P    106
287.886551729439,-3.49999999999999,-6.06217782649107,                 87P    107
287.94328704144,-6.99999999999998,-4.04145188432739,                  87P    108
287.886551729439,1.55675889989391,1.58483375369588,0.,0.,0.;          87P    109
126,1,1,0,0,1,0,0.,0.,1.,1.,1.,1.,-7.,4.04145188432739,               89P    110
279.883309017645,-7.,4.04145188432739,287.886551729438,0.,1.,0.,      89P    111
0.,0.;                                                                89P    112
126,2,2,0,0,0,0,-6.29762407826312,-6.29762407826312,                  91P    113
-6.29762407826312,-6.28318530717959,-6.28318530717959,                91P    114
-6.28318530717959,1.,0.999973940349385,1.,-7.,4.04145188432734,       91P    115
279.883309017645,-7.,2.02083126510471,279.912486323851,-7.,           91P    116
-9.95225338539824D-14,279.912486323851,-6.29762407826312,             91P    117
-6.28318530717959,0.,0.,0.;                                           91P    118
126,2,2,0,0,0,0,-6.28318530717959,-6.28318530717959,                  93P    119
-6.28318530717959,-6.26874653609605,-6.26874653609605,                93P    120
-6.26874653609605,1.,0.999973940349385,1.,-7.00000000000001,          93P    121
-7.31609103033741D-14,279.912486323851,-7.,-2.0208312651055,          93P    122
279.912486323851,-7.00000000000001,-4.04145188432877,                 93P    123
279.883309017645,-6.28318530717959,-6.26874653609605,0.,0.,0.;        93P    124
126,2,2,0,0,0,0,6.2691478802786,6.2691478802786,6.2691478802786,      95P    125
6.28318530717959,6.28318530717959,6.28318530717959,1.,                95P    126
0.999975368931866,1.,-6.99999999999997,-4.04145188432743,             95P    127
287.886551729438,-6.99999999999997,-2.02082549111846,                 95P    128
287.914917987936,-6.99999999999997,-6.57525875111764D-14,             95P    129
287.914917987936,6.2691478802786,6.28318530717959,0.,0.,0.;           95P    130
126,2,2,0,0,0,0,6.28318530717959,6.28318530717959,                    97P    131
6.28318530717959,6.29722273408057,6.29722273408057,                   97P    132
6.29722273408057,1.,0.999975368931866,1.,-6.99999999999997,           97P    133
-7.10838783904609D-14,287.914917987936,-6.99999999999997,             97P    134
2.0208254911183,287.914917987936,-6.99999999999997,                   97P    135
4.04145188432726,287.886551729438,6.28318530717959,                   97P    136
6.29722273408057,0.,0.,0.;                                            97P    137
126,2,2,0,0,0,0,-1.58523509787843,-1.58523509787843,                  99P    138
-1.58523509787843,-1.55635755571137,-1.55635755571137,                99P    139
-1.55635755571137,1.,0.999895762755749,1.,1.10864047798053D-12,       99P    140
8.08290376865541,279.883309017645,-3.49999999999945,                  99P    141
6.06217782649139,279.941666671736,-7.00000000000001,                  99P    142
4.04145188432738,279.883309017645,-1.58523509787843,                  99P    143
-1.55635755571137,0.,0.,0.;                                           99P    144
126,2,2,0,0,0,0,1.55675889989391,1.55675889989391,                   101P    145
1.55675889989391,1.58483375369588,1.58483375369588,                  101P    146
1.58483375369588,1.,0.999901476940841,1.,-6.99999999999996,          101P    147
4.04145188432741,287.886551729439,-3.49999999999997,                 101P    148
6.06217782649109,287.94328704144,1.24620234535659D-14,               101P    149
8.08290376865477,287.886551729438,1.55675889989391,                  101P    150
1.58483375369588,0.,0.,0.;                                           101P    151
126,8,2,0,1,0,0,-6.28318530717959,-6.28318530717959,                 103P    152
-6.28318530717959,-4.71238898038469,-4.71238898038469,               103P    153
-3.14159265358979,-3.14159265358979,-1.5707963267949,                103P    154
-1.5707963267949,0.,0.,0.,1.,0.707106781186547,1.,                   103P    155
0.707106781186548,1.,0.707106781186548,1.,0.707106781186548,1.,      103P    156
-3.23186582369664,-7.91578827252763D-16,287.981865823697,            103P    157
-3.23186582369664,-3.23186582369664,287.981865823697,                103P    158
5.93684120439572D-16,-3.23186582369664,287.981865823697,             103P    159
3.23186582369664,-3.23186582369664,287.981865823697,                 103P    160
3.23186582369664,3.95789413626381D-16,287.981865823697,              103P    161
3.23186582369664,3.23186582369664,287.981865823697,                  103P    162
-1.97894706813191D-16,3.23186582369664,287.981865823697,             103P    163
-3.23186582369664,3.23186582369664,287.981865823697,                 103P    164
-3.23186582369664,0.,287.981865823697,-6.28318530717959,0.,0.,       103P    165
0.,0.;                                                               103P    166
126,2,2,0,0,0,0,-1.55957433492739,-1.55957433492739,                 105P    167
-1.55957433492739,-1.54648839660149,-1.54648839660149,               105P    168
-1.54648839660149,1.,0.999972442269546,0.999987694731413,            105P    169
-3.23186582369664,0.,287.981865823697,-5.11615193410633,0.,          105P    170
287.960719492608,-6.99999999999997,0.,287.914917987936,              105P    171
-1.55957433492739,-1.54648839660149,0.,0.,0.;                        105P    172
126,2,2,0,0,0,0,1.54579372566814,1.54579372566814,                   107P    173
1.54579372566814,1.55293823476122,1.55293823476122,                  107P    174
1.55293823476122,0.999993089628192,0.999990164328947,1.,-7.,0.,      107P    175
279.912486323851,-6.00007656674751,0.,279.937492225248,              107P    176
-4.99999999999999,0.,279.955353583388,1.54579372566814,              107P    177
1.55293823476122,0.,0.,0.;                                           107P    178
126,4,2,0,0,0,0,3.14159265358979,3.14159265358979,                   109P    179
3.14159265358979,4.71238898038469,4.71238898038469,                  109P    180
6.28318530717959,6.28318530717959,6.28318530717959,1.,               109P    181
0.707106781186548,1.,0.707106781186548,1.,-5.00000000000001,         109P    182
6.12323399573678D-16,279.955353583388,-5.00000000000001,             109P    183
-5.00000000000001,279.955353583388,-9.18485099360517D-16,            109P    184
-5.00000000000001,279.955353583388,5.00000000000001,                 109P    185
-5.00000000000001,279.955353583388,5.00000000000001,                 109P    186
-1.22464679914736D-15,279.955353583388,3.14159265358979,             109P    187
6.28318530717959,0.,0.,0.;                                           109P    188
126,4,2,0,0,0,0,0.,0.,0.,1.5707963267949,1.5707963267949,            111P    189
3.14159265358979,3.14159265358979,3.14159265358979,1.,               111P    190
0.707106781186548,1.,0.707106781186548,1.,5.00000000000001,0.,       111P    191
279.955353583388,5.00000000000001,5.00000000000001,                  111P    192
279.955353583388,3.06161699786839D-16,5.00000000000001,              111P    193
279.955353583388,-5.00000000000001,5.00000000000001,                 111P    194
279.955353583388,-5.00000000000001,6.12323399573678D-16,             111P    195
279.955353583388,0.,3.14159265358979,0.,0.,0.;                       111P    196
126,1,1,0,0,1,0,1.59191288090955,1.59191288090955,                   113P    197
3.08298359758721,3.08298359758721,1.,1.,-5.00000000000001,0.,        113P    198
279.955353583388,-5.00000000000001,0.,272.5,1.59191288090955,        113P    199
3.08298359758721,0.,0.,0.;                                           113P    200
126,4,2,0,0,0,0,3.14159265358979,3.14159265358979,                   115P    201
3.14159265358979,4.71238898038469,4.71238898038469,                  115P    202
6.28318530717959,6.28318530717959,6.28318530717959,1.,               115P    203
0.707106781186547,1.,0.707106781186547,1.,-5.00000000000001,         115P    204
6.12323399573678D-16,272.5,-5.00000000000001,-5.00000000000001,      115P    205
272.5,-9.18485099360516D-16,-5.00000000000001,272.5,                 115P    206
5.00000000000001,-5.00000000000001,272.5,5.00000000000001,           115P    207
-1.22464679914736D-15,272.5,3.14159265358979,6.28318530717959,       115P    208
0.,0.,0.;                                                            115P    209
126,4,2,0,0,0,0,0.,0.,0.,1.5707963267949,1.5707963267949,            117P    210
3.14159265358979,3.14159265358979,3.14159265358979,1.,               117P    211
0.707106781186547,1.,0.707106781186547,1.,5.00000000000001,0.,       117P    212
272.5,5.00000000000001,5.00000000000001,272.5,                       117P    213
3.06161699786839D-16,5.00000000000001,272.5,-5.00000000000001,       117P    214
5.00000000000001,272.5,-5.00000000000001,6.12323399573678D-16,       117P    215
272.5,0.,3.14159265358979,0.,0.,0.;                                  117P    216
126,4,2,0,0,0,0,-6.28318530717959,-6.28318530717959,                 119P    217
-6.28318530717959,-4.71238898038469,-4.71238898038469,               119P    218
-3.14159265358979,-3.14159265358979,-3.14159265358979,1.,            119P    219
0.707106781186548,1.,0.707106781186547,1.,4.49999999999997,          119P    220
-1.10218211923261D-15,272.,4.49999999999997,-4.49999999999998,       119P    221
272.,-8.26636589424459D-16,-4.49999999999997,272.,                   119P    222
-4.49999999999998,-4.49999999999997,272.,-4.49999999999997,          119P    223
5.51091059616306D-16,272.,-6.28318530717959,-3.14159265358979,       119P    224
0.,0.,0.;                                                            119P    225
126,4,2,0,0,0,0,-3.14159265358979,-3.14159265358979,                 121P    226
-3.14159265358979,-1.5707963267949,-1.5707963267949,0.,0.,0.,1.,     121P    227
0.707106781186547,1.,0.707106781186548,1.,-4.49999999999997,         121P    228
5.51091059616306D-16,272.,-4.49999999999997,4.49999999999997,        121P    229
272.,2.75545529808153D-16,4.49999999999997,272.,                     121P    230
4.49999999999997,4.49999999999997,272.,4.49999999999997,0.,272.,     121P    231
-3.14159265358979,0.,0.,0.,0.;                                       121P    232
126,8,2,0,1,0,0,0.,0.,0.,1.5707963267949,1.5707963267949,            123P    233
3.14159265358979,3.14159265358979,4.71238898038469,                  123P    234
4.71238898038469,6.28318530717959,6.28318530717959,                  123P    235
6.28318530717959,1.,0.707106781186548,1.,0.707106781186548,1.,       123P    236
0.707106781186548,1.,0.707106781186548,1.,2.525,0.,272.,2.525,       123P    237
2.525,272.,1.54611658392353D-16,2.525,272.,-2.525,2.525,272.,        123P    238
-2.525,3.09223316784706D-16,272.,-2.525,-2.525,272.,                 123P    239
-4.63834975177059D-16,-2.525,272.,2.525,-2.525,272.,2.525,           123P    240
-6.18446633569412D-16,272.,0.,6.28318530717959,0.,0.,0.;             123P    241
126,1,1,0,0,1,0,-8.32667268468867D-17,-8.32667268468867D-17,         125P    242
0.141421356237315,0.141421356237315,1.,1.,-5.00000000000001,0.,      125P    243
272.5,-4.49999999999997,0.,272.,-8.32667268468867D-17,               125P    244
0.141421356237315,0.,0.,0.;                                          125P    245
126,4,2,0,0,0,0,0.,0.,0.,1.5707963267949,1.5707963267949,            127P    246
3.14159265358979,3.14159265358979,3.14159265358979,1.,               127P    247
0.707106781186548,1.,0.707106781186548,1.,2.1,0.,272.425,2.1,        127P    248
2.1,272.425,1.28587913910472D-16,2.1,272.425,-2.1,2.1,272.425,       127P    249
-2.1,2.57175827820944D-16,272.425,0.,3.14159265358979,0.,0.,0.;      127P    250
126,4,2,0,0,0,0,3.14159265358979,3.14159265358979,                   129P    251
3.14159265358979,4.71238898038469,4.71238898038469,                  129P    252
6.28318530717959,6.28318530717959,6.28318530717959,1.,               129P    253
0.707106781186548,1.,0.707106781186548,1.,-2.1,                      129P    254
2.57175827820944D-16,272.425,-2.1,-2.1,272.425,                      129P    255
-3.85763741731416D-16,-2.1,272.425,2.1,-2.1,272.425,2.1,             129P    256
-5.14351655641888D-16,272.425,3.14159265358979,6.28318530717959,     129P    257
0.,0.,0.;                                                            129P    258
126,1,1,0,0,1,0,-5.44096236920197D-17,-5.44096236920197D-17,         131P    259
0.286209887623128,0.286209887623128,1.,1.,2.1,0.,272.425,            131P    260
2.52499999999999,0.,272.,-5.44096236920197D-17,                      131P    261
0.286209887623128,0.,0.,0.;                                          131P    262
126,1,1,0,0,1,0,-7.41666666666665,-7.41666666666665,                 133P    263
-0.54761904761904,-0.54761904761904,1.,1.,-2.1,0.,272.425,-2.1,      133P    264
0.,286.85,-7.41666666666665,-0.54761904761904,0.,0.,0.;              133P    265
126,4,2,0,0,0,0,3.14159265358979,3.14159265358979,                   135P    266
3.14159265358979,4.71238898038469,4.71238898038469,                  135P    267
6.28318530717959,6.28318530717959,6.28318530717959,1.,               135P    268
0.707106781186548,1.,0.707106781186547,1.,-2.1,                      135P    269
2.57175827820944D-16,286.85,-2.1,-2.1,286.85,                        135P    270
-3.85763741731416D-16,-2.1,286.85,2.1,-2.1,286.85,2.1,               135P    271
-5.14351655641888D-16,286.85,3.14159265358979,6.28318530717959,      135P    272
0.,0.,0.;                                                            135P    273
126,4,2,0,0,0,0,0.,0.,0.,1.5707963267949,1.5707963267949,            137P    274
3.14159265358979,3.14159265358979,3.14159265358979,1.,               137P    275
0.707106781186548,1.,0.707106781186548,1.,2.1,0.,286.85,2.1,2.1,     137P    276
286.85,1.28587913910472D-16,2.1,286.85,-2.1,2.1,286.85,-2.1,         137P    277
2.57175827820944D-16,286.85,0.,3.14159265358979,0.,0.,0.;            137P    278
126,1,1,0,0,1,0,-0.500414029762784,-0.500414029762784,               139P    279
-0.00789095325251177,-0.00789095325251177,1.,1.,-2.1,0.,286.85,      139P    280
-3.23186582369665,0.,287.981865823697,-0.500414029762784,            139P    281
-0.00789095325251177,0.,0.,0.;                                       139P    282
128,1,1,1,1,0,0,1,0,0,-1.59532870414398,-1.59532870414398,           141P    283
-0.787330901764517,-0.787330901764517,-0.001,-0.001,                 141P    284
0.809290376865476,0.809290376865476,1.,1.,1.,1.,                     141P    285
7.00866025403784,4.03645188432739,287.95328704144,                   141P    286
7.00866025403784,4.03645188432739,279.873309017645,                  141P    287
-0.00866025403784443,8.08790376865477,287.95328704144,               141P    288
-0.00866025403784443,8.08790376865477,279.873309017645,              141P    289
-1.59532870414398,-0.787330901764517,-0.001,0.809290376865476;       141P    290
128,1,1,1,1,0,0,1,0,0,-1.59532870414396,-1.59532870414396,           143P    291
-0.787330901764517,-0.787330901764517,-0.00100000000000533,          143P    292
-0.00100000000000533,0.809290376865613,0.809290376865613,1.,1.,      143P    293
1.,1.,7.,-4.05145188432744,287.95328704144,7.,-4.05145188432744,     143P    294
279.873309017645,7.,4.05145188432874,287.95328704144,7.,             143P    295
4.05145188432874,279.873309017645,-1.59532870414396,                 143P    296
-0.787330901764517,-0.00100000000000533,0.809290376865613;           143P    297
128,1,1,1,1,0,0,1,0,0,-1.59532870414398,-1.59532870414398,           145P    298
-0.787330901764517,-0.787330901764517,-0.00100000000000286,          145P    299
-0.00100000000000286,0.809290376865777,0.809290376865777,1.,1.,      145P    300
1.,1.,-0.00866025403787115,-8.08790376865477,287.95328704144,        145P    301
-0.00866025403787115,-8.08790376865477,279.873309017645,             145P    302
7.00866025404045,-4.03645188432588,287.95328704144,                  145P    303
7.00866025404045,-4.03645188432588,279.873309017645,                 145P    304
-1.59532870414398,-0.787330901764517,-0.00100000000000286,           145P    305
0.809290376865777;                                                   145P    306
128,1,1,1,1,0,0,1,0,0,-1.59532870414398,-1.59532870414398,           147P    307
-0.787330901764517,-0.787330901764517,-0.001,-0.001,                 147P    308
0.809290376865613,0.809290376865613,1.,1.,1.,1.,                     147P    309
-7.00866025403785,-4.03645188432738,287.95328704144,                 147P    310
-7.00866025403785,-4.03645188432738,279.873309017645,                147P    311
0.0086602540390246,-8.08790376865544,287.95328704144,                147P    312
0.0086602540390246,-8.08790376865544,279.873309017645,               147P    313
-1.59532870414398,-0.787330901764517,-0.001,0.809290376865613;       147P    314
128,1,1,1,1,0,0,1,0,0,0.787330901764517,0.787330901764517,           149P    315
1.59532870414397,1.59532870414397,-0.809290376865614,                149P    316
-0.809290376865614,0.001,0.001,1.,1.,1.,1.,-7.,                      149P    317
-4.05145188432876,279.873309017645,-7.,-4.05145188432876,            149P    318
287.95328704144,-7.,4.05145188432739,279.873309017645,-7.,           149P    319
4.05145188432739,287.95328704144,0.787330901764517,                  149P    320
1.59532870414397,-0.809290376865614,0.001;                           149P    321
128,1,1,1,1,0,0,1,0,0,0.787330901764517,0.787330901764517,           151P    322
1.59532870414397,1.59532870414397,-0.80929037686548,                 151P    323
-0.80929037686548,0.00100000000012923,0.00100000000012923,1.,1.,     151P    324
1.,1.,-7.00866025403788,4.03645188432737,279.873309017645,           151P    325
-7.00866025403788,4.03645188432737,287.95328704144,                  151P    326
0.00866025403896434,8.08790376865541,279.873309017645,               151P    327
0.00866025403896464,8.08790376865541,287.95328704144,                151P    328
0.787330901764517,1.59532870414397,-0.80929037686548,                151P    329
0.00100000000012923;                                                 151P    330
128,2,8,2,2,0,1,0,0,1,1.54272700294554,1.54272700294554,             153P    331
1.54272700294554,1.55957433492739,1.55957433492739,                  153P    332
1.55957433492739,-3.14159265358979,-3.14159265358979,                153P    333
-3.14159265358979,-1.5707963267949,-1.5707963267949,0.,0.,           153P    334
1.5707963267949,1.5707963267949,3.14159265358979,                    153P    335
3.14159265358979,3.14159265358979,1.,0.99996452113543,1.,            153P    336
0.707106781186548,0.707081693840822,0.707106781186548,1.,            153P    337
0.99996452113543,1.,0.707106781186548,0.707081693840822,             153P    338
0.707106781186548,1.,0.99996452113543,1.,0.707106781186548,          153P    339
0.707081693840822,0.707106781186548,1.,0.99996452113543,1.,          153P    340
0.707106781186548,0.707081693840822,0.707106781186548,1.,            153P    341
0.99996452113543,1.,-3.23186582369664,0.,287.981865823697,           153P    342
-5.65778625271842,0.,287.954641021527,-8.08290376865477,0.,          153P    343
287.886551729438,-3.23186582369664,-3.23186582369664,                153P    344
287.981865823697,-5.65778625271842,-5.65778625271842,                153P    345
287.954641021527,-8.08290376865477,-8.08290376865477,                153P    346
287.886551729438,0.,-3.23186582369664,287.981865823697,0.,           153P    347
-5.65778625271842,287.954641021527,0.,-8.08290376865477,             153P    348
287.886551729438,3.23186582369664,-3.23186582369664,                 153P    349
287.981865823697,5.65778625271842,-5.65778625271842,                 153P    350
287.954641021527,8.08290376865477,-8.08290376865477,                 153P    351
287.886551729438,3.23186582369664,0.,287.981865823697,               153P    352
5.65778625271842,0.,287.954641021527,8.08290376865477,0.,            153P    353
287.886551729438,3.23186582369664,3.23186582369664,                  153P    354
287.981865823697,5.65778625271842,5.65778625271842,                  153P    355
287.954641021527,8.08290376865477,8.08290376865477,                  153P    356
287.886551729438,0.,3.23186582369664,287.981865823697,0.,            153P    357
5.65778625271842,287.954641021527,0.,8.08290376865477,               153P    358
287.886551729438,-3.23186582369664,3.23186582369664,                 153P    359
287.981865823697,-5.65778625271842,5.65778625271842,                 153P    360
287.954641021527,-8.08290376865477,8.08290376865477,                 153P    361
287.886551729438,-3.23186582369664,0.,287.981865823697,              153P    362
-5.65778625271842,0.,287.954641021527,-8.08290376865477,0.,          153P    363
287.886551729438,1.54272700294554,1.55957433492739,                  153P    364
-3.14159265358979,3.14159265358979;                                  153P    365
128,2,8,2,2,0,1,0,0,1,1.54192480245428,1.54192480245428,             155P    366
1.54192480245428,1.55293823476122,1.55293823476122,                  155P    367
1.55293823476122,-3.14159265358979,-3.14159265358979,                155P    368
-3.14159265358979,-1.5707963267949,-1.5707963267949,0.,0.,           155P    369
1.5707963267949,1.5707963267949,3.14159265358979,                    155P    370
3.14159265358979,3.14159265358979,1.,0.999984838076917,1.,           155P    371
0.707106781186548,0.70709606008792,0.707106781186548,1.,             155P    372
0.999984838076917,1.,0.707106781186548,0.70709606008792,             155P    373
0.707106781186548,1.,0.999984838076917,1.,0.707106781186548,         155P    374
0.70709606008792,0.707106781186548,1.,0.999984838076917,1.,          155P    375
0.707106781186548,0.70709606008792,0.707106781186548,1.,             155P    376
0.999984838076917,1.,-8.08290376865633,0.,279.883309017645,          155P    377
-6.54165025082022,0.,279.927819724309,-4.99999999999999,0.,          155P    378
279.955353583388,-8.08290376865633,-8.08290376865633,                155P    379
279.883309017645,-6.54165025082022,-6.54165025082022,                155P    380
279.927819724309,-4.99999999999999,-4.99999999999999,                155P    381
279.955353583388,0.,-8.08290376865633,279.883309017645,0.,           155P    382
-6.54165025082022,279.927819724309,0.,-4.99999999999999,             155P    383
279.955353583388,8.08290376865633,-8.08290376865633,                 155P    384
279.883309017645,6.54165025082022,-6.54165025082022,                 155P    385
279.927819724309,4.99999999999999,-4.99999999999999,                 155P    386
279.955353583388,8.08290376865633,0.,279.883309017645,               155P    387
6.54165025082022,0.,279.927819724309,4.99999999999999,0.,            155P    388
279.955353583388,8.08290376865633,8.08290376865633,                  155P    389
279.883309017645,6.54165025082022,6.54165025082022,                  155P    390
279.927819724309,4.99999999999999,4.99999999999999,                  155P    391
279.955353583388,0.,8.08290376865633,279.883309017645,0.,            155P    392
6.54165025082022,279.927819724309,0.,4.99999999999999,               155P    393
279.955353583388,-8.08290376865633,8.08290376865633,                 155P    394
279.883309017645,-6.54165025082022,6.54165025082022,                 155P    395
279.927819724309,-4.99999999999999,4.99999999999999,                 155P    396
279.955353583388,-8.08290376865633,0.,279.883309017645,              155P    397
-6.54165025082022,0.,279.927819724309,-4.99999999999999,0.,          155P    398
279.955353583388,1.54192480245428,1.55293823476122,                  155P    399
-3.14159265358979,3.14159265358979;                                  155P    400
128,1,8,1,2,0,1,0,0,1,-3.08298359758721,-3.08298359758721,           157P    401
-1.59191288090955,-1.59191288090955,-3.14159265358979,               157P    402
-3.14159265358979,-3.14159265358979,-1.5707963267949,                157P    403
-1.5707963267949,0.,0.,1.5707963267949,1.5707963267949,              157P    404
3.14159265358979,3.14159265358979,3.14159265358979,1.,1.,            157P    405
0.707106781186548,0.707106781186548,1.,1.,0.707106781186548,         157P    406
0.707106781186548,1.,1.,0.707106781186548,0.707106781186548,1.,      157P    407
1.,0.707106781186548,0.707106781186548,1.,1.,-5.00000000000001,      157P    408
0.,279.955353583388,-5.00000000000001,0.,272.5,                      157P    409
-5.00000000000001,-5.00000000000001,279.955353583388,                157P    410
-5.00000000000001,-5.00000000000001,272.5,0.,-5.00000000000001,      157P    411
279.955353583388,0.,-5.00000000000001,272.5,5.00000000000001,        157P    412
-5.00000000000001,279.955353583388,5.00000000000001,                 157P    413
-5.00000000000001,272.5,5.00000000000001,0.,279.955353583388,        157P    414
5.00000000000001,0.,272.5,5.00000000000001,5.00000000000001,         157P    415
279.955353583388,5.00000000000001,5.00000000000001,272.5,0.,         157P    416
5.00000000000001,279.955353583388,0.,5.00000000000001,272.5,         157P    417
-5.00000000000001,5.00000000000001,279.955353583388,                 157P    418
-5.00000000000001,5.00000000000001,272.5,-5.00000000000001,0.,       157P    419
279.955353583388,-5.00000000000001,0.,272.5,-3.08298359758721,       157P    420
-1.59191288090955,-3.14159265358979,3.14159265358979;                157P    421
128,1,1,1,1,0,0,1,0,0,-0.450999999999998,-0.450999999999998,         159P    422
0.450999999999998,0.450999999999998,-0.450999999999998,              159P    423
-0.450999999999998,0.450999999999997,0.450999999999997,1.,1.,1.,     159P    424
1.,4.50999999999997,-4.50999999999997,272.,-4.50999999999997,        159P    425
-4.50999999999997,272.,4.50999999999997,4.50999999999997,272.,       159P    426
-4.50999999999997,4.50999999999997,272.,-0.450999999999998,          159P    427
0.450999999999998,-0.450999999999998,0.450999999999997;              159P    428
128,1,8,1,2,0,1,0,0,1,-0.141421356237315,-0.141421356237315,         161P    429
8.32667268468867D-17,8.32667268468867D-17,-3.14159265358979,         161P    430
-3.14159265358979,-3.14159265358979,-1.5707963267949,                161P    431
-1.5707963267949,0.,0.,1.5707963267949,1.5707963267949,              161P    432
3.14159265358979,3.14159265358979,3.14159265358979,1.,1.,            161P    433
0.707106781186548,0.707106781186548,1.,1.,0.707106781186548,         161P    434
0.707106781186548,1.,1.,0.707106781186548,0.707106781186548,1.,      161P    435
1.,0.707106781186548,0.707106781186548,1.,1.,-5.00000000000001,      161P    436
0.,272.5,-4.49999999999997,0.,272.,-5.00000000000001,                161P    437
-5.00000000000001,272.5,-4.49999999999997,-4.49999999999997,         161P    438
272.,0.,-5.00000000000001,272.5,0.,-4.49999999999997,272.,           161P    439
5.00000000000001,-5.00000000000001,272.5,4.49999999999997,           161P    440
-4.49999999999997,272.,5.00000000000001,0.,272.5,                    161P    441
4.49999999999997,0.,272.,5.00000000000001,5.00000000000001,          161P    442
272.5,4.49999999999997,4.49999999999997,272.,0.,                     161P    443
5.00000000000001,272.5,0.,4.49999999999997,272.,                     161P    444
-5.00000000000001,5.00000000000001,272.5,-4.49999999999997,          161P    445
4.49999999999997,272.,-5.00000000000001,0.,272.5,                    161P    446
-4.49999999999997,0.,272.,-0.141421356237315,                        161P    447
8.32667268468867D-17,-3.14159265358979,3.14159265358979;             161P    448
128,1,8,1,2,0,1,0,0,1,-5.44096236920197D-17,                         163P    449
-5.44096236920197D-17,0.286209887623128,0.286209887623128,           163P    450
-3.14159265358979,-3.14159265358979,-3.14159265358979,               163P    451
-1.5707963267949,-1.5707963267949,0.,0.,1.5707963267949,             163P    452
1.5707963267949,3.14159265358979,3.14159265358979,                   163P    453
3.14159265358979,1.,1.,0.707106781186548,0.707106781186548,1.,       163P    454
1.,0.707106781186548,0.707106781186548,1.,1.,0.707106781186548,      163P    455
0.707106781186548,1.,1.,0.707106781186548,0.707106781186548,1.,      163P    456
1.,2.1,0.,272.425,2.52499999999999,0.,272.,2.1,-2.1,272.425,         163P    457
2.52499999999999,-2.52499999999999,272.,0.,-2.1,272.425,0.,          163P    458
-2.52499999999999,272.,-2.1,-2.1,272.425,-2.52499999999999,          163P    459
-2.52499999999999,272.,-2.1,0.,272.425,-2.52499999999999,0.,         163P    460
272.,-2.1,2.1,272.425,-2.52499999999999,2.52499999999999,272.,       163P    461
0.,2.1,272.425,0.,2.52499999999999,272.,2.1,2.1,272.425,             163P    462
2.52499999999999,2.52499999999999,272.,2.1,0.,272.425,               163P    463
2.52499999999999,0.,272.,-5.44096236920197D-17,                      163P    464
0.286209887623128,-3.14159265358979,3.14159265358979;                163P    465
128,1,8,1,2,0,1,0,0,1,-7.41666666666665,-7.41666666666665,           165P    466
-0.54761904761904,-0.54761904761904,-3.14159265358979,               165P    467
-3.14159265358979,-3.14159265358979,-1.5707963267949,                165P    468
-1.5707963267949,0.,0.,1.5707963267949,1.5707963267949,              165P    469
3.14159265358979,3.14159265358979,3.14159265358979,1.,1.,            165P    470
0.707106781186548,0.707106781186548,1.,1.,0.707106781186548,         165P    471
0.707106781186548,1.,1.,0.707106781186548,0.707106781186548,1.,      165P    472
1.,0.707106781186548,0.707106781186548,1.,1.,-2.1,0.,272.425,        165P    473
-2.1,0.,286.85,-2.1,-2.1,272.425,-2.1,-2.1,286.85,0.,-2.1,           165P    474
272.425,0.,-2.1,286.85,2.1,-2.1,272.425,2.1,-2.1,286.85,2.1,0.,      165P    475
272.425,2.1,0.,286.85,2.1,2.1,272.425,2.1,2.1,286.85,0.,2.1,         165P    476
272.425,0.,2.1,286.85,-2.1,2.1,272.425,-2.1,2.1,286.85,-2.1,0.,      165P    477
272.425,-2.1,0.,286.85,-7.41666666666665,-0.54761904761904,          165P    478
-3.14159265358979,3.14159265358979;                                  165P    479
128,1,8,1,2,0,1,0,0,1,-0.500414029762784,-0.500414029762784,         167P    480
-0.00789095325251177,-0.00789095325251177,-3.14159265358979,         167P    481
-3.14159265358979,-3.14159265358979,-1.5707963267949,                167P    482
-1.5707963267949,0.,0.,1.5707963267949,1.5707963267949,              167P    483
3.14159265358979,3.14159265358979,3.14159265358979,1.,1.,            167P    484
0.707106781186548,0.707106781186548,1.,1.,0.707106781186548,         167P    485
0.707106781186548,1.,1.,0.707106781186548,0.707106781186548,1.,      167P    486
1.,0.707106781186548,0.707106781186548,1.,1.,-2.1,0.,286.85,         167P    487
-3.23186582369665,0.,287.981865823697,-2.1,-2.1,286.85,              167P    488
-3.23186582369665,-3.23186582369665,287.981865823697,0.,-2.1,        167P    489
286.85,0.,-3.23186582369665,287.981865823697,2.1,-2.1,286.85,        167P    490
3.23186582369665,-3.23186582369665,287.981865823697,2.1,0.,          167P    491
286.85,3.23186582369665,0.,287.981865823697,2.1,2.1,286.85,          167P    492
3.23186582369665,3.23186582369665,287.981865823697,0.,2.1,           167P    493
286.85,0.,3.23186582369665,287.981865823697,-2.1,2.1,286.85,         167P    494
-3.23186582369665,3.23186582369665,287.981865823697,-2.1,0.,         167P    495
286.85,-3.23186582369665,0.,287.981865823697,-0.500414029762784,     167P    496
-0.00789095325251177,-3.14159265358979,3.14159265358979;             167P    497
502,26,7.,4.04145188432868,279.883309017645,6.9999999999999,         169P    498
4.04145188432738,287.886551729438,1.12008240205983D-12,              169P    499
8.08290376865541,279.883309017645,8.67361737988404D-16,              169P    500
8.08290376865477,287.886551729439,7.00000000000261,                  169P    501
-4.04145188432587,279.883309017645,6.9999999999999,                  169P    502
-4.04145188432744,287.886551729439,1.12385495546067D-12,             169P    503
-8.08290376865541,279.883309017645,-1.73472347597681D-15,            169P    504
-8.08290376865476,287.886551729439,-7.,-4.04145188432868,            169P    505
279.883309017645,-6.99999999999997,-4.04145188432736,                169P    506
287.886551729438,-7.,4.04145188432739,279.883309017645,              169P    507
-6.99999999999997,4.04145188432741,287.886551729438,-7.,0.,          169P    508
279.912486323851,-6.99999999999997,0.,287.914917987936,              169P    509
-3.23186582369664,0.,287.981865823697,-4.99999999999999,0.,          169P    510
279.955353583388,5.00000000000001,0.,279.955353583388,               169P    511
-5.00000000000001,0.,272.5,5.00000000000001,0.,272.5,                169P    512
4.49999999999997,0.,272.,-4.49999999999997,0.,272.,2.525,0.,         169P    513
272.,2.1,0.,272.425,-2.1,0.,272.425,-2.1,0.,286.85,2.1,0.,           169P    514
286.85;                                                              169P    515
504,39,63,169,1,169,2,65,169,1,169,3,67,169,3,169,4,69,169,4,        171P    516
169,2,71,169,5,169,6,73,169,5,169,1,75,169,6,169,2,77,169,7,169,     171P    517
8,79,169,7,169,5,81,169,6,169,8,83,169,9,169,10,85,169,9,169,7,      171P    518
87,169,8,169,10,89,169,11,169,12,91,169,11,169,13,93,169,13,169,     171P    519
9,95,169,10,169,14,97,169,14,169,12,99,169,3,169,11,101,169,12,      171P    520
169,4,103,169,15,169,15,105,169,15,169,14,107,169,13,169,16,109,     171P    521
169,16,169,17,111,169,17,169,16,113,169,16,169,18,115,169,18,        171P    522
169,19,117,169,19,169,18,119,169,20,169,21,121,169,21,169,20,        171P    523
123,169,22,169,22,125,169,18,169,21,127,169,23,169,24,129,169,       171P    524
24,169,23,131,169,23,169,22,133,169,24,169,25,135,169,25,169,26,     171P    525
137,169,26,169,25,139,169,25,169,15;                                 171P    526
406,1,24H 1;                                   173P    527
314,74.5098039215686,73.7254901960784,72.9411764705882,;             175P    528
S      1G      3D    176P    528                                        T      1
