**ABCDEFGHIJKLMNOPQRSTUVWXYZabcdefghijklmnopqrstuvwxyz**************************
**PARASOLID !"#$%&'()*+,-./:;<=>?@[\]^_`{|}~0123456789**************************
**PART1;
MC=;
MC_MODEL=;
MC_ID=unknown;
OS=Windows;
OS_RELEASE=;
FRU=;
APPL=Autodesk Inventor 2023;
SITE=unknown;
USER=unknown;
FORMAT=text;
GUISE=transmit;
KEY=INT-207-02-005;
FILE=D:\мои документы\Ирина\_WorldSkills\2022_08 Роскосмос\Задание\the-first-satellite-sputnik-1.snapshot.4\Inventor\GIVEN\PARASOLID\INT-207-02-005.x_t;
DATE=2022-Aug-07 12:44:32;
**PART2;
SCH=SCH_3301154_33103;
USFLD_SIZE=0;
**PART3;
**END_OF_HEADER*****************************************************************
T51 : TRANSMIT FILE created by modeller version 330115417 SCH_3300000_320010 12
 1 117 2 3 0 0 0 0 0 0 1e3 1e-8 0 0 0 1 0 1 1 4 5 6 7 0 0 8 9 10 0 0 0 0 0 0 0 8
1 1 2 117 11 1 12 0 0 0 0 70 3 0 4 T1 0 0 6 20 1 13 13 13 4 54 0 1 0 14 0 0 15 0
 51 5 84 0 14 16 0 0 +0 0 0 1 0 0 .259 0 0 1 31 6 74 0 9 17 0 0 +.01099999999999
952 0 0 -1 0 0 0 0 1 .259 29 7 64 0 10 18 0 .01099999999999952 0 .259 19 8 1 0 1
 15 0 19 V0 16 9 47 0 ?20 0 21 6 0 0 1 18 10 48 0 20 0 22 7 ?1 17 20 0 23 20 20
 10 24 9 0 24 +18 22 43 0 25 10 26 18 ?1 17 25 0 27 25 25 22 28 21 0 28 +18 26 3
9 0 29 22 30 31 ?1 29 18 63 0 22 31 7 .0485 0 .2795 29 31 62 0 26 32 18 .061 0 .
2795 29 32 61 0 30 33 31 .061 0 .281465806093742 18 30 34 0 34 26 35 32 ?1 29 33
 60 0 35 36 32 .0485 0 .283886861266949 18 35 29 0 37 30 38 33 ?1 29 36 59 0 38
 39 33 .0485 0 .2859156344098725 18 38 24 0 40 35 41 36 ?1 29 39 58 0 41 42 36 .
003000000000000055 0 .2899844823434525 18 41 18 0 43 38 44 39 ?1 29 42 57 0 44 4
5 39 .003 0 .2879843745761215 18 44 13 0 46 41 47 42 ?1 29 45 56 0 47 48 42 0 0
 .259 18 47 9 0 49 44 50 45 ?1 29 48 55 0 50 0 45 -529047417231657e-31 0 .288 18
 50 6 0 51 47 0 48 ?1 17 51 0 52 51 51 50 53 54 0 53 +15 52 4 0 51 55 0 17 53 0
 56 53 53 50 51 54 0 0 -16 54 5 0 ?51 57 0 58 0 0 1 16 57 8 0 ?49 59 54 60 0 0 1
 31 58 65 0 54 0 60 0 +-529047417231657e-31 0 0 -1 0 0 0 0 1 .288 31 60 66 0 57
 58 61 0 +0 0 0 -1 0 0 0 0 1 .259 31 61 67 0 59 60 62 0 +.003 0 0 -1 0 0 0 0 1 .
2879843745761215 16 59 12 0 ?46 63 57 61 0 0 1 31 62 68 0 63 61 64 0 +.003000000
000000055 0 0 -1 0 0 0 0 1 .2899844823434525 16 63 17 0 ?43 65 59 62 0 0 1 31 64
 69 0 65 62 66 0 +.0485 0 0 -1 0 0 0 0 1 .2859156344098725 16 65 23 0 ?40 67 63
 64 0 0 1 31 66 70 0 67 64 68 0 +.0485 0 0 -1 0 0 0 0 1 .283886861266949 16 67 2
8 0 ?37 69 65 66 0 0 1 31 68 71 0 69 66 70 0 +.061 0 0 -1 0 0 0 0 1 .28146580609
3742 16 69 33 0 ?34 71 67 68 0 0 1 31 70 72 0 71 68 17 0 +.061 0 0 -1 0 0 0 0 1
 .2795 16 71 38 0 ?29 21 69 70 0 0 1 31 17 73 0 21 70 6 0 +.0485 0 0 -1 0 0 0 0
 1 .2795 16 21 42 0 ?25 9 71 17 0 0 1 17 29 0 72 29 29 26 73 71 0 73 +15 72 37 0
 29 74 75 17 73 0 76 73 73 26 29 71 0 0 -15 76 44 0 73 77 27 14 77 40 78 ?74 79
 76 4 80 -0 0 74 79 19 15 27 41 0 25 77 0 81 1 78 110 81 77 82 0 83 84 85 14 74
 35 83 ?86 77 72 4 87 +0 0 86 77 19 14 79 45 84 ?77 14 88 4 16 -0 0 77 14 19 51
 80 82 0 77 87 16 0 +0 0 0 1 0 0 .2795 0 0 1 13 19 2 0 0 0 0 0 0 8 14 14 14 50 8
9 ?79 0 90 4 5 -0 0 79 0 19 81 1 89 116 81 14 91 0 84 0 92 15 90 52 0 24 14 93 1
7 24 0 90 24 24 10 20 9 0 0 -15 93 51 0 49 14 0 17 49 0 93 49 49 47 94 57 0 94 +
17 94 0 95 94 94 47 49 57 0 0 -15 95 7 0 94 55 52 14 55 3 96 ?0 97 95 4 98 +0 0
 0 97 19 81 1 96 89 81 55 99 0 0 100 101 14 97 10 100 ?55 102 56 4 103 +0 0 55 1
02 19 50 98 75 0 55 0 103 0 +-2645237086158285e-32 -.259 0 -1 0 0 0 0 1 53 103 7
6 0 97 98 104 0 +0 0 0 .288 1 -612323399573677e-31 0 -612323399573677e-31 -1 0 5
0 104 77 0 102 103 105 0 +.003 -.2879843745761215 0 -1 0 0 0 0 1 14 102 15 106 ?
97 107 108 4 104 +0 0 97 107 19 53 105 78 0 107 104 109 0 +0 0 0 .29 61232339957
3677e-31 0 1 1 0 -612323399573677e-31 14 107 20 110 ?102 111 112 4 105 +0 0 102
 111 19 50 109 79 0 111 105 113 0 +.0485 -.283886861266949 0 1 0 0 0 0 -1 14 111
 25 114 ?107 86 115 4 109 +0 0 107 86 19 53 113 80 0 86 109 87 0 +0 0 0 .288 612
323399573677e-31 0 1 1 0 -612323399573677e-31 14 86 30 116 ?111 74 117 4 113 +0
 0 111 74 19 50 87 81 0 74 113 80 0 +.061 -.281465806093742 0 1 0 0 0 0 -1 81 1
 116 104 81 86 118 0 114 83 119 15 117 32 0 34 86 120 17 34 0 117 34 34 30 121 6
9 0 121 +15 120 31 0 122 86 0 17 122 0 120 122 122 35 37 67 0 0 -17 37 0 115 37
 37 35 122 67 0 122 +15 115 27 0 37 111 123 15 123 26 0 124 111 0 17 124 0 123 1
24 124 38 40 65 0 0 -17 40 0 112 40 40 38 124 65 0 124 +15 112 22 0 40 107 125 1
5 125 21 0 126 107 0 17 126 0 125 126 126 41 43 63 0 0 -17 43 0 127 43 43 41 126
 63 0 126 +15 127 16 0 43 102 0 17 121 0 75 121 121 30 34 69 0 0 -15 75 36 0 121
 74 0 80 1 81 128 129 8015 0 0 0 0 3 5 0 0 0 FFFFTFFFFFFFFF2 81 2 118 103 128 86
 130 116 131 132 133 134 81 1 114 101 81 111 131 0 110 116 135 81 1 83 107 81 74
 132 0 116 78 136 83 1 119 0 81 2 132 106 128 74 137 83 118 82 138 139 83 1 136
 0 80 2 128 140 141 8014 0 0 0 0 3 5 0 0 0 FFFFTFFFFFFFFF2 1 81 1 137 105 142 74
 0 132 130 143 144 81 2 82 109 128 77 143 78 132 145 146 147 83 4 138 .956862745
098039 0 .956862745098039 .956862745098039 82 1 139 1 81 1 143 108 142 77 0 82 1
37 148 149 81 2 145 112 128 79 148 84 82 91 150 151 83 4 146 .956862745098039 0
 .956862745098039 .956862745098039 82 1 147 1 81 1 148 111 142 79 0 145 143 152
 153 81 1 84 113 81 79 145 0 78 89 154 81 2 91 115 128 14 152 89 145 0 155 156 8
3 4 150 .956862745098039 0 .956862745098039 .956862745098039 82 1 151 1 81 1 152
 114 142 14 0 91 148 0 157 83 4 155 .956862745098039 0 .956862745098039 .9568627
45098039 82 1 156 1 80 1 142 0 158 8001 0 0 0 0 3 5 0 0 0 FFFFTFTFFFFFFF2 83 3 1
57 .956862745098039 .956862745098039 .956862745098039 79 15 158 SDL/TYSA_COLOUR8
3 1 154 0 83 3 153 .956862745098039 .956862745098039 .956862745098039 83 3 149 .
956862745098039 .956862745098039 .956862745098039 81 1 130 102 142 86 0 118 159
 137 160 83 3 144 .956862745098039 .956862745098039 .956862745098039 81 1 159 99
 142 111 0 131 161 130 162 83 3 160 .956862745098039 .956862745098039 .956862745
098039 81 2 131 100 128 111 159 114 163 118 164 165 81 1 161 96 142 107 0 163 16
6 159 167 83 3 162 .956862745098039 .956862745098039 .956862745098039 81 2 163 9
7 128 107 161 110 168 131 169 170 81 1 166 93 142 102 0 168 171 161 172 83 3 167
 .956862745098039 .956862745098039 .956862745098039 81 2 168 94 128 102 166 106
 173 163 174 175 81 1 171 90 142 97 0 173 176 166 177 83 3 172 .956862745098039
 .956862745098039 .956862745098039 81 2 173 91 128 97 171 100 99 168 178 179 81
 1 176 87 142 55 0 99 0 171 180 83 3 177 .956862745098039 .956862745098039 .9568
62745098039 81 2 99 88 128 55 176 96 0 173 181 182 83 3 180 .956862745098039 .95
6862745098039 .956862745098039 83 4 181 .956862745098039 0 .956862745098039 .956
862745098039 82 1 182 1 81 1 100 92 81 97 173 0 96 106 183 83 4 178 .95686274509
8039 0 .956862745098039 .956862745098039 82 1 179 1 81 1 106 95 81 102 168 0 100
 110 184 83 1 183 0 81 1 110 98 81 107 163 0 106 114 185 83 1 184 0 83 1 185 0 8
3 4 174 .956862745098039 0 .956862745098039 .956862745098039 82 1 175 1 83 4 169
 .956862745098039 0 .956862745098039 .956862745098039 82 1 170 1 83 4 164 .95686
2745098039 0 .956862745098039 .956862745098039 82 1 165 1 79 21 141 SDL/TYSA_REF
LECTIVITY83 1 135 0 83 4 133 .956862745098039 0 .956862745098039 .95686274509803
9 82 1 134 1 79 21 129 SDL/TYSA_TRANSLUCENCY15 108 19 0 186 102 127 17 186 0 108
 186 186 44 46 59 0 0 -17 46 0 187 46 46 44 186 59 0 186 +15 187 11 0 46 97 0 15
 56 14 0 53 97 187 83 1 101 0 83 1 92 0 52 16 83 0 79 80 5 0 +.0485 0 0 1 0 0 .2
795 .479671618669955 .877448082932857 0 0 -1 15 88 49 0 28 79 23 17 28 0 88 28 2
8 22 25 21 0 0 -15 23 46 0 20 79 0 83 1 85 0 19 15 53 0 1 0 8 4 S0 74 20 13 6 0
 0 188 12 152 91 89 2 0 0 0 0 0 0 0 0 0 0 0 0 0 0 81 1 188 85 189 1 0 12 0 0 190
 81 1 12 86 191 1 188 2 0 0 192 80 1 191 81 193 8041 0 0 0 0 3 5 0 0 0 TTTFFFFFF
FFFFF2 83 1 192 0 79 23 193 SDL/TYSA_TRANSLUCENCY_280 1 189 142 194 8040 0 0 0 0
 3 5 0 0 0 TTTFFFFFFFFFFF2 83 3 190 .956862745098039 .956862745098039 .956862745
098039 79 17 194 SDL/TYSA_COLOUR_280 1 11 195 196 8017 0 0 0 0 0 0 0 0 0 TTTTTTT
TTTTTTF3 79 13 196 SDL/TYSA_NAME1 0 
