                                                                        S      1
,,22HHemisphere Nut M10 x 1,14HINT-207-01-006,22HAutodesk Inventor 2023,G      1
7Hunknown,32,38,7,99,15,,1.,2,2HMM,1,0.08,15H20220807.124155,0.01,      G      2
10000.,,,11,0,15H20181119.080603;                                       G      3
     186       1                                                00000000D      1
     186            -137       1       0                               0D      2
     514       2                                                00010000D      3
     514                       1       1                               0D      4
     510       3                                                00010000D      5
     510            -137       1       1                               0D      6
     510       4                                                00010000D      7
     510            -137       1       1                               0D      8
     510       5                                                00010000D      9
     510            -137       1       1                               0D     10
     510       6                                                00010000D     11
     510            -137       1       1                               0D     12
     510       7                                                00010000D     13
     510            -137       1       1                               0D     14
     510       8                                                00010000D     15
     510            -137       1       1                               0D     16
     510       9                                                00010000D     17
     510            -137       1       1                               0D     18
     510      10                                                00010000D     19
     510            -137       1       1                               0D     20
     510      11                                                00010000D     21
     510            -137       1       1                               0D     22
     510      12                                                00010000D     23
     510            -137       1       1                               0D     24
     510      13                                                00010000D     25
     510            -137       1       1                               0D     26
     508      14                                                00010000D     27
     508                       2       1                               0D     28
     508      16                                                00010000D     29
     508                       1       1                               0D     30
     508      17                                                00010000D     31
     508                       1       1                               0D     32
     508      18                                                00010000D     33
     508                       1       1                               0D     34
     508      19                                                00010000D     35
     508                       1       1                               0D     36
     508      20                                                00010000D     37
     508                       1       1                               0D     38
     508      21                                                00010000D     39
     508                       1       1                               0D     40
     508      22                                                00010000D     41
     508                       1       1                               0D     42
     508      23                                                00010000D     43
     508                       2       1                               0D     44
     508      25                                                00010000D     45
     508                       2       1                               0D     46
     508      27                                                00010000D     47
     508                       2       1                               0D     48
     508      29                                                00010000D     49
     508                       2       1                               0D     50
     126      31                                                00010000D     51
     126       0               2       0                               0D     52
     126      33                                                00010000D     53
     126       0               3       0                               0D     54
     126      36                                                00010000D     55
     126       0               2       0                               0D     56
     126      38                                                00010000D     57
     126       0               2       0                               0D     58
     126      40                                                00010000D     59
     126       0               3       0                               0D     60
     126      43                                                00010000D     61
     126       0               3       0                               0D     62
     126      46                                                00010000D     63
     126       0               5       0                               0D     64
     126      51                                                00010000D     65
     126       0               8       0                               0D     66
     126      59                                                00010000D     67
     126       0               3       0                               0D     68
     126      62                                                00010000D     69
     126       0               6       0                               0D     70
     126      68                                                00010000D     71
     126       0               2       0                               0D     72
     126      70                                                00010000D     73
     126       0               6       0                               0D     74
     126      76                                                00010000D     75
     126       0               3       0                               0D     76
     126      79                                                00010000D     77
     126       0               7       0                               0D     78
     126      86                                                00010000D     79
     126       0               2       0                               0D     80
     126      88                                                00010000D     81
     126       0               6       0                               0D     82
     126      94                                                00010000D     83
     126       0               2       0                               0D     84
     126      96                                                00010000D     85
     126       0               7       0                               0D     86
     126     103                                                00010000D     87
     126       0               3       0                               0D     88
     126     106                                                00010000D     89
     126       0               6       0                               0D     90
     126     112                                                00010000D     91
     126       0              15       0                               0D     92
     126     127                                                00010000D     93
     126       0               6       0                               0D     94
     126     133                                                00010000D     95
     126       0               5       0                               0D     96
     126     138                                                00010000D     97
     126       0               8       0                               0D     98
     126     146                                                00010000D     99
     126       0               4       0                               0D    100
     126     150                                                00010000D    101
     126       0               3       0                               0D    102
     126     153                                                00010000D    103
     126       0               8       0                               0D    104
     126     161                                                00010000D    105
     126       0               5       0                               0D    106
     126     166                                                00010000D    107
     126       0               3       0                               0D    108
     128     169                                                00010000D    109
     128       0    -137       7       0                               0D    110
     128     176                                                00010000D    111
     128       0    -137       7       0                               0D    112
     128     183                                                00010000D    113
     128       0    -137       8       0                               0D    114
     128     191                                                00010000D    115
     128       0    -137       8       0                               0D    116
     128     199                                                00010000D    117
     128       0    -137       7       0                               0D    118
     128     206                                                00010000D    119
     128       0    -137       8       0                               0D    120
     128     214                                                00010000D    121
     128       0    -137       8       0                               0D    122
     128     222                                                00010000D    123
     128       0    -137      35       0                               0D    124
     128     257                                                00010000D    125
     128       0    -137      20       0                               0D    126
     128     277                                                00010000D    127
     128       0    -137      14       0                               0D    128
     128     291                                                00010000D    129
     128       0    -137      14       0                               0D    130
     502     305                                                00010000D    131
     502                      11       1                               0D    132
     504     316                                                00010001D    133
     504                       8       1                               0D    134
     406     324                                                00000000D    135
     406                       1      15                               0D    136
     314     325                                                00000200D    137
     314                       1       0                               0D    138
186,3,1,0,0,1,135;                                                     1P      1
514,11,5,1,7,1,9,1,11,1,13,1,15,1,17,1,19,1,21,1,23,1,25,1;            3P      2
510,109,2,1,27,29;                                                     5P      3
510,111,1,1,31;                                                        7P      4
510,113,1,1,33;                                                        9P      5
510,115,1,1,35;                                                       11P      6
510,117,1,1,37;                                                       13P      7
510,119,1,1,39;                                                       15P      8
510,121,1,1,41;                                                       17P      9
510,123,1,1,43;                                                       19P     10
510,125,1,1,45;                                                       21P     11
510,127,1,1,47;                                                       23P     12
510,129,1,1,49;                                                       25P     13
508,6,0,133,1,0,0,0,133,2,0,0,0,133,3,0,0,0,133,4,0,0,0,133,5,0,      27P     14
0,0,133,6,0,0;                                                        27P     15
508,2,0,133,7,0,0,0,133,8,0,0;                                        29P     16
508,4,0,133,9,1,0,0,133,10,1,0,0,133,11,0,0,0,133,1,1,0;              31P     17
508,4,0,133,11,1,0,0,133,12,1,0,0,133,13,0,0,0,133,2,1,0;             33P     18
508,4,0,133,13,1,0,0,133,14,1,0,0,133,15,0,0,0,133,3,1,0;             35P     19
508,4,0,133,15,1,0,0,133,16,1,0,0,133,17,0,0,0,133,4,1,0;             37P     20
508,4,0,133,17,1,0,0,133,18,1,0,0,133,19,0,0,0,133,5,1,0;             39P     21
508,4,0,133,19,1,0,0,133,20,1,0,0,133,9,0,0,0,133,6,1,0;              41P     22
508,9,0,133,21,0,0,0,133,22,1,0,0,133,18,0,0,0,133,16,0,0,0,133,      43P     23
14,0,0,0,133,12,0,0,0,133,10,0,0,0,133,20,0,0,0,133,22,0,0;           43P     24
508,5,0,133,23,1,0,0,133,24,1,0,0,133,25,1,0,0,133,21,1,0,0,133,      45P     25
25,0,0;                                                               45P     26
508,6,0,133,23,0,0,0,133,24,0,0,0,133,26,1,0,0,133,27,1,0,0,133,      47P     27
28,1,0,0,133,26,0,0;                                                  47P     28
508,6,0,133,28,0,0,0,133,27,0,0,0,133,29,1,0,0,133,8,1,0,0,133,       49P     29
7,1,0,0,133,29,0,0;                                                   49P     30
126,1,1,0,0,1,0,0.,0.,1.,1.,1.,1.,4.04145188432738,7.,273.,           51P     31
-4.04145188432738,7.00000000000001,273.,0.,1.,0.,0.,0.;               51P     32
126,1,1,0,0,1,0,0.,0.,1.,1.,1.,1.,8.08290376865477,                   53P     33
-3.46944695195361D-15,273.,4.04145188432738,7.,273.,0.,1.,0.,0.,      53P     34
0.;                                                                   53P     35
126,1,1,0,0,1,0,0.,0.,1.,1.,1.,1.,4.04145188432739,-7.,273.,          55P     36
8.08290376865477,-3.33066907387547D-15,273.,0.,1.,0.,0.,0.;           55P     37
126,1,1,0,0,1,0,0.,0.,1.,1.,1.,1.,-4.04145188432738,-7.,273.,         57P     38
4.04145188432739,-7.,273.,0.,1.,0.,0.,0.;                             57P     39
126,1,1,0,0,1,0,0.,0.,1.,1.,1.,1.,-8.08290376865477,                  59P     40
1.73472347597681D-15,273.,-4.04145188432738,-7.,273.,0.,1.,0.,        59P     41
0.,0.;                                                                59P     42
126,1,1,0,0,1,0,0.,0.,1.,1.,1.,1.,-4.04145188432738,                  61P     43
7.00000000000001,273.,-8.08290376865477,2.22044604925031D-15,         61P     44
273.,0.,1.,0.,0.,0.;                                                  61P     45
126,4,2,0,0,0,0,0.,0.,0.,1.5707963267949,1.5707963267949,             63P     46
3.14159265358979,3.14159265358979,3.14159265358979,1.,                63P     47
0.707106781186548,1.,0.707106781186548,1.,-5.025,0.,273.,-5.025,      63P     48
5.025,273.,-3.07692508285773D-16,5.025,273.,5.025,5.025,273.,         63P     49
5.025,6.15385016571545D-16,273.,0.,3.14159265358979,0.,0.,0.;         63P     50
126,4,2,0,0,0,0,3.14159265358979,3.14159265358979,                    65P     51
3.14159265358979,4.71238898038469,4.71238898038469,                   65P     52
6.28318530717959,6.28318530717959,6.28318530717959,1.,                65P     53
0.707106781186548,1.,0.707106781186548,1.,5.025,                      65P     54
6.15385016571545D-16,273.,5.025,-5.025,273.,                          65P     55
9.23077524857318D-16,-5.025,273.,-5.025,-5.025,273.,-5.025,           65P     56
-1.23077003314309D-15,273.,3.14159265358979,6.28318530717959,0.,      65P     57
0.,0.;                                                                65P     58
126,1,1,0,0,1,0,0.,0.,1.,1.,1.,1.,-4.04145188432738,                  67P     59
7.00000000000001,273.,-4.04145188432738,7.00000000000001,             67P     60
277.882469160375,0.,1.,0.,0.,0.;                                      67P     61
126,2,2,0,0,0,0,1.55625360669211,1.55625360669211,                    69P     62
1.55625360669211,1.58533904689768,1.58533904689768,                   69P     63
1.58533904689768,1.,0.999894256509673,1.,-4.04145188432736,7.,        69P     64
277.882469160375,4.62983951793254D-14,7.,277.941247007652,            69P     65
4.04145188432745,7.,277.882469160375,1.55625360669211,                69P     66
1.58533904689768,0.,0.,0.;                                            69P     67
126,1,1,0,0,1,0,0.,0.,1.,1.,1.,1.,4.04145188432738,7.,273.,           71P     68
4.04145188432738,7.,277.882469160375,0.,1.,0.,0.,0.;                  71P     69
126,2,2,0,0,0,0,1.55625360669211,1.55625360669211,                    73P     70
1.55625360669211,1.58533904689768,1.58533904689768,                   73P     71
1.58533904689768,1.,0.999894256509673,1.,4.04145188432739,7.,         73P     72
277.882469160375,6.06217782649109,3.49999999999999,                   73P     73
277.941247007652,8.08290376865478,-2.07727241011512D-14,              73P     74
277.882469160375,1.55625360669211,1.58533904689768,0.,0.,0.;          73P     75
126,1,1,0,0,1,0,0.,0.,1.,1.,1.,1.,8.08290376865477,                   75P     76
-3.46944695195361D-15,273.,8.08290376865477,                          75P     77
-3.46944695195361D-15,277.882469160375,0.,1.,0.,0.,0.;                75P     78
126,2,2,0,0,0,0,1.55625360669211,1.55625360669211,                    77P     79
1.55625360669211,1.58533904689768,1.58533904689768,                   77P     80
1.58533904689768,1.,0.999894256509673,1.,8.08290376865474,            77P     81
-3.32363585618419D-14,277.882469160375,6.06217782649104,              77P     82
-3.50000000000004,277.941247007652,4.04145188432735,                  77P     83
-7.00000000000004,277.882469160375,1.55625360669211,                  77P     84
1.58533904689768,0.,0.,0.;                                            77P     85
126,1,1,0,0,1,0,0.,0.,1.,1.,1.,1.,4.04145188432739,-7.,273.,          79P     86
4.04145188432739,-7.,277.882469160375,0.,1.,0.,0.,0.;                 79P     87
126,2,2,0,0,0,0,1.55625360669211,1.55625360669211,                    81P     88
1.55625360669211,1.58533904689768,1.58533904689768,                   81P     89
1.58533904689768,1.,0.999894256509673,1.,4.04145188432736,-7.,        81P     90
277.882469160375,-4.62983951793254D-14,-7.,277.941247007652,          81P     91
-4.04145188432745,-7.,277.882469160375,1.55625360669211,              81P     92
1.58533904689768,0.,0.,0.;                                            81P     93
126,1,1,0,0,1,0,0.,0.,1.,1.,1.,1.,-4.04145188432738,-7.,273.,         83P     94
-4.04145188432738,-7.,277.882469160375,0.,1.,0.,0.,0.;                83P     95
126,2,2,0,0,0,0,1.55625360669211,1.55625360669211,                    85P     96
1.55625360669211,1.58533904689768,1.58533904689768,                   85P     97
1.58533904689768,1.,0.999894256509673,1.,-4.0414518843274,            85P     98
-6.99999999999998,277.882469160375,-6.06217782649109,                 85P     99
-3.49999999999999,277.941247007652,-8.08290376865478,                 85P    100
5.93506402890034D-15,277.882469160375,1.55625360669211,               85P    101
1.58533904689768,0.,0.,0.;                                            85P    102
126,1,1,0,0,1,0,0.,0.,1.,1.,1.,1.,-8.08290376865477,                  87P    103
1.73472347597681D-15,273.,-8.08290376865477,                          87P    104
1.73472347597681D-15,277.882469160375,0.,1.,0.,0.,0.;                 87P    105
126,2,2,0,0,0,0,1.55625360669211,1.55625360669211,                    89P    106
1.55625360669211,1.58533904689768,1.58533904689768,                   89P    107
1.58533904689768,1.,0.999894256509673,1.,-8.08290376865475,           89P    108
9.49610244624053D-15,277.882469160375,-6.06217782649106,3.5,          89P    109
277.941247007652,-4.04145188432737,6.99999999999999,                  89P    110
277.882469160375,1.55625360669211,1.58533904689768,0.,0.,0.;          89P    111
126,8,2,0,1,0,0,-6.28318530717959,-6.28318530717959,                  91P    112
-6.28318530717959,-4.71238898038469,-4.71238898038469,                91P    113
-3.14159265358979,-3.14159265358979,-1.5707963267949,                 91P    114
-1.5707963267949,0.,0.,0.,1.,0.707106781186547,1.,                    91P    115
0.707106781186548,1.,0.707106781186547,1.,0.707106781186548,1.,       91P    116
-4.98038449591652,-1.21984238628946D-15,277.955384495917,             91P    117
-4.98038449591652,-4.98038449591652,277.955384495917,                 91P    118
9.14881789717091D-16,-4.98038449591652,277.955384495917,              91P    119
4.98038449591652,-4.98038449591652,277.955384495917,                  91P    120
4.98038449591652,6.09921193144728D-16,277.955384495917,               91P    121
4.98038449591652,4.98038449591652,277.955384495917,                   91P    122
-3.04960596572364D-16,4.98038449591652,277.955384495917,              91P    123
-4.98038449591652,4.98038449591652,277.955384495917,                  91P    124
-4.98038449591652,0.,277.955384495917,-6.28318530717959,0.,0.,        91P    125
0.,0.;                                                                91P    126
126,2,2,0,0,0,0,-1.55288031620959,-1.55288031620959,                  93P    127
-1.55288031620959,-1.54171703528908,-1.54171703528908,                93P    128
-1.54171703528908,1.,0.999984422685329,1.,-4.98038449591646,0.,       93P    129
277.955384495917,-6.53184762799241,0.,277.927585491616,               93P    130
-8.08290376865475,0.,277.882469160375,-1.55288031620959,              93P    131
-1.54171703528908,0.,0.,0.;                                           93P    132
126,4,2,0,0,0,0,0.,0.,0.,1.5707963267949,1.5707963267949,             95P    133
3.14159265358979,3.14159265358979,3.14159265358979,1.,                95P    134
0.707106781186547,1.,0.707106781186548,1.,-4.5,0.,277.475,-4.5,       95P    135
4.5,277.475,-2.75545529808154D-16,4.5,277.475,4.5,4.5,277.475,        95P    136
4.5,5.51091059616309D-16,277.475,0.,3.14159265358979,0.,0.,0.;        95P    137
126,4,2,0,0,0,0,3.14159265358979,3.14159265358979,                    97P    138
3.14159265358979,4.71238898038469,4.71238898038469,                   97P    139
6.28318530717959,6.28318530717959,6.28318530717959,1.,                97P    140
0.707106781186548,1.,0.707106781186548,1.,4.5,                        97P    141
5.51091059616309D-16,277.475,4.5,-4.5,277.475,                        97P    142
8.26636589424463D-16,-4.5,277.475,-4.5,-4.5,277.475,-4.5,             97P    143
-1.10218211923262D-15,277.475,3.14159265358979,6.28318530717959,      97P    144
0.,0.,0.;                                                             97P    145
126,1,1,0,0,1,0,-5.44096236920205D-17,-5.44096236920205D-17,          99P    146
0.150970282061984,0.150970282061984,1.,1.,-4.5,0.,277.475,            99P    147
-4.98038449591654,0.,277.955384495917,-5.44096236920205D-17,          99P    148
0.150970282061984,0.,0.,0.;                                           99P    149
126,1,1,0,0,1,0,-0.99444444444448,-0.99444444444448,                 101P    150
-0.116666666666663,-0.116666666666663,1.,1.,4.5,0.,277.475,4.5,      101P    151
0.,273.525,-0.99444444444448,-0.116666666666663,0.,0.,0.;            101P    152
126,4,2,0,0,0,0,3.14159265358979,3.14159265358979,                   103P    153
3.14159265358979,4.71238898038469,4.71238898038469,                  103P    154
6.28318530717959,6.28318530717959,6.28318530717959,1.,               103P    155
0.707106781186548,1.,0.707106781186548,1.,4.5,                       103P    156
5.51091059616309D-16,273.525,4.5,-4.5,273.525,                       103P    157
8.26636589424463D-16,-4.5,273.525,-4.5,-4.5,273.525,-4.5,            103P    158
-1.10218211923262D-15,273.525,3.14159265358979,6.28318530717959,     103P    159
0.,0.,0.;                                                            103P    160
126,4,2,0,0,0,0,0.,0.,0.,1.5707963267949,1.5707963267949,            105P    161
3.14159265358979,3.14159265358979,3.14159265358979,1.,               105P    162
0.707106781186547,1.,0.707106781186548,1.,-4.5,0.,273.525,-4.5,      105P    163
4.5,273.525,-2.75545529808154D-16,4.5,273.525,4.5,4.5,273.525,       105P    164
4.5,5.51091059616309D-16,273.525,0.,3.14159265358979,0.,0.,0.;       105P    165
126,1,1,0,0,1,0,-0.147753655770321,-0.147753655770321,0.,0.,1.,      107P    166
1.,4.50000000000001,0.,273.525,5.025,0.,273.,-0.147753655770321,     107P    167
0.,0.,0.,0.;                                                         107P    168
128,1,1,1,1,0,0,1,0,0,-0.809290376865477,-0.809290376865477,         109P    169
0.809290376865477,0.809290376865477,-0.701000000000001,              109P    170
-0.701000000000001,0.701000000000001,0.701000000000001,1.,1.,1.,     109P    171
1.,8.09290376865477,-7.01000000000001,273.,-8.09290376865477,        109P    172
-7.01000000000001,273.,8.09290376865477,7.01000000000001,273.,       109P    173
-8.09290376865477,7.01000000000001,273.,-0.809290376865477,          109P    174
0.809290376865477,-0.701000000000001,0.701000000000001;              109P    175
128,1,1,1,1,0,0,1,0,0,-0.001,-0.001,0.495124700765219,               111P    176
0.495124700765219,-0.809290376865477,-0.809290376865477,             111P    177
0.00100000000000638,0.00100000000000638,1.,1.,1.,1.,                 111P    178
-4.05145188432738,7.00000000000001,272.99,-4.05145188432738,         111P    179
7.00000000000001,277.951247007652,4.05145188432745,7.,272.99,        111P    180
4.05145188432745,7.,277.951247007652,-0.001,0.495124700765219,       111P    181
-0.809290376865477,0.00100000000000638;                              111P    182
128,1,1,1,1,0,0,1,0,0,-0.495124700765227,-0.495124700765227,         113P    183
0.001,0.001,-0.00100000000000228,-0.00100000000000228,               113P    184
0.809290376865477,0.809290376865477,1.,1.,1.,1.,                     113P    185
8.08790376865478,-0.00866025403786757,277.951247007652,              113P    186
8.08790376865478,-0.00866025403786757,272.99,4.03645188432738,       113P    187
7.00866025403785,277.951247007652,4.03645188432738,                  113P    188
7.00866025403785,272.99,-0.495124700765227,0.001,                    113P    189
-0.00100000000000228,0.809290376865477;                              113P    190
128,1,1,1,1,0,0,1,0,0,-0.495124700765216,-0.495124700765216,         115P    191
0.001,0.001,-0.00100000000000455,-0.00100000000000455,               115P    192
0.809290376865476,0.809290376865476,1.,1.,1.,1.,                     115P    193
4.03645188432736,-7.00866025403789,277.951247007652,                 115P    194
4.03645188432736,-7.00866025403789,272.99,8.08790376865477,          115P    195
0.00866025403784221,277.951247007652,8.08790376865477,               115P    196
0.00866025403784221,272.99,-0.495124700765216,0.001,                 115P    197
-0.00100000000000455,0.809290376865476;                              115P    198
128,1,1,1,1,0,0,1,0,0,-0.495124700765219,-0.495124700765219,         117P    199
0.001,0.001,-0.00100000000000672,-0.00100000000000672,               117P    200
0.809290376865477,0.809290376865477,1.,1.,1.,1.,                     117P    201
-4.05145188432745,-7.,277.951247007652,-4.05145188432745,-7.,        117P    202
272.99,4.05145188432739,-7.,277.951247007652,4.05145188432739,       117P    203
-7.00000000000001,272.99,-0.495124700765219,0.001,                   117P    204
-0.00100000000000672,0.809290376865477;                              117P    205
128,1,1,1,1,0,0,1,0,0,-0.001,-0.001,0.49512470076523,                119P    206
0.49512470076523,-0.809290376865477,-0.809290376865477,              119P    207
0.00100000000000178,0.00100000000000178,1.,1.,1.,1.,                 119P    208
-4.03645188432738,-7.00866025403785,272.99,-4.03645188432738,        119P    209
-7.00866025403785,277.951247007652,-8.08790376865477,                119P    210
0.00866025403786151,272.99,-8.08790376865477,                        119P    211
0.00866025403786108,277.951247007652,-0.001,0.49512470076523,        119P    212
-0.809290376865477,0.00100000000000178;                              119P    213
128,1,1,1,1,0,0,1,0,0,-0.001,-0.001,0.495124700765216,               121P    214
0.495124700765216,-0.809290376865477,-0.809290376865477,             121P    215
0.00100000000000207,0.00100000000000207,1.,1.,1.,1.,                 121P    216
-8.08790376865477,-0.00866025403784554,272.99,-8.08790376865477,     121P    217
-0.00866025403784554,277.951247007652,-4.03645188432737,             121P    218
7.00866025403787,272.99,-4.03645188432737,7.00866025403787,          121P    219
277.951247007652,-0.001,0.495124700765216,-0.809290376865477,        121P    220
0.00100000000000207;                                                 121P    221
128,2,8,2,2,0,1,0,0,1,1.54171703528908,1.54171703528908,             123P    222
1.54171703528908,1.55288031620959,1.55288031620959,                  123P    223
1.55288031620959,-3.14159265358979,-3.14159265358979,                123P    224
-3.14159265358979,-1.5707963267949,-1.5707963267949,0.,0.,           123P    225
1.5707963267949,1.5707963267949,3.14159265358979,                    123P    226
3.14159265358979,3.14159265358979,1.,0.999984422685329,1.,           123P    227
0.707106781186548,0.707095766361711,0.707106781186548,1.,            123P    228
0.999984422685329,1.,0.707106781186548,0.707095766361711,            123P    229
0.707106781186548,1.,0.999984422685329,1.,0.707106781186548,         123P    230
0.707095766361711,0.707106781186548,1.,0.999984422685329,1.,         123P    231
0.707106781186548,0.707095766361711,0.707106781186548,1.,            123P    232
0.999984422685329,1.,-4.98038449591646,0.,277.955384495917,          123P    233
-6.53184762799241,0.,277.927585491616,-8.08290376865475,0.,          123P    234
277.882469160375,-4.98038449591646,-4.98038449591646,                123P    235
277.955384495917,-6.53184762799241,-6.53184762799241,                123P    236
277.927585491616,-8.08290376865475,-8.08290376865475,                123P    237
277.882469160375,0.,-4.98038449591646,277.955384495917,0.,           123P    238
-6.53184762799241,277.927585491616,0.,-8.08290376865475,             123P    239
277.882469160375,4.98038449591646,-4.98038449591646,                 123P    240
277.955384495917,6.53184762799241,-6.53184762799241,                 123P    241
277.927585491616,8.08290376865475,-8.08290376865475,                 123P    242
277.882469160375,4.98038449591646,0.,277.955384495917,               123P    243
6.53184762799241,0.,277.927585491616,8.08290376865475,0.,            123P    244
277.882469160375,4.98038449591646,4.98038449591646,                  123P    245
277.955384495917,6.53184762799241,6.53184762799241,                  123P    246
277.927585491616,8.08290376865475,8.08290376865475,                  123P    247
277.882469160375,0.,4.98038449591646,277.955384495917,0.,            123P    248
6.53184762799241,277.927585491616,0.,8.08290376865475,               123P    249
277.882469160375,-4.98038449591646,4.98038449591646,                 123P    250
277.955384495917,-6.53184762799241,6.53184762799241,                 123P    251
277.927585491616,-8.08290376865475,8.08290376865475,                 123P    252
277.882469160375,-4.98038449591646,0.,277.955384495917,              123P    253
-6.53184762799241,0.,277.927585491616,-8.08290376865475,0.,          123P    254
277.882469160375,1.54171703528908,1.55288031620959,                  123P    255
-3.14159265358979,3.14159265358979;                                  123P    256
128,1,8,1,2,0,1,0,0,1,-5.44096236920205D-17,                         125P    257
-5.44096236920205D-17,0.150970282061984,0.150970282061984,           125P    258
-3.14159265358979,-3.14159265358979,-3.14159265358979,               125P    259
-1.5707963267949,-1.5707963267949,0.,0.,1.5707963267949,             125P    260
1.5707963267949,3.14159265358979,3.14159265358979,                   125P    261
3.14159265358979,1.,1.,0.707106781186548,0.707106781186548,1.,       125P    262
1.,0.707106781186548,0.707106781186548,1.,1.,0.707106781186548,      125P    263
0.707106781186548,1.,1.,0.707106781186548,0.707106781186548,1.,      125P    264
1.,-4.5,0.,277.475,-4.98038449591654,0.,277.955384495917,-4.5,       125P    265
-4.5,277.475,-4.98038449591654,-4.98038449591654,                    125P    266
277.955384495917,0.,-4.5,277.475,0.,-4.98038449591654,               125P    267
277.955384495917,4.5,-4.5,277.475,4.98038449591654,                  125P    268
-4.98038449591654,277.955384495917,4.5,0.,277.475,                   125P    269
4.98038449591654,0.,277.955384495917,4.5,4.5,277.475,                125P    270
4.98038449591654,4.98038449591654,277.955384495917,0.,4.5,           125P    271
277.475,0.,4.98038449591654,277.955384495917,-4.5,4.5,277.475,       125P    272
-4.98038449591654,4.98038449591654,277.955384495917,-4.5,0.,         125P    273
277.475,-4.98038449591654,0.,277.955384495917,                       125P    274
-5.44096236920205D-17,0.150970282061984,-3.14159265358979,           125P    275
3.14159265358979;                                                    125P    276
128,1,8,1,2,0,1,0,0,1,-0.99444444444448,-0.99444444444448,           127P    277
-0.116666666666663,-0.116666666666663,-3.14159265358979,             127P    278
-3.14159265358979,-3.14159265358979,-1.5707963267949,                127P    279
-1.5707963267949,0.,0.,1.5707963267949,1.5707963267949,              127P    280
3.14159265358979,3.14159265358979,3.14159265358979,1.,1.,            127P    281
0.707106781186548,0.707106781186548,1.,1.,0.707106781186548,         127P    282
0.707106781186548,1.,1.,0.707106781186548,0.707106781186548,1.,      127P    283
1.,0.707106781186548,0.707106781186548,1.,1.,4.5,0.,277.475,4.5,     127P    284
0.,273.525,4.5,-4.5,277.475,4.5,-4.5,273.525,0.,-4.5,277.475,0.,     127P    285
-4.5,273.525,-4.5,-4.5,277.475,-4.5,-4.5,273.525,-4.5,0.,            127P    286
277.475,-4.5,0.,273.525,-4.5,4.5,277.475,-4.5,4.5,273.525,0.,        127P    287
4.5,277.475,0.,4.5,273.525,4.5,4.5,277.475,4.5,4.5,273.525,4.5,      127P    288
0.,277.475,4.5,0.,273.525,-0.99444444444448,-0.116666666666663,      127P    289
-3.14159265358979,3.14159265358979;                                  127P    290
128,1,8,1,2,0,1,0,0,1,-0.147753655770321,-0.147753655770321,0.,      129P    291
0.,-3.14159265358979,-3.14159265358979,-3.14159265358979,            129P    292
-1.5707963267949,-1.5707963267949,0.,0.,1.5707963267949,             129P    293
1.5707963267949,3.14159265358979,3.14159265358979,                   129P    294
3.14159265358979,1.,1.,0.707106781186548,0.707106781186548,1.,       129P    295
1.,0.707106781186548,0.707106781186548,1.,1.,0.707106781186548,      129P    296
0.707106781186548,1.,1.,0.707106781186548,0.707106781186548,1.,      129P    297
1.,4.50000000000001,0.,273.525,5.025,0.,273.,4.5,-4.5,273.525,       129P    298
5.025,-5.025,273.,0.,-4.50000000000001,273.525,0.,-5.025,273.,       129P    299
-4.5,-4.5,273.525,-5.025,-5.025,273.,-4.50000000000001,0.,           129P    300
273.525,-5.025,0.,273.,-4.5,4.5,273.525,-5.025,5.025,273.,0.,        129P    301
4.50000000000001,273.525,0.,5.025,273.,4.5,4.5,273.525,5.025,        129P    302
5.025,273.,4.50000000000001,0.,273.525,5.025,0.,273.,                129P    303
-0.147753655770321,0.,-3.14159265358979,3.14159265358979;            129P    304
502,19,4.04145188432738,7.,273.,-4.04145188432738,                   131P    305
7.00000000000001,273.,8.08290376865477,-3.46944695195361D-15,        131P    306
273.,4.04145188432739,-7.,273.,-4.04145188432738,-7.,273.,           131P    307
-8.08290376865477,1.73472347597681D-15,273.,-5.025,0.,273.,          131P    308
5.025,0.,273.,-4.04145188432738,7.00000000000001,                    131P    309
277.882469160375,4.04145188432739,7.,277.882469160375,               131P    310
8.08290376865477,-3.03576608295941D-15,277.882469160375,             131P    311
4.04145188432739,-7.,277.882469160375,-4.04145188432738,-7.,         131P    312
277.882469160375,-8.08290376865477,1.30104260698261D-15,             131P    313
277.882469160375,-4.98038449591652,0.,277.955384495917,-4.5,0.,      131P    314
277.475,4.5,0.,277.475,4.5,0.,273.525,-4.5,0.,273.525;               131P    315
504,29,51,131,1,131,2,53,131,3,131,1,55,131,4,131,3,57,131,5,        133P    316
131,4,59,131,6,131,5,61,131,2,131,6,63,131,7,131,8,65,131,8,131,     133P    317
7,67,131,2,131,9,69,131,9,131,10,71,131,1,131,10,73,131,10,131,      133P    318
11,75,131,3,131,11,77,131,11,131,12,79,131,4,131,12,81,131,12,       133P    319
131,13,83,131,5,131,13,85,131,13,131,14,87,131,6,131,14,89,131,      133P    320
14,131,9,91,131,15,131,15,93,131,15,131,14,95,131,16,131,17,97,      133P    321
131,17,131,16,99,131,16,131,15,101,131,17,131,18,103,131,18,131,     133P    322
19,105,131,19,131,18,107,131,18,131,8;                               133P    323
406,1,24HТвердое тело1;                                   135P    324
314,74.5098039215686,73.7254901960784,72.9411764705882,;             137P    325
S      1G      3D    138P    325                                        T      1
