                                                                        S      1
,,,14HINT-207-03-002,22HAutodesk Inventor 2023,7Hunknown,32,38,7,99,15,,G      1
1.,2,2HMM,1,0.08,15H20220807.124730,0.01,10000.,,,11,0,15H16010101.00000G      2
0;                                                                      G      3
     186       1                                                00000000D      1
     186             -53       1       0                               0D      2
     514       2                                                00010000D      3
     514                       1       1                               0D      4
     510       3                                                00010000D      5
     510             -53       1       1                               0D      6
     510       4                                                00010000D      7
     510             -53       1       1                               0D      8
     510       5                                                00010000D      9
     510             -53       1       1                               0D     10
     510       6                                                00010000D     11
     510             -53       1       1                               0D     12
     508       7                                                00010000D     13
     508                       1       1                               0D     14
     508       8                                                00010000D     15
     508                       2       1                               0D     16
     508      10                                                00010000D     17
     508                       2       1                               0D     18
     508      12                                                00010000D     19
     508                       1       1                               0D     20
     126      13                                                00010000D     21
     126       0               8       0                               0D     22
     126      21                                                00010000D     23
     126       0              10       0                               0D     24
     126      31                                                00010000D     25
     126       0               3       0                               0D     26
     126      34                                                00010000D     27
     126       0              10       0                               0D     28
     126      44                                                00010000D     29
     126       0               8       0                               0D     30
     126      52                                                00010000D     31
     126       0               3       0                               0D     32
     126      55                                                00010000D     33
     126       0              10       0                               0D     34
     126      65                                                00010000D     35
     126       0               8       0                               0D     36
     126      73                                                00010000D     37
     126       0               9       0                               0D     38
     128      82                                                00010000D     39
     128       0     -53       8       0                               0D     40
     128      90                                                00010000D     41
     128       0     -53      24       0                               0D     42
     128     114                                                00010000D     43
     128       0     -53      24       0                               0D     44
     128     138                                                00010000D     45
     128       0     -53      56       0                               0D     46
     502     194                                                00010000D     47
     502                       5       1                               0D     48
     504     199                                                00010001D     49
     504                       2       1                               0D     50
     406     201                                                00000000D     51
     406                       1      15                               0D     52
     314     202                                                00000200D     53
     314                       1       0                               0D     54
186,3,1,0,0,1,51;                                                      1P      1
514,4,5,1,7,1,9,1,11,1;                                                3P      2
510,39,1,1,13;                                                         5P      3
510,41,1,1,15;                                                         7P      4
510,43,1,1,17;                                                         9P      5
510,45,1,1,19;                                                        11P      6
508,2,0,49,1,1,0,0,49,2,1,0;                                          13P      7
508,6,0,49,1,0,0,0,49,2,0,0,0,49,3,1,0,0,49,4,1,0,0,49,5,1,0,0,       15P      8
49,3,0,0;                                                             15P      9
508,6,0,49,5,0,0,0,49,4,0,0,0,49,6,1,0,0,49,7,1,0,0,49,8,1,0,0,       17P     10
49,6,0,0;                                                             17P     11
508,4,0,49,8,0,0,0,49,7,0,0,0,49,9,0,0,0,49,9,1,0;                    19P     12
126,4,2,0,0,0,0,0.,0.,0.,1.5707963267949,1.5707963267949,             21P     13
3.14159265358979,3.14159265358979,3.14159265358979,1.,                21P     14
0.707106781186558,1.,0.707106781186558,1.,-60.8652422121052,          21P     15
-340.961003466669,0.,-60.8652422121052,-340.961003466669,             21P     16
8.06776675286072,-57.4174186502965,-333.667076330674,                 21P     17
8.06776675286073,-53.9695950884878,-326.373149194679,                 21P     18
8.06776675286072,-53.9695950884878,-326.373149194679,                 21P     19
9.88016473015832D-16,0.,3.14159265358979,0.,0.,0.;                    21P     20
126,4,2,0,0,0,0,3.14159265358979,3.14159265358979,                    23P     21
3.14159265358979,4.71238898038469,4.71238898038469,                   23P     22
6.28318530717959,6.28318530717959,6.28318530717959,1.,                23P     23
0.707106781186558,1.,0.707106781186558,1.,-53.9695950884878,          23P     24
-326.373149194679,9.88016473015832D-16,-53.9695950884878,             23P     25
-326.373149194679,-8.06776675286072,-57.4174186502965,                23P     26
-333.667076330674,-8.06776675286073,-60.8652422121052,                23P     27
-340.961003466669,-8.06776675286073,-60.8652422121052,                23P     28
-340.961003466669,-1.97603294603166D-15,3.14159265358979,             23P     29
6.28318530717959,0.,0.,0.;                                            23P     30
126,1,1,0,0,1,0,0.,0.,4.71010146476108,4.71010146476108,1.,1.,        25P     31
-53.9695950884878,-326.373149194679,0.,-19.6144582013781,             25P     32
-342.612748003393,0.,0.,4.71010146476108,0.,0.,0.;                    25P     33
126,4,2,0,0,0,0,3.14159265358979,3.14159265358979,                    27P     34
3.14159265358979,4.71238898038469,4.71238898038469,                   27P     35
6.28318530717959,6.28318530717959,6.28318530717959,1.,                27P     36
0.707106781186558,1.,0.707106781186534,1.,-19.6144582013781,          27P     37
-342.612748003393,9.88016473015832D-16,-19.6144582013781,             27P     38
-342.612748003393,-8.06776675286072,-23.0622817631868,                27P     39
-349.906675139387,-8.06776675286072,-26.5101053249955,                27P     40
-357.200602275382,-8.06776675286072,-26.5101053249955,                27P     41
-357.200602275382,-1.97603294603166D-15,3.14159265358979,             27P     42
6.28318530717959,0.,0.,0.;                                            27P     43
126,4,2,0,0,0,0,0.,0.,0.,1.5707963267949,1.5707963267949,             29P     44
3.14159265358979,3.14159265358979,3.14159265358979,1.,                29P     45
0.707106781186557,1.,0.707106781186558,1.,-26.5101053249955,          29P     46
-357.200602275382,0.,-26.5101053249955,-357.200602275382,             29P     47
8.06776675286072,-23.0622817631868,-349.906675139387,                 29P     48
8.06776675286072,-19.6144582013781,-342.612748003393,                 29P     49
8.06776675286072,-19.6144582013781,-342.612748003393,                 29P     50
9.88016473015832D-16,0.,3.14159265358979,0.,0.,0.;                    29P     51
126,1,1,0,0,1,0,0.,0.,354.250274643582,354.250274643582,1.,1.,        31P     52
-19.6144582013781,-342.612748003393,0.,2562.52022197068,              31P     53
-1567.68155517838,0.,0.,354.250274643582,0.,0.,0.;                    31P     54
126,4,2,0,0,0,0,3.14159265358979,3.14159265358979,                    33P     55
3.14159265358979,4.71238898038469,4.71238898038469,                   33P     56
6.28318530717959,6.28318530717959,6.28318530717959,1.,                33P     57
0.707106781186457,1.,0.707106781186608,1.,2562.52022197068,           33P     58
-1567.68155517838,4.89858223492989D-16,2562.52022197068,              33P     59
-1567.68155517838,-3.99999594849754,2560.81079224857,                 33P     60
-1571.29788171413,-3.99999594849754,2559.10136252646,                 33P     61
-1574.91420824988,-3.99999594849754,2559.10136252646,                 33P     62
-1574.91420824988,-9.79716446985978D-16,3.14159265358979,             33P     63
6.28318530717959,0.,0.,0.;                                            33P     64
126,4,2,0,0,0,0,0.,0.,0.,1.5707963267949,1.5707963267949,             35P     65
3.14159265358979,3.14159265358979,3.14159265358979,1.,                35P     66
0.707106781186608,1.,0.707106781186457,1.,2559.10136252646,           35P     67
-1574.91420824988,0.,2559.10136252646,-1574.91420824988,              35P     68
3.99999594849754,2560.81079224857,-1571.29788171413,                  35P     69
3.99999594849754,2562.52022197068,-1567.68155517838,                  35P     70
3.99999594849754,2562.52022197068,-1567.68155517838,                  35P     71
4.89858223492989D-16,0.,3.14159265358979,0.,0.,0.;                    35P     72
126,4,2,0,0,0,0,-1.5707963267949,-1.5707963267949,                    37P     73
-1.5707963267949,-0.565325657518757,-0.565325657518757,               37P     74
-0.439501745946959,-0.439501745946959,-0.439501745946959,1.,          37P     75
0.876267891184634,1.,0.98451624856506,0.972907749250108,              37P     76
2564.80564516733,-1571.29544869997,0.,2564.80564516733,               37P     77
-1569.0960107021,0.,2562.9484085043,-1567.91779192615,0.,             37P     78
2562.74154921206,-1567.78656174588,0.,2562.52022197068,               37P     79
-1567.68155517838,0.,-1.5707963267949,-0.439501745946959,0.,0.,       37P     80
0.;                                                                   37P     81
128,1,1,1,1,0,0,1,0,0,-0.807776675286073,-0.807776675286073,          39P     82
0.807776675286073,0.807776675286073,-0.001,-0.001,                    39P     83
1.61455335057215,1.61455335057215,1.,1.,1.,1.,-60.8695157907391,      39P     84
-340.970044292166,-8.07776675286073,-60.8695157907391,                39P     85
-340.970044292166,8.07776675286073,-53.9653215098539,                 39P     86
-326.364108369183,-8.07776675286073,-53.9653215098539,                39P     87
-326.364108369183,8.07776675286073,-0.807776675286073,                39P     88
0.807776675286073,-0.001,1.61455335057215;                            39P     89
128,1,8,1,2,0,1,0,0,1,-4.71010146476108,-4.71010146476108,0.,0.,      41P     90
-3.14159265358979,-3.14159265358979,-3.14159265358979,                41P     91
-1.5707963267949,-1.5707963267949,0.,0.,1.5707963267949,              41P     92
1.5707963267949,3.14159265358979,3.14159265358979,                    41P     93
3.14159265358979,1.,1.,0.707106781186548,0.707106781186548,1.,        41P     94
1.,0.707106781186548,0.707106781186548,1.,1.,0.707106781186548,       41P     95
0.707106781186548,1.,1.,0.707106781186548,0.707106781186548,1.,       41P     96
1.,-53.9695950884878,-326.373149194679,0.,-19.6144582013781,          41P     97
-342.612748003393,0.,-53.9695950884878,-326.373149194679,             41P     98
-8.06776675286073,-19.6144582013781,-342.612748003393,                41P     99
-8.06776675286072,-57.4174186502965,-333.667076330674,                41P    100
-8.06776675286073,-23.0622817631868,-349.906675139387,                41P    101
-8.06776675286073,-60.8652422121052,-340.961003466669,                41P    102
-8.06776675286073,-26.5101053249955,-357.200602275382,                41P    103
-8.06776675286072,-60.8652422121052,-340.961003466669,0.,             41P    104
-26.5101053249955,-357.200602275382,0.,-60.8652422121052,             41P    105
-340.961003466669,8.06776675286073,-26.5101053249955,                 41P    106
-357.200602275382,8.06776675286072,-57.4174186502965,                 41P    107
-333.667076330674,8.06776675286073,-23.0622817631868,                 41P    108
-349.906675139387,8.06776675286073,-53.9695950884878,                 41P    109
-326.373149194679,8.06776675286073,-19.6144582013781,                 41P    110
-342.612748003393,8.06776675286072,-53.9695950884878,                 41P    111
-326.373149194679,0.,-19.6144582013781,-342.612748003393,0.,          41P    112
-4.71010146476108,0.,-3.14159265358979,3.14159265358979;              41P    113
128,1,8,1,2,0,1,0,0,1,-354.250274643582,-354.250274643582,0.,0.,      43P    114
-3.14159265358979,-3.14159265358979,-3.14159265358979,                43P    115
-1.5707963267949,-1.5707963267949,0.,0.,1.5707963267949,              43P    116
1.5707963267949,3.14159265358979,3.14159265358979,                    43P    117
3.14159265358979,1.,1.,0.707106781186548,0.707106781186548,1.,        43P    118
1.,0.707106781186548,0.707106781186548,1.,1.,0.707106781186548,       43P    119
0.707106781186548,1.,1.,0.707106781186548,0.707106781186548,1.,       43P    120
1.,-19.6144582013781,-342.612748003393,0.,2562.52022197068,           43P    121
-1567.68155517838,0.,-19.6144582013781,-342.612748003393,             43P    122
-8.06776675286073,2562.52022197068,-1567.68155517838,                 43P    123
-3.99999594849799,-23.0622817631868,-349.906675139387,                43P    124
-8.06776675286073,2560.81079224857,-1571.29788171413,                 43P    125
-3.99999594849799,-26.5101053249955,-357.200602275382,                43P    126
-8.06776675286073,2559.10136252646,-1574.91420824988,                 43P    127
-3.99999594849799,-26.5101053249955,-357.200602275382,0.,             43P    128
2559.10136252646,-1574.91420824988,0.,-26.5101053249955,              43P    129
-357.200602275382,8.06776675286073,2559.10136252646,                  43P    130
-1574.91420824988,3.99999594849799,-23.0622817631868,                 43P    131
-349.906675139387,8.06776675286073,2560.81079224857,                  43P    132
-1571.29788171413,3.99999594849799,-19.6144582013781,                 43P    133
-342.612748003393,8.06776675286073,2562.52022197068,                  43P    134
-1567.68155517838,3.99999594849799,-19.6144582013781,                 43P    135
-342.612748003393,0.,2562.52022197068,-1567.68155517838,0.,           43P    136
-354.250274643582,0.,-3.14159265358979,3.14159265358979;              43P    137
128,4,8,2,2,0,1,0,0,1,-0.440145011757382,-0.440145011757382,          45P    138
-0.440145011757382,0.565325657518757,0.565325657518757,               45P    139
1.5707963267949,1.5707963267949,1.5707963267949,                      45P    140
-3.14159265358979,-3.14159265358979,-3.14159265358979,                45P    141
-1.5707963267949,-1.5707963267949,0.,0.,1.5707963267949,              45P    142
1.5707963267949,3.14159265358979,3.14159265358979,                    45P    143
3.14159265358979,1.,0.876267891184634,1.,0.87626789118449,1.,         45P    144
0.707106781186548,0.61961496799269,0.707106781186548,                 45P    145
0.619614967992588,0.707106781186548,1.,0.876267891184634,1.,          45P    146
0.87626789118449,1.,0.707106781186548,0.61961496799269,               45P    147
0.707106781186548,0.619614967992588,0.707106781186548,1.,             45P    148
0.876267891184634,1.,0.87626789118449,1.,0.707106781186548,           45P    149
0.61961496799269,0.707106781186548,0.619614967992588,                 45P    150
0.707106781186548,1.,0.876267891184634,1.,0.87626789118449,1.,        45P    151
0.707106781186548,0.61961496799269,0.707106781186548,                 45P    152
0.619614967992588,0.707106781186548,1.,0.876267891184634,1.,          45P    153
0.87626789118449,1.,2564.80564516733,-1571.29544869997,0.,            45P    154
2564.80564516733,-1569.0960107021,0.,2562.9484085043,                 45P    155
-1567.91779192615,0.,2561.09117184127,-1566.7395731502,0.,            45P    156
2559.10136252646,-1567.67668915006,0.,2564.80564516733,               45P    157
-1571.29544869997,0.,2564.80564516733,-1569.0960107021,               45P    158
2.19943799787245,2562.9484085043,-1567.91779192615,                   45P    159
3.37765677381924,2561.09117184127,-1566.7395731502,                   45P    160
4.55587554976574,2559.10136252646,-1567.67668915006,                  45P    161
3.61875954990836,2564.80564516733,-1571.29544869997,0.,               45P    162
2564.80564516733,-1571.29544869997,2.19943799787245,                  45P    163
2562.9484085043,-1571.29544869997,3.37765677381924,                   45P    164
2561.09117184127,-1571.29544869997,4.55587554976574,                  45P    165
2559.10136252646,-1571.29544869997,3.61875954990836,                  45P    166
2564.80564516733,-1571.29544869997,0.,2564.80564516733,               45P    167
-1573.49488669784,2.19943799787245,2562.9484085043,                   45P    168
-1574.67310547379,3.37765677381924,2561.09117184127,                  45P    169
-1575.85132424973,4.55587554976574,2559.10136252646,                  45P    170
-1574.91420824988,3.61875954990836,2564.80564516733,                  45P    171
-1571.29544869997,0.,2564.80564516733,-1573.49488669784,0.,           45P    172
2562.9484085043,-1574.67310547379,0.,2561.09117184127,                45P    173
-1575.85132424973,0.,2559.10136252646,-1574.91420824988,0.,           45P    174
2564.80564516733,-1571.29544869997,0.,2564.80564516733,               45P    175
-1573.49488669784,-2.19943799787245,2562.9484085043,                  45P    176
-1574.67310547379,-3.37765677381924,2561.09117184127,                 45P    177
-1575.85132424973,-4.55587554976574,2559.10136252646,                 45P    178
-1574.91420824988,-3.61875954990836,2564.80564516733,                 45P    179
-1571.29544869997,0.,2564.80564516733,-1571.29544869997,              45P    180
-2.19943799787245,2562.9484085043,-1571.29544869997,                  45P    181
-3.37765677381924,2561.09117184127,-1571.29544869997,                 45P    182
-4.55587554976574,2559.10136252646,-1571.29544869997,                 45P    183
-3.61875954990836,2564.80564516733,-1571.29544869997,0.,              45P    184
2564.80564516733,-1569.0960107021,-2.19943799787245,                  45P    185
2562.9484085043,-1567.91779192615,-3.37765677381924,                  45P    186
2561.09117184127,-1566.7395731502,-4.55587554976574,                  45P    187
2559.10136252646,-1567.67668915006,-3.61875954990836,                 45P    188
2564.80564516733,-1571.29544869997,0.,2564.80564516733,               45P    189
-1569.0960107021,0.,2562.9484085043,-1567.91779192615,0.,             45P    190
2561.09117184127,-1566.7395731502,0.,2559.10136252646,                45P    191
-1567.67668915006,0.,-0.440145011757382,1.5707963267949,              45P    192
-3.14159265358979,3.14159265358979;                                   45P    193
502,7,-60.8652422121052,-340.961003466669,0.,-53.9695950884878,       47P    194
-326.373149194679,0.,-19.6144582013781,-342.612748003393,0.,          47P    195
-26.5101053249955,-357.200602275382,0.,2562.52022197068,              47P    196
-1567.68155517838,0.,2559.10136252646,-1574.91420824988,0.,           47P    197
2564.80564516733,-1571.29544869997,0.;                                47P    198
504,9,21,47,1,47,2,23,47,2,47,1,25,47,2,47,3,27,47,3,47,4,29,47,      49P    199
4,47,3,31,47,3,47,5,33,47,5,47,6,35,47,6,47,5,37,47,7,47,5;           49P    200
406,1,24HТвердое тело1;                                    51P    201
314,63.921568627451,63.921568627451,69.0196078431373,;                53P    202
S      1G      3D     54P    202                                        T      1
