**ABCDEFGHIJKLMNOPQRSTUVWXYZabcdefghijklmnopqrstuvwxyz**************************
**PARASOLID !"#$%&'()*+,-./:;<=>?@[\]^_`{|}~0123456789**************************
**PART1;
MC=;
MC_MODEL=;
MC_ID=unknown;
OS=Windows;
OS_RELEASE=;
FRU=;
APPL=Autodesk Inventor 2023;
SITE=unknown;
USER=unknown;
FORMAT=text;
GUISE=transmit;
KEY=INT-207-02-002;
FILE=D:\мои документы\Ирина\_WorldSkills\2022_08 Роскосмос\Задание\the-first-satellite-sputnik-1.snapshot.4\Inventor\GIVEN\PARASOLID\INT-207-02-002.x_t;
DATE=2022-Aug-07 12:46:10;
**PART2;
SCH=SCH_3301154_33103;
USFLD_SIZE=0;
**PART3;
**END_OF_HEADER*****************************************************************
T51 : TRANSMIT FILE created by modeller version 330115417 SCH_3300000_320010 12
 1 155 2 3 0 0 0 0 0 0 1e3 1e-8 0 0 0 1 0 1 1 4 5 6 7 0 0 8 9 10 0 0 0 0 0 0 0 8
1 1 2 155 11 1 12 0 0 0 0 70 3 0 4 T1 0 0 6 20 1 13 13 13 4 70 0 1 0 14 0 0 15 0
 52 5 110 0 14 16 0 0 +.289050367092866 0 0 -1 0 0 .0234496329071339 .7071067811
86552 .707106781186543 0 0 1 31 6 96 0 9 17 0 0 +.295 0 0 -1 0 0 0 0 1 .0175 29
 7 83 0 10 18 0 .295 0 .0175 19 8 1 0 1 15 0 19 V0 16 9 64 0 ?20 0 21 6 0 0 1 18
 10 65 0 20 0 22 7 ?1 17 20 0 23 20 20 10 24 9 0 24 +18 22 59 0 25 10 26 18 ?1 1
7 25 0 27 25 25 22 28 21 0 28 +18 26 55 0 29 22 30 31 ?1 29 18 82 0 22 31 7 .3 0
 .0175 29 31 81 0 26 32 18 .3 0 .014 29 32 80 0 30 33 31 .2985 0 .0125 18 30 50
 0 34 26 35 32 ?1 29 33 79 0 35 36 32 .2875 0 .0125 18 35 45 0 37 30 38 33 ?1 29
 36 78 0 38 39 33 .286 0 .014 18 38 40 0 40 35 41 36 ?1 29 39 77 0 41 42 36 .279
7983088724495 0 .014 18 41 35 0 43 38 44 39 ?1 29 42 76 0 44 45 39 .282220598900
771 0 .024 18 44 29 0 46 41 47 42 ?1 29 45 75 0 47 48 42 .282220598900771 0 .041
5779203214945 18 47 24 0 49 44 50 45 ?1 29 48 74 0 50 51 45 .2845412975299015 0
 .0445 18 50 18 0 52 47 53 48 ?1 29 51 73 0 53 54 48 .285482048472404 0 .038 18
 53 14 0 55 50 56 51 ?1 29 54 72 0 56 57 51 .289050367092866 0 .0234496329071339
 18 56 9 0 58 53 59 54 ?1 29 57 71 0 59 0 54 .2874995652170625 0 .038 18 59 6 0
 60 56 0 57 ?1 17 60 0 61 60 60 59 62 63 0 62 +15 61 11 0 60 64 0 17 62 0 65 62
 62 59 60 63 0 0 -16 63 5 0 ?60 66 0 67 0 0 1 16 66 8 0 ?58 68 63 69 0 0 1 31 67
 84 0 63 0 69 0 +.2874995652170625 0 0 -1 0 0 0 0 1 .038 31 69 85 0 66 67 70 0 +
.289050367092866 0 0 -1 0 0 0 0 1 .0234496329071339 31 70 86 0 68 69 71 0 +.2854
82048472404 0 0 -1 0 0 0 0 1 .038 16 68 13 0 ?55 72 66 70 0 0 1 31 71 87 0 72 70
 73 0 +.2845412975299015 0 0 -1 0 0 0 0 1 .0445 16 72 17 0 ?52 74 68 71 0 0 1 31
 73 88 0 74 71 75 0 +.282220598900771 0 0 -1 0 0 0 0 1 .0415779203214945 16 74 2
3 0 ?49 76 72 73 0 0 1 31 75 89 0 76 73 77 0 +.282220598900771 0 0 -1 0 0 0 0 1
 .024 16 76 28 0 ?46 78 74 75 0 0 1 31 77 90 0 78 75 79 0 +.2797983088724495 0 0
 -1 0 0 0 0 1 .014 16 78 34 0 ?43 80 76 77 0 0 1 31 79 91 0 80 77 81 0 +.286 0 0
 -1 0 0 0 0 1 .014 16 80 39 0 ?40 82 78 79 0 0 1 31 81 92 0 82 79 83 0 +.2875 0
 0 -1 0 0 0 0 1 .0125 16 82 44 0 ?37 84 80 81 0 0 1 31 83 93 0 84 81 85 0 +.2985
 0 0 -1 0 0 0 0 1 .0125 16 84 49 0 ?34 86 82 83 0 0 1 31 85 94 0 86 83 17 0 +.3
 0 0 -1 0 0 0 0 1 .014 16 86 54 0 ?29 21 84 85 0 0 1 31 17 95 0 21 85 6 0 +.3 0
 0 -1 0 0 0 0 1 .0175 16 21 58 0 ?25 9 86 17 0 0 1 17 29 0 87 29 29 26 88 86 0 8
8 +15 87 60 0 29 89 90 17 88 0 91 88 88 26 29 86 0 0 -15 91 53 0 88 92 93 14 92
 51 94 ?95 89 91 4 96 -0 0 95 89 19 15 93 52 0 34 92 0 17 34 0 93 34 34 30 97 84
 0 97 +17 97 0 98 97 97 30 34 84 0 0 -15 98 48 0 97 95 99 14 95 46 100 ?101 92 9
8 4 102 -0 0 101 92 19 15 99 47 0 37 95 0 17 37 0 99 37 37 35 103 82 0 103 +17 1
03 0 104 103 103 35 37 82 0 0 -15 104 43 0 103 101 105 14 101 41 106 ?107 95 104
 4 108 -0 0 107 95 19 15 105 42 0 40 101 0 17 40 0 105 40 40 38 109 80 0 109 +17
 109 0 110 109 109 38 40 80 0 0 -15 110 38 0 109 107 111 14 107 36 112 ?113 101
 110 4 114 -0 0 113 101 19 15 111 37 0 43 107 0 17 43 0 111 43 43 41 115 78 0 11
5 +17 115 0 116 115 115 41 43 78 0 0 -15 116 33 0 115 113 0 14 113 32 117 ?118 1
07 116 4 119 -0 0 118 107 19 81 1 117 133 120 113 121 0 122 112 123 14 118 30 12
2 ?124 113 125 4 126 +0 0 124 113 19 53 119 103 0 113 126 114 0 +.29702735411587
5 0 0 .0222 0 0 1 1 0 0 13 19 2 0 0 0 0 0 0 8 14 14 14 66 127 ?128 0 129 4 5 +0
 0 128 0 19 81 1 127 154 120 14 130 0 131 0 132 14 128 61 131 ?89 14 133 4 16 +0
 0 89 14 19 15 129 68 0 134 14 23 17 134 0 129 134 134 56 58 66 0 0 -15 23 67 0
 20 14 0 17 58 0 135 58 58 56 134 66 0 134 +15 135 7 0 58 136 65 14 136 3 137 ?0
 64 135 4 138 +0 0 0 64 19 15 65 4 0 62 136 0 81 1 137 115 120 136 139 0 0 140 1
41 14 64 10 140 ?136 142 143 4 144 +0 0 136 142 19 53 138 97 0 136 0 144 0 +0 0
 0 .29 612323399573677e-31 0 1 1 0 -612323399573677e-31 51 144 98 0 64 138 145 0
 +.274827354115875 0 0 -1 0 0 .038 0 0 1 53 145 99 0 142 144 146 0 +0 0 0 .288 6
12323399573677e-31 0 1 1 0 -612323399573677e-31 14 142 15 147 ?64 148 149 4 145
 +0 0 64 148 19 54 146 100 0 148 145 150 0 +.285220598900771 0 0 -1 0 0 .0415779
203214945 .003 0 0 1 14 148 20 151 ?142 124 152 4 146 +0 0 142 124 19 50 150 101
 0 124 146 126 0 +.282220598900771 -.024 0 -1 0 0 0 0 1 14 124 25 153 ?148 118 1
54 4 150 +0 0 148 118 19 53 126 102 0 118 150 119 0 +.297027354115875 0 0 .0282
 0 0 1 1 0 0 81 1 153 127 120 124 155 0 151 122 156 15 154 27 0 157 124 158 17 1
57 0 154 157 157 44 46 76 0 0 -15 158 26 0 49 124 0 17 49 0 158 49 49 47 159 74
 0 159 +17 159 0 152 159 159 47 49 74 0 0 -15 152 22 0 159 148 160 15 160 21 0 5
2 148 0 17 52 0 160 52 52 50 161 72 0 161 +17 161 0 162 161 161 50 52 72 0 0 -15
 162 16 0 161 142 0 17 46 0 125 46 46 44 157 76 0 157 +15 125 31 0 46 118 0 80 1
 120 163 164 8015 0 0 0 0 3 5 0 0 0 FFFFTFFFFFFFFF2 81 2 155 126 163 124 165 153
 166 167 168 169 81 1 151 124 120 148 166 0 147 153 170 81 1 122 130 120 118 167
 0 153 117 171 83 1 156 0 81 2 167 129 163 118 172 122 155 121 173 174 83 1 171
 0 80 2 163 175 176 8014 0 0 0 0 3 5 0 0 0 FFFFTFFFFFFFFF2 1 81 1 172 128 177 11
8 0 167 165 178 179 81 2 121 132 163 113 178 117 167 180 181 182 83 4 173 .95686
2745098039 0 .956862745098039 .956862745098039 82 1 174 1 81 1 178 131 177 113 0
 121 172 183 184 81 2 180 135 163 107 183 112 121 185 186 187 83 4 181 .95686274
5098039 0 .956862745098039 .956862745098039 82 1 182 1 81 1 183 134 177 107 0 18
0 178 188 189 81 1 112 136 120 107 180 0 117 106 190 81 2 185 138 163 101 188 10
6 180 191 192 193 83 4 186 .956862745098039 0 .956862745098039 .956862745098039
 82 1 187 1 81 1 188 137 177 101 0 185 183 194 195 81 1 106 139 120 101 185 0 11
2 100 196 81 2 191 141 163 95 194 100 185 197 198 199 83 4 192 .956862745098039
 0 .956862745098039 .956862745098039 82 1 193 1 81 1 194 140 177 95 0 191 188 20
0 201 81 1 100 142 120 95 191 0 106 94 202 81 2 197 144 163 92 200 94 191 203 20
4 205 83 4 198 .956862745098039 0 .956862745098039 .956862745098039 82 1 199 1 8
1 1 200 143 177 92 0 197 194 206 207 81 1 94 145 120 92 197 0 100 208 209 81 2 2
03 147 163 89 206 208 197 210 211 212 83 4 204 .956862745098039 0 .9568627450980
39 .956862745098039 82 1 205 1 14 89 56 208 ?92 128 87 4 213 +0 0 92 128 19 81 1
 206 146 177 89 0 203 200 214 215 81 1 208 148 120 89 203 0 94 131 216 81 2 210
 150 163 128 214 131 203 130 217 218 83 4 211 .956862745098039 0 .95686274509803
9 .956862745098039 82 1 212 1 81 1 214 149 177 128 0 210 206 219 220 81 1 131 15
1 120 128 210 0 208 127 221 81 2 130 153 163 14 219 127 210 0 222 223 83 4 217 .
956862745098039 0 .956862745098039 .956862745098039 82 1 218 1 81 1 219 152 177
 14 0 130 214 0 224 83 4 222 .956862745098039 0 .956862745098039 .95686274509803
9 82 1 223 1 80 1 177 0 225 8001 0 0 0 0 3 5 0 0 0 FFFFTFTFFFFFFF2 83 3 224 .956
862745098039 .956862745098039 .956862745098039 79 15 225 SDL/TYSA_COLOUR83 1 221
 0 83 3 220 .956862745098039 .956862745098039 .956862745098039 83 1 216 0 83 3 2
15 .956862745098039 .956862745098039 .956862745098039 50 213 108 0 89 96 16 0 +.
3 -.0175 0 1 0 0 0 0 -1 52 96 107 0 92 102 213 0 +.3 0 0 1 0 0 .014 .70710678118
6547 .707106781186548 0 0 -1 51 16 109 0 128 213 5 0 +.274827354115875 0 0 -1 0
 0 .0175 0 0 1 51 102 106 0 95 108 96 0 +.274827354115875 0 0 1 0 0 .0125 0 0 1
 52 108 105 0 101 114 102 0 +.2875 0 0 -1 0 0 .0125 .70710678118656 .70710678118
6535 0 0 1 51 114 104 0 107 119 108 0 +.274827354115875 0 0 1 0 0 .014 0 0 1 83
 1 209 0 83 3 207 .956862745098039 .956862745098039 .956862745098039 83 1 202 0
 83 3 201 .956862745098039 .956862745098039 .956862745098039 83 1 196 0 83 3 195
 .956862745098039 .956862745098039 .956862745098039 83 1 190 0 83 3 189 .9568627
45098039 .956862745098039 .956862745098039 83 3 184 .956862745098039 .9568627450
98039 .956862745098039 81 1 165 125 177 124 0 155 226 172 227 83 3 179 .95686274
5098039 .956862745098039 .956862745098039 81 1 226 122 177 148 0 166 228 165 229
 83 3 227 .956862745098039 .956862745098039 .956862745098039 81 2 166 123 163 14
8 226 151 230 155 231 232 81 1 228 119 177 142 0 230 233 226 234 83 3 229 .95686
2745098039 .956862745098039 .956862745098039 81 2 230 120 163 142 228 147 235 16
6 236 237 81 1 233 116 177 64 0 235 238 228 239 83 3 234 .956862745098039 .95686
2745098039 .956862745098039 81 2 235 117 163 64 233 140 139 230 240 241 81 1 238
 113 177 136 0 139 0 233 242 83 3 239 .956862745098039 .956862745098039 .9568627
45098039 81 2 139 114 163 136 238 137 0 235 243 244 83 3 242 .956862745098039 .9
56862745098039 .956862745098039 83 4 243 .956862745098039 0 .956862745098039 .95
6862745098039 82 1 244 1 81 1 140 118 120 64 235 0 137 147 245 83 4 240 .9568627
45098039 0 .956862745098039 .956862745098039 82 1 241 1 81 1 147 121 120 142 230
 0 140 151 246 83 1 245 0 83 1 246 0 83 4 236 .956862745098039 0 .95686274509803
9 .956862745098039 82 1 237 1 83 4 231 .956862745098039 0 .956862745098039 .9568
62745098039 82 1 232 1 79 21 176 SDL/TYSA_REFLECTIVITY83 1 170 0 83 4 168 .95686
2745098039 0 .956862745098039 .956862745098039 82 1 169 1 79 21 164 SDL/TYSA_TRA
NSLUCENCY15 149 19 0 55 142 162 17 55 0 149 55 55 53 247 68 0 247 +17 247 0 143
 247 247 53 55 68 0 0 -15 143 12 0 247 64 61 83 1 141 0 15 133 63 0 24 128 27 17
 24 0 133 24 24 10 20 9 0 0 -15 27 62 0 25 128 0 83 1 132 0 83 1 123 0 15 90 57
 0 28 89 0 17 28 0 90 28 28 22 25 21 0 0 -19 15 69 0 1 0 8 4 S0 74 20 13 6 0 0 2
48 12 219 130 127 2 0 0 0 0 0 0 0 0 0 0 0 0 0 0 81 1 248 111 249 1 0 12 0 0 250
 81 1 12 112 251 1 248 2 0 0 252 80 1 251 120 253 8041 0 0 0 0 3 5 0 0 0 TTTFFFF
FFFFFFF2 83 1 252 0 79 23 253 SDL/TYSA_TRANSLUCENCY_280 1 249 177 254 8040 0 0 0
 0 3 5 0 0 0 TTTFFFFFFFFFFF2 83 3 250 .956862745098039 .956862745098039 .9568627
45098039 79 17 254 SDL/TYSA_COLOUR_280 1 11 255 256 8017 0 0 0 0 0 0 0 0 0 TTTTT
TTTTTTTTF3 79 13 256 SDL/TYSA_NAME1 0 
