**ABCDEFGHIJKLMNOPQRSTUVWXYZabcdefghijklmnopqrstuvwxyz**************************
**PARASOLID !"#$%&'()*+,-./:;<=>?@[\]^_`{|}~0123456789**************************
**PART1;
MC=;
MC_MODEL=;
MC_ID=unknown;
OS=Windows;
OS_RELEASE=;
FRU=;
APPL=Autodesk Inventor 2023;
SITE=unknown;
USER=unknown;
FORMAT=text;
GUISE=transmit;
KEY=INT-207-03-001;
FILE=D:\мои документы\Ирина\_WorldSkills\2022_08 Роскосмос\Задание\the-first-satellite-sputnik-1.snapshot.4\Inventor\GIVEN\PARASOLID\INT-207-03-001.x_t;
DATE=2022-Aug-07 12:47:52;
**PART2;
SCH=SCH_3301154_33103;
USFLD_SIZE=0;
**PART3;
**END_OF_HEADER*****************************************************************
T51 : TRANSMIT FILE created by modeller version 330115417 SCH_3300000_320010 12
 1 534 2 3 0 0 0 0 0 0 1e3 1e-8 0 0 0 1 0 1 1 4 5 6 7 0 0 8 9 10 0 0 0 0 0 0 0 8
1 1 2 534 11 1 12 0 0 0 0 70 3 0 4 T1 0 0 6 20 1 13 13 13 4 234 0 1 0 14 0 0 15
 0 50 5 423 0 14 16 0 0 +-.1450435594751402 -.24581170663024 .01408322491980824
 -.599882736998663 .46867976000656 .648444280112938 -.734058934039691 0 -.679085
768777783 31 6 387 0 9 17 0 0 +-.0574174186502961 -.3336670763306745 0 .90408254
9660781 -.427357863387187 0 .427357863387187 .904082549660781 0 .008067766752860
71 29 7 296 0 10 18 0 -.0539695950884874 -.3263731491946795 0 19 8 1 0 1 15 0 19
 V0 16 9 212 0 ?20 0 21 6 0 0 1 18 10 213 0 20 0 22 7 ?1 17 20 0 23 20 20 10 24
 9 0 24 +18 22 209 0 25 10 26 18 ?1 17 25 0 27 25 25 22 28 21 0 28 +18 26 203 0
 29 22 30 31 ?1 29 18 295 0 22 31 7 -.0196144582013777 -.3426127480033925 0 29 3
1 294 0 26 32 18 -.0271511421200759 -.3585567260998735 0 29 32 293 0 30 33 31 -.
173628979796133 -.2648196687028775 -.01344901350643994 18 30 176 0 34 26 35 32 ?
1 29 33 292 0 35 36 32 -.173628979796133 -.2648196687028775 .01344901350643992 1
8 35 173 0 37 30 38 33 ?1 29 36 291 0 38 39 33 -.173627635934046 -.2648219072773
1 -.0133841309826719 18 38 168 0 40 35 41 36 ?1 29 39 290 0 41 42 36 -.173627635
934046 -.26482190727731 .0133841309826719 18 41 166 0 43 38 44 39 ?1 29 42 289 0
 44 45 39 -.213336696130373 -.1949008998089525 -.00944889748742541 18 44 161 0 4
6 41 47 42 ?1 29 45 288 0 47 48 42 -.17225522009 -.263333473956666 -.01541139725
800105 18 47 159 0 49 44 50 45 ?1 29 48 287 0 50 51 45 -.17225522009 -.263333473
956666 .01541139725800105 18 50 148 0 52 47 53 48 ?1 29 51 286 0 53 54 48 -.2133
36696130373 -.1949008998089525 .00944889748742541 18 53 146 0 55 50 56 51 ?1 29
 54 285 0 56 57 51 -.2156328967302845 -.194850513815019 -.00735263213891002 18 5
6 139 0 58 53 59 54 ?1 29 57 284 0 59 60 54 -.215631165596296 -.1948482980645555
 -.00745527157719683 18 59 137 0 61 56 62 57 ?1 29 60 283 0 62 63 57 -.215631165
596296 -.1948482980645555 .00745527157719683 18 62 134 0 64 59 65 60 ?1 29 63 28
2 0 65 66 60 -.2156328967302845 -.194850513815019 .00735263213891002 18 65 133 0
 67 62 68 63 ?1 29 66 281 0 68 69 63 -.1480116963053884 -.2804718641934935 .0177
8471498946855 18 68 128 0 70 65 71 66 ?1 29 69 280 0 71 72 66 -.1480116963053884
 -.2804718641934935 -.01778471498946855 18 71 125 0 73 68 74 69 ?1 29 72 279 0 7
4 75 69 -.1492491364829972 -.282055715394163 -.01577066214570645 18 74 123 0 76
 71 77 72 ?1 29 75 278 0 77 78 72 -.1492491364829972 -.282055715394163 -12837003
95982024e-24 18 77 120 0 79 74 80 75 ?1 29 78 277 0 80 81 75 -.1492491364829972
 -.282055715394163 .01577066214570645 18 80 119 0 82 77 83 78 ?1 29 81 276 0 83
 84 78 -.1300713551566122 -.2575092746614275 .0177847149894686 18 83 114 0 85 80
 86 81 ?1 29 84 275 0 86 87 81 -.143472560819211 -.247039105299379 .016423706490
49925 18 86 112 0 88 83 89 84 ?1 29 87 274 0 89 90 84 -.1300713551566124 -.25750
92746614275 -.01778471498946855 18 89 109 0 91 86 92 87 ?1 29 90 273 0 92 93 87
 -.143330438029071 -.2471501437925145 -.016438140290722 18 92 108 0 94 89 95 90
 ?1 29 93 272 0 95 96 90 -.1450435594751402 -.2458117066302405 -.014264157971028
62 18 95 102 0 97 92 98 93 ?1 29 96 271 0 98 99 93 -.1450435594751402 -.24581170
66302405 .01408322491980824 18 98 101 0 100 95 101 96 ?1 29 99 270 0 101 102 96
 -.154038208016717 -.241322353439372 -.0154757250213721 18 101 96 0 103 98 104 9
9 ?1 29 102 269 0 104 105 99 -.1445617609797222 -.248726165299728 -.016438140290
72195 18 104 94 0 106 101 107 102 ?1 29 105 268 0 107 108 102 -.1462748824257914
 -.2473877281374535 -.01426415797102862 18 107 92 0 109 104 110 105 ?1 29 108 26
7 0 110 111 105 -.1462748824257914 -.2473877281374535 .01408322491980824 18 110
 90 0 112 107 113 108 ?1 29 111 266 0 113 114 108 -.1447038837698624 -.248615126
8065925 .0164237064904992 18 113 88 0 115 110 116 111 ?1 29 114 265 0 116 117 11
1 -.1541499671105745 -.24123503766571 .015464374917478 18 116 86 0 118 113 119 1
14 ?1 29 117 264 0 119 120 114 -.1525789684546455 -.2424624363348485 -.013623923
43694862 18 119 80 0 121 116 122 117 ?1 29 120 263 0 122 123 117 -.1525789684546
455 -.2424624363348485 .0137662012083976 18 122 79 0 124 119 125 120 ?1 29 123 2
62 0 125 126 120 -.181154954202194 -.2175983929768835 -.01259673308624204 18 125
 74 0 127 122 128 123 ?1 29 126 261 0 128 129 123 -.1528068850660655 -.239746331
9321585 -.0154757250213721 18 128 72 0 130 125 131 126 ?1 29 129 260 0 131 132 1
26 -.151347645503994 -.240886414827635 -.01362392343694862 18 131 70 0 133 128 1
34 129 ?1 29 132 259 0 134 135 129 -.151347645503994 -.240886414827635 .01376620
12083976 18 134 68 0 136 131 137 132 ?1 29 135 258 0 137 138 132 -.1529186441599
23 -.2396590161584965 .015464374917478 18 137 66 0 139 134 140 135 ?1 29 138 257
 0 140 141 135 -.181297076992334 -.217487354483748 .0125822992860193 18 140 64 0
 142 137 143 138 ?1 29 141 256 0 143 144 138 -.182868075648263 -.216259955814609
 -.01042275076654874 18 143 59 0 145 140 146 141 ?1 29 144 255 0 146 147 141 -.1
82868075648263 -.216259955814609 .01024181771532836 18 146 57 0 148 143 149 144
 ?1 29 147 254 0 149 150 144 -.19186272418984 -.2117706026237405 -.0116343178168
9214 18 149 52 0 151 146 152 147 ?1 29 150 253 0 152 153 147 -.182386277152845 -
.2191744144840965 -.01259673308624202 18 152 50 0 154 149 155 150 ?1 29 153 252
 0 155 156 150 -.1840993985989145 -.2178359773218225 -.01042275076654874 18 155
 48 0 157 152 158 153 ?1 29 156 251 0 158 159 153 -.1840993985989145 -.217835977
3218225 .01024181771532836 18 158 46 0 160 155 161 156 ?1 29 159 250 0 161 162 1
56 -.182528399942985 -.219063375990961 .01258229928601926 18 161 44 0 163 158 16
4 159 ?1 29 162 249 0 164 165 159 -.1919744832836975 -.2116832868500785 .0116229
6771299804 18 164 42 0 166 161 167 162 ?1 29 165 248 0 167 168 162 -.19040348462
7768 -.212910685519217 -.00978251623246867 18 167 37 0 169 164 170 165 ?1 29 168
 247 0 170 171 165 -.190403484627768 -.212910685519217 .0099247940039176 18 170
 35 0 172 167 173 168 ?1 29 171 246 0 173 174 168 -.2136004950389255 -.192249158
2769085 .00745527157719683 18 173 30 0 175 170 176 171 ?1 29 174 245 0 176 177 1
71 -.2136004950389255 -.1922491582769085 -.00745527157719683 18 176 28 0 178 173
 179 174 ?1 29 177 244 0 179 180 174 -.212150199480777 -.193382253350677 -.00944
889748742544 18 179 26 0 181 176 182 177 ?1 29 180 243 0 182 183 177 -.190631401
2391885 -.210194581116527 -.0116343178168922 18 182 24 0 184 179 185 180 ?1 29 1
83 242 0 185 186 180 -.189172161677117 -.2113346640120035 -.00978251623246867 18
 185 22 0 187 182 188 183 ?1 29 186 241 0 188 189 183 -.189172161677117 -.211334
6640120035 .0099247940039176 18 188 20 0 190 185 191 186 ?1 29 189 240 0 191 192
 186 -.190743160333046 -.210107265342865 .01162296771299808 18 191 18 0 193 188
 194 189 ?1 29 192 239 0 194 195 189 -.212150199480777 -.193382253350677 .009448
89748742544 18 194 17 0 196 191 197 192 ?1 29 195 238 0 197 198 192 -.0792604456
10395 -.2972446275147175 0 18 197 13 0 199 194 200 195 ?1 29 198 237 0 200 201 1
95 -.03695177994404995 -.328131686160526 171450551880629e-32 18 200 9 0 202 197
 203 198 ?1 29 201 236 0 203 204 198 -.0506581466628167 -.3512464559626385 -.005
78061574592359 18 203 7 0 205 200 206 201 ?1 29 204 235 0 206 0 201 -.0506581466
628167 -.3512464559626385 .00578061574592359 18 206 6 0 207 203 0 204 ?1 17 207
 0 208 209 209 206 205 210 0 211 +15 208 198 0 209 212 0 17 209 0 208 207 207 20
3 213 214 0 0 +17 205 0 215 202 211 203 207 210 0 216 -16 210 199 0 ?207 217 218
 219 0 0 1 17 211 0 215 205 202 206 220 221 0 213 +15 215 204 0 202 222 223 17 2
02 0 215 211 205 200 216 224 0 220 +17 220 0 225 216 213 200 211 221 0 0 -16 221
 8 0 ?211 224 214 226 0 0 1 17 213 0 225 220 216 206 209 214 0 0 -15 225 4 0 213
 227 0 17 216 0 225 213 220 203 202 224 0 209 -16 214 5 0 ?209 221 0 228 0 0 1 3
2 228 297 0 214 0 226 0 +-.0451101321190682 -.3395095404546095 0 .90408254966078
1 -.427357863387187 0 .4273578633871865 .904082549660781 0 .01425392212923456 .0
14 32 226 298 0 221 228 229 0 +-.0441249743668517 -.3402287459598845 0 .86014909
8506589 -.510042673056189 0 -.51004267305619 -.860149098506588 0 .01406391033875
606 .014 32 229 299 0 224 226 230 0 +-.0441249743668517 -.3402287459598845 0 .86
0149098506589 -.510042673056189 0 -.51004267305619 -.860149098506588 0 .01406391
033875606 .014 16 224 10 0 ?202 231 221 229 0 0 1 31 230 300 0 231 229 232 0 +-.
0875153087499615 -.30855202485217 0 .807671238389461 -.589633081397605 0 .589633
081397605 .807671238389461 0 .014 16 231 12 0 ?199 233 224 230 0 0 1 30 232 301
 0 233 230 234 0 +-.212150199480777 -.193382253350677 .00944889748742544 .785499
327964568 -.613699334569377 .0797742597353118 16 233 16 0 ?235 236 231 232 0 0 1
 30 234 302 0 236 232 237 0 +-.190743160333046 -.210107265342865 .01162296771299
808 .599882736998662 -.468679760006549 -.648444280112947 16 236 19 0 ?238 239 23
3 234 0 0 1 30 237 303 0 239 234 240 0 +-.189172161677117 -.2113346640120035 .00
99247940039176 0 0 -1 16 239 21 0 ?241 242 236 237 0 0 1 30 240 304 0 242 237 24
3 0 +-.189172161677117 -.2113346640120035 -.00978251623246867 -.557207747523242
 .435338404118086 -.707106781186543 16 242 23 0 ?244 245 239 240 0 0 1 30 243 30
5 0 245 240 246 0 +-.212150199480777 -.193382253350677 -.00944889748742544 .7854
99327964568 -.613699334569376 -.0797742597353117 16 245 25 0 ?247 248 242 243 0
 0 1 31 246 306 0 248 243 249 0 +-.212024473531712 -.19348048122756 -.0074552715
7719683 .615661475325643 .788010753606734 0 .788010753606734 -.615661475325643 0
 .002 16 248 27 0 ?250 251 245 246 0 0 1 30 249 307 0 251 246 252 0 +-.213600495
0389255 -.1922491582769085 .00745527157719683 0 0 -1 16 251 29 0 ?253 254 248 24
9 0 0 1 31 252 308 0 254 249 255 0 +-.212024473531712 -.19348048122756 .00745527
157719683 .615661475325643 .788010753606734 0 .788010753606734 -.615661475325643
 0 .002 16 254 31 0 ?256 257 251 252 0 0 1 30 255 309 0 257 252 258 0 +-.1891721
61677117 -.2113346640120035 .0099247940039176 -.615661475325654 -.78801075360672
6 0 16 257 34 0 ?259 260 254 255 0 0 1 30 258 310 0 260 255 261 0 +-.19040348462
7768 -.212910685519217 .0099247940039176 0 0 -1 16 260 36 0 ?262 263 257 258 0 0
 1 30 261 311 0 263 258 264 0 +-.190403484627768 -.212910685519217 -.00978251623
246867 .615661475325654 .788010753606726 0 16 263 38 0 ?187 265 260 261 0 0 1 30
 264 312 0 265 261 266 0 +-.190403484627768 -.212910685519217 .0099247940039176
 -.599882736998667 .468679760006552 .64844428011294 16 265 41 0 ?267 268 263 264
 0 0 1 30 266 313 0 268 264 269 0 +-.1919744832836975 -.2116832868500785 .011622
96771299804 .785499327964566 -.61369933456938 .0797742597353102 16 268 43 0 ?270
 271 265 266 0 0 1 30 269 314 0 271 266 272 0 +-.182528399942985 -.2190633759909
61 .01258229928601926 -.510981065843793 .3992221621608105 -.761262120158877 16 2
71 45 0 ?273 274 268 269 0 0 1 30 272 315 0 274 269 275 0 +-.1840993985989145 -.
2178359773218225 .01024181771532836 0 0 -1 16 274 47 0 ?276 277 271 272 0 0 1 30
 275 316 0 277 272 278 0 +-.1840993985989145 -.2178359773218225 -.01042275076654
874 .557207747523251 -.43533840411809 -.707106781186533 16 277 49 0 ?279 280 274
 275 0 0 1 30 278 317 0 280 275 281 0 +-.19186272418984 -.2117706026237405 -.011
63431781689214 .785499327964564 -.613699334569382 -.0797742597353115 16 280 51 0
 ?282 283 277 278 0 0 1 30 281 318 0 283 278 284 0 +-.19186272418984 -.211770602
6237405 -.01163431781689214 .557207747523251 -.435338404118082 .707106781186538
 16 283 53 0 ?169 285 280 281 0 0 1 30 284 319 0 285 281 286 0 +-.18409939859891
45 -.2178359773218225 .01024181771532836 .61566147532564 .788010753606736 0 16 2
85 56 0 ?287 288 283 284 0 0 1 30 286 320 0 288 284 289 0 +-.182868075648263 -.2
16259955814609 .01024181771532836 0 0 -1 16 288 58 0 ?290 291 285 286 0 0 1 30 2
89 321 0 291 286 292 0 +-.182868075648263 -.216259955814609 -.01042275076654874
 -.61566147532564 -.788010753606736 0 16 291 60 0 ?157 293 288 289 0 0 1 30 292
 322 0 293 289 294 0 +-.182868075648263 -.216259955814609 .01024181771532836 .51
0981065843774 -.3992221621608195 .761262120158885 16 293 63 0 ?295 296 291 292 0
 0 1 30 294 323 0 296 292 297 0 +-.181297076992334 -.217487354483748 .0125822992
860193 .785499327964562 -.613699334569384 .0797742597353118 16 296 65 0 ?298 299
 293 294 0 0 1 30 297 324 0 299 294 300 0 +-.152918644159923 -.2396590161584965
 .015464374917478 .599882736998672 -.468679760006554 -.648444280112934 16 299 67
 0 ?301 302 296 297 0 0 1 30 300 325 0 302 297 303 0 +-.151347645503994 -.240886
414827635 .0137662012083976 0 0 -1 16 302 69 0 ?304 305 299 300 0 0 1 30 303 326
 0 305 300 306 0 +-.151347645503994 -.240886414827635 -.01362392343694862 -.5572
07747523245 .435338404118075 -.707106781186548 16 305 71 0 ?307 308 302 303 0 0
 1 30 306 327 0 308 303 309 0 +-.181154954202194 -.2175983929768835 -.0125967330
8624204 .785499327964562 -.613699334569384 -.0797742597353117 16 308 73 0 ?310 3
11 305 306 0 0 1 30 309 328 0 311 306 312 0 +-.181154954202194 -.217598392976883
5 -.01259673308624204 -.557207747523248 .435338404118087 .707106781186538 16 311
 75 0 ?145 313 308 309 0 0 1 30 312 329 0 313 309 314 0 +-.1525789684546455 -.24
24624363348485 .0137662012083976 0 0 -1 16 313 78 0 ?315 316 311 312 0 0 1 30 31
4 330 0 316 312 317 0 +-.1525789684546455 -.2424624363348485 -.01362392343694862
 .615661475325652 .788010753606727 0 16 316 81 0 ?133 318 313 314 0 0 1 30 317 3
31 0 318 314 319 0 +-.151347645503994 -.240886414827635 .0137662012083976 -.6156
61475325652 -.788010753606727 0 16 318 82 0 ?320 321 316 317 0 0 1 30 319 332 0
 321 317 322 0 +-.1525789684546455 -.2424624363348485 .0137662012083976 -.599882
736998677 .468679760006547 .648444280112934 16 321 85 0 ?323 324 318 319 0 0 1 3
0 322 333 0 324 319 325 0 +-.1541499671105745 -.24123503766571 .015464374917478
 .785499327964564 -.613699334569381 .0797742597353125 16 324 87 0 ?326 327 321 3
22 0 0 1 30 325 334 0 327 322 328 0 +-.1447038837698624 -.2486151268065925 .0164
237064904992 -.510981065843761 .399222162160816 -.761262120158896 16 327 89 0 ?3
29 330 324 325 0 0 1 30 328 335 0 330 325 331 0 +-.1462748824257914 -.2473877281
374535 .01408322491980824 0 0 -1 16 330 91 0 ?332 333 327 328 0 0 1 30 331 336 0
 333 328 334 0 +-.1462748824257914 -.2473877281374535 -.01426415797102862 .55720
7747523238 -.4353384041180895 -.707106781186543 16 333 93 0 ?335 336 330 331 0 0
 1 30 334 337 0 336 331 337 0 +-.154038208016717 -.241322353439372 -.01547572502
13721 .785499327964564 -.613699334569382 -.079774259735312 16 336 95 0 ?338 339
 333 334 0 0 1 30 337 338 0 339 334 340 0 +-.154038208016717 -.241322353439372 -
.0154757250213721 .557207747523246 -.435338404118076 .707106781186545 16 339 97
 0 ?121 341 336 337 0 0 1 30 340 339 0 341 337 342 0 +-.1450435594751402 -.24581
17066302405 .01408322491980824 0 0 -1 16 341 100 0 ?343 344 339 340 0 0 1 30 342
 340 0 344 340 345 0 +-.1450435594751402 -.2458117066302405 -.01426415797102862
 -.615661475325657 -.788010753606723 0 16 344 103 0 ?109 346 341 342 0 0 1 30 34
5 341 0 346 342 347 0 +-.1462748824257914 -.2473877281374535 .01408322491980824
 .615661475325657 .788010753606723 0 16 346 104 0 ?348 349 344 345 0 0 1 30 347
 342 0 349 345 350 0 +-.143330438029071 -.2471501437925145 -.016438140290722 .78
5499327964564 -.613699334569382 -.0797742597353097 16 349 107 0 ?351 352 346 347
 0 0 1 30 350 343 0 352 347 353 0 +-.143330438029071 -.2471501437925145 -.016438
140290722 -.557207747523235 .4353384041180865 .707106781186548 16 352 110 0 ?97
 354 349 350 0 0 1 30 353 344 0 354 350 355 0 +-.1450435594751402 -.245811706630
2405 .01408322491980824 .510981065843768 -.399222162160805 .761262120158897 16 3
54 111 0 ?356 357 352 353 0 0 1 30 355 345 0 357 353 358 0 +-.143472560819211 -.
247039105299379 .01642370649049925 .785499327964563 -.613699334569382 .079774259
7353118 16 357 113 0 ?359 360 354 355 0 0 1 30 358 346 0 360 355 361 0 +-.130071
3551566122 -.2575092746614275 .0177847149894686 -799048774389532e-30 0 -1 16 360
 115 0 ?362 363 357 358 0 0 1 30 361 347 0 363 358 364 0 +-.1492491364829972 -.2
82055715394163 .01577066214570645 0 0 -1 16 363 118 0 ?365 366 360 361 0 0 1 32
 364 348 0 366 361 367 0 +-.14001390085783 -.270235152834399 0 -.788010753606729
 .61566147532565 0 -.615661475325649 -.788010753606729 0 .0150005092007457 .0149
9252697867016 16 366 121 0 ?368 369 363 364 0 0 1 30 367 349 0 369 364 370 0 +-.
1492491364829972 -.282055715394163 -1283700395982024e-24 0 0 -1 16 369 122 0 ?37
1 372 366 367 0 0 1 32 370 350 0 372 367 373 0 +-.1480164016339344 -.28047788673
93925 -.0157783205202367 .788010753606729 -.61566147532565 0 -.3161948433677385
 -.4047109439111475 .858038386615773 .002008680471870385 .002 16 372 124 0 ?374
 375 369 370 0 0 1 30 373 351 0 375 370 376 0 +-.1300713551566124 -.257509274661
4275 -.01778471498946855 -.615661475325649 -.788010753606729 0 16 375 126 0 ?377
 378 372 373 0 0 1 30 376 352 0 378 373 379 0 +-.1300713551566122 -.257509274661
4275 .0177847149894686 -.61566147532565 -.788010753606729 -731514164673222e-30 1
6 378 127 0 ?380 381 375 376 0 0 1 32 379 353 0 381 376 382 0 +-.148016401633934
4 -.2804778867393925 .01577832052023665 .788010753606729 -.61566147532565 0 .316
1948433677385 .4047109439111475 .858038386615773 .002008680471870385 .002 16 381
 129 0 ?383 384 378 379 0 0 1 32 382 354 0 384 379 385 0 +-.21431377020999 -.193
162108863564 .00729521294367683 -.788010753606729 .61566147532565 0 -.6027321931
26351 -.771462027045472 .2038632978149595 .00214858670358122 .002 16 384 132 0 ?
386 387 381 382 0 0 1 30 385 355 0 387 382 388 0 +-.215631165596296 -.1948482980
645555 .00745527157719683 .615661475325647 .788010753606731 0 16 387 135 0 ?175
 389 384 385 0 0 1 30 388 356 0 389 385 390 0 +-.2136004950389255 -.192249158276
9085 -.00745527157719683 -.615661475325647 -.788010753606731 0 16 389 136 0 ?391
 392 387 388 0 0 1 32 390 357 0 392 388 393 0 +-.21431377020999 -.19316210886356
4 -.00729521294367683 -.788010753606729 .61566147532565 0 .602732193126351 .7714
62027045472 .2038632978149595 .00214858670358122 .002 16 392 138 0 ?394 395 389
 390 0 0 1 30 393 358 0 395 390 396 0 +-.2156328967302845 -.194850513815019 .007
35263213891002 0 0 -1 16 395 140 0 ?397 398 392 393 0 0 1 30 396 359 0 398 393 3
99 0 +-.181297076992334 -.217487354483748 .0125822992860193 -.61566147532563 -.7
88010753606744 -1332267629550384e-29 16 398 143 0 ?163 400 395 396 0 0 1 30 399
 360 0 400 396 401 0 +-.1919744832836975 -.2116832868500785 .01162296771299804 .
615661475325654 .788010753606726 1598721155460195e-29 16 400 144 0 ?193 402 398
 399 0 0 1 30 401 361 0 402 399 403 0 +-.212150199480777 -.193382253350677 .0094
4889748742544 -.615661475325663 -.788010753606718 -1566948043045655e-29 16 402 1
45 0 ?404 405 400 401 0 0 1 30 403 362 0 405 401 406 0 +-.213336696130373 -.1949
008998089525 .00944889748742541 .513267640930558 -.854989384049483 .074494845031
4872 16 405 147 0 ?407 408 402 403 0 0 1 30 406 363 0 408 403 409 0 +-.172255220
09 -.263333473956666 .01541139725800105 .81396945533639 -.575416605702665 .07968
3471692717 16 408 149 0 ?70 410 405 406 0 0 1 30 409 364 0 410 406 411 0 +-.1434
72560819211 -.247039105299379 .01642370649049925 -.615661475325659 -.78801075360
6722 -710542735760108e-29 16 410 150 0 ?115 412 408 409 0 0 1 30 411 365 0 412 4
09 413 0 +-.1541499671105745 -.24123503766571 .015464374917478 .615661475325645
 .788010753606732 799360577730104e-29 16 412 151 0 ?139 414 410 411 0 0 1 30 413
 366 0 414 411 415 0 +-.1906314012391885 -.210194581116527 -.0116343178168922 -.
615661475325647 -.788010753606731 2131628207280235e-29 16 414 154 0 ?151 416 412
 413 0 0 1 30 415 367 0 416 413 417 0 +-.182386277152845 -.2191744144840965 -.01
259673308624202 .61566147532564 .788010753606736 -1509903313490395e-29 16 416 15
5 0 ?127 418 414 415 0 0 1 30 417 368 0 418 415 419 0 +-.1528068850660655 -.2397
463319321585 -.0154757250213721 -.615661475325652 -.788010753606727 532907051820
075e-29 16 418 156 0 ?103 420 416 417 0 0 1 30 419 369 0 420 417 421 0 +-.144561
7609797222 -.248726165299728 -.01643814029072195 .615661475325657 .7880107536067
23 -1421085471520244e-29 16 420 157 0 ?94 422 418 419 0 0 1 30 421 370 0 422 419
 423 0 +-.1480116963053884 -.2804718641934935 -.01778471498946855 -.813969455336
391 .575416605702663 .079683471692717 16 422 158 0 ?424 425 420 421 0 0 1 30 423
 371 0 425 421 426 0 +-.17225522009 -.263333473956666 -.01541139725800105 -.5132
67640930558 .854989384049483 .0744948450314871 16 425 160 0 ?427 428 422 423 0 0
 1 30 426 372 0 428 423 429 0 +-.213336696130373 -.1949008998089525 -.0094488974
8742541 .615661475325656 .788010753606724 -129042780015523e-28 16 428 162 0 ?181
 430 425 426 0 0 1 30 429 373 0 430 426 431 0 +-.1492491364829972 -.282055715394
163 .01577066214570645 -.81396945533639 .575416605702665 -.0796834716927166 16 4
30 165 0 ?432 433 428 429 0 0 1 30 431 374 0 433 429 434 0 +-.173627635934046 -.
26482190727731 .0133841309826719 0 0 -1 16 433 167 0 ?435 436 430 431 0 0 1 30 4
34 375 0 436 431 437 0 +-.173627635934046 -.26482190727731 -.0133841309826719 .8
1396945533639 -.575416605702665 -.0796834716927166 16 436 169 0 ?76 438 433 434
 0 0 1 32 437 376 0 438 434 439 0 +-.1761820299186625 -.260566856762987 .0130210
486970499 -.857371678092241 -.514697780843569 0 .512745632931725 -.8541198351790
68 .0870127752868883 .00497873200420332 .002 16 438 172 0 ?440 441 436 437 0 0 1
 30 439 377 0 441 437 442 0 +-.173628979796133 -.2648196687028775 .0134490135064
3992 -.513267640930558 .854989384049483 -.0744948450314872 16 441 174 0 ?67 443
 438 439 0 0 1 30 442 378 0 443 439 444 0 +-.2156328967302845 -.194850513815019
 -.00735263213891002 .513267640930558 -.854989384049483 -.0744948450314875 16 44
3 175 0 ?445 446 441 442 0 0 1 32 444 379 0 446 442 447 0 +-.1761820299186625 -.
2605668567629875 -.01302104869704992 -.857371678092241 -.514697780843569 0 -.512
745632931725 .854119835179068 .0870127752868883 .00497873200420332 .002 16 446 1
77 0 ?40 448 443 444 0 0 1 32 447 380 0 448 444 449 0 +-.172129494140935 -.26343
1701833549 .01341777134777248 -.678063394341694 .730770668952845 -.0787671419567
342 .73231023459102 .680853912707389 .01263605414220164 .00204353358190137 .002
 16 448 180 0 ?52 450 446 447 0 0 1 32 449 381 0 450 447 451 0 +-.21321097018130
85 -.194999127685836 .00745527157719683 .0621369923299282 .997043303971717 -.045
2066830164786 .996085960455785 -.0590971323831486 .0657289002415574 .00242737241
7373085 .002 16 450 183 0 ?55 452 448 449 0 0 1 32 451 382 0 452 449 453 0 +-.17
2129494140935 -.263431701833549 -.01341777134777248 -.678063394341694 .730770668
952845 .0787671419567342 -.73231023459102 -.680853912707389 .01263605414220164 .
00204353358190137 .002 16 452 188 0 ?34 218 450 451 0 0 1 32 453 383 0 218 451 2
19 0 +-.2132109701813085 -.194999127685836 -.00745527157719683 .0621369923299282
 .997043303971717 .0452066830164786 -.996085960455785 .0590971323831486 .0657289
002415574 .002427372417373085 .002 16 218 191 0 ?61 210 452 453 0 0 1 31 219 384
 0 210 453 454 0 +-.0451005361463761 -.339489240017432 0 -.904082549660781 .4273
57863387187 0 -.427357863387187 -.904082549660781 0 .01423146794384514 31 454 38
5 0 217 219 17 0 +-.02306228176318645 -.3499066751393875 0 -.904082549660781 .42
7357863387187 0 -.4273578633871865 -.904082549660781 0 .00956776675286058 16 217
 202 0 ?29 21 210 454 0 0 1 31 17 386 0 21 454 6 0 +-.02306228176318645 -.349906
6751393875 0 .904082549660781 -.427357863387187 0 .427357863387187 .904082549660
781 0 .00806776675286071 16 21 208 0 ?25 9 217 17 0 0 1 17 29 0 223 29 29 26 455
 217 0 455 +15 223 201 0 29 222 0 17 455 0 456 455 455 26 29 217 0 0 -15 456 206
 0 455 457 0 14 457 205 458 ?222 459 460 4 461 +0 0 222 459 19 81 1 458 503 462
 457 463 0 464 465 466 14 222 200 464 ?212 457 215 4 467 +0 0 212 457 19 14 459
 210 465 ?457 468 27 4 469 -0 0 457 468 19 15 460 207 0 28 457 456 50 461 413 0
 457 467 469 0 +-.018973421406297 -.3412566241789015 0 .904082549660781 -.427357
863387187 0 0 0 -1 13 19 2 0 0 0 0 0 0 8 14 14 14 231 470 ?471 0 472 4 5 +0 0 47
1 0 19 81 1 470 533 462 14 473 0 474 0 475 14 471 229 474 ?476 14 477 4 16 +0 0
 476 14 19 15 472 232 0 478 14 0 17 478 0 472 88 112 113 329 327 0 326 -17 88 0
 472 100 478 86 115 410 0 479 -17 112 0 472 478 100 110 348 346 0 480 -17 329 0
 481 332 326 110 478 327 0 0 +17 326 0 481 329 323 113 482 324 0 0 +15 481 84 0
 483 484 0 17 323 0 481 326 483 116 124 321 0 0 +17 482 0 485 139 115 116 326 32
4 0 323 -15 485 142 0 486 487 0 17 139 0 485 486 482 137 118 412 0 488 +17 115 0
 485 482 479 113 88 410 0 478 +17 479 0 485 115 85 86 359 357 0 356 -17 85 0 485
 479 70 83 380 378 0 489 -17 359 0 490 362 356 83 479 357 0 0 +17 356 0 490 359
 491 86 100 354 0 0 +15 490 106 0 492 493 0 17 491 0 490 356 97 98 343 341 0 0 -
17 100 0 472 112 88 98 356 354 0 348 -17 348 0 494 343 480 98 112 346 0 491 +15
 494 99 0 343 495 0 17 343 0 494 109 348 95 491 341 0 0 +17 480 0 494 348 109 11
0 332 330 0 329 -17 109 0 494 480 343 107 496 344 0 497 +17 332 0 481 335 329 10
7 480 330 0 0 +17 335 0 481 498 332 104 497 333 0 0 +17 498 0 481 121 335 101 33
8 336 0 0 -17 497 0 499 496 106 107 335 333 0 332 -15 499 226 0 497 500 0 17 496
 0 499 501 497 95 109 344 0 343 -17 106 0 499 497 501 104 94 420 0 338 -17 501 0
 499 106 496 92 97 352 0 492 -17 94 0 502 351 338 92 106 420 0 501 +17 338 0 502
 94 103 104 498 336 0 335 +15 502 153 0 247 503 0 17 103 0 502 338 310 101 130 4
18 0 504 +17 310 0 502 103 127 128 505 308 0 307 +17 130 0 506 507 504 128 103 4
18 0 310 -17 504 0 506 130 508 101 121 339 0 498 -15 506 228 0 507 476 0 17 508
 0 506 504 507 119 133 316 0 315 -17 121 0 481 483 498 119 504 339 0 508 +17 483
 0 481 323 121 122 315 313 0 0 -17 315 0 509 133 320 119 483 313 0 0 +15 509 77
 0 315 510 0 17 133 0 509 511 315 131 508 316 0 507 +17 320 0 509 315 511 122 13
6 318 0 483 +17 511 0 509 320 133 134 304 302 0 301 -17 136 0 477 488 124 134 32
0 318 0 511 -15 477 230 0 488 471 0 17 488 0 477 118 136 137 301 299 0 298 -17 1
24 0 477 136 118 122 323 321 0 320 -17 118 0 477 124 488 116 139 412 0 482 -17 3
01 0 512 304 298 134 488 299 0 0 +17 298 0 512 301 295 137 486 296 0 0 +15 512 6
2 0 513 514 0 17 295 0 512 298 513 140 148 293 0 0 +17 486 0 485 163 139 140 298
 296 0 295 -17 163 0 485 515 486 161 142 398 0 516 +17 515 0 485 193 163 164 270
 268 0 267 -17 142 0 517 148 516 140 163 398 0 486 -17 516 0 517 142 160 161 273
 271 0 270 -15 517 218 0 516 518 0 17 160 0 517 516 148 158 287 285 0 519 -17 27
3 0 520 276 270 158 516 271 0 0 +17 270 0 520 273 267 161 515 268 0 0 +15 520 40
 0 521 522 0 17 267 0 520 270 521 164 172 265 0 0 +17 521 0 520 267 169 170 262
 260 0 259 -17 172 0 523 190 166 170 267 265 0 521 -15 523 220 0 524 525 0 17 19
0 0 523 524 172 188 259 257 0 526 -17 166 0 523 172 524 164 193 400 0 515 -17 52
4 0 523 166 190 191 238 236 0 235 -17 193 0 485 527 515 191 166 400 0 524 +17 52
7 0 485 404 193 194 235 233 0 0 -17 404 0 485 407 527 53 196 402 0 0 +17 235 0 5
28 238 256 191 527 233 0 0 +15 528 15 0 235 529 0 17 238 0 528 241 235 188 524 2
36 0 0 +17 256 0 528 235 530 194 531 254 0 527 +17 530 0 528 256 250 173 253 251
 0 0 -17 531 0 532 533 196 173 256 254 0 530 -15 532 185 0 55 534 0 17 533 0 532
 55 531 62 175 387 0 386 -17 196 0 532 531 55 194 404 402 0 256 -17 55 0 532 196
 533 53 64 450 0 535 +17 64 0 536 537 535 62 55 450 0 533 -17 535 0 536 64 52 53
 407 405 0 404 -15 536 182 0 52 538 0 17 52 0 536 535 539 50 37 448 0 540 +17 40
7 0 485 70 404 50 535 405 0 0 +17 70 0 485 85 407 68 540 408 0 541 +17 540 0 542
 37 541 50 70 408 0 407 -17 541 0 542 540 82 68 383 381 0 380 -15 542 179 0 541
 543 0 17 82 0 542 541 43 80 432 430 0 383 -17 383 0 544 365 380 80 541 381 0 54
5 +17 380 0 544 383 489 68 85 378 0 0 +15 544 117 0 365 546 0 17 489 0 544 380 9
1 83 362 360 0 359 -17 91 0 544 489 374 89 377 375 0 362 -17 362 0 490 492 359 8
9 489 360 0 351 +17 492 0 490 97 362 92 351 349 0 0 -17 351 0 502 377 94 89 492
 349 0 0 +17 377 0 502 424 351 71 91 375 0 374 +17 424 0 502 427 377 47 73 422 0
 0 +17 374 0 544 91 371 71 547 372 0 0 +17 371 0 544 374 368 74 79 369 0 0 +17 5
47 0 548 549 73 74 374 372 0 371 -15 548 187 0 549 550 0 17 549 0 548 551 547 38
 76 436 0 435 -17 73 0 548 547 49 71 424 422 0 377 -17 49 0 548 73 551 47 34 452
 0 552 -17 551 0 548 49 549 30 40 446 0 445 -17 34 0 553 58 552 30 49 452 0 551
 +17 552 0 553 34 46 47 427 425 0 424 -15 553 190 0 58 554 0 17 46 0 553 552 555
 44 61 218 0 556 -17 427 0 502 181 424 44 552 425 0 0 +17 181 0 502 247 427 179
 556 428 0 557 +17 247 0 502 151 181 182 558 245 0 244 +17 556 0 559 61 557 44 1
81 428 0 427 -17 557 0 559 556 178 179 250 248 0 558 -15 559 193 0 61 560 0 17 1
78 0 559 557 61 176 391 389 0 253 -17 250 0 528 530 558 176 557 248 0 0 +17 558
 0 528 250 244 179 247 245 0 0 -17 244 0 528 558 241 182 561 242 0 0 +17 241 0 5
28 244 238 185 526 239 0 0 +17 561 0 562 563 184 185 244 242 0 241 -15 562 222 0
 561 564 0 17 563 0 562 565 561 167 187 263 0 262 -17 184 0 562 561 565 182 151
 414 0 247 -17 565 0 562 184 563 149 169 283 0 566 -17 151 0 502 282 247 149 184
 414 0 565 +17 282 0 502 127 151 152 566 280 0 279 +17 127 0 502 310 282 125 154
 416 0 567 +17 566 0 520 169 279 149 282 280 0 0 -17 279 0 520 566 276 152 568 2
77 0 0 +17 276 0 520 279 273 155 519 274 0 0 +17 568 0 569 570 154 155 279 277 0
 276 -15 569 224 0 568 571 0 17 570 0 569 567 568 143 157 291 0 290 -17 154 0 56
9 568 567 152 127 416 0 282 -17 567 0 569 154 570 125 145 311 0 505 -17 145 0 51
2 513 505 143 567 311 0 570 +17 505 0 512 145 307 125 310 308 0 0 -17 307 0 512
 505 304 128 507 305 0 0 +17 304 0 512 307 301 131 511 302 0 0 +17 507 0 506 508
 130 131 307 305 0 304 -17 513 0 512 295 145 146 290 288 0 287 -17 290 0 572 157
 287 143 513 288 0 0 +17 287 0 572 290 519 146 160 285 0 0 +15 572 55 0 519 573
 0 17 519 0 572 287 157 158 276 274 0 273 -17 157 0 572 519 290 155 570 291 0 56
8 +14 573 54 574 ?522 514 572 4 575 +0 0 522 514 19 81 1 574 440 462 573 576 0 5
77 578 579 14 522 39 577 ?580 573 520 4 581 +0 0 580 573 19 14 514 61 578 ?573 5
10 512 4 582 +0 0 573 510 19 50 575 392 0 573 581 582 0 +-.1840993985989145 -.21
78359773218225 .140016019599956 -.788010753606739 .615661475325637 0 0 0 -1 50 5
81 391 0 522 583 575 0 +-.190403484627768 -.212910685519217 .140016019599956 .61
5661475325647 .788010753606731 0 0 0 1 50 582 393 0 514 575 584 0 +-.18286807564
8263 -.216259955814609 .140016019599956 .615661475325649 .788010753606729 0 0 0
 1 50 584 394 0 510 582 585 0 +-.1525789684546455 -.2424624363348485 .1400160195
99956 .78801075360673 -.615661475325648 0 0 0 1 14 510 76 586 ?514 484 509 4 584
 +0 0 514 484 19 50 585 395 0 484 584 587 0 +-.1462748824257914 -.24738772813745
35 .140016019599956 .615661475325648 .78801075360673 0 0 0 1 14 484 83 588 ?510
 495 481 4 585 +0 0 510 495 19 50 587 396 0 495 585 589 0 +-.1450435594751402 -.
2458117066302405 .140016019599956 -.788010753606725 .615661475325655 0 0 0 -1 14
 495 98 590 ?484 493 494 4 587 +0 0 484 493 19 50 589 397 0 493 587 591 0 +-.145
0435594751402 -.2458117066302405 .140016019599956 .615661475325649 .788010753606
73 0 0 0 1 14 493 105 592 ?495 546 490 4 589 +0 0 495 546 19 50 591 398 0 546 58
9 593 0 +-.1300713551566122 -.2575092746614275 .140016019599956 .788010753606729
 -.61566147532565 0 0 0 1 14 546 116 594 ?493 595 544 4 591 +0 0 493 595 19 50 5
93 399 0 595 591 596 0 +-.2167211761095275 -.196243447899969 .140016019599956 -.
788010753606729 .61566147532565 0 0 0 -1 14 595 130 597 ?546 487 598 4 593 +0 0
 546 487 19 50 596 400 0 487 593 599 0 +-.1615964242179 -.316401442338733 .01869
829328898125 -.0628629745324419 .0491139384416536 .99681295511429 -.998017380132
664 0 -.0629389303462862 14 487 141 600 ?595 503 485 4 596 +0 0 595 503 19 50 59
9 401 0 503 596 601 0 +-.269576054716606 -.2320385090745895 -.00773202663176089
 -.0628629745324419 .0491139384416536 -.99681295511429 .998017380132664 0 -.0629
389303462862 14 503 152 602 ?487 603 502 4 599 +0 0 487 603 19 50 601 402 0 603
 599 604 0 +-.173627635934046 -.26482190727731 .174961845136002 -.57725214244909
9 -.81656595816745 0 0 0 -1 14 603 163 605 ?503 606 607 4 601 +0 0 503 606 19 50
 604 403 0 606 601 608 0 +-.2156328967302845 -.194850513815019 .174961845136002
 -.857371678092241 -.514697780843569 0 0 0 -1 14 606 170 609 ?603 543 610 4 604
 +0 0 603 543 19 51 608 404 0 543 604 611 0 +-.1399988347246714 -.28614571752429
 .0165631995616679 .813969455336391 -.575416605702664 .0796834716927169 .002 .57
7252142449099 .81656595816745 0 14 543 178 612 ?606 538 542 4 608 +0 0 606 538 1
9 51 611 405 0 538 608 613 0 +-.1459075632520002 -.307111588799873 .017223580485
5861 .513267640930558 -.854989384049483 .0744948450314872 .002 .857371678092241
 .514697780843569 -4135294608492e-30 14 538 181 614 ?543 534 536 4 611 +0 0 543
 534 19 51 613 406 0 534 611 615 0 +-.215145154602314 -.1974747708506205 .007455
27157719683 .61566147532565 .788010753606729 488823561941546e-31 .002 -.78801075
3606729 .61566147532565 0 14 534 184 616 ?538 550 532 4 613 +0 0 538 550 19 51 6
15 407 0 550 613 617 0 +-.2517648047618685 -.207135387725992 -.00562187928081354
 -.813969455336391 .575416605702664 .0796834716927169 .002 -.577252142449099 -.8
1656595816745 0 14 550 186 618 ?534 554 548 4 615 +0 0 534 554 19 51 617 408 0 5
54 615 619 0 +-.2117951107518325 -.1973576336288825 -.00766076715177457 -.513267
640930558 .854989384049483 .0744948450314872 .002 -.857371678092241 -.5146977808
43569 -4135294608492e-30 14 554 189 620 ?550 560 553 4 617 +0 0 550 560 19 51 61
9 409 0 560 617 621 0 +-.2525451151334565 -.2453445373768085 -.00745527157719683
 .61566147532565 .788010753606729 -488823561941546e-31 .002 -.788010753606729 .6
1566147532565 0 14 560 192 622 ?554 623 559 4 619 +0 0 554 623 19 52 621 410 0 6
23 619 624 0 +-.140404640262033 -.269940646818321 0 -.80767123838946 .5896330813
97606 0 .015 .0152691867399413 .999883419172606 -.589633081397606 -.807671238389
46 0 14 623 194 625 ?560 212 626 4 621 +0 0 560 212 19 50 624 411 0 212 621 467
 0 +-.03901860641303115 -.326622818193345 0 .904082549660781 -.427357863387187 0
 0 0 -1 14 212 197 627 ?623 222 208 4 624 +0 0 623 222 19 52 467 412 0 222 624 4
61 0 +-.0451005361463761 -.339489240017432 0 -.904082549660781 .427357863387187
 0 .01423146794384516 .1879123248368875 .982185806339308 -.4273578633871865 -.90
4082549660781 0 81 1 627 497 462 212 628 0 625 464 629 80 1 462 630 631 8015 0 0
 0 0 3 5 0 0 0 FFFFTFFFFFFFFF2 81 2 628 496 630 212 632 627 633 634 635 636 81 1
 625 494 462 623 633 0 622 627 637 81 1 464 500 462 222 634 0 627 458 638 83 1 6
29 0 81 2 634 499 630 222 639 464 628 463 640 641 83 1 638 0 80 2 630 642 643 80
14 0 0 0 0 3 5 0 0 0 FFFFTFFFFFFFFF2 1 81 1 639 498 644 222 0 634 632 645 646 81
 2 463 502 630 457 645 458 634 647 648 649 83 4 640 .956862745098039 0 .95686274
5098039 .956862745098039 82 1 641 1 81 1 645 501 644 457 0 463 639 650 651 81 2
 647 505 630 459 650 465 463 652 653 654 83 4 648 .956862745098039 0 .9568627450
98039 .956862745098039 82 1 649 1 81 1 650 504 644 459 0 647 645 655 656 81 1 46
5 506 462 459 647 0 458 657 658 81 2 652 508 630 468 655 657 647 659 660 661 83
 4 653 .956862745098039 0 .956862745098039 .956862745098039 82 1 654 1 14 468 21
5 657 ?459 518 23 4 662 +0 0 459 518 19 81 1 655 507 644 468 0 652 650 663 664 8
1 1 657 509 462 468 652 0 465 665 666 81 2 659 511 630 518 663 665 652 667 668 6
69 83 4 660 .956862745098039 0 .956862745098039 .956862745098039 82 1 661 1 14 5
18 217 665 ?468 525 517 4 670 +0 0 468 525 19 81 1 663 510 644 518 0 659 655 671
 672 81 1 665 512 462 518 659 0 657 673 674 81 2 667 514 630 525 671 673 659 675
 676 677 83 4 668 .956862745098039 0 .956862745098039 .956862745098039 82 1 669
 1 14 525 219 673 ?518 564 523 4 678 +0 0 518 564 19 81 1 671 513 644 525 0 667
 663 679 680 81 1 673 515 462 525 667 0 665 681 682 81 2 675 517 630 564 679 681
 667 683 684 685 83 4 676 .956862745098039 0 .956862745098039 .956862745098039 8
2 1 677 1 14 564 221 681 ?525 571 562 4 686 +0 0 525 571 19 81 1 679 516 644 564
 0 675 671 687 688 81 1 681 518 462 564 675 0 673 689 690 81 2 683 520 630 571 6
87 689 675 691 692 693 83 4 684 .956862745098039 0 .956862745098039 .95686274509
8039 82 1 685 1 14 571 223 689 ?564 500 569 4 694 +0 0 564 500 19 81 1 687 519 6
44 571 0 683 679 695 696 81 1 689 521 462 571 683 0 681 697 698 81 2 691 523 630
 500 695 697 683 699 700 701 83 4 692 .956862745098039 0 .956862745098039 .95686
2745098039 82 1 693 1 14 500 225 697 ?571 476 499 4 702 +0 0 571 476 19 81 1 695
 522 644 500 0 691 687 703 704 81 1 697 524 462 500 691 0 689 705 706 81 2 699 5
26 630 476 703 705 691 707 708 709 83 4 700 .956862745098039 0 .956862745098039
 .956862745098039 82 1 701 1 14 476 227 705 ?500 471 506 4 710 +0 0 500 471 19 8
1 1 703 525 644 476 0 699 695 711 712 81 1 705 527 462 476 699 0 697 474 713 81
 2 707 529 630 471 711 474 699 473 714 715 83 4 708 .956862745098039 0 .95686274
5098039 .956862745098039 82 1 709 1 81 1 711 528 644 471 0 707 703 716 717 81 1
 474 530 462 471 707 0 705 470 718 81 2 473 532 630 14 716 470 707 0 719 720 83
 4 714 .956862745098039 0 .956862745098039 .956862745098039 82 1 715 1 81 1 716
 531 644 14 0 473 711 0 721 83 4 719 .956862745098039 0 .956862745098039 .956862
745098039 82 1 720 1 80 1 644 0 722 8001 0 0 0 0 3 5 0 0 0 FFFFTFTFFFFFFF2 83 3
 721 .956862745098039 .956862745098039 .956862745098039 79 15 722 SDL/TYSA_COLOU
R83 1 718 0 83 3 717 .956862745098039 .956862745098039 .956862745098039 83 1 713
 0 83 3 712 .956862745098039 .956862745098039 .956862745098039 50 710 421 0 476
 702 16 0 +-.19332752666781 -.291610388081407 -.0154757250213721 .55720774752323
7 -.435338404118077 -.707106781186552 .785441282744977 0 .618936177129698 50 702
 420 0 500 694 710 0 +-.183851079630816 -.2990141999417635 -.01643814029072195 -
.55720774752323 .435338404118079 -.707106781186556 .785441282744982 0 -.61893617
7129692 50 16 422 0 471 710 5 0 +-.1525789684546455 -.2424624363348485 .01376620
120839758 .510981065843768 -.399222162160808 .761262120158895 -.830297883253193
 0 .557319858847024 50 694 419 0 571 686 702 0 +-.2216755958039365 -.26946244912
61315 -.01259673308624212 -.557207747523242 .435338404118069 -.707106781186553 .
785441282744975 0 -.618936177129701 50 686 418 0 564 678 694 0 +-.23115204284093
3 -.2620586372657755 -.01163431781689216 .557207747523232 -.435338404118078 -.70
7106781186555 .785441282744981 0 .618936177129693 50 678 417 0 525 670 686 0 +-.
189172161677117 -.2113346640120035 .0099247940039176 .510981065843771 -.39922216
2160814 .76126212015889 -.83029788325319 0 .557319858847028 50 670 416 0 518 662
 678 0 +-.1840993985989145 -.2178359773218225 .01024181771532836 -.5998827369986
68 .468679760006543 .648444280112946 -.734058934039693 0 -.679085768777781 50 66
2 415 0 468 469 670 0 +-.0574174186502961 -.3336670763306745 0 .904082549660781
 -.427357863387187 0 0 0 -1 51 469 414 0 459 461 662 0 +-.0574174186502961 -.333
6670763306745 0 -.904082549660781 .4273578633871865 0 .00806776675286071 .427357
863387187 .904082549660781 0 83 1 706 0 83 3 704 .956862745098039 .9568627450980
39 .956862745098039 83 1 698 0 83 3 696 .956862745098039 .956862745098039 .95686
2745098039 83 1 690 0 83 3 688 .956862745098039 .956862745098039 .95686274509803
9 83 1 682 0 83 3 680 .956862745098039 .956862745098039 .956862745098039 83 1 67
4 0 83 3 672 .956862745098039 .956862745098039 .956862745098039 83 1 666 0 83 3
 664 .956862745098039 .956862745098039 .956862745098039 15 23 216 0 20 468 0 83
 1 658 0 83 3 656 .956862745098039 .956862745098039 .956862745098039 83 3 651 .9
56862745098039 .956862745098039 .956862745098039 81 1 632 495 644 212 0 628 723
 639 724 83 3 646 .956862745098039 .956862745098039 .956862745098039 81 1 723 49
2 644 623 0 633 725 632 726 83 3 724 .956862745098039 .956862745098039 .95686274
5098039 81 2 633 493 630 623 723 625 727 628 728 729 81 1 725 489 644 560 0 727
 730 723 731 83 3 726 .956862745098039 .956862745098039 .956862745098039 81 2 72
7 490 630 560 725 622 732 633 733 734 81 1 730 486 644 554 0 732 735 725 736 83
 3 731 .956862745098039 .956862745098039 .956862745098039 81 2 732 487 630 554 7
30 620 737 727 738 739 81 1 735 483 644 550 0 737 740 730 741 83 3 736 .95686274
5098039 .956862745098039 .956862745098039 81 2 737 484 630 550 735 618 742 732 7
43 744 81 1 740 480 644 534 0 742 745 735 746 83 3 741 .956862745098039 .9568627
45098039 .956862745098039 81 2 742 481 630 534 740 616 747 737 748 749 81 1 745
 477 644 538 0 747 750 740 751 83 3 746 .956862745098039 .956862745098039 .95686
2745098039 81 2 747 478 630 538 745 614 752 742 753 754 81 1 750 474 644 543 0 7
52 755 745 756 83 3 751 .956862745098039 .956862745098039 .956862745098039 81 2
 752 475 630 543 750 612 757 747 758 759 81 1 755 471 644 606 0 757 760 750 761
 83 3 756 .956862745098039 .956862745098039 .956862745098039 81 2 757 472 630 60
6 755 609 762 752 763 764 81 1 760 468 644 603 0 762 765 755 766 83 3 761 .95686
2745098039 .956862745098039 .956862745098039 81 2 762 469 630 603 760 605 767 75
7 768 769 81 1 765 465 644 503 0 767 770 760 771 83 3 766 .956862745098039 .9568
62745098039 .956862745098039 81 2 767 466 630 503 765 602 772 762 773 774 81 1 7
70 462 644 487 0 772 775 765 776 83 3 771 .956862745098039 .956862745098039 .956
862745098039 81 2 772 463 630 487 770 600 777 767 778 779 81 1 775 459 644 595 0
 777 780 770 781 83 3 776 .956862745098039 .956862745098039 .956862745098039 81
 2 777 460 630 595 775 597 782 772 783 784 81 1 780 456 644 546 0 782 785 775 78
6 83 3 781 .956862745098039 .956862745098039 .956862745098039 81 2 782 457 630 5
46 780 594 787 777 788 789 81 1 785 453 644 493 0 787 790 780 791 83 3 786 .9568
62745098039 .956862745098039 .956862745098039 81 2 787 454 630 493 785 592 792 7
82 793 794 81 1 790 450 644 495 0 792 795 785 796 83 3 791 .956862745098039 .956
862745098039 .956862745098039 81 2 792 451 630 495 790 590 797 787 798 799 81 1
 795 447 644 484 0 797 800 790 801 83 3 796 .956862745098039 .956862745098039 .9
56862745098039 81 2 797 448 630 484 795 588 802 792 803 804 81 1 800 444 644 510
 0 802 805 795 806 83 3 801 .956862745098039 .956862745098039 .956862745098039 8
1 2 802 445 630 510 800 586 807 797 808 809 81 1 805 441 644 514 0 807 810 800 8
11 83 3 806 .956862745098039 .956862745098039 .956862745098039 81 2 807 442 630
 514 805 578 576 802 812 813 81 1 810 438 644 573 0 576 814 805 815 83 3 811 .95
6862745098039 .956862745098039 .956862745098039 81 2 576 439 630 573 810 574 816
 807 817 818 81 1 814 435 644 522 0 816 819 810 820 83 3 815 .956862745098039 .9
56862745098039 .956862745098039 81 2 816 436 630 522 814 577 821 576 822 823 81
 1 819 432 644 580 0 821 824 814 825 83 3 820 .956862745098039 .956862745098039
 .956862745098039 14 580 32 826 ?529 522 827 4 583 +0 0 529 522 19 81 2 821 433
 630 580 819 826 828 816 829 830 81 1 824 429 644 529 0 828 831 819 832 83 3 825
 .956862745098039 .956862745098039 .956862745098039 14 529 14 833 ?227 580 528 4
 834 +0 0 227 580 19 81 2 828 430 630 529 824 833 835 821 836 837 81 1 831 426 6
44 227 0 835 0 824 838 83 3 832 .956862745098039 .956862745098039 .9568627450980
39 14 227 3 839 ?0 529 840 4 841 +0 0 0 529 19 81 2 835 427 630 227 831 839 0 82
8 842 843 83 3 838 .956862745098039 .956862745098039 .956862745098039 81 1 839 4
28 462 227 835 0 0 833 844 83 4 842 .956862745098039 0 .956862745098039 .9568627
45098039 82 1 843 1 81 1 833 431 462 529 828 0 839 826 845 83 1 844 0 81 1 826 4
34 462 580 821 0 833 577 846 83 1 845 0 81 1 577 437 462 522 816 0 826 574 847 8
3 1 846 0 83 1 847 0 15 840 11 0 199 227 225 51 841 388 0 227 0 834 0 +-.0229016
096788046 -.3557226713639785 0 -.807671238389461 .589633081397605 0 .014 -.58963
3081397605 -.807671238389461 0 50 834 389 0 529 841 583 0 +-.2136004950389255 -.
1922491582769085 .140016019599956 .615661475325643 .788010753606734 0 0 0 1 50 5
83 390 0 580 834 581 0 +-.189172161677117 -.2113346640120035 .140016019599956 .7
88010753606727 -.615661475325652 0 0 0 1 17 199 0 840 199 199 197 848 231 0 848
 +17 848 0 849 848 848 197 199 231 0 0 -15 849 195 0 848 623 0 83 4 836 .9568627
45098039 0 .956862745098039 .956862745098039 82 1 837 1 83 4 829 .95686274509803
9 0 .956862745098039 .956862745098039 82 1 830 1 15 827 33 0 526 580 0 17 526 0
 827 259 187 188 241 239 0 238 -17 259 0 827 262 526 170 190 257 0 0 +17 187 0 8
27 526 262 185 563 263 0 561 +17 262 0 827 187 259 167 521 260 0 0 +83 4 822 .95
6862745098039 0 .956862745098039 .956862745098039 82 1 823 1 83 4 817 .956862745
098039 0 .956862745098039 .956862745098039 82 1 818 1 81 1 578 443 462 514 807 0
 574 586 850 83 4 812 .956862745098039 0 .956862745098039 .956862745098039 82 1
 813 1 81 1 586 446 462 510 802 0 578 588 851 83 1 850 0 81 1 588 449 462 484 79
7 0 586 590 852 83 1 851 0 81 1 590 452 462 495 792 0 588 592 853 83 1 852 0 81
 1 592 455 462 493 787 0 590 594 854 83 1 853 0 81 1 594 458 462 546 782 0 592 5
97 855 83 1 854 0 81 1 597 461 462 595 777 0 594 600 856 83 1 855 0 81 1 600 464
 462 487 772 0 597 602 857 83 1 856 0 81 1 602 467 462 503 767 0 600 605 858 83
 1 857 0 81 1 605 470 462 603 762 0 602 609 859 83 1 858 0 81 1 609 473 462 606
 757 0 605 612 860 83 1 859 0 81 1 612 476 462 543 752 0 609 614 861 83 1 860 0
 81 1 614 479 462 538 747 0 612 616 862 83 1 861 0 81 1 616 482 462 534 742 0 61
4 618 863 83 1 862 0 81 1 618 485 462 550 737 0 616 620 864 83 1 863 0 81 1 620
 488 462 554 732 0 618 622 865 83 1 864 0 81 1 622 491 462 560 727 0 620 625 866
 83 1 865 0 83 1 866 0 83 4 808 .956862745098039 0 .956862745098039 .95686274509
8039 82 1 809 1 83 4 803 .956862745098039 0 .956862745098039 .956862745098039 82
 1 804 1 83 4 798 .956862745098039 0 .956862745098039 .956862745098039 82 1 799
 1 83 4 793 .956862745098039 0 .956862745098039 .956862745098039 82 1 794 1 83 4
 788 .956862745098039 0 .956862745098039 .956862745098039 82 1 789 1 83 4 783 .9
56862745098039 0 .956862745098039 .956862745098039 82 1 784 1 83 4 778 .95686274
5098039 0 .956862745098039 .956862745098039 82 1 779 1 83 4 773 .956862745098039
 0 .956862745098039 .956862745098039 82 1 774 1 83 4 768 .956862745098039 0 .956
862745098039 .956862745098039 82 1 769 1 83 4 763 .956862745098039 0 .9568627450
98039 .956862745098039 82 1 764 1 83 4 758 .956862745098039 0 .956862745098039 .
956862745098039 82 1 759 1 83 4 753 .956862745098039 0 .956862745098039 .9568627
45098039 82 1 754 1 83 4 748 .956862745098039 0 .956862745098039 .95686274509803
9 82 1 749 1 83 4 743 .956862745098039 0 .956862745098039 .956862745098039 82 1
 744 1 83 4 738 .956862745098039 0 .956862745098039 .956862745098039 82 1 739 1
 83 4 733 .956862745098039 0 .956862745098039 .956862745098039 82 1 734 1 83 4 7
28 .956862745098039 0 .956862745098039 .956862745098039 82 1 729 1 79 21 643 SDL
/TYSA_REFLECTIVITY83 1 637 0 83 4 635 .956862745098039 0 .956862745098039 .95686
2745098039 82 1 636 1 79 21 631 SDL/TYSA_TRANSLUCENCY15 626 196 0 867 623 849 17
 867 0 626 867 867 77 368 366 0 365 -17 368 0 544 371 365 77 867 366 0 867 +17 3
65 0 544 368 383 77 545 363 0 0 +17 545 0 607 432 79 80 365 363 0 0 -15 607 164
 0 545 603 0 17 432 0 607 435 545 41 82 430 0 0 +17 79 0 607 545 76 77 371 369 0
 368 -17 76 0 607 79 435 74 549 436 0 547 +17 435 0 607 76 432 38 868 433 0 0 +1
7 868 0 610 440 40 41 435 433 0 432 -15 610 171 0 440 606 0 17 440 0 610 67 868
 35 43 438 0 0 +17 40 0 610 868 445 38 551 446 0 549 +17 445 0 610 40 397 30 58
 443 0 0 +17 397 0 610 445 67 56 869 395 0 394 +17 58 0 553 555 34 56 445 443 0
 397 -17 555 0 553 46 58 59 394 392 0 391 -17 394 0 598 869 391 56 555 392 0 0 +
17 391 0 598 394 253 59 178 389 0 0 +15 598 131 0 386 595 0 17 253 0 598 391 175
 176 530 251 0 250 +17 175 0 598 253 386 173 533 387 0 531 +17 386 0 598 175 869
 62 537 384 0 0 +17 869 0 598 386 394 65 397 395 0 537 -17 537 0 536 539 64 65 3
86 384 0 0 -17 539 0 536 52 537 35 67 441 0 440 -17 67 0 610 397 440 65 539 441
 0 869 +17 43 0 542 82 37 41 440 438 0 868 -17 37 0 542 43 540 35 52 448 0 539 -
83 1 579 0 17 169 0 520 521 566 167 565 283 0 563 +17 61 0 559 178 556 59 46 218
 0 555 +17 97 0 490 491 492 95 501 352 0 496 +17 148 0 517 160 142 146 295 293 0
 513 -83 1 475 0 17 28 0 460 28 28 22 25 21 0 0 -15 27 214 0 25 459 870 15 870 2
11 0 24 459 0 17 24 0 870 24 24 10 20 9 0 0 -83 1 466 0 19 15 233 0 1 0 8 4 S0 7
4 20 13 6 0 0 871 12 716 473 470 2 0 0 0 0 0 0 0 0 0 0 0 0 0 0 81 1 871 424 872
 1 0 12 0 0 873 81 1 12 425 874 1 871 2 0 0 875 80 1 874 462 876 8041 0 0 0 0 3
 5 0 0 0 TTTFFFFFFFFFFF2 83 1 875 0 79 23 876 SDL/TYSA_TRANSLUCENCY_280 1 872 64
4 877 8040 0 0 0 0 3 5 0 0 0 TTTFFFFFFFFFFF2 83 3 873 .956862745098039 .95686274
5098039 .956862745098039 79 17 877 SDL/TYSA_COLOUR_280 1 11 878 879 8017 0 0 0 0
 0 0 0 0 0 TTTTTTTTTTTTTF3 79 13 879 SDL/TYSA_NAME1 0 
