**ABCDEFGHIJKLMNOPQRSTUVWXYZabcdefghijklmnopqrstuvwxyz**************************
**PARASOLID !"#$%&'()*+,-./:;<=>?@[\]^_`{|}~0123456789**************************
**PART1;
MC=;
MC_MODEL=;
MC_ID=unknown;
OS=Windows;
OS_RELEASE=;
FRU=;
APPL=Autodesk Inventor 2023;
SITE=unknown;
USER=unknown;
FORMAT=text;
GUISE=transmit;
KEY=INT-207-03-002;
FILE=D:\мои документы\Ирина\_WorldSkills\2022_08 Роскосмос\Задание\the-first-satellite-sputnik-1.snapshot.4\Inventor\GIVEN\PARASOLID\INT-207-03-002.x_t;
DATE=2022-Aug-07 12:47:22;
**PART2;
SCH=SCH_3301154_33103;
USFLD_SIZE=0;
**PART3;
**END_OF_HEADER*****************************************************************
T51 : TRANSMIT FILE created by modeller version 330115417 SCH_3300000_320010 12
 1 45 2 3 0 0 0 0 0 0 1e3 1e-8 0 0 0 1 0 1 1 4 5 6 7 0 0 8 9 10 0 0 0 0 0 0 0 81
 1 2 45 11 1 12 0 0 0 0 70 3 0 4 T1 0 0 6 20 1 13 13 13 4 20 0 1 0 14 0 0 15 0 5
3 5 30 0 14 16 0 0 +2.560805645167325 -1.57129544869997 0 .004 1 0 0 0 -1 0 31 6
 26 0 9 17 0 0 +2.56081079224857 -1.571297881714125 0 -.904082549660781 .4273578
63387187 0 -.427357863387187 -.904082549660781 0 .00399999594849754 29 7 23 0 10
 18 0 2.559101362526465 -1.574914208249875 0 19 8 1 0 1 15 0 19 V0 16 9 14 0 ?20
 0 21 6 0 0 1 18 10 15 0 20 0 22 7 ?1 17 20 0 23 20 20 10 24 9 0 24 +18 22 10 0
 25 10 26 18 ?1 17 25 0 27 25 25 22 28 21 0 28 +18 26 6 0 29 22 0 30 ?1 29 18 22
 0 22 30 7 -.02651010532499555 -.357200602275382 0 29 30 21 0 26 0 18 -.06086524
22121052 -.340961003466669 0 17 29 0 31 29 29 26 32 33 0 32 +15 31 4 0 29 34 0 1
7 32 0 35 32 32 26 29 33 0 0 -16 33 5 0 ?29 21 0 36 0 0 1 16 21 9 0 ?25 9 33 17
 0 0 1 31 36 24 0 33 0 17 0 +-.0574174186502965 -.3336670763306745 0 -.904082549
660781 .427357863387187 0 -.427357863387187 -.904082549660781 0 .008067766752860
72 31 17 25 0 21 36 6 0 +-.0230622817631868 -.3499066751393875 0 -.9040825496607
81 .427357863387187 0 -.427357863387187 -.904082549660781 0 .00806776675286072 1
5 35 11 0 32 37 27 14 37 7 38 ?34 39 35 4 40 +0 0 34 39 19 15 27 8 0 25 37 0 81
 1 38 38 41 37 42 0 43 44 45 14 34 3 43 ?0 37 31 4 46 +0 0 0 37 19 14 39 12 44 ?
37 14 47 4 16 +0 0 37 14 19 51 40 28 0 37 46 16 0 +-.0574174186502965 -.33366707
63306745 0 -.904082549660781 .427357863387187 0 .00806776675286072 -.42735786338
7187 -.904082549660781 0 13 19 2 0 0 0 0 0 0 8 14 14 14 17 48 ?39 0 49 4 5 +0 0
 39 0 19 81 1 48 44 41 14 50 0 44 0 51 15 49 18 0 24 14 0 17 24 0 49 24 24 10 20
 9 0 0 -80 1 41 52 53 8015 0 0 0 0 3 5 0 0 0 FFFFTFFFFFFFFF2 81 2 50 43 52 14 54
 48 55 0 56 57 81 1 44 41 41 39 55 0 38 48 58 83 1 51 0 81 2 55 40 52 39 59 44 4
2 50 60 61 83 1 58 0 80 2 52 62 63 8014 0 0 0 0 3 5 0 0 0 FFFFTFFFFFFFFF2 1 81 1
 59 39 64 39 0 55 65 54 66 81 2 42 37 52 37 65 38 67 55 68 69 83 4 60 .689996939
301308 0 .689996939301308 .689996939301308 82 1 61 1 81 1 65 36 64 37 0 42 70 59
 71 81 2 67 34 52 34 70 43 0 42 72 73 83 4 68 .689996939301308 0 .68999693930130
8 .689996939301308 82 1 69 1 81 1 70 33 64 34 0 67 0 65 74 81 1 43 35 41 34 67 0
 0 38 75 83 4 72 .689996939301308 0 .689996939301308 .689996939301308 82 1 73 1
 83 1 75 0 80 1 64 0 76 8001 0 0 0 0 3 5 0 0 0 FFFFTFTFFFFFFF2 83 3 74 .63921568
627451 .63921568627451 .690196078431373 79 15 76 SDL/TYSA_COLOUR83 3 71 .6392156
8627451 .63921568627451 .690196078431373 81 1 54 42 64 14 0 50 59 0 77 83 3 66 .
63921568627451 .63921568627451 .690196078431373 83 3 77 .63921568627451 .6392156
8627451 .690196078431373 79 21 63 SDL/TYSA_REFLECTIVITY83 4 56 .689996939301308
 0 .689996939301308 .689996939301308 82 1 57 1 79 21 53 SDL/TYSA_TRANSLUCENCY50
 46 27 0 34 0 40 0 +-.0608652422121052 -.340961003466669 0 -.904082549660781 .42
7357863387187 0 0 0 1 52 16 29 0 39 40 5 0 +-.0230622817631868 -.349906675139387
5 0 -.904082549660781 .427357863387187 0 .00806776675286072 .00142328851687065 .
999998987124386 -.427357863387187 -.904082549660781 0 15 47 16 0 28 39 23 17 28
 0 47 28 28 22 25 21 0 0 -15 23 13 0 20 39 0 83 1 45 0 19 15 19 0 1 0 8 4 S0 74
 20 13 6 0 0 78 12 54 50 48 2 0 0 0 0 0 0 0 0 0 0 0 0 0 0 81 1 78 31 79 1 0 12 0
 0 80 81 1 12 32 81 1 78 2 0 0 82 80 1 81 41 83 8041 0 0 0 0 3 5 0 0 0 TTTFFFFFF
FFFFF2 83 1 82 0 79 23 83 SDL/TYSA_TRANSLUCENCY_280 1 79 64 84 8040 0 0 0 0 3 5
 0 0 0 TTTFFFFFFFFFFF2 83 3 80 .63921568627451 .63921568627451 .690196078431373
 79 17 84 SDL/TYSA_COLOUR_280 1 11 85 86 8017 0 0 0 0 0 0 0 0 0 TTTTTTTTTTTTTF3
 79 13 86 SDL/TYSA_NAME1 0 
