**ABCDEFGHIJKLMNOPQRSTUVWXYZabcdefghijklmnopqrstuvwxyz**************************
**PARASOLID !"#$%&'()*+,-./:;<=>?@[\]^_`{|}~0123456789**************************
**PART1;
MC=;
MC_MODEL=;
MC_ID=unknown;
OS=Windows;
OS_RELEASE=;
FRU=;
APPL=Autodesk Inventor 2023;
SITE=unknown;
USER=unknown;
FORMAT=text;
GUISE=transmit;
KEY=INT-207-01-008;
FILE=D:\мои документы\Ирина\_WorldSkills\2022_08 Роскосмос\Задание\the-first-satellite-sputnik-1.snapshot.4\Inventor\GIVEN\PARASOLID\INT-207-01-008.x_t;
DATE=2022-Aug-07 12:41:21;
**PART2;
SCH=SCH_3301154_33103;
USFLD_SIZE=0;
**PART3;
**END_OF_HEADER*****************************************************************
T51 : TRANSMIT FILE created by modeller version 330115417 SCH_3300000_320010 12
 1 402 2 3 0 0 0 0 0 0 1e3 1e-8 0 0 0 1 0 1 1 4 5 6 7 0 0 8 9 10 0 0 0 0 0 0 0 8
1 1 2 402 11 1 12 0 0 0 0 70 3 0 4 T1 0 0 6 20 1 13 13 13 4 153 0 1 0 14 0 0 15
 0 51 5 252 0 14 16 0 17 +-.152926993039953 .1409598097984808 -.18446589609284 -
.642787609686541 .541675220419701 -.5416752204197 .002775 .64440047757177 .76468
8187763663 -300690150789429e-31 31 6 401 0 1 18 0 19 +-.152926993039953 .1844658
9609284 -.1409598097984806 .642787609686541 -.5416752204197 .541675220419702 .64
4400477571771 0 -.764688187763662 .002775 29 7 186 0 10 20 0 -.150848260374798 .
142804304980177 -.184207498758186 19 8 1 0 1 15 0 21 V0 16 9 145 0 ?22 0 23 24 0
 0 1 18 10 146 0 22 0 25 7 ?1 17 22 0 26 22 22 10 27 9 0 27 +18 25 132 0 28 10 2
9 20 ?1 17 28 0 30 28 28 25 31 32 0 31 +18 29 118 0 33 25 34 35 ?1 29 20 185 0 2
5 35 7 -.1979805981409895 .114839131764209 -.1562423255422185 29 35 184 0 29 36
 20 -.1979805981409895 .1562423255422185 -.114839131764209 29 36 183 0 34 37 35
 -.150848260374798 .184207498758186 -.1428043049801768 18 34 104 0 38 29 39 36 ?
1 29 37 182 0 39 40 36 -.154519346304153 .1319778585412422 -.1344630951514744 18
 39 91 0 41 34 42 37 ?1 29 40 181 0 42 43 37 -.15323377108478 .130894508100403 -
.133379744710635 18 42 87 0 44 39 45 40 ?1 29 43 180 0 45 46 40 -.14186939605841
36 .130894508100403 -.1468654630588352 18 45 81 0 47 42 48 43 ?1 29 46 179 0 48
 49 43 -.1544773157059275 .1848885823629295 -.1386974082098046 18 48 73 0 50 45
 51 46 1e-6 1 29 49 178 0 51 52 46 -.154361652993322 .185001561411379 -.13867552
90616372 18 51 71 0 53 48 54 49 1e-6 1 29 52 177 0 54 55 49 -.1513834284486135 .
1840195534955195 -.143191695019136 18 54 69 0 56 51 57 52 1e-6 1 29 55 176 0 57
 58 52 -.1514725474822085 .183897822218227 -.1432538248796296 18 57 68 0 59 54 6
0 55 1e-6 1 29 58 175 0 60 61 55 -.201513776363889 .1542067077957235 -.113562710
457126 18 60 64 0 62 57 63 58 1e-6 1 29 61 174 0 63 64 58 -.201570756016999 .154
2417538951955 -.1134138954188136 18 63 62 0 65 60 66 61 1e-6 1 29 64 173 0 66 67
 61 -.1985925314722635 .1587579198526865 -.1124318875029934 18 66 60 0 68 63 69
 64 1e-6 1 29 67 172 0 69 70 64 -.198509008140171 .1587631244655485 -.1125719503
124212 18 69 59 0 71 66 72 67 1e-6 1 29 70 171 0 72 73 67 -.1985090081401715 .11
25719503124212 -.1587631244655485 18 72 55 0 74 69 75 70 1e-6 1 29 73 170 0 75 7
6 70 -.198592531472265 .1124318875029908 -.158757919852687 18 75 53 0 77 72 78 7
3 1e-6 1 29 76 169 0 78 79 73 -.201570756016999 .1134138954188136 -.154241753895
1955 18 78 51 0 80 75 81 76 1e-6 1 29 79 168 0 81 82 76 -.201513776363889 .11356
27104571262 -.154206707795723 18 81 50 0 83 78 84 79 1e-6 1 29 82 167 0 84 85 79
 -.151472547482209 .14325382487963 -.1838978222182255 18 84 46 0 86 81 87 82 1e-
6 1 29 85 166 0 87 88 82 -.151383428448614 .1431916950191364 -.1840195534955185
 18 87 44 0 89 84 90 85 1e-6 1 29 88 165 0 90 91 85 -.154361652993348 .138675529
061645 -.185001561411341 18 90 42 0 92 87 93 88 1e-6 1 29 91 164 0 93 94 88 -.15
44773157059265 .1386974082098044 -.1848885823629315 18 93 41 0 95 90 96 91 1e-6
 1 29 94 163 0 96 97 91 -.1443216527458406 .1482281151538332 -.1856978363542535
 18 96 37 0 98 93 99 94 ?1 29 97 162 0 99 100 94 -.1525304676999595 .14917228109
9958 -.1782304322349775 18 99 32 0 101 96 102 97 ?1 29 100 161 0 102 103 97 -.14
38990608561708 .1319778585412422 -.1470658276375716 18 102 28 0 104 99 105 100 ?
1 29 103 160 0 105 106 100 -.1524661889389905 .149118113577916 -.178176264712935
5 18 105 25 0 107 102 108 103 ?1 29 106 159 0 108 109 103 -.1499916806732504 .14
7144764712994 -.1763605076029705 18 108 21 0 110 105 111 106 ?1 29 109 158 0 111
 112 106 -.1948269873272065 .15491522125219 -.1153855135342018 18 111 18 0 113 1
08 114 109 ?1 29 112 157 0 114 115 109 -.1948269873272065 .1153855135342018 -.15
491522125219 18 114 15 0 116 111 117 112 ?1 29 115 156 0 117 118 112 -.147694649
561015 .1433506867501696 -.1828803944681575 18 117 12 0 119 114 120 115 ?1 29 11
8 155 0 120 121 115 -.1476946495610152 .1828803944681575 -.1433506867501694 18 1
20 9 0 122 117 123 118 ?1 29 121 154 0 123 0 118 -.1430360775264674 .14714476471
2994 -.184614485913414 18 123 6 0 124 120 0 121 ?1 17 124 0 125 124 124 123 126
 127 0 126 +15 125 4 0 124 128 0 17 126 0 129 126 126 123 124 127 0 0 -16 127 5
 0 ?124 130 0 131 0 0 1 16 130 8 0 ?122 132 127 133 0 0 1 31 131 187 0 127 0 133
 0 +-.1746117009274845 .147144764712994 -.1471447647129944 .642787609686541 -.54
16752204197 .541675220419702 .644400477571771 0 -.764688187763662 .049 31 133 18
8 0 130 131 134 0 +-.1510455320443885 .1828803944681575 -.1393743081737984 .6427
87609686541 -.5416752204197 .541675220419702 .644400477571771 0 -.76468818776366
2 .0052 31 134 189 0 132 133 135 0 +-.1510455320443885 .1393743081737986 -.18288
03944681575 .642787609686541 -.541675220419701 .5416752204197 .64440047757177 .7
64688187763663 0 .0052 16 132 11 0 ?119 136 130 134 0 0 1 31 135 190 0 136 134 1
37 0 +-.19817786981058 .1114091349578308 -.15491522125219 .64278760968654 -.5416
75220419703 .541675220419701 .644400477571772 .764688187763661 0 .0052 16 136 14
 0 ?116 138 132 135 0 0 1 31 137 191 0 138 135 139 0 +-.19817786981058 .15491522
125219 -.1114091349578308 .642787609686539 -.541675220419702 .541675220419703 .6
44400477571772 0 -.764688187763661 .0052 16 138 17 0 ?113 140 136 137 0 0 1 31 1
39 192 0 140 137 141 0 +-.1746117009274845 .147144764712994 -.1471447647129944 .
642787609686541 -.5416752204197 .541675220419702 .644400477571771 0 -.7646881877
63662 .03820608629435985 16 140 20 0 ?110 142 138 139 0 0 1 31 141 193 0 142 139
 143 0 +-.176953407086718 .149118113577916 -.1491181135779164 .642787609686541 -
.5416752204197 .541675220419702 .644400477571771 0 -.764688187763662 .038 16 142
 24 0 ?107 144 140 141 0 0 1 31 143 194 0 144 141 145 0 +-.156613647856261 .1319
778585412422 -.1319778585412426 .642787609686541 -.5416752204197 .54167522041970
2 .644400477571771 0 -.764688187763662 .01973087768029195 16 144 27 0 ?104 146 1
42 143 0 0 1 31 145 195 0 146 143 147 0 +-.1770176858476865 .149172281099958 -.1
491722810999584 .642787609686541 -.5416752204197 .541675220419702 .6444004775717
71 0 -.764688187763662 .038 16 146 31 0 ?101 148 144 145 0 0 1 31 147 196 0 148
 145 149 0 +-.1758972761468575 .1482281151538332 -.1482281151538338 .64278760968
6541 -.5416752204197 .541675220419702 .644400477571771 0 -.764688187763662 .049
 16 148 36 0 ?98 150 146 147 0 0 1 31 149 213 0 151 147 152 0 +-.155328072636888
 .130894508100403 -.1308945081004032 .642787609686541 -.5416752204197 .541675220
419702 .644400477571771 0 -.764688187763662 .0208855782186712 16 151 80 0 ?47 15
3 154 149 0 0 1 31 152 214 0 153 149 155 0 +-.155328072636888 .130894508100403 -
.1308945081004032 .642787609686541 -.5416752204197 .541675220419702 .64440047757
1771 0 -.764688187763662 .003249999999999675 16 153 86 0 ?44 156 151 152 0 0 1 3
1 155 215 0 156 152 157 0 +-.156613647856261 .1319778585412422 -.131977858541242
6 .642787609686541 -.5416752204197 .541675220419702 .644400477571771 0 -.7646881
87763662 .003249999999999725 16 156 90 0 ?41 158 153 155 0 0 1 31 157 218 0 159
 155 160 0 +-.1526203616881205 .184207498758186 -.1407014124638266 .642787609686
541 -.5416752204197 .541675220419702 .644400477571771 0 -.764688187763662 .00275
 16 159 103 0 ?38 161 162 157 0 0 1 31 160 221 0 163 157 164 0 +-.19975269945431
2 .1562423255422185 -.112736239247859 .642787609686539 -.541675220419702 .541675
220419703 .644400477571772 0 -.764688187763661 .00275 16 163 117 0 ?33 165 166 1
60 0 0 1 31 164 224 0 32 160 24 0 +-.199752699454312 .112736239247859 -.15624232
55422185 .64278760968654 -.541675220419703 .541675220419701 .644400477571772 .76
4688187763661 0 .00275 16 32 131 0 ?28 167 168 164 0 0 1 31 24 227 0 9 164 169 0
 +-.1526203616881205 .140701412463827 -.184207498758186 .642787609686541 -.54167
5220419701 .5416752204197 .64440047757177 .764688187763663 0 .00275 133 169 330
 0 170 24 171 0 +171 -.154361652993348 .138675529061645 -.185001561411341 -.1513
83428448614 .1431916950191364 -.1840195534955185 0 1 17 170 0 172 173 174 87 175
 176 169 0 +137 171 331 0 1 169 177 178 +179 180 0 ?133 177 332 0 175 171 181 0
 +181 -.151383428448614 .1431916950191364 -.1840195534955185 -.154361652993348 .
138675529061645 -.185001561411341 0 1 141 178 169 178 178 171 53 179 231 0 182 1
83 184 185 +0 0 0 .278 612323399573677e-31 0 1 1 0 -612323399573677e-31 134 180
 0 0 0 0 0 0 +186 187 136 186 2 17 2 9 5 FFF1 188 189 190 135 187 2 0 45 34 188
 2.40967291626802 -.728127653858992 2.409000210375305 -.73003031448207 2.4074011
493002 -.731614937036695 2.40585725547863 -.733144890463549 2.403644656432175 -.
734142646744974 2.40137423338598 -.735166478360315 2.398734055060645 -.735457966
054605 2.396182511915205 -.735739668021935 2.393665268573115 -.735277533204948 2
.391089785443955 -.734804706281684 2.388954530724355 -.733613335231724 2.3869017
5662813 -.732467984464947 2.385569151267375 -.730816222351703 2.38420964107142 -
.729131111740272 2.3838121076237 -.727168195473438 2.38342810244224 -.7252720782
49716 2.383995964738745 -.723405129192216 127 9 189 3 2 2 2 2 2 2 2 3 128 9 190
 0 .125 .25 .375 .5 .625 .75 .875 1 14 182 34 191 ?192 193 194 4 179 +0 0 192 19
3 21 51 183 230 0 192 195 179 0 +0 0 0 -.642787609686541 .5416752204197 -.541675
220419702 .038 .644400477571771 0 -.764688187763662 51 184 232 0 193 179 196 0 +
0 0 0 .642787609686541 -.5416752204197 .541675220419702 .049 .644400477571771 -6
01380301578858e-31 -.764688187763662 141 185 171 197 198 179 141 197 199 200 185
 179 141 198 201 185 202 179 137 201 342 0 1 203 204 205 +179 206 0 ?141 202 207
 198 208 179 137 207 349 0 1 209 210 211 +179 212 0 ?141 208 213 202 214 179 137
 213 360 0 1 215 216 217 +179 218 0 ?141 214 219 208 220 179 137 219 367 0 1 221
 222 223 +179 224 0 ?141 220 225 214 200 179 137 225 378 0 1 226 227 228 +179 22
9 0 ?141 200 230 220 197 179 137 230 385 0 1 231 232 233 +179 234 0 ?133 231 384
 0 235 236 230 0 +230 -.1513834284486135 .1840195534955195 -.143191695019136 -.1
54361652993318 .1850015614113745 -.1386755290616336 0 1 133 232 386 0 237 230 23
8 0 +238 -.154361652993318 .1850015614113745 -.1386755290616336 -.15138342844861
35 .1840195534955195 -.143191695019136 0 1 141 233 231 233 233 230 134 234 0 0 0
 0 0 0 +239 240 136 239 2 17 2 9 5 FFF1 241 242 243 135 240 2 0 45 34 241 2.2591
95634528115 -.541098692956732 2.25709007897294 -.540469916173198 2.2553938432953
35 -.539214920802535 2.25364603028541 -.537921764866013 2.252611445738395 -.5361
62971562866 2.25160225631868 -.534447349965657 2.2514155247381 -.532543119364123
 2.251222084483295 -.530570475788655 2.251926774511495 -.528696125335362 2.25261
3431977255 -.52686973829894 2.254038944335915 -.525405299990514 2.2555111115563
 -.523892932832951 2.257533095250855 -.522985674072058 2.259502422900955 -.52210
2041939696 2.26169741369942 -.521908071741465 2.263973471993765 -.52170693765067
6 2.266152149949745 -.522251576935731 127 9 242 3 2 2 2 2 2 2 2 3 128 9 243 0 .1
25 .25 .375 .5 .625 .75 .875 1 17 237 0 244 53 53 54 235 245 232 246 -137 238 38
7 0 1 232 247 248 +249 250 0 ?133 247 389 0 162 238 251 0 +251 -.154361652993322
 .185001561411379 -.1386755290616374 -.1513834284486135 .1840195534955195 -.1431
916950191362 2.901712963720085 6.09484522606056 141 248 232 248 248 238 51 249 2
38 0 252 253 254 255 +-.1510455320443885 .1828803944681575 -.1393743081737984 -.
642787609686541 .5416752204197 -.541675220419702 .00275 .644400477571771 -300690
150789429e-31 -.764688187763662 134 250 0 0 0 0 0 0 +256 257 136 256 2 17 2 9 5
 FFF1 258 259 260 135 257 2 0 45 34 258 3.38147234345909 .00290203370010135 3.63
193556527864 .002792924439876815 3.771263142356695 .00273733337671439 3.97784241
0656465 .002654909197718825 4.15117696940598 .00260194936346832 4.35524671421389
5 .002539598843534275 4.54391957595811 .00250881661282002 4.7369881117647 .00247
7317221980655 4.92660878384474 .00247727486121439 5.1204032914091 .0024772315680
241 5.32050791356655 .00251070650137213 5.50270001654964 .00254118490031235 5.70
190377431433 .00260197882909165 5.94135950286558 .002675057041424045 6.283185307
17959 .00282065783724534 6.35247560613748 .002850172059236895 6.47152538829862 .
00290203370010826 127 9 259 3 2 2 2 2 2 2 2 3 128 9 260 0 .125 .25 .375 .5 .625
 .75 .937767028808594 1 14 252 100 261 ?262 263 264 4 249 -0 0 262 263 21 52 253
 237 0 262 265 249 0 +-.152910923349711 .1844523542123295 -.1409462679179702 -.6
42787609686541 .5416752204197 -.541675220419702 .00275 .707106781186893 .7071067
81186203 -.644400477571771 300690150789429e-31 .764688187763662 52 254 239 0 263
 249 266 0 +-.1510455320443885 .1828803944681575 -.1393743081737984 .64278760968
6541 -.5416752204197 .541675220419702 .0052 .707106781186547 .707106781186548 .6
44400477571771 0 -.764688187763662 141 255 238 255 255 249 14 263 105 267 ?252 2
68 269 4 254 -0 0 252 268 21 51 266 240 0 268 254 270 271 +-.152926993039953 .18
446589609284 -.1409598097984806 -.642787609686541 .5416752204197 -.5416752204197
02 .002775 .644400477571771 -300690150789429e-31 -.764688187763662 14 268 108 27
2 ?263 273 274 4 266 -0 0 263 273 21 52 270 241 0 273 266 275 0 +-.2000432611159
025 .156487180996362 -.1129810947020024 -.642787609686539 .541675220419702 -.541
675220419703 .00275 .707106781186927 .707106781186168 -.644400477571772 30069015
07894295e-32 .764688187763661 141 271 276 271 271 266 137 276 398 0 1 277 18 278
 +266 279 0 ?133 277 397 0 280 199 276 0 +276 -.1514725474822085 .18389782221822
7 -.1432538248796296 -.154477315705928 .18488858236293 -.138697408209805 0 1 133
 18 400 0 158 276 6 0 +6 -.1544773157059275 .1848885823629295 -.1386974082098046
 -.1514725474822085 .183897822218227 -.1432538248796296 2.959380266398145 6.0371
7792339985 141 278 277 278 278 276 134 279 0 0 0 0 0 0 +281 282 136 281 2 17 2 9
 5 FFF1 283 284 285 135 282 2 0 45 34 283 .24600738377974 -266713734431434e-31 .
492929326172114 .0001085153881285106 .634211322520327 .0001652145031517535 .8395
25306691666 .000247610855874003 1.012652575731156 .00030070457162723 1.215705948
30951 .000362975859716168 1.403845840342292 .0003937454185660765 1.5960721411550
2 .000425183293922819 1.78499313456572 .0004252274979738715 1.97809046763211 .00
04252726792118845 2.177348795782495 .0003918581530923075 2.359010792060145 .0003
613944350841305 2.55720732673016 .000300684974327922 2.73356897278261 .000246663
745108409 2.946830013074855 .000160695086538948 3.083666000021595 .0001055344898
08673 3.32380504078146 395950633391706e-30 127 9 284 3 2 2 2 2 2 2 2 3 128 9 285
 0 .125 .25 .375 .5 .625 .75 .875 1 16 158 98 0 ?59 162 156 18 0 0 1 17 59 0 274
 280 280 57 50 158 0 286 +16 162 99 0 ?56 159 158 247 0 0 1 17 56 0 287 288 289
 54 53 162 0 237 +15 287 97 0 50 262 0 17 288 0 287 50 56 57 246 290 0 0 -17 289
 0 287 56 50 51 291 292 0 235 -17 53 0 244 237 237 51 56 162 0 289 -15 244 101 0
 53 252 0 17 50 0 287 289 288 48 59 158 0 280 -17 291 0 194 286 235 48 289 292 0
 0 +16 292 72 0 ?291 154 245 293 0 0 1 17 235 0 194 291 246 51 237 245 231 0 +15
 194 66 0 246 182 294 17 246 0 194 235 286 54 288 290 0 0 +16 245 70 0 1e-6 235
 292 290 0 0 0 1 16 290 67 0 ?246 245 295 296 0 0 1 16 295 65 0 1e-6 297 290 298
 0 0 0 1 133 296 391 0 290 251 299 0 +299 -.1514725474822085 .183897822218227 -.
1432538248796296 -.1513834284486135 .1840195534955195 -.143191695019136 6.227499
9631916 6.28318530717958 31 251 390 0 1 247 296 300 +-.152910923349711 .18445235
42123295 -.1409462679179702 .642787609686541 -.5416752204197 .541675220419702 .6
44400477571771 0 -.764688187763662 .00275 31 299 392 0 1 296 293 301 +-.15327513
70032645 .184154974416122 -.1409577955269968 .551376314323825 -.662464336582177
 .507075105639599 .645547585733045 -.0462125352966449 -.762320612430029 .0029303
9366339329 133 293 393 0 292 299 302 0 +302 -.1543616529933155 .1850015614113725
 -.1386755290616396 -.154477315705928 .18488858236293 -.1386974082098046 6.22749
99200733 6.28318530717959 141 301 296 301 301 299 31 302 394 0 1 293 303 304 +-.
1531292063091535 .184106856049656 -.1411790807824402 .550857306299029 -.66229309
8391534 .507862264713495 -.460044142474564 .2667651544455165 .846874098876865 .0
02930391395753835 133 303 395 0 286 302 199 0 +199 -.154477315705928 .1848885823
6293 -.138697408209805 -.1514725474822085 .183897822218227 -.1432538248796296 0
 1 141 304 293 304 304 302 17 286 0 194 246 291 57 280 154 303 288 +137 199 396
 0 1 303 277 305 +179 306 0 ?141 305 303 305 305 199 134 306 0 0 0 0 0 0 +307 30
8 136 307 2 17 2 9 5 FFF1 309 310 311 135 308 2 0 45 34 309 2.26682118312293 -.5
2234238597071 2.26891148306584 -.522977977032376 2.270605512694265 -.52423414143
8253 2.272352431704735 -.525529524614604 2.273401366550665 -.527289181243718 2.2
74426791674765 -.52900939878085 2.274636556080565 -.530917998909255 2.2748547115
31335 -.532902947307673 2.27417008964073 -.534789448029045 2.273500518347345 -.5
36634476277932 2.272077843113235 -.538116911566604 2.270604569032015 -.539652071
127635 2.268562048970045 -.540578322004566 2.26656935604162 -.541481977056369 2.
264339298805895 -.541687858420649 2.262025436187855 -.541901476791033 2.25980910
9686435 -.541359450083483 127 9 310 3 2 2 2 2 2 2 2 3 128 9 311 0 .125 .25 .375
 .5 .625 .75 .875 1 17 280 0 274 59 59 48 286 154 277 291 -16 154 74 0 1e-6 286
 151 292 0 0 0 1 15 274 109 0 59 268 0 141 300 247 300 300 251 17 297 0 294 312
 313 69 314 295 226 315 +16 298 63 0 ?313 295 316 317 0 0 1 17 313 0 294 297 318
 60 319 298 0 0 +16 316 61 0 1e-6 318 298 320 0 0 0 1 133 317 375 0 298 321 322
 0 +322 -.201570756016999 .1542417538951955 -.1134138954188136 -.201513776363889
 .154206707795723 -.113562710457126 6.22750021360917 6.28318530717958 31 321 374
 0 1 323 317 324 +-.199926735954272 .156340276459654 -.1134123798641004 .7192195
85404506 -.562374183128302 .4079932182296 .45531835347788 .825058994971547 .3346
08505275543 .002930267299390725 31 322 376 0 1 317 226 325 +-.1997809601468445 .
1565615515548525 -.1133643595951904 .718682590401032 -.563194060255179 .40780851
4805353 -.591322745549973 -.803589361233441 -.0676871413761305 .0029304068380335
9 133 226 377 0 297 322 225 0 +225 -.201513776363889 .154206707795723 -.11356271
0457126 -.198509008140171 .1587631244655485 -.1125719503124212 0 1 141 325 317 3
25 325 322 133 323 373 0 320 326 321 0 +321 -.198509008140171 .1587631244655485
 -.1125719503124212 -.1985925314722635 .1587579198526875 -.1124318875029936 6.22
749756121364 6.28318530717959 141 324 323 324 324 321 16 320 58 0 ?312 316 327 3
23 0 0 1 31 326 372 0 1 328 323 329 +-.2000432611159025 .156487180996362 -.11298
10947020024 .642787609686539 -.541675220419702 .541675220419703 .644400477571772
 0 -.764688187763661 .00275 133 328 371 0 166 330 326 0 +326 -.201570756016999 .
1542417538951955 -.1134138954188136 -.1985925314722635 .1587579198526865 -.11243
18875029934 4.472509290531955 7.66564155285362 141 329 328 329 329 326 16 166 11
3 0 ?68 163 161 328 0 0 1 137 330 369 0 1 222 328 331 +275 332 0 ?133 222 368 0
 333 219 330 0 +330 -.201570756016999 .1542417538951955 -.1134138954188136 -.198
5925314722635 .158757919852687 -.1124318875029938 0 1 141 331 222 331 331 330 51
 275 242 0 334 270 335 336 +-.19817786981058 .15491522125219 -.1114091349578308
 -.642787609686539 .541675220419702 -.541675220419703 .00275 .644400477571772 0
 -.764688187763661 134 332 0 0 0 0 0 0 +337 338 136 337 2 17 2 9 5 FFF1 339 340
 341 135 338 2 0 45 34 339 1.810676016647645 .00290203370010849 2.06113924407724
 .002792924437440145 2.200466815547695 .00273733337672005 2.40704608837881 .0026
5490919622034 2.580380642599095 .002601949363471945 2.784450389299295 .002539598
843098985 2.97312324915355 .00250881661282162 3.166191784042435 .002477317222263
52 3.3558124570424 .002477274861214335 3.549606963529095 .002477231567735345 3.7
4971158676656 .00251070650137122 3.93190368774472 .00254118490007362 4.131107447
51666 .00260197882909069 4.307661874734885 .002655860529557805 4.52224042211163
 .00274185502355916 4.65709256766117 .00279589836649022 4.90072906150552 .002902
03370010904 127 9 340 3 2 2 2 2 2 2 2 3 128 9 341 0 .125 .25 .375 .5 .625 .75 .8
75 1 14 334 114 342 ?273 343 344 4 275 -0 0 273 343 21 52 335 243 0 343 275 345
 0 +-.19817786981058 .15491522125219 -.1114091349578308 .642787609686539 -.54167
5220419702 .541675220419703 .0052 .707106781186551 .707106781186544 .64440047757
1772 0 -.764688187763661 141 336 330 336 336 275 14 343 119 346 ?334 347 348 4 3
35 -0 0 334 347 21 51 345 244 0 347 335 349 350 +-.2000593308061445 .15650072287
68725 -.112994636582513 -.642787609686539 .541675220419702 -.541675220419703 .00
2775 .644400477571772 0 -.764688187763661 14 347 122 351 ?343 352 353 4 345 -0 0
 343 352 21 52 349 245 0 352 345 354 0 +-.2000432611159025 .1129810947020024 -.1
56487180996362 -.64278760968654 .541675220419703 -.541675220419701 .00275 .70710
6781186399 .707106781186696 -.644400477571772 -.764688187763661 0 141 350 355 35
0 350 345 137 355 380 0 1 227 356 357 +345 358 0 ?133 227 379 0 314 225 355 0 +3
55 -.198509008140171 .1587631244655485 -.1125719503124212 -.201513776363889 .154
206707795723 -.113562710457126 0 1 133 356 382 0 161 355 236 0 +236 -.2015137763
63889 .154206707795723 -.113562710457126 -.198509008140171 .1587631244655485 -.1
125719503124212 4.53017659319217 7.60797425019456 141 357 227 357 357 355 134 35
8 0 0 0 0 0 0 +359 360 136 359 2 17 2 9 5 FFF1 361 362 363 135 360 2 0 45 34 361
 4.95839636416461 79959910220806e-31 5.20531641105798 .0001085145551088852 5.346
59735919482 .000165213321793543 5.55190982852292 .000247609171689806 5.725035578
03688 .000300702738329281 6.0181505012023 .00039059414240868 6.28318530717959 .0
00415319112372157 6.38910238260202 .000425200065550297 6.49733749720739 .0004252
2674231795 6.69043828412904 .0004252743359740855 6.88963438550881 .0003918746588
929615 7.07135240702317 .000361405572418075 7.26948841688302 .000300718315885323
5 7.44591229077759 .0002466812889909465 7.65916983976165 .0001607151433518105 7.
79602880399194 .000105545993621401 8.036194021167 -780625564189563e-32 127 9 362
 3 2 2 2 2 2 2 2 3 128 9 363 0 .125 .25 .4299392700195315 .5 .625 .75 .875 1 16
 161 112 0 ?71 166 159 356 0 0 1 31 236 383 0 1 356 231 364 +-.2000593308061445
 .1565007228768725 -.112994636582513 .642787609686539 -.541675220419702 .5416752
20419703 .644400477571772 0 -.764688187763661 .002775 141 364 356 364 364 236 17
 71 0 353 314 314 69 62 161 0 297 +15 353 123 0 71 347 0 17 314 0 353 71 71 60 2
97 295 227 313 -17 62 0 365 319 315 60 71 161 0 314 -15 365 111 0 62 273 0 17 31
9 0 365 68 62 63 313 298 0 318 -17 315 0 365 62 68 69 312 320 0 0 -17 68 0 365 3
15 319 66 65 166 0 333 +17 312 0 294 318 297 66 315 320 0 0 +15 294 57 0 312 182
 366 17 318 0 294 313 312 63 333 316 221 0 +17 333 0 367 65 65 66 318 316 222 31
2 -133 221 366 0 318 368 219 0 +219 -.198592531472264 .158757919852687 -.1124318
875029938 -.201570756016999 .1542417538951955 -.1134138954188136 0 1 31 368 365
 0 1 369 221 370 +-.2000593308061445 .112994636582513 -.156500722876872 .6427876
0968654 -.541675220419703 .541675220419701 .644400477571772 .764688187763661 0 .
002775 133 369 364 0 165 371 368 0 +368 -.1985090081401715 .1125719503124212 -.1
587631244655485 -.201513776363889 .1135627104571262 -.154206707795723 4.95839636
416458 8.03619402116692 141 370 369 370 370 368 16 165 126 0 ?83 168 163 369 0 0
 1 137 371 362 0 1 216 369 372 +373 374 0 ?133 216 361 0 375 213 371 0 +371 -.20
1513776363889 .1135627104571262 -.154206707795723 -.1985090081401715 .1125719503
124212 -.1587631244655485 0 1 141 372 216 372 372 371 51 373 248 0 376 377 378 3
79 +-.2000593308061445 .112994636582513 -.156500722876872 -.64278760968654 .5416
75220419703 -.541675220419701 .002775 .644400477571772 .764688187763661 0 134 37
4 0 0 0 0 0 0 +380 381 136 380 2 17 2 9 5 FFF1 382 383 384 135 381 2 0 45 34 382
 4.53017659319225 3881443777498105e-32 4.77029676272412 .000105526196423744 4.90
715665629038 .0001606971163915295 5.12038793685451 .0002466548473825785 5.296784
42601753 .00030068807384124 5.49495004836598 .0003613895537827165 5.676648026895
06 .000391860700212633 5.8758749399493 .0004252714871107635 6.06900888902918 .00
04252274932662425 6.17722766718991 .000425202842187945 6.28318530717959 .0004153
19112369707 6.5925753313265 .000386459207530149 6.94928933654507 .00026587274600
08315 7.09509397720496 .0002165837765897285 7.273589339979 .00014337361876939 7.
39566403958429 933044859634725e-19 7.6079742501946 3339342691255355e-32 127 9 38
3 3 2 2 2 2 2 2 2 3 128 9 384 0 .125 .25 .375 .5 .570060729980469 .7850303649902
34 .892515182495117 1 14 376 136 385 ?386 387 388 4 373 -0 0 386 387 21 52 377 2
47 0 386 354 373 0 +-.19817786981058 .1114091349578308 -.15491522125219 .6427876
0968654 -.541675220419703 .541675220419701 .0052 .707106781186546 .7071067811865
49 .644400477571772 .764688187763661 -3006901507894295e-32 52 378 249 0 387 373
 389 0 +-.152910923349711 .1409462679179702 -.1844523542123295 -.642787609686541
 .541675220419701 -.5416752204197 .00275 .707106781186893 .707106781186203 -.644
40047757177 -.764688187763663 300690150789429e-31 141 379 371 379 379 373 14 387
 138 390 ?376 391 392 4 378 -0 0 376 391 21 51 389 250 0 391 378 16 393 +-.15104
55320443885 .1393743081737986 -.1828803944681575 -.642787609686541 .541675220419
701 -.5416752204197 .00275 .64440047757177 .764688187763663 -300690150789429e-31
 14 391 142 394 ?387 395 26 4 389 -0 0 387 395 21 52 16 251 0 395 389 5 0 +-.151
0455320443885 .1393743081737986 -.1828803944681575 .642787609686541 -.5416752204
19701 .5416752204197 .0052 .707106781186552 .707106781186544 .64440047757177 .76
4688187763663 300690150789429e-31 141 393 181 393 393 389 137 181 333 0 1 177 39
6 397 +389 398 0 ?133 396 335 0 23 181 399 0 +399 -.151383428448614 .14319169501
91364 -.184019553495519 -.154361652993348 .138675529061645 -.185001561411341 .18
8340081119378 3.3814723434425 141 397 177 397 397 181 134 398 0 0 0 0 0 0 +400 4
01 136 400 2 15 2 8 5 FFF1 402 403 404 135 401 2 0 45 30 402 6.0948452260602 .00
2902033700108345 6.21388780191242 .002850175198520385 6.28318530717959 .00282065
783724531 6.48857234525035 .002733172964873955 6.64337880163395 .002676440655554
795 6.83561707346742 .00260599061519206 7.00801528755123 .002561439132998255 7.3
8254288438146 .00246465298210948 7.73658164709778 .002479284271222095 8.07665618
921461 .002493338463783885 8.46358825327456 .002617083915981265 8.6245881067495
 .002668573574044035 8.81909573912459 .002746952591329475 8.94990584686716 .0027
9966398147222 9.18489827091668 .0029020337001085 127 8 403 3 2 2 2 2 2 2 3 128 8
 404 0 .0622406005859375 .1794605255126955 .296680450439453 .531120300292969 .76
5560150146484 .882780075073242 1 16 23 141 0 ?92 9 167 396 0 0 1 31 399 336 0 1
 396 405 406 +-.152910923349711 .1409462679179702 -.1844523542123295 .6427876096
86541 -.541675220419701 .5416752204197 .64440047757177 .764688187763663 0 .00275
 133 405 337 0 150 399 407 0 +407 -.1544773157059265 .1386974082098044 -.1848885
823629315 -.154361652993348 .138675529061645 -.185001561411341 6.22749983329965
 6.2831853071796 141 406 396 406 406 399 16 150 40 0 ?174 176 148 405 0 0 1 31 4
07 338 0 1 405 408 409 +-.1531292058805025 .141179074645318 -.1841068544223255 .
550856640039889 -.507863551817831 .6622926655633 -.420574888050331 -.85433962448
1859 -.3053204375433265 .00293038682970051 133 408 339 0 410 407 411 0 +411 -.15
1383428448614 .1431916950191364 -.184019553495519 -.151472547482209 .14325382487
96302 -.183897822218226 6.22750001166261 6.2831853071796 141 409 405 409 409 407
 16 410 45 0 ?173 412 176 408 0 0 1 31 411 340 0 1 408 203 413 +-.15327513998021
35 .1409577948127768 -.1841549762310105 .551375780116184 -.507075760682393 .6624
64279814122 .615136099925641 .783522056260606 .0877540080077486 .002930396213491
92 133 203 341 0 414 411 201 0 +201 -.1514725474822095 .1432538248796302 -.18389
7822218226 -.1544773157059265 .1386974082098044 -.1848885823629315 0 1 141 413 4
08 413 413 411 17 414 0 172 174 173 93 415 412 203 416 +15 172 39 0 174 182 417
 17 174 0 172 170 414 90 416 150 0 0 +17 173 0 172 414 170 84 418 410 0 0 +17 41
5 0 419 95 95 84 414 412 204 173 -16 412 47 0 1e-6 414 420 410 0 0 0 1 17 416 0
 392 86 92 93 174 150 0 0 -15 392 139 0 86 387 0 17 86 0 392 418 416 84 95 167 0
 415 -17 92 0 392 416 418 90 89 23 0 175 +17 418 0 392 92 86 87 173 410 0 170 -1
7 89 0 421 175 175 87 92 23 0 418 -17 175 0 421 89 89 90 170 176 177 174 -15 421
 143 0 89 391 0 16 176 43 0 1e-6 170 410 150 0 0 0 1 17 95 0 419 415 415 93 86 1
67 0 414 +16 167 140 0 ?95 23 32 422 0 0 1 133 422 346 0 167 423 424 0 +424 -.15
1472547482209 .14325382487963 -.1838978222182255 -.1544773157059265 .13869740820
98044 -.1848885823629315 .246007383780313 3.323805040782225 137 423 344 0 1 204
 422 425 +5 426 0 ?31 424 347 0 1 422 209 427 +-.152926993039953 .14095980979848
08 -.18446589609284 .642787609686541 -.541675220419701 .5416752204197 .644400477
57177 .764688187763663 0 .002775 133 209 348 0 428 424 207 0 +207 -.201570756016
999 .1134138954188136 -.1542417538951955 -.1985925314722655 .1124318875029908 -.
158757919852687 0 1 141 427 422 427 427 424 17 428 0 366 429 430 75 431 432 209
 0 +15 366 48 0 430 182 172 17 429 0 366 433 428 72 434 435 0 0 +17 430 0 366 42
8 433 78 436 420 0 0 +17 431 0 437 77 77 78 428 432 210 430 -16 432 52 0 1e-6 42
8 435 420 0 0 0 1 16 435 54 0 ?429 327 432 438 0 0 1 16 420 49 0 ?430 432 412 43
9 0 0 1 133 439 355 0 420 440 441 0 +441 -.201513776363889 .1135627104571262 -.1
54206707795723 -.201570756016999 .1134138954188136 -.1542417538951955 6.22750011
130088 6.28318530717959 31 440 354 0 1 442 439 443 +-.2000432611159025 .11298109
47020024 -.156487180996362 .64278760968654 -.541675220419703 .541675220419701 .6
44400477571772 .764688187763661 0 .00275 31 441 356 0 1 439 438 444 +-.199780959
6061475 .1133643576790402 -.1565615442974665 .718681511250295 -.4078084388648575
 .563195492327131 -.610768332608113 .0169047622059531 .79162887320882 .002930401
45550488 133 438 357 0 435 441 445 0 +445 -.198592531472265 .1124318875029908 -.
158757919852687 -.1985090081401715 .1125719503124212 -.1587631244655485 6.227499
7898904 6.28318530717959 141 444 439 444 444 441 31 445 358 0 1 438 215 446 +-.1
999268786692555 .113412466024389 -.1563402480577025 .719200048388345 -.407980290
869323 .562408546041385 .483851353589417 -.286827786181197 -.826811761348424 .00
293038454592711 133 215 359 0 433 445 213 0 +213 -.1985090081401715 .11257195031
24212 -.1587631244655485 -.201513776363889 .1135627104571262 -.154206707795723 0
 1 141 446 438 446 446 445 17 433 0 366 430 429 81 375 327 215 436 +17 375 0 388
 83 83 72 433 327 216 429 -16 327 56 0 1e-6 433 320 435 0 0 0 1 17 436 0 447 74
 80 81 430 420 0 0 -15 447 125 0 74 352 0 17 74 0 447 434 436 72 83 165 0 375 -1
7 80 0 447 436 434 78 77 168 0 431 +17 434 0 447 80 74 75 429 435 0 428 -17 77 0
 437 431 431 75 80 168 0 434 -16 168 127 0 ?80 32 165 442 0 0 1 133 442 353 0 16
8 448 440 0 +440 -.198592531472265 .1124318875029908 -.158757919852687 -.2015707
56016999 .1134138954188136 -.1542417538951955 4.90072906150435 8.09386132382724
 137 448 351 0 1 210 442 449 +354 450 0 ?133 210 350 0 431 207 448 0 +448 -.1985
925314722655 .1124318875029908 -.158757919852687 -.201570756016999 .113413895418
8136 -.1542417538951955 0 1 141 449 210 449 449 448 51 354 246 0 451 349 377 452
 +-.19817786981058 .1114091349578308 -.15491522125219 -.64278760968654 .54167522
0419703 -.541675220419701 .00275 .644400477571772 .764688187763661 0 134 450 0 0
 0 0 0 0 +453 454 136 453 2 17 2 9 5 FFF1 455 456 457 135 454 2 0 45 34 455 1.38
2456245675248 .0029020337001085 1.626070407722345 .0027959080948876 1.7609448850
69015 .00274185502355876 1.97549091367892 .00265587232308117 2.152077859663835 .
00260197882909048 2.351248241943885 .00254119297801488 2.533473720413765 .002510
70650137108 2.733544700120505 .002477234457279615 2.927372850137775 .00247727486
1214285 3.11695985604691 .002477314381072465 3.31006205802649 .00250881661282174
5 3.498701517519375 .002539590803426945 3.702804664580805 .00260194936347208 3.8
76106547460105 .00265489737542121 4.082718491632045 .002737333376720115 4.222023
70328831 .002792914696837235 4.47250929053193 .00290203370010848 127 9 456 3 2 2
 2 2 2 2 2 3 128 9 457 0 .125 .25 .375 .5 .625 .75 .875 1 14 451 128 458 ?352 38
6 30 4 354 -0 0 352 386 21 141 452 448 452 452 354 81 1 458 311 459 451 460 0 46
1 462 463 14 352 124 461 ?347 451 447 4 349 -0 0 347 451 21 14 386 133 462 ?451
 376 464 4 377 -0 0 451 376 21 15 30 130 0 28 451 437 13 21 2 0 0 0 0 0 0 8 14 1
4 14 150 465 ?395 0 419 4 5 -0 0 395 0 21 81 1 465 329 459 14 466 0 467 0 468 14
 395 147 467 ?391 14 469 4 16 -0 0 391 14 21 15 419 151 0 95 14 0 81 1 467 326 4
59 395 470 0 394 465 471 15 469 149 0 119 395 472 17 119 0 469 119 119 117 473 1
32 0 473 +15 472 148 0 27 395 0 17 27 0 472 27 27 10 22 9 0 0 -17 473 0 474 473
 473 117 119 132 0 0 -15 474 10 0 473 128 475 14 128 3 476 ?0 477 478 4 479 +0 0
 0 477 21 15 475 7 0 480 128 125 17 480 0 475 480 480 120 122 130 0 0 -17 122 0
 269 122 122 120 480 130 0 480 +15 269 107 0 122 263 481 15 481 106 0 482 263 0
 17 482 0 481 482 482 34 38 159 0 0 -17 38 0 264 38 38 34 482 159 0 482 +15 264
 102 0 38 252 244 81 1 476 257 459 128 483 0 0 484 485 14 477 22 484 ?128 192 48
6 4 195 -0 0 128 192 21 15 478 19 0 487 128 488 50 479 228 0 128 0 195 0 +-.2038
792610266025 .1297793543265884 -.1297793543265888 .642787609686541 -.54167522041
97 .541675220419702 -.644400477571771 0 .764688187763662 52 195 229 0 477 479 18
3 0 +-.156613647856261 .1319778585412422 -.1319778585412426 -.642787609686541 .5
416752204197 -.541675220419702 .01973087768029195 .5 .866025403784441 -.64440047
7571771 0 .764688187763662 17 487 0 478 487 487 108 110 140 0 0 -15 488 16 0 489
 128 490 17 489 0 488 489 489 111 113 138 0 0 -15 490 13 0 491 128 474 17 491 0
 490 491 491 114 116 136 0 0 -17 116 0 464 116 116 114 491 136 0 491 +15 464 135
 0 116 386 492 15 492 134 0 31 386 0 17 31 0 492 31 31 25 28 32 0 0 -17 113 0 34
8 113 113 111 489 138 0 489 +15 348 121 0 113 343 493 15 493 120 0 494 343 0 17
 494 0 493 494 494 29 33 163 0 0 -17 33 0 344 33 33 29 494 163 0 494 +15 344 116
 0 33 334 367 15 367 115 0 65 334 0 17 65 0 367 333 333 63 68 166 0 319 -17 110
 0 495 110 110 108 487 140 0 487 +15 495 82 0 110 496 497 14 496 78 498 ?193 499
 495 4 196 +0 0 193 499 21 15 497 79 0 500 496 0 17 500 0 497 500 500 45 47 151
 0 0 -17 47 0 501 47 47 45 500 151 0 500 +15 501 84 0 47 499 0 14 499 83 502 ?49
6 503 504 4 505 +0 0 496 503 21 81 1 502 275 459 499 506 0 498 507 508 14 503 88
 507 ?499 509 510 4 511 -0 0 499 509 21 15 504 85 0 512 499 501 50 505 234 0 499
 196 511 0 +-.1578177170770245 .1294173197979688 -.1294173197979692 .64278760968
6541 -.5416752204197 .541675220419702 -.644400477571771 0 .764688187763662 52 19
6 233 0 496 184 505 0 +-.1746117009274845 .147144764712994 -.1471447647129944 -.
642787609686541 .5416752204197 -.541675220419702 .03820608629435985 .5 .86602540
3784441 -.644400477571771 0 .764688187763662 51 511 235 0 503 505 265 0 +0 0 0 -
.642787609686541 .5416752204197 -.541675220419702 .003249999999999695 .644400477
571771 -300690150789429e-31 -.764688187763662 50 265 236 0 509 511 253 0 +-.1717
28377061109 .123009790323985 -.1230097903239854 -.642787609686541 .5416752204197
 -.541675220419702 .644400477571771 0 -.764688187763662 14 509 93 513 ?503 262 5
14 4 265 +0 0 503 262 21 81 1 513 281 459 509 515 0 507 516 517 14 262 96 516 ?5
09 252 287 4 253 -0 0 509 252 21 15 514 95 0 41 509 518 17 41 0 514 41 41 39 519
 156 0 519 +15 518 94 0 520 509 0 17 520 0 518 520 520 102 104 144 0 0 -17 104 0
 486 104 104 102 520 144 0 520 +15 486 26 0 104 477 521 15 521 23 0 522 477 0 17
 522 0 521 522 522 105 107 142 0 0 -17 107 0 523 107 107 105 522 142 0 522 +15 5
23 33 0 107 192 524 14 192 29 525 ?477 182 523 4 183 -0 0 477 182 21 15 524 30 0
 526 192 0 17 526 0 524 526 526 99 101 146 0 0 -17 101 0 417 101 101 99 526 146
 0 526 +15 417 38 0 101 182 527 15 527 35 0 528 182 0 17 528 0 527 528 528 96 98
 148 0 0 -17 98 0 529 98 98 96 528 148 0 528 +15 529 77 0 98 193 129 14 193 75 5
30 ?182 496 529 4 184 +0 0 182 496 21 15 129 76 0 126 193 0 81 1 530 269 459 193
 531 0 191 498 532 80 1 459 533 534 8015 0 0 0 0 3 5 0 0 0 FFFFTFFFFFFFFF2 81 2
 531 268 533 193 535 530 536 537 538 539 81 1 191 266 459 182 536 0 525 530 540
 81 1 498 272 459 496 537 0 530 502 541 83 1 532 0 81 2 537 271 533 496 542 498
 531 506 543 544 83 1 541 0 80 2 533 545 546 8014 0 0 0 0 3 5 0 0 0 FFFFTFFFFFFF
FF2 1 81 1 542 270 547 496 0 537 535 548 549 81 2 506 274 533 499 548 502 537 55
0 551 552 83 4 543 .956862745098039 0 .956862745098039 .956862745098039 82 1 544
 1 81 1 548 273 547 499 0 506 542 553 554 81 2 550 277 533 503 553 507 506 515 5
55 556 83 4 551 .956862745098039 0 .956862745098039 .956862745098039 82 1 552 1
 81 1 553 276 547 503 0 550 548 557 558 81 1 507 278 459 503 550 0 502 513 559 8
1 2 515 280 533 509 557 513 550 560 561 562 83 4 555 .956862745098039 0 .9568627
45098039 .956862745098039 82 1 556 1 81 1 557 279 547 509 0 515 553 563 564 81 2
 560 283 533 262 563 516 515 565 566 567 83 4 561 .956862745098039 0 .9568627450
98039 .956862745098039 82 1 562 1 81 1 563 282 547 262 0 560 557 568 569 81 1 51
6 284 459 262 560 0 513 261 570 81 2 565 286 533 252 568 261 560 571 572 573 83
 4 566 .956862745098039 0 .956862745098039 .956862745098039 82 1 567 1 81 1 568
 285 547 252 0 565 563 574 575 81 1 261 287 459 252 565 0 516 267 576 81 2 571 2
89 533 263 574 267 565 577 578 579 83 4 572 .956862745098039 0 .956862745098039
 .956862745098039 82 1 573 1 81 1 574 288 547 263 0 571 568 580 581 81 1 267 290
 459 263 571 0 261 272 582 81 2 577 292 533 268 580 272 571 583 584 585 83 4 578
 .956862745098039 0 .956862745098039 .956862745098039 82 1 579 1 81 1 580 291 54
7 268 0 577 574 586 587 81 1 272 293 459 268 577 0 267 588 589 81 2 583 295 533
 273 586 588 577 590 591 592 83 4 584 .956862745098039 0 .956862745098039 .95686
2745098039 82 1 585 1 14 273 110 588 ?268 334 365 4 270 -0 0 268 334 21 81 1 586
 294 547 273 0 583 580 593 594 81 1 588 296 459 273 583 0 272 342 595 81 2 590 2
98 533 334 593 342 583 596 597 598 83 4 591 .956862745098039 0 .956862745098039
 .956862745098039 82 1 592 1 81 1 593 297 547 334 0 590 586 599 600 81 1 342 299
 459 334 590 0 588 346 601 81 2 596 301 533 343 599 346 590 602 603 604 83 4 597
 .956862745098039 0 .956862745098039 .956862745098039 82 1 598 1 81 1 599 300 54
7 343 0 596 593 605 606 81 1 346 302 459 343 596 0 342 351 607 81 2 602 304 533
 347 605 351 596 608 609 610 83 4 603 .956862745098039 0 .956862745098039 .95686
2745098039 82 1 604 1 81 1 605 303 547 347 0 602 599 611 612 81 1 351 305 459 34
7 602 0 346 461 613 81 2 608 307 533 352 611 461 602 460 614 615 83 4 609 .95686
2745098039 0 .956862745098039 .956862745098039 82 1 610 1 81 1 611 306 547 352 0
 608 605 616 617 81 1 461 308 459 352 608 0 351 458 618 81 2 460 310 533 451 616
 458 608 619 620 621 83 4 614 .956862745098039 0 .956862745098039 .9568627450980
39 82 1 615 1 81 1 616 309 547 451 0 460 611 622 623 81 2 619 313 533 386 622 46
2 460 624 625 626 83 4 620 .956862745098039 0 .956862745098039 .956862745098039
 82 1 621 1 81 1 622 312 547 386 0 619 616 627 628 81 1 462 314 459 386 619 0 45
8 385 629 81 2 624 316 533 376 627 385 619 630 631 632 83 4 625 .956862745098039
 0 .956862745098039 .956862745098039 82 1 626 1 81 1 627 315 547 376 0 624 622 6
33 634 81 1 385 317 459 376 624 0 462 390 635 81 2 630 319 533 387 633 390 624 6
36 637 638 83 4 631 .956862745098039 0 .956862745098039 .956862745098039 82 1 63
2 1 81 1 633 318 547 387 0 630 627 639 640 81 1 390 320 459 387 630 0 385 394 64
1 81 2 636 322 533 391 639 394 630 470 642 643 83 4 637 .956862745098039 0 .9568
62745098039 .956862745098039 82 1 638 1 81 1 639 321 547 391 0 636 633 644 645 8
1 1 394 323 459 391 636 0 390 467 646 81 2 470 325 533 395 644 467 636 466 647 6
48 83 4 642 .956862745098039 0 .956862745098039 .956862745098039 82 1 643 1 81 1
 644 324 547 395 0 470 639 649 650 81 2 466 328 533 14 649 465 470 0 651 652 83
 4 647 .956862745098039 0 .956862745098039 .956862745098039 82 1 648 1 81 1 649
 327 547 14 0 466 644 0 653 83 4 651 .956862745098039 0 .956862745098039 .956862
745098039 82 1 652 1 80 1 547 0 654 8001 0 0 0 0 3 5 0 0 0 FFFFTFTFFFFFFF2 83 3
 653 .956862745098039 .956862745098039 .956862745098039 79 15 654 SDL/TYSA_COLOU
R83 3 650 .956862745098039 .956862745098039 .956862745098039 83 1 646 0 83 3 645
 .956862745098039 .956862745098039 .956862745098039 83 1 641 0 83 3 640 .9568627
45098039 .956862745098039 .956862745098039 83 1 635 0 83 3 634 .956862745098039
 .956862745098039 .956862745098039 83 1 629 0 83 3 628 .956862745098039 .9568627
45098039 .956862745098039 83 3 623 .956862745098039 .956862745098039 .9568627450
98039 83 1 618 0 83 3 617 .956862745098039 .956862745098039 .956862745098039 83
 1 613 0 83 3 612 .956862745098039 .956862745098039 .956862745098039 83 1 607 0
 83 3 606 .956862745098039 .956862745098039 .956862745098039 83 1 601 0 83 3 600
 .956862745098039 .956862745098039 .956862745098039 83 1 595 0 83 3 594 .9568627
45098039 .956862745098039 .956862745098039 83 1 589 0 83 3 587 .956862745098039
 .956862745098039 .956862745098039 83 1 582 0 83 3 581 .956862745098039 .9568627
45098039 .956862745098039 83 1 576 0 83 3 575 .956862745098039 .956862745098039
 .956862745098039 83 1 570 0 83 3 569 .956862745098039 .956862745098039 .9568627
45098039 83 3 564 .956862745098039 .956862745098039 .956862745098039 83 1 559 0
 83 3 558 .956862745098039 .956862745098039 .956862745098039 83 3 554 .956862745
098039 .956862745098039 .956862745098039 81 1 535 267 547 193 0 531 655 542 656
 83 3 549 .956862745098039 .956862745098039 .956862745098039 81 1 655 264 547 18
2 0 536 657 535 658 83 3 656 .956862745098039 .956862745098039 .956862745098039
 81 2 536 265 533 182 655 191 659 531 660 661 81 1 657 261 547 192 0 659 662 655
 663 83 3 658 .956862745098039 .956862745098039 .956862745098039 81 2 659 262 53
3 192 657 525 664 536 665 666 81 1 662 258 547 477 0 664 667 657 668 83 3 663 .9
56862745098039 .956862745098039 .956862745098039 81 2 664 259 533 477 662 484 48
3 659 669 670 81 1 667 255 547 128 0 483 0 662 671 83 3 668 .956862745098039 .95
6862745098039 .956862745098039 81 2 483 256 533 128 667 476 0 664 672 673 83 3 6
71 .956862745098039 .956862745098039 .956862745098039 83 4 672 .956862745098039
 0 .956862745098039 .956862745098039 82 1 673 1 81 1 484 260 459 477 664 0 476 5
25 674 83 4 669 .956862745098039 0 .956862745098039 .956862745098039 82 1 670 1
 81 1 525 263 459 192 659 0 484 191 675 83 1 674 0 83 1 675 0 83 4 665 .95686274
5098039 0 .956862745098039 .956862745098039 82 1 666 1 83 4 660 .956862745098039
 0 .956862745098039 .956862745098039 82 1 661 1 79 21 546 SDL/TYSA_REFLECTIVITY8
3 1 540 0 83 4 538 .956862745098039 0 .956862745098039 .956862745098039 82 1 539
 1 79 21 534 SDL/TYSA_TRANSLUCENCY17 519 0 676 519 519 39 41 156 0 0 -15 676 89
 0 519 503 0 83 1 517 0 17 512 0 504 512 512 42 44 153 0 0 -17 44 0 510 44 44 42
 512 153 0 512 +15 510 92 0 44 503 676 83 1 508 0 83 1 485 0 83 1 471 0 83 1 468
 0 15 437 129 0 77 451 0 83 1 463 0 17 83 0 388 375 375 81 74 165 0 433 +15 388
 137 0 83 376 0 141 443 442 443 443 440 133 204 343 0 415 201 423 0 +423 -.15447
73157059265 .1386974082098044 -.1848885823629315 -.1514725474822095 .14325382487
96302 -.183897822218226 0 1 141 425 204 425 425 423 134 426 0 0 0 0 0 0 +677 678
 136 677 2 17 2 9 5 FFF1 679 680 681 135 678 2 0 45 34 679 2.959380266397345 287
3135757086585e-33 3.199511089345055 .0001055308783064266 3.33637693111368 .00016
07038087586975 3.549602602311605 .0002466586750395735 3.72599661480222 .00030069
06822508705 3.92415763459913 .0003613902349141685 4.10585205081931 .000391860759
0264955 4.30507490737913 .0004252708383278675 4.49820468887902 .0004252274951050
48 4.68709032093649 .000425185104377041 4.87934877365114 .0003937438965188385 5.
06745379500219 .0003629819248501695 5.27053896505655 .000300702659965869 5.44363
222535345 .000247620886418188 5.64897705419636 .000165213271297218 5.79023585668
27 .0001085242322143348 6.03717792339929 176724954115137e-30 127 9 680 3 2 2 2 2
 2 2 2 3 128 9 681 0 .125 .25 .375 .5 .625 .75 .875 1 15 26 144 0 22 391 421 141
 228 226 228 228 225 134 229 0 0 0 0 0 0 +682 683 136 682 2 17 2 9 5 FFF1 684 68
5 686 135 683 2 0 45 34 684 2.488408122427145 -.42080894520227 2.487940706579115
 -.4226823686349575 2.48674922786065 -.42427852828791 2.485520428053175 -.425924
684987015 2.48370480401376 -.4270166761391455 2.481933087663525 -.42808225939676
65 2.4798647953128 -.428464626704263 2.477719453436165 -.428861238235869 2.47558
6388208645 -.4284716868055865 2.4735047152875 -.428091520904727 2.47174398778518
5 -.427029489898685 2.469923410198735 -.4259313586755555 2.46871136016744 -.4242
853903845755 2.467530575469445 -.422681880528386 2.46708443570772 -.420802671646
326 2.46662225453098 -.4188558938718175 2.466987131964005 -.416907820308086 127
 9 685 3 2 2 2 2 2 2 2 3 128 9 686 0 .125 .25 .375 .5 .625 .75 .875 1 141 223 22
1 223 223 219 134 224 0 0 0 0 0 0 +687 688 136 687 2 17 2 9 5 FFF1 689 690 691 1
35 688 2 0 45 34 689 2.46720830142795 -.416356867025955 2.467677221914975 -.4144
957459315275 2.46886265529949 -.4129091305715805 2.4700839448496 -.4112745243723
11 2.471878259276165 -.410191255628865 2.473630780175155 -.409133218595885 2.475
66939404762 -.4087531926528345 2.47778562545904 -.4083586977223815 2.47988919330
31 -.40874263499832 2.481942955174825 -.4091174818285205 2.483685555495575 -.410
1688142212535 2.48548783139384 -.4112561496302535 2.48669501285229 -.41288863623
91605 2.48787232248259 -.414480726800646 2.488323651080805 -.4163473429719035 2.
488792362581485 -.418285851788476 2.48843489657514 -.4202225518422635 127 9 690
 3 2 2 2 2 2 2 2 3 128 9 691 0 .125 .25 .375 .5 .625 .75 .875 1 141 217 215 217
 217 213 134 218 0 0 0 0 0 0 +692 693 136 692 2 17 2 9 5 FFF1 694 695 696 135 69
3 2 0 45 34 694 2.62572526094762 -.607833531863357 2.62334442964116 -.6075509641
00698 2.62124818525308 -.606544095101711 2.619231211083565 -.605575301207928 2.6
1778461728522 -.604050066398158 2.616305812374085 -.602490869386596 2.6156657362
2491 -.600570773719963 2.61504901131262 -.598720726919869 2.615322833464435 -.59
6799231107579 2.615602387065735 -.594837515918914 2.616783996953625 -.5930998244
75717 2.617919369827595 -.591430129809008 2.619734619049265 -.590217507698328 2.
62159095784108 -.588977436948268 2.62388394922815 -.588405604883295 2.6261070786
78015 -.587851195167153 2.6284073495069 -.588002833737 127 9 695 3 2 2 2 2 2 2 2
 3 128 9 696 0 .125 .25 .375 .5 .625 .75 .875 1 141 211 209 211 211 207 134 212
 0 0 0 0 0 0 +697 698 136 697 2 17 2 9 5 FFF1 699 700 701 135 698 2 0 45 34 699
 2.629088841211105 -.588154352814773 2.631428746349885 -.58842003630638 2.633502
35357909 -.589401754544207 2.63550139613397 -.590348171255471 2.636951472230235
 -.591846650865328 2.638440199385745 -.593385071706082 2.639107165023855 -.59528
3487520121 2.639753051345475 -.597121904279497 2.63951224790944 -.59903180685332
6 2.639265232033165 -.600990982626029 2.63810628805985 -.602726251465919 2.63698
9002778735 -.604399145391958 2.63517316199699 -.605613422963742 2.63331493570796
 -.606856044304089 2.63100200589425 -.607424481323453 2.628760376324945 -.607975
395243686 2.62643967650719 -.607810725464803 127 9 700 3 2 2 2 2 2 2 2 3 128 9 7
01 0 .125 .25 .375 .5 .625 .75 .875 1 141 205 203 205 205 201 134 206 0 0 0 0 0
 0 +702 703 136 702 2 17 2 9 5 FFF1 704 705 706 135 703 2 0 45 34 704 2.38407320
754853 -.722821090943607 2.38480245102334 -.720926791635123 2.38643475658637 -.7
19352425178146 2.38800386542394 -.717839012262591 2.390212353663735 -.7168547131
6732 2.392472954569235 -.715847188025932 2.395081191165325 -.715562009027292 2.3
97599747275735 -.715286635500725 2.40008735912732 -.71574276479892 2.40263345365
539 -.716209617499227 2.404766016273495 -.717386671748362 2.40682052685179 -.718
520645675102 2.408184227664435 -.720159184297227 2.409582866259395 -.72183970199
949 2.41003717351626 -.723798841119273 2.4104791015605 -.725704596544728 2.40996
6845904795 -.727583322306767 127 9 705 3 2 2 2 2 2 2 2 3 128 9 706 0 .125 .25 .3
75 .5 .625 .75 .875 1 19 15 152 0 1 0 8 4 S0 141 19 18 19 19 6 141 17 423 17 17
 5 74 20 13 6 0 0 707 12 649 466 465 2 0 0 0 0 0 0 0 0 0 0 0 0 0 0 81 1 707 253
 708 1 0 12 0 0 709 81 1 12 254 710 1 707 2 0 0 711 80 1 710 459 712 8041 0 0 0
 0 3 5 0 0 0 TTTFFFFFFFFFFF2 83 1 711 0 79 23 712 SDL/TYSA_TRANSLUCENCY_280 1 70
8 547 713 8040 0 0 0 0 3 5 0 0 0 TTTFFFFFFFFFFF2 83 3 709 .956862745098039 .9568
62745098039 .956862745098039 79 17 713 SDL/TYSA_COLOUR_280 1 11 714 715 8017 0 0
 0 0 0 0 0 0 0 TTTTTTTTTTTTTF3 79 13 715 SDL/TYSA_NAME1 0 
