**ABCDEFGHIJKLMNOPQRSTUVWXYZabcdefghijklmnopqrstuvwxyz**************************
**PARASOLID !"#$%&'()*+,-./:;<=>?@[\]^_`{|}~0123456789**************************
**PART1;
MC=;
MC_MODEL=;
MC_ID=unknown;
OS=Windows;
OS_RELEASE=;
FRU=;
APPL=Autodesk Inventor 2023;
SITE=unknown;
USER=unknown;
FORMAT=text;
GUISE=transmit;
KEY=INT-207-01-006;
FILE=D:\мои документы\Ирина\_WorldSkills\2022_08 Роскосмос\Задание\the-first-satellite-sputnik-1.snapshot.4\Inventor\GIVEN\PARASOLID\INT-207-01-006.x_t;
DATE=2022-Aug-07 12:42:06;
**PART2;
SCH=SCH_3301154_33103;
USFLD_SIZE=0;
**PART3;
**END_OF_HEADER*****************************************************************
T51 : TRANSMIT FILE created by modeller version 330115417 SCH_3300000_320010 12
 1 154 2 3 0 0 0 0 0 0 1e3 1e-8 0 0 0 1 0 1 1 4 5 6 7 0 0 8 9 10 0 0 0 0 0 0 0 8
1 1 2 154 11 1 12 0 0 0 0 70 3 0 4 T1 0 0 6 20 1 13 13 13 4 69 0 1 0 14 0 0 15 0
 52 5 118 0 14 16 0 0 +0 0 .273 0 0 -1 .005025 .707106781186551 .707106781186545
 -1 0 0 31 6 107 0 9 17 0 0 +0 0 .273525 0 0 -1 -1 0 0 .0045 29 7 85 0 10 18 0 -
.0045 0 .273525 19 8 1 0 1 15 0 19 V0 16 9 63 0 ?20 0 21 6 0 0 1 18 10 64 0 20 0
 22 7 ?1 17 20 0 23 20 20 10 24 9 0 24 +18 22 58 0 25 10 26 18 ?1 17 25 0 27 25
 25 22 28 21 0 28 +18 26 53 0 29 22 30 31 ?1 29 18 84 0 22 31 7 -.0045 0 .277475
 29 31 83 0 26 32 18 -.00498038449591652 0 .2779553844959165 29 32 82 0 30 33 31
 -.00808290376865477 1301042606982604e-33 .277882469160375 18 30 45 0 34 26 35 3
2 ?1 29 33 81 0 35 36 32 -.00404145188432738 -.007 .277882469160375 18 35 40 0 3
7 30 38 33 ?1 29 36 80 0 38 39 33 .004041451884327385 -.007 .277882469160375 18
 38 35 0 40 35 41 36 ?1 29 39 79 0 41 42 36 .00808290376865477 -303576608295941e
-32 .277882469160375 18 41 30 0 43 38 44 39 ?1 29 42 78 0 44 45 39 .004041451884
327385 .007 .277882469160375 18 44 25 0 46 41 47 42 ?1 29 45 77 0 47 48 42 -.004
04145188432738 .007 .277882469160375 18 47 23 0 49 44 50 45 ?1 29 48 76 0 50 51
 45 -.005025 0 .273 18 50 19 0 52 47 53 48 ?1 29 51 75 0 53 54 48 -.008082903768
65477 1734723475976805e-33 .273 18 53 15 0 55 50 56 51 ?1 29 54 74 0 56 57 51 -.
00404145188432738 -.007 .273 18 56 13 0 58 53 59 54 ?1 29 57 73 0 59 60 54 .0040
41451884327385 -.007 .273 18 59 11 0 61 56 62 57 ?1 29 60 72 0 62 63 57 .0080829
0376865477 -3469446951953615e-33 .273 18 62 9 0 64 59 65 60 ?1 29 63 71 0 65 66
 60 -.00404145188432738 .007 .273 18 65 7 0 67 62 68 63 ?1 29 66 70 0 68 0 63 .0
04041451884327385 .007 .273 18 68 6 0 69 65 0 66 ?1 17 69 0 70 71 72 68 73 74 0
 75 -15 70 21 0 76 77 0 17 71 0 70 76 69 65 78 79 0 0 +17 72 0 70 69 76 44 80 81
 0 0 +17 73 0 82 83 75 44 69 74 0 72 +16 74 26 0 ?73 84 81 85 0 0 1 17 75 0 82 7
3 64 68 86 87 0 78 +15 82 28 0 73 88 0 17 64 0 82 75 83 62 89 90 0 91 -17 86 0 9
2 93 78 62 75 87 0 0 -16 87 8 0 ?75 94 79 95 0 0 1 17 78 0 92 86 96 68 71 79 0 0
 -15 92 4 0 78 97 0 17 96 0 92 78 98 65 99 100 0 71 -16 79 5 0 ?71 87 0 101 0 0
 1 30 101 86 0 79 0 95 0 +.004041451884327385 .007 .273 -1 2197671641581215e-31
 0 30 95 87 0 87 101 102 0 +.00808290376865477 -3469446951953615e-33 .273 -.5 .8
66025403784439 0 30 102 88 0 94 95 103 0 +.004041451884327385 -.007 .273 .5 .866
025403784439 0 16 94 10 0 ?91 104 87 102 0 0 1 30 103 89 0 104 102 105 0 +-.0040
4145188432738 -.007 .273 1 -1098835820790606e-31 0 16 104 12 0 ?106 107 94 103 0
 0 1 30 105 90 0 107 103 108 0 +-.00808290376865477 1734723475976805e-33 .273 .5
 -.866025403784439 0 16 107 14 0 ?109 100 104 105 0 0 1 30 108 91 0 100 105 110
 0 +-.00404145188432738 .007 .273 -.5 -.866025403784439 0 16 100 16 0 ?99 111 10
7 108 0 0 1 31 110 92 0 111 108 112 0 +0 0 .273 0 0 -1 -1 0 0 .005025 16 111 18
 0 ?52 113 100 110 0 0 1 30 112 93 0 113 110 114 0 +-.00404145188432738 .007 .27
3 0 181911731651762e-30 1 16 113 22 0 ?76 81 111 112 0 0 1 31 114 94 0 81 112 85
 0 +150231459873716e-32 .007 0 2146163712481655e-31 1 0 -1 2146163712481655e-31
 0 .2779118565300875 16 81 24 0 ?72 74 113 114 0 0 1 30 85 95 0 74 114 115 0 +.0
04041451884327385 .007 .273 3638234633035245e-31 0 1 31 115 96 0 84 85 116 0 +.0
0606217782649108 .0035 0 .866025403784439 .5 0 -.5 .866025403784439 0 .277911856
5300875 16 84 29 0 ?83 90 74 115 0 0 1 30 116 97 0 90 115 117 0 +.00808290376865
477 -3469446951953615e-33 .273 0 88824087720587e-30 1 16 90 31 0 ?89 118 84 116
 0 0 1 31 117 98 0 118 116 119 0 +.00606217782649108 -.0035 0 .866025403784439 -
.5 0 .5 .866025403784439 0 .2779118565300875 16 118 34 0 ?120 121 90 117 0 0 1 3
0 119 99 0 121 117 122 0 +.004041451884327385 -.007 .273 0 0 1 16 121 36 0 ?123
 124 118 119 0 0 1 31 122 100 0 124 119 125 0 +-751157299368579e-33 -.007 0 -107
3081856240826e-31 -1 0 1 -1073081856240826e-31 0 .2779118565300875 16 124 39 0 ?
126 127 121 122 0 0 1 30 125 101 0 127 122 128 0 +-.00404145188432738 -.007 .273
 3638234633035245e-31 181911731651762e-30 1 16 127 41 0 ?129 130 124 125 0 0 1 3
1 128 102 0 130 125 131 0 +-.00606217782649107 -.0035 0 -.866025403784439 -.5 0
 .5 -.866025403784439 0 .2779118565300875 16 130 44 0 ?132 133 127 128 0 0 1 30
 131 103 0 133 128 134 0 +-.00808290376865477 1734723475976805e-33 .273 -3638234
633035245e-31 -88824087720587e-30 1 16 133 46 0 ?135 136 130 131 0 0 1 31 134 10
4 0 136 131 137 0 +-.00606217782649107 .0035 0 -.866025403784439 .5 0 -.5 -.8660
25403784439 0 .2779118565300875 16 136 49 0 ?49 138 133 134 0 0 1 31 137 105 0 1
38 134 17 0 +0 0 .2779553844959165 0 0 1 -1 0 0 .00498038449591652 16 138 52 0 ?
29 21 136 137 0 0 1 31 17 106 0 21 137 6 0 +0 0 .277475 0 0 -1 -1 0 0 .0045 16 2
1 57 0 ?25 9 138 17 0 0 1 17 29 0 139 29 29 26 140 138 0 140 +15 139 59 0 29 141
 27 17 140 0 142 140 140 26 29 138 0 0 -15 142 51 0 140 143 0 14 143 50 144 ?145
 141 146 4 147 +0 0 145 141 19 81 1 144 144 148 143 149 0 150 151 152 14 145 47
 150 ?153 143 154 4 155 +0 0 153 143 19 14 141 55 151 ?143 156 139 4 157 -0 0 14
3 156 19 15 146 54 0 34 143 142 53 147 115 0 143 155 157 0 +0 0 0 .278 612323399
573677e-31 0 1 1 0 -612323399573677e-31 13 19 2 0 0 0 0 0 0 8 14 14 14 65 158 ?1
56 0 159 4 5 -0 0 156 0 19 81 1 158 153 148 14 160 0 161 0 162 14 156 60 161 ?14
1 14 23 4 16 -0 0 141 14 19 15 159 67 0 52 14 163 17 52 0 159 52 52 50 164 111 0
 164 +15 163 66 0 24 14 0 17 24 0 163 24 24 10 20 9 0 0 -17 164 0 165 164 164 50
 52 111 0 0 -15 165 17 0 164 97 92 14 97 3 166 ?0 77 165 4 167 +0 0 0 77 19 81 1
 166 123 148 97 168 0 0 169 170 14 77 20 169 ?97 88 70 4 171 +0 0 97 88 19 50 16
7 108 0 97 0 171 0 +0 0 .273 0 0 -1 1 0 0 50 171 109 0 77 167 172 0 +.0040414518
84327385 .007 .273 2146163712481655e-31 1 0 0 0 1 50 172 110 0 88 171 173 0 +.00
808290376865477 -3469446951953615e-33 .273 .866025403784439 .5 0 0 0 -1 14 88 27
 174 ?77 175 82 4 172 +0 0 77 175 19 50 173 111 0 175 172 176 0 +.00404145188432
7385 -.007 .273 .866025403784439 -.5 0 0 0 -1 14 175 32 177 ?88 178 179 4 173 +0
 0 88 178 19 50 176 112 0 178 173 180 0 +-.00404145188432738 -.007 .273 -1073081
856240826e-31 -1 0 0 0 -1 14 178 37 181 ?175 153 182 4 176 +0 0 175 153 19 50 18
0 113 0 153 176 155 0 +-.00808290376865477 1734723475976805e-33 .273 -.866025403
784439 -.5 0 0 0 1 14 153 42 183 ?178 145 184 4 180 +0 0 178 145 19 50 155 114 0
 145 180 147 0 +-.00404145188432738 .007 .273 -.866025403784439 .5 0 0 0 1 81 1
 183 138 148 153 185 0 181 150 186 15 184 43 0 129 153 0 17 129 0 184 132 109 35
 58 127 0 126 +17 132 0 184 55 129 30 37 130 0 0 +17 109 0 184 129 55 56 98 107
 0 187 +17 58 0 182 106 126 56 129 127 0 109 -17 126 0 182 58 123 35 40 124 0 0
 +15 182 38 0 123 178 0 17 123 0 182 126 106 38 61 121 0 120 +17 40 0 146 43 37
 38 126 124 0 123 -17 43 0 146 46 40 41 120 118 0 89 -17 37 0 146 40 34 35 132 1
30 0 129 -17 34 0 146 37 80 30 49 136 0 135 -17 80 0 146 34 46 47 72 81 0 76 -17
 49 0 154 67 135 47 34 136 0 80 +17 135 0 154 49 99 30 55 133 0 132 +15 154 48 0
 135 145 0 17 99 0 154 135 67 53 96 100 0 98 +17 55 0 184 109 132 53 135 133 0 9
9 -17 67 0 154 99 49 65 76 113 0 96 -17 98 0 92 96 187 53 109 107 0 0 -17 187 0
 92 98 93 56 106 104 0 0 -17 93 0 92 187 86 59 91 94 0 0 -17 106 0 182 123 58 59
 187 104 0 93 +17 91 0 179 89 61 62 93 94 0 86 +15 179 33 0 89 175 0 17 89 0 179
 120 91 41 64 90 0 83 +17 61 0 179 91 120 59 123 121 0 106 -17 120 0 179 61 89 3
8 43 118 0 0 +17 83 0 82 64 73 41 46 84 0 0 +17 46 0 146 80 43 44 83 84 0 73 -17
 76 0 70 72 71 47 67 113 0 0 +80 1 148 188 189 8015 0 0 0 0 3 5 0 0 0 FFFFTFFFFF
FFFF2 81 2 185 137 188 153 190 183 191 192 193 194 81 1 181 135 148 178 191 0 17
7 183 195 81 1 150 141 148 145 192 0 183 144 196 83 1 186 0 81 2 192 140 188 145
 197 150 185 149 198 199 83 1 196 0 80 2 188 200 201 8014 0 0 0 0 3 5 0 0 0 FFFF
TFFFFFFFFF2 1 81 1 197 139 202 145 0 192 190 203 204 81 2 149 143 188 143 203 14
4 192 205 206 207 83 4 198 .72944252070442 0 .72944252070442 .72944252070442 82
 1 199 1 81 1 203 142 202 143 0 149 197 208 209 81 2 205 146 188 141 208 151 149
 210 211 212 83 4 206 .72944252070442 0 .72944252070442 .72944252070442 82 1 207
 1 81 1 208 145 202 141 0 205 203 213 214 81 1 151 147 148 141 205 0 144 161 215
 81 2 210 149 188 156 213 161 205 160 216 217 83 4 211 .72944252070442 0 .729442
52070442 .72944252070442 82 1 212 1 81 1 213 148 202 156 0 210 208 218 219 81 1
 161 150 148 156 210 0 151 158 220 81 2 160 152 188 14 218 158 210 0 221 222 83
 4 216 .72944252070442 0 .72944252070442 .72944252070442 82 1 217 1 81 1 218 151
 202 14 0 160 213 0 223 83 4 221 .72944252070442 0 .72944252070442 .729442520704
42 82 1 222 1 80 1 202 0 224 8001 0 0 0 0 3 5 0 0 0 FFFFTFTFFFFFFF2 83 3 223 .74
5098039215686 .737254901960784 .729411764705882 79 15 224 SDL/TYSA_COLOUR83 1 22
0 0 83 3 219 .745098039215686 .737254901960784 .729411764705882 83 1 215 0 83 3
 214 .745098039215686 .737254901960784 .729411764705882 83 3 209 .74509803921568
6 .737254901960784 .729411764705882 81 1 190 136 202 153 0 185 225 197 226 83 3
 204 .745098039215686 .737254901960784 .729411764705882 81 1 225 133 202 178 0 1
91 227 190 228 83 3 226 .745098039215686 .737254901960784 .729411764705882 81 2
 191 134 188 178 225 181 229 185 230 231 81 1 227 130 202 175 0 229 232 225 233
 83 3 228 .745098039215686 .737254901960784 .729411764705882 81 2 229 131 188 17
5 227 177 234 191 235 236 81 1 232 127 202 88 0 234 237 227 238 83 3 233 .745098
039215686 .737254901960784 .729411764705882 81 2 234 128 188 88 232 174 239 229
 240 241 81 1 237 124 202 77 0 239 242 232 243 83 3 238 .745098039215686 .737254
901960784 .729411764705882 81 2 239 125 188 77 237 169 168 234 244 245 81 1 242
 121 202 97 0 168 0 237 246 83 3 243 .745098039215686 .737254901960784 .72941176
4705882 81 2 168 122 188 97 242 166 0 239 247 248 83 3 246 .745098039215686 .737
254901960784 .729411764705882 83 4 247 .72944252070442 0 .72944252070442 .729442
52070442 82 1 248 1 81 1 169 126 148 77 239 0 166 174 249 83 4 244 .729442520704
42 0 .72944252070442 .72944252070442 82 1 245 1 81 1 174 129 148 88 234 0 169 17
7 250 83 1 249 0 81 1 177 132 148 175 229 0 174 181 251 83 1 250 0 83 1 251 0 83
 4 240 .72944252070442 0 .72944252070442 .72944252070442 82 1 241 1 83 4 235 .72
944252070442 0 .72944252070442 .72944252070442 82 1 236 1 83 4 230 .729442520704
42 0 .72944252070442 .72944252070442 82 1 231 1 79 21 201 SDL/TYSA_REFLECTIVITY8
3 1 195 0 83 4 193 .72944252070442 0 .72944252070442 .72944252070442 82 1 194 1
 79 21 189 SDL/TYSA_TRANSLUCENCY83 1 170 0 15 23 62 0 20 156 252 51 16 117 0 156
 157 5 0 +0 0 .273 0 0 1 .0045 -1 0 0 52 157 116 0 141 147 16 0 +0 0 .277475 0 0
 1 .0045 .70710678118655 .707106781186545 1 0 0 15 252 61 0 28 156 0 17 28 0 252
 28 28 22 25 21 0 0 -83 1 162 0 83 1 152 0 15 27 56 0 25 141 0 19 15 68 0 1 0 8
 4 S0 74 20 13 6 0 0 253 12 218 160 158 2 0 0 0 0 0 0 0 0 0 0 0 0 0 0 81 1 253 1
19 254 1 0 12 0 0 255 81 1 12 120 256 1 253 2 0 0 257 80 1 256 148 258 8041 0 0
 0 0 3 5 0 0 0 TTTFFFFFFFFFFF2 83 1 257 0 79 23 258 SDL/TYSA_TRANSLUCENCY_280 1
 254 202 259 8040 0 0 0 0 3 5 0 0 0 TTTFFFFFFFFFFF2 83 3 255 .745098039215686 .7
37254901960784 .729411764705882 79 17 259 SDL/TYSA_COLOUR_280 1 11 260 261 8017
 0 0 0 0 0 0 0 0 0 TTTTTTTTTTTTTF3 79 13 261 SDL/TYSA_NAME1 0 
