                                                                        S      1
,,,14HINT-207-02-005,22HAutodesk Inventor 2023,7Hunknown,32,38,7,99,15,,G      1
1.,2,2HMM,1,0.08,15H20220807.124448,0.01,10000.,,,11,0,15H16010101.00000G      2
0;                                                                      G      3
     186       1                                                00000000D      1
     186            -123       1       0                               0D      2
     514       2                                                00010000D      3
     514                       1       1                               0D      4
     510       3                                                00010000D      5
     510            -123       1       1                               0D      6
     510       4                                                00010000D      7
     510            -123       1       1                               0D      8
     510       5                                                00010000D      9
     510            -123       1       1                               0D     10
     510       6                                                00010000D     11
     510            -123       1       1                               0D     12
     510       7                                                00010000D     13
     510            -123       1       1                               0D     14
     510       8                                                00010000D     15
     510            -123       1       1                               0D     16
     510       9                                                00010000D     17
     510            -123       1       1                               0D     18
     510      10                                                00010000D     19
     510            -123       1       1                               0D     20
     510      11                                                00010000D     21
     510            -123       1       1                               0D     22
     510      12                                                00010000D     23
     510            -123       1       1                               0D     24
     508      13                                                00010000D     25
     508                       1       1                               0D     26
     508      14                                                00010000D     27
     508                       1       1                               0D     28
     508      15                                                00010000D     29
     508                       2       1                               0D     30
     508      17                                                00010000D     31
     508                       1       1                               0D     32
     508      18                                                00010000D     33
     508                       1       1                               0D     34
     508      19                                                00010000D     35
     508                       1       1                               0D     36
     508      20                                                00010000D     37
     508                       1       1                               0D     38
     508      21                                                00010000D     39
     508                       1       1                               0D     40
     508      22                                                00010000D     41
     508                       1       1                               0D     42
     508      23                                                00010000D     43
     508                       1       1                               0D     44
     508      24                                                00010000D     45
     508                       1       1                               0D     46
     508      25                                                00010000D     47
     508                       1       1                               0D     48
     508      26                                                00010000D     49
     508                       1       1                               0D     50
     508      27                                                00010000D     51
     508                       2       1                               0D     52
     508      29                                                00010000D     53
     508                       2       1                               0D     54
     508      31                                                00010000D     55
     508                       2       1                               0D     56
     126      33                                                00010000D     57
     126       0               4       0                               0D     58
     126      37                                                00010000D     59
     126       0              11       0                               0D     60
     126      48                                                00010000D     61
     126       0               5       0                               0D     62
     126      53                                                00010000D     63
     126       0               7       0                               0D     64
     126      60                                                00010000D     65
     126       0               4       0                               0D     66
     126      64                                                00010000D     67
     126       0               6       0                               0D     68
     126      70                                                00010000D     69
     126       0              10       0                               0D     70
     126      80                                                00010000D     71
     126       0              14       0                               0D     72
     126      94                                                00010000D     73
     126       0              12       0                               0D     74
     126     106                                                00010000D     75
     126       0              14       0                               0D     76
     126     120                                                00010000D     77
     126       0              12       0                               0D     78
     126     132                                                00010000D     79
     126       0               5       0                               0D     80
     126     137                                                00010000D     81
     126       0               7       0                               0D     82
     126     144                                                00010000D     83
     126       0               3       0                               0D     84
     126     147                                                00010000D     85
     126       0               8       0                               0D     86
     126     155                                                00010000D     87
     126       0               5       0                               0D     88
     126     160                                                00010000D     89
     126       0               7       0                               0D     90
     126     167                                                00010000D     91
     126       0               8       0                               0D     92
     126     175                                                00010000D     93
     126       0               4       0                               0D     94
     126     179                                                00010000D     95
     126       0               3       0                               0D     96
     128     182                                                00010000D     97
     128       0    -123       6       0                               0D     98
     128     188                                                00010000D     99
     128       0    -123      30       0                               0D    100
     128     218                                                00010000D    101
     128       0    -123       9       0                               0D    102
     128     227                                                00010000D    103
     128       0    -123      38       0                               0D    104
     128     265                                                00010000D    105
     128       0    -123       9       0                               0D    106
     128     274                                                00010000D    107
     128       0    -123      38       0                               0D    108
     128     312                                                00010000D    109
     128       0    -123       7       0                               0D    110
     128     319                                                00010000D    111
     128       0    -123      14       0                               0D    112
     128     333                                                00010000D    113
     128       0    -123      16       0                               0D    114
     128     349                                                00010000D    115
     128       0    -123      14       0                               0D    116
     502     363                                                00010000D    117
     502                       7       1                               0D    118
     504     370                                                00010001D    119
     504                       6       1                               0D    120
     406     376                                                00000000D    121
     406                       1      15                               0D    122
     314     377                                                00000200D    123
     314                       1       0                               0D    124
186,3,1,0,0,1,121;                                                     1P      1
514,10,5,1,7,1,9,1,11,1,13,1,15,1,17,1,19,1,21,1,23,1;                 3P      2
510,97,2,1,25,27;                                                      5P      3
510,99,1,1,29;                                                         7P      4
510,101,2,1,31,33;                                                     9P      5
510,103,2,1,35,37;                                                    11P      6
510,105,2,1,39,41;                                                    13P      7
510,107,2,1,43,45;                                                    15P      8
510,109,2,1,47,49;                                                    17P      9
510,111,1,1,51;                                                       19P     10
510,113,1,1,53;                                                       21P     11
510,115,1,1,55;                                                       23P     12
508,2,0,119,1,1,0,0,119,2,1,0;                                        25P     13
508,2,0,119,3,0,0,0,119,4,0,0;                                        27P     14
508,6,0,119,5,1,0,0,119,6,1,0,0,119,1,0,0,0,119,2,0,0,0,119,6,0,      29P     15
0,0,119,7,1,0;                                                        29P     16
508,1,0,119,8,1,0;                                                    31P     17
508,2,0,119,5,0,0,0,119,7,0,0;                                        33P     18
508,1,0,119,8,0,0;                                                    35P     19
508,1,0,119,9,1,0;                                                    37P     20
508,1,0,119,9,0,0;                                                    39P     21
508,1,0,119,10,1,0;                                                   41P     22
508,1,0,119,10,0,0;                                                   43P     23
508,1,0,119,11,1,0;                                                   45P     24
508,1,0,119,11,0,0;                                                   47P     25
508,2,0,119,12,1,0,0,119,13,1,0;                                      49P     26
508,6,0,119,12,0,0,0,119,13,0,0,0,119,14,1,0,0,119,15,1,0,0,119,      51P     27
16,1,0,0,119,14,0,0;                                                  51P     28
508,6,0,119,17,1,0,0,119,18,1,0,0,119,19,1,0,0,119,15,0,0,0,119,      53P     29
16,0,0,0,119,19,0,0;                                                  53P     30
508,6,0,119,17,0,0,0,119,18,0,0,0,119,20,1,0,0,119,4,1,0,0,119,       55P     31
3,1,0,0,119,20,0,0;                                                   55P     32
126,2,2,0,0,0,0,0.,0.,0.,1.5707963267949,1.5707963267949,             57P     33
1.5707963267949,1.,0.707106781186547,1.,-5.29047417231656D-14,        57P     34
0.,288.,-5.29047417231656D-14,288.,288.,-5.29047417231656D-14,        57P     35
288.,1.76349139077219D-14,0.,1.5707963267949,0.,0.,0.;                57P     36
126,6,2,0,0,0,0,1.5707963267949,1.5707963267949,1.5707963267949,      59P     37
3.14159265358979,3.14159265358979,4.71238898038469,                   59P     38
4.71238898038469,6.28318530717959,6.28318530717959,                   59P     39
6.28318530717959,1.,0.707106781186548,1.,0.707106781186548,1.,        59P     40
0.707106781186548,1.,-5.29047417231656D-14,288.,                      59P     41
1.76349139077219D-14,-5.29047417231656D-14,288.,-288.,                59P     42
-5.29047417231656D-14,3.52698278154438D-14,-288.,                     59P     43
-5.29047417231656D-14,-288.,-288.,-5.29047417231656D-14,-288.,        59P     44
-5.29047417231656D-14,-5.29047417231656D-14,-288.,288.,               59P     45
-5.29047417231656D-14,-7.05396556308875D-14,288.,                     59P     46
1.5707963267949,6.28318530717959,0.,0.,0.;                            59P     47
126,4,2,0,0,0,0,0.,0.,0.,1.5707963267949,1.5707963267949,             61P     48
3.14159265358979,3.14159265358979,3.14159265358979,1.,                61P     49
0.707106781186548,1.,0.707106781186547,1.,0.,0.,259.,0.,259.,         61P     50
259.,0.,259.,1.58591760489582D-14,0.,259.,-259.,0.,                   61P     51
3.17183520979165D-14,-259.,0.,3.14159265358979,0.,0.,0.;              61P     52
126,4,2,0,0,0,0,3.14159265358979,3.14159265358979,                    63P     53
3.14159265358979,4.71238898038469,4.71238898038469,                   63P     54
6.28318530717959,6.28318530717959,6.28318530717959,1.,                63P     55
0.707106781186548,1.,0.707106781186547,1.,0.,                         63P     56
3.17183520979165D-14,-259.,0.,-259.,-259.,0.,-259.,                   63P     57
-4.75775281468747D-14,0.,-259.,259.,0.,-6.34367041958329D-14,         63P     58
259.,3.14159265358979,6.28318530717959,0.,0.,0.;                      63P     59
126,2,2,0,0,0,0,0.,0.,0.,1.5707963267949,1.5707963267949,             65P     60
1.5707963267949,1.,0.707106781186548,1.,3.,0.,287.984374576122,       65P     61
3.,287.984374576122,287.984374576122,3.,287.984374576122,             65P     62
1.7633957126455D-14,0.,1.5707963267949,0.,0.,0.;                      65P     63
126,2,2,0,0,0,0,-0.0104168550559774,-0.0104168550559774,              67P     64
-0.0104168550559774,1.83697019872103D-16,1.83697019872103D-16,        67P     65
1.83697019872103D-16,1.,0.999986436172006,1.,2.99999999999998,        67P     66
287.984374576122,0.,1.50004069231186,288.,0.,                         67P     67
-3.78938677724018D-14,288.,0.,-0.0104168550559774,                    67P     68
1.83697019872103D-16,0.,0.,0.;                                        67P     69
126,6,2,0,0,0,0,1.5707963267949,1.5707963267949,1.5707963267949,      69P     70
3.14159265358979,3.14159265358979,4.71238898038469,                   69P     71
4.71238898038469,6.28318530717959,6.28318530717959,                   69P     72
6.28318530717959,1.,0.707106781186548,1.,0.707106781186548,1.,        69P     73
0.707106781186548,1.,3.,287.984374576122,1.7633957126455D-14,3.,      69P     74
287.984374576122,-287.984374576122,3.,3.526791425291D-14,             69P     75
-287.984374576122,3.,-287.984374576122,-287.984374576122,3.,          69P     76
-287.984374576122,-5.2901871379365D-14,3.,-287.984374576122,          69P     77
287.984374576122,3.,-7.053582850582D-14,287.984374576122,             69P     78
1.5707963267949,6.28318530717959,0.,0.,0.;                            69P     79
126,8,2,0,1,0,0,0.,0.,0.,1.5707963267949,1.5707963267949,             71P     80
3.14159265358979,3.14159265358979,4.71238898038469,                   71P     81
4.71238898038469,6.28318530717959,6.28318530717959,                   71P     82
6.28318530717959,1.,0.707106781186548,1.,0.707106781186548,1.,        71P     83
0.707106781186548,1.,0.707106781186548,1.,3.00000000000005,0.,        71P     84
289.984482343452,3.00000000000005,289.984482343452,                   71P     85
289.984482343452,3.00000000000005,289.984482343452,                   71P     86
1.77564284052155D-14,3.00000000000005,289.984482343452,               71P     87
-289.984482343452,3.00000000000005,3.55128568104311D-14,              71P     88
-289.984482343452,3.00000000000005,-289.984482343452,                 71P     89
-289.984482343452,3.00000000000005,-289.984482343452,                 71P     90
-5.32692852156466D-14,3.00000000000005,-289.984482343452,             71P     91
289.984482343452,3.00000000000005,-7.10257136208622D-14,              71P     92
289.984482343452,0.,6.28318530717959,0.,0.,0.;                        71P     93
126,8,2,0,1,0,0,0.,0.,0.,1.5707963267949,1.5707963267949,             73P     94
3.14159265358979,3.14159265358979,4.71238898038469,                   73P     95
4.71238898038469,6.28318530717959,6.28318530717959,                   73P     96
6.28318530717959,1.,0.707106781186548,1.,0.707106781186547,1.,        73P     97
0.707106781186547,1.,0.707106781186548,1.,48.5,0.,                    73P     98
285.915634409873,48.5,285.915634409873,285.915634409873,48.5,         73P     99
285.915634409873,1.75072833253118D-14,48.5,285.915634409873,          73P    100
-285.915634409873,48.5,3.50145666506236D-14,-285.915634409873,        73P    101
48.5,-285.915634409873,-285.915634409873,48.5,-285.915634409873,      73P    102
-5.25218499759353D-14,48.5,-285.915634409873,285.915634409873,        73P    103
48.5,-7.00291333012471D-14,285.915634409873,0.,6.28318530717959,      73P    104
0.,0.,0.;                                                             73P    105
126,8,2,0,1,0,0,0.,0.,0.,1.5707963267949,1.5707963267949,             75P    106
3.14159265358979,3.14159265358979,4.71238898038469,                   75P    107
4.71238898038469,6.28318530717959,6.28318530717959,                   75P    108
6.28318530717959,1.,0.707106781186548,1.,0.707106781186547,1.,        75P    109
0.707106781186548,1.,0.707106781186547,1.,48.4999999999998,0.,        75P    110
283.886861266949,48.4999999999998,283.886861266949,                   75P    111
283.886861266949,48.4999999999998,283.886861266949,                   75P    112
1.73830567985279D-14,48.4999999999998,283.886861266949,               75P    113
-283.886861266949,48.4999999999998,3.47661135970558D-14,              75P    114
-283.886861266949,48.4999999999998,-283.886861266949,                 75P    115
-283.886861266949,48.4999999999998,-283.886861266949,                 75P    116
-5.21491703955837D-14,48.4999999999998,-283.886861266949,             75P    117
283.886861266949,48.4999999999998,-6.95322271941116D-14,              75P    118
283.886861266949,0.,6.28318530717959,0.,0.,0.;                        75P    119
126,8,2,0,1,0,0,0.,0.,0.,1.5707963267949,1.5707963267949,             77P    120
3.14159265358979,3.14159265358979,4.71238898038469,                   77P    121
4.71238898038469,6.28318530717959,6.28318530717959,                   77P    122
6.28318530717959,1.,0.707106781186548,1.,0.707106781186548,1.,        77P    123
0.707106781186548,1.,0.707106781186548,1.,61.,0.,                     77P    124
281.465806093742,61.,281.465806093742,281.465806093742,61.,           77P    125
281.465806093742,1.72348099251065D-14,61.,281.465806093742,           77P    126
-281.465806093742,61.,3.44696198502131D-14,-281.465806093742,         77P    127
61.,-281.465806093742,-281.465806093742,61.,-281.465806093742,        77P    128
-5.17044297753196D-14,61.,-281.465806093742,281.465806093742,         77P    129
61.,-6.89392397004262D-14,281.465806093742,0.,6.28318530717959,       77P    130
0.,0.,0.;                                                             77P    131
126,4,2,0,0,0,0,0.,0.,0.,1.5707963267949,1.5707963267949,             79P    132
3.14159265358979,3.14159265358979,3.14159265358979,1.,                79P    133
0.707106781186548,1.,0.707106781186548,1.,61.,0.,279.5,61.,           79P    134
279.5,279.5,61.,279.5,1.71144390180843D-14,61.,279.5,-279.5,61.,      79P    135
3.42288780361685D-14,-279.5,0.,3.14159265358979,0.,0.,0.;             79P    136
126,4,2,0,0,0,0,3.14159265358979,3.14159265358979,                    81P    137
3.14159265358979,4.71238898038469,4.71238898038469,                   81P    138
6.28318530717959,6.28318530717959,6.28318530717959,1.,                81P    139
0.707106781186548,1.,0.707106781186548,1.,61.,                        81P    140
3.42288780361685D-14,-279.5,61.,-279.5,-279.5,61.,-279.5,             81P    141
-5.13433170542528D-14,61.,-279.5,279.5,61.,-6.8457756072337D-14,      81P    142
279.5,3.14159265358979,6.28318530717959,0.,0.,0.;                     81P    143
126,1,1,0,0,1,0,-0.21824686940966,-0.21824686940966,                  83P    144
-0.173524150268336,-0.173524150268336,1.,1.,61.,0.,-279.5,48.5,       83P    145
0.,-279.5,-0.21824686940966,-0.173524150268336,0.,0.,0.;              83P    146
126,4,2,0,0,0,0,3.14159265358979,3.14159265358979,                    85P    147
3.14159265358979,4.71238898038469,4.71238898038469,                   85P    148
6.28318530717959,6.28318530717959,6.28318530717959,1.,                85P    149
0.707106781186548,1.,0.707106781186548,1.,48.5,                       85P    150
3.42288780361685D-14,-279.5,48.5,-279.5,-279.5,48.5,-279.5,           85P    151
-5.13433170542528D-14,48.5,-279.5,279.5,48.5,                         85P    152
-6.8457756072337D-14,279.5,3.14159265358979,6.28318530717959,0.,      85P    153
0.,0.;                                                                85P    154
126,4,2,0,0,0,0,0.,0.,0.,1.5707963267949,1.5707963267949,             87P    155
3.14159265358979,3.14159265358979,3.14159265358979,1.,                87P    156
0.707106781186548,1.,0.707106781186548,1.,48.5,0.,279.5,48.5,         87P    157
279.5,279.5,48.5,279.5,1.71144390180843D-14,48.5,279.5,-279.5,        87P    158
48.5,3.42288780361685D-14,-279.5,0.,3.14159265358979,0.,0.,0.;        87P    159
126,4,2,0,0,0,0,0.,0.,0.,1.5707963267949,1.5707963267949,             89P    160
3.14159265358979,3.14159265358979,3.14159265358979,1.,                89P    161
0.707106781186548,1.,0.707106781186547,1.,10.9999999999995,0.,        89P    162
259.,10.9999999999995,259.,259.,10.9999999999995,259.,                89P    163
1.58591760489582D-14,10.9999999999995,259.,-259.,                     89P    164
10.9999999999995,3.17183520979165D-14,-259.,0.,3.14159265358979,      89P    165
0.,0.,0.;                                                             89P    166
126,4,2,0,0,0,0,3.14159265358979,3.14159265358979,                    91P    167
3.14159265358979,4.71238898038469,4.71238898038469,                   91P    168
6.28318530717959,6.28318530717959,6.28318530717959,1.,                91P    169
0.707106781186548,1.,0.707106781186547,1.,10.9999999999995,           91P    170
3.17183520979165D-14,-259.,10.9999999999995,-259.,-259.,              91P    171
10.9999999999995,-259.,-4.75775281468747D-14,10.9999999999995,        91P    172
-259.,259.,10.9999999999995,-6.34367041958329D-14,259.,               91P    173
3.14159265358979,6.28318530717959,0.,0.,0.;                           91P    174
126,1,1,0,0,1,0,-0.152907231816518,-0.152907231816518,                93P    175
5.55111512312578D-17,5.55111512312578D-17,1.,1.,                      93P    176
10.9999999999995,0.,259.,48.5,0.,279.5,-0.152907231816518,            93P    177
5.55111512312578D-17,0.,0.,0.;                                        93P    178
126,1,1,0,0,1,0,-0.0424710424710406,-0.0424710424710406,0.,0.,        95P    179
1.,1.,10.9999999999995,0.,-259.,0.,0.,-259.,-0.0424710424710406,      95P    180
0.,0.,0.,0.;                                                          95P    181
128,1,1,1,1,0,0,1,0,0,-28.801,-28.801,28.801,28.801,                  97P    182
-2.90099999999999,-2.90099999999999,54.701,54.701,1.,1.,1.,1.,        97P    183
-2.64523708615828D-14,-288.01,-288.01,-2.64523708615828D-14,          97P    184
-288.01,288.01,-2.64523708615828D-14,288.01,-288.01,                  97P    185
-2.64523708615828D-14,288.01,288.01,-28.801,28.801,                   97P    186
-2.90099999999999,54.701;                                             97P    187
128,2,8,2,2,0,1,0,0,1,-1.83697019872103D-16,                          99P    188
-1.83697019872103D-16,-1.83697019872103D-16,0.0104168550559774,       99P    189
0.0104168550559774,0.0104168550559774,-3.14159265358979,              99P    190
-3.14159265358979,-3.14159265358979,-1.5707963267949,                 99P    191
-1.5707963267949,0.,0.,1.5707963267949,1.5707963267949,               99P    192
3.14159265358979,3.14159265358979,3.14159265358979,1.,                99P    193
0.999986436172006,1.,0.707106781186548,0.707097190111794,             99P    194
0.707106781186548,1.,0.999986436172006,1.,0.707106781186548,          99P    195
0.707097190111794,0.707106781186548,1.,0.999986436172006,1.,          99P    196
0.707106781186548,0.707097190111794,0.707106781186548,1.,             99P    197
0.999986436172006,1.,0.707106781186548,0.707097190111794,             99P    198
0.707106781186548,1.,0.999986436172006,1.,2.99999999999998,           99P    199
287.984374576122,0.,1.50004069231186,288.,0.,                         99P    200
-3.78938677724018D-14,288.,0.,2.99999999999998,287.984374576122,      99P    201
287.984374576122,1.50004069231186,288.,288.,                          99P    202
-3.78938677724018D-14,288.,288.,2.99999999999998,0.,                  99P    203
287.984374576122,1.50004069231186,0.,288.,-3.78938677724018D-14,      99P    204
0.,288.,2.99999999999998,-287.984374576122,287.984374576122,          99P    205
1.50004069231186,-288.,288.,-3.78938677724018D-14,-288.,288.,         99P    206
2.99999999999998,-287.984374576122,0.,1.50004069231186,-288.,0.,      99P    207
-3.78938677724018D-14,-288.,0.,2.99999999999998,                      99P    208
-287.984374576122,-287.984374576122,1.50004069231186,-288.,           99P    209
-288.,-3.78938677724018D-14,-288.,-288.,2.99999999999998,0.,          99P    210
-287.984374576122,1.50004069231186,0.,-288.,                          99P    211
-3.78938677724018D-14,0.,-288.,2.99999999999998,                      99P    212
287.984374576122,-287.984374576122,1.50004069231186,288.,-288.,       99P    213
-3.78938677724018D-14,288.,-288.,2.99999999999998,                    99P    214
287.984374576122,0.,1.50004069231186,288.,0.,                         99P    215
-3.78938677724018D-14,288.,0.,-1.83697019872103D-16,                  99P    216
0.0104168550559774,-3.14159265358979,3.14159265358979;                99P    217
128,1,1,1,1,0,0,1,0,0,-28.9994482343452,-28.9994482343452,           101P    218
28.9994482343452,28.9994482343452,-0.201010776733057,                101P    219
-0.201010776733057,57.7978856919574,57.7978856919574,1.,1.,1.,       101P    220
1.,3.00000000000003,-289.994482343452,-289.994482343452,             101P    221
3.00000000000003,-289.994482343452,289.994482343452,                 101P    222
3.00000000000003,289.994482343452,-289.994482343452,                 101P    223
3.00000000000003,289.994482343452,289.994482343452,                  101P    224
-28.9994482343452,28.9994482343452,-0.201010776733057,               101P    225
57.7978856919574;                                                    101P    226
128,4,4,2,2,0,0,0,0,0,-1.56067271220839,-1.56067271220839,           103P    227
-1.56067271220839,-0.000110698758996164,-0.000110698758996164,       103P    228
1.56045131469039,1.56045131469039,1.56045131469039,                  103P    229
-1.56046054560468,-1.56046054560468,-1.56046054560468,               103P    230
5.33619749720771D-6,5.33619749720771D-6,1.56047121799967,            103P    231
1.56047121799967,1.56047121799967,1.,0.710715883700178,1.,           103P    232
0.710715883700179,1.,0.71074969618453,0.505141098413421,             103P    233
0.71074969618453,0.505141098413422,0.71074969618453,1.,              103P    234
0.710715883700178,1.,0.710715883700179,1.,0.71074969618453,          103P    235
0.505141098413421,0.71074969618453,0.505141098413422,                103P    236
0.71074969618453,1.,0.710715883700178,1.,0.710715883700179,1.,       103P    237
0.0310067914962647,-2.99983975886737,289.984482343452,               103P    238
2.99765158107674,-290.016282311215,287.015029236876,                 103P    239
2.99732315960727,-289.984508247074,-0.0321026400433221,              103P    240
2.99699473813779,-289.952734182933,-287.079234516963,                103P    241
0.0303432263382082,-2.93564127048212,-289.985139428936,              103P    242
3.00001584402231,-2.96915163815357,289.984482343452,                 103P    243
290.033305741168,-287.049438947589,287.015029236876,                 103P    244
290.001529811947,-287.017989929582,-0.0321026400433221,              103P    245
289.969753882727,-286.986540911576,-287.079234516963,                103P    246
2.93581358730218,-2.90560989516792,-289.985139428936,                103P    247
2.99999999995735,1.60085924922136D-5,289.984482343452,               103P    248
290.031773980411,0.00154766682650407,287.015029236876,               103P    249
289.99999821901,0.0015474972647656,-0.0321026400433221,              103P    250
289.968222457608,0.00154732770302713,-287.079234516963,              103P    251
2.93579808231034,1.56659983799322D-5,-289.985139428936,              103P    252
2.99998415589238,2.96918365533855,289.984482343452,                  103P    253
290.030242219655,287.052534281242,287.015029236876,                  103P    254
289.998466626072,287.021084924112,-0.0321026400433221,               103P    255
289.96669103249,286.989635566982,-287.079234516963,                  103P    256
2.93578257731849,2.90564122716468,-289.985139428936,                 103P    257
0.0309747760196715,2.99984008961326,289.984482343452,                103P    258
2.99455641258632,290.01631428682,287.015029236876,                   103P    259
2.99422833022223,289.984540219176,-0.0321026400433221,               103P    260
2.99390024785813,289.952766151532,-287.079234516963,                 103P    261
0.0303118960132789,2.93564159414983,-289.985139428936,               103P    262
-1.56067271220839,1.56045131469039,-1.56046054560468,                103P    263
1.56047121799967;                                                    103P    264
128,1,1,1,1,0,0,1,0,0,-28.5925634409873,-28.5925634409873,           105P    265
28.5925634409873,28.5925634409873,-0.203877314292369,                105P    266
-0.203877314292369,56.9812495676822,56.9812495676822,1.,1.,1.,       105P    267
1.,48.4999999999999,-285.925634409873,285.925634409873,              105P    268
48.4999999999999,-285.925634409873,-285.925634409873,                105P    269
48.4999999999999,285.925634409873,285.925634409873,                  105P    270
48.4999999999999,285.925634409873,-285.925634409873,                 105P    271
-28.5925634409873,28.5925634409873,-0.203877314292369,               105P    272
56.9812495676822;                                                    105P    273
128,4,4,2,2,0,0,0,0,0,-1.40273626926052,-1.40273626926052,           107P    274
-1.40273626926052,-0.000574511359486829,-0.000574511359486829,       107P    275
1.40158724654154,1.40158724654154,1.40158724654154,                  107P    276
-1.40258483797089,-1.40258483797089,-1.40258483797089,               107P    277
1.66696670604871D-5,1.66696670604871D-5,1.40261817730501,            107P    278
1.40261817730501,1.40261817730501,1.,0.764145419300134,1.,           107P    279
0.764145419300135,1.,0.764003571862573,0.583809829767726,            107P    280
0.764003571862573,0.583809829767727,0.764003571862573,1.,            107P    281
0.764145419300134,1.,0.764145419300135,1.,0.764003571862573,         107P    282
0.583809829767726,0.764003571862573,0.583809829767727,               107P    283
0.764003571862573,1.,0.764145419300134,1.,0.764145419300135,1.,      107P    284
8.11983847734867,-47.8154600845977,283.886861266949,                 107P    285
48.2401483864738,-284.072755398169,242.946179271261,                 107P    286
48.2167648566535,-283.935056324489,-0.165459262430201,               107P    287
48.1933813268332,-283.797357250809,-243.277097796121,                107P    288
8.06522220073681,-47.4938400915905,-283.942401455308,                107P    289
48.5006827652892,-40.9581396150898,283.886861266949,                 107P    290
288.143679208605,-243.333255726412,242.946179271261,                 107P    291
288.004006829048,-243.215304380244,-0.165459262430201,               107P    292
287.864334449492,-243.097353034075,-243.277097796121,                107P    293
48.1744537752468,-40.6826438538176,-283.942401455308,                107P    294
48.4999999932613,0.000808478852396179,283.886861266949,              107P    295
288.13962284418,0.0048031915801917,242.946179271261,                 107P    296
287.999952430871,0.00480086332090344,-0.165459262430201,             107P    297
287.860282017563,0.00479853506161517,-243.277097796121,              107P    298
48.1737755957321,0.000803040800301856,-283.942401455308,             107P    299
48.4993172212334,40.9597565727946,283.886861266949,                  107P    300
288.135566479754,243.342862109573,242.946179271261,                  107P    301
287.995898032694,243.224906106885,-0.165459262430201,                107P    302
287.856229585634,243.106950104198,-243.277097796121,                 107P    303
48.1730974162174,40.6842499354182,-283.942401455308,                 107P    304
8.11824433723641,47.8157307680319,283.886861266949,                  107P    305
48.2306775631589,284.074363534718,242.946179271261,                  107P    306
48.207298624147,283.936663681524,-0.165459262430201,                 107P    307
48.1839196851351,283.798963828329,-243.277097796121,                 107P    308
8.0636387832513,47.4941089543332,-283.942401455308,                  107P    309
-1.40273626926052,1.40158724654154,-1.40258483797089,                107P    310
1.40261817730501;                                                    107P    311
128,1,1,1,1,0,0,1,0,0,-28.1475806093742,-28.1475806093742,           109P    312
28.1475806093742,28.1475806093742,-0.00100000000000135,              109P    313
-0.00100000000000135,56.2941612187484,56.2941612187484,1.,1.,1.,     109P    314
1.,61.,-281.475806093742,281.475806093742,61.,-281.475806093742,     109P    315
-281.475806093742,61.,281.475806093742,281.475806093742,61.,         109P    316
281.475806093742,-281.475806093742,-28.1475806093742,                109P    317
28.1475806093742,-0.00100000000000135,56.2941612187484;              109P    318
128,1,8,1,2,0,1,0,0,1,-0.21824686940966,-0.21824686940966,           111P    319
-0.173524150268336,-0.173524150268336,-3.14159265358979,             111P    320
-3.14159265358979,-3.14159265358979,-1.5707963267949,                111P    321
-1.5707963267949,0.,0.,1.5707963267949,1.5707963267949,              111P    322
3.14159265358979,3.14159265358979,3.14159265358979,1.,1.,            111P    323
0.707106781186548,0.707106781186548,1.,1.,0.707106781186548,         111P    324
0.707106781186548,1.,1.,0.707106781186548,0.707106781186548,1.,      111P    325
1.,0.707106781186548,0.707106781186548,1.,1.,61.,0.,-279.5,48.5,     111P    326
0.,-279.5,61.,-279.5,-279.5,48.5,-279.5,-279.5,61.,-279.5,0.,        111P    327
48.5,-279.5,0.,61.,-279.5,279.5,48.5,-279.5,279.5,61.,0.,279.5,      111P    328
48.5,0.,279.5,61.,279.5,279.5,48.5,279.5,279.5,61.,279.5,0.,         111P    329
48.5,279.5,0.,61.,279.5,-279.5,48.5,279.5,-279.5,61.,0.,-279.5,      111P    330
48.5,0.,-279.5,-0.21824686940966,-0.173524150268336,                 111P    331
-3.14159265358979,3.14159265358979;                                  111P    332
128,1,8,1,2,0,1,0,0,1,-0.152907231816518,-0.152907231816518,         113P    333
5.55111512312578D-17,5.55111512312578D-17,-3.14159265358979,         113P    334
-3.14159265358979,-3.14159265358979,-1.5707963267949,                113P    335
-1.5707963267949,0.,0.,1.5707963267949,1.5707963267949,              113P    336
3.14159265358979,3.14159265358979,3.14159265358979,1.,1.,            113P    337
0.707106781186548,0.707106781186548,1.,1.,0.707106781186548,         113P    338
0.707106781186548,1.,1.,0.707106781186548,0.707106781186548,1.,      113P    339
1.,0.707106781186548,0.707106781186548,1.,1.,10.9999999999995,       113P    340
0.,259.,48.5,0.,279.5,10.9999999999995,-259.,259.,48.5,-279.5,       113P    341
279.5,10.9999999999995,-259.,0.,48.5,-279.5,0.,10.9999999999995,     113P    342
-259.,-259.,48.5,-279.5,-279.5,10.9999999999995,0.,-259.,48.5,       113P    343
0.,-279.5,10.9999999999995,259.,-259.,48.5,279.5,-279.5,             113P    344
10.9999999999995,259.,0.,48.5,279.5,0.,10.9999999999995,259.,        113P    345
259.,48.5,279.5,279.5,10.9999999999995,0.,259.,48.5,0.,279.5,        113P    346
-0.152907231816518,5.55111512312578D-17,-3.14159265358979,           113P    347
3.14159265358979;                                                    113P    348
128,1,8,1,2,0,1,0,0,1,-0.0424710424710406,-0.0424710424710406,       115P    349
0.,0.,-3.14159265358979,-3.14159265358979,-3.14159265358979,         115P    350
-1.5707963267949,-1.5707963267949,0.,0.,1.5707963267949,             115P    351
1.5707963267949,3.14159265358979,3.14159265358979,                   115P    352
3.14159265358979,1.,1.,0.707106781186548,0.707106781186548,1.,       115P    353
1.,0.707106781186548,0.707106781186548,1.,1.,0.707106781186548,      115P    354
0.707106781186548,1.,1.,0.707106781186548,0.707106781186548,1.,      115P    355
1.,10.9999999999995,0.,-259.,0.,0.,-259.,10.9999999999995,-259.,     115P    356
-259.,0.,-259.,-259.,10.9999999999995,-259.,0.,0.,-259.,0.,          115P    357
10.9999999999995,-259.,259.,0.,-259.,259.,10.9999999999995,0.,       115P    358
259.,0.,0.,259.,10.9999999999995,259.,259.,0.,259.,259.,             115P    359
10.9999999999995,259.,0.,0.,259.,0.,10.9999999999995,259.,-259.,     115P    360
0.,259.,-259.,10.9999999999995,0.,-259.,0.,0.,-259.,                 115P    361
-0.0424710424710406,0.,-3.14159265358979,3.14159265358979;           115P    362
502,16,-5.29047417231656D-14,0.,288.,-3.78938677724018D-14,288.,     117P    363
0.,0.,0.,259.,0.,0.,-259.,3.,0.,287.984374576122,                    117P    364
2.99999999999998,287.984374576122,0.,3.00000000000005,0.,            117P    365
289.984482343452,48.5,0.,285.915634409873,48.4999999999998,0.,       117P    366
283.886861266949,61.,0.,281.465806093742,61.,0.,279.5,61.,0.,        117P    367
-279.5,48.5,0.,-279.5,48.5,0.,279.5,10.9999999999995,0.,259.,        117P    368
10.9999999999995,0.,-259.;                                           117P    369
504,20,57,117,1,117,2,59,117,2,117,1,61,117,3,117,4,63,117,4,        119P    370
117,3,65,117,5,117,6,67,117,6,117,2,69,117,6,117,5,71,117,7,117,     119P    371
7,73,117,8,117,8,75,117,9,117,9,77,117,10,117,10,79,117,11,117,      119P    372
12,81,117,12,117,11,83,117,12,117,13,85,117,13,117,14,87,117,14,     119P    373
117,13,89,117,15,117,16,91,117,16,117,15,93,117,15,117,14,95,        119P    374
117,16,117,4;                                                        119P    375
406,1,24HТвердое тело1;                                   121P    376
314,95.6862745098039,95.6862745098039,95.6862745098039,;             123P    377
S      1G      3D    124P    377                                        T      1
