**ABCDEFGHIJKLMNOPQRSTUVWXYZabcdefghijklmnopqrstuvwxyz**************************
**PARASOLID !"#$%&'()*+,-./:;<=>?@[\]^_`{|}~0123456789**************************
**PART1;
MC=;
MC_MODEL=;
MC_ID=unknown;
OS=Windows;
OS_RELEASE=;
FRU=;
APPL=Autodesk Inventor 2023;
SITE=unknown;
USER=unknown;
FORMAT=text;
GUISE=transmit;
KEY=INT-207-01-005;
FILE=D:\мои документы\Ирина\_WorldSkills\2022_08 Роскосмос\Задание\the-first-satellite-sputnik-1.snapshot.4\Inventor\GIVEN\PARASOLID\INT-207-01-005.x_t;
DATE=2022-Aug-07 12:42:33;
**PART2;
SCH=SCH_3301154_33103;
USFLD_SIZE=0;
**PART3;
**END_OF_HEADER*****************************************************************
T51 : TRANSMIT FILE created by modeller version 330115417 SCH_3300000_320010 12
 1 187 2 3 0 0 0 0 0 0 1e3 1e-8 0 0 0 1 0 1 1 4 5 6 7 0 0 8 9 10 0 0 0 0 0 0 0 8
1 1 2 187 11 1 12 0 0 0 0 70 3 0 4 T1 0 0 6 20 1 13 13 13 4 84 0 1 0 14 0 0 15 0
 52 5 142 0 14 16 0 0 +0 0 .288 0 0 1 .00325 .707106781186553 .707106781186542 1
 0 0 31 6 128 0 9 17 0 0 +0 0 .28685 0 0 1 1 0 0 .0021 29 7 103 0 10 18 0 .0021
 0 .28685 19 8 1 0 1 15 0 19 V0 16 9 78 0 ?20 0 21 6 0 0 1 18 10 79 0 20 0 22 7
 ?1 17 20 0 23 20 20 10 24 9 0 24 +18 22 74 0 25 10 26 18 ?1 17 25 0 27 25 25 22
 28 21 0 28 +18 26 66 0 29 22 30 31 ?1 29 18 102 0 22 31 7 .0021 0 .272425 29 31
 101 0 26 32 18 .002525 0 .272 29 32 100 0 30 33 31 .0045 0 .272 18 30 63 0 34 2
6 35 32 ?1 29 33 99 0 35 36 32 .005 0 .2725 18 35 58 0 37 30 38 33 ?1 29 36 98 0
 38 39 33 .005 0 .2799553535833885 18 38 53 0 40 35 41 36 ?1 29 39 97 0 41 42 36
 -.00323186582369664 0 .2879818658236965 18 41 48 0 43 38 44 39 ?1 29 42 96 0 44
 45 39 -.007 .004041451884327405 .2878865517294385 18 44 38 0 46 41 47 42 ?1 29
 45 95 0 47 48 42 -.007 .004041451884327385 .2798833090176455 18 47 37 0 49 44 5
0 45 ?1 29 48 94 0 50 51 45 -.007 -.00404145188432736 .2878865517294385 18 50 31
 0 52 47 53 48 ?1 29 51 93 0 53 54 48 -.007 -.004041451884328675 .27988330901764
55 18 53 30 0 55 50 56 51 ?1 29 54 92 0 56 57 51 -1734723475976805e-33 -.0080829
0376865476 .2878865517294385 18 56 24 0 58 53 59 54 ?1 29 57 91 0 59 60 54 11238
54955460674e-30 -.00808290376865541 .2798833090176455 18 59 23 0 61 56 62 57 ?1
 29 60 90 0 62 63 57 .0069999999999999 -.00404145188432744 .2878865517294385 18
 62 17 0 64 59 65 60 ?1 29 63 89 0 65 66 60 .00700000000000261 -.004041451884325
875 .2798833090176455 18 65 16 0 67 62 68 63 ?1 29 66 88 0 68 69 63 867361737988
404e-33 .00808290376865477 .2878865517294385 18 68 11 0 70 65 71 66 ?1 29 69 87
 0 71 72 66 1120082402059826e-30 .00808290376865541 .2798833090176455 18 71 9 0
 73 68 74 69 ?1 29 72 86 0 74 75 69 .0069999999999999 .004041451884327385 .28788
65517294385 18 74 7 0 76 71 77 72 ?1 29 75 85 0 77 0 72 .007 .00404145188432868
 .2798833090176455 18 77 6 0 78 74 0 75 ?1 17 78 0 79 80 81 77 82 83 0 84 +15 79
 14 0 81 85 0 17 80 0 79 86 78 74 87 88 0 0 +17 81 0 79 78 86 65 89 90 0 0 -17 8
2 0 91 92 84 65 78 83 0 81 -16 83 18 0 ?78 93 90 94 0 0 1 17 84 0 91 82 73 77 95
 96 0 87 -15 91 54 0 82 97 98 17 73 0 91 84 99 71 49 100 0 101 -17 95 0 102 103
 87 71 84 96 0 0 +16 96 8 0 ?95 104 88 105 0 0 1 17 87 0 102 95 106 77 80 88 0 0
 -15 102 4 0 87 107 0 17 106 0 102 87 103 74 108 109 0 80 +16 88 5 0 ?80 96 0 11
0 0 0 1 30 110 104 0 88 0 105 0 +.007 .00404145188432868 .2798833090176455 -1287
336900746442e-29 -161915908464574e-27 1 31 105 105 0 96 110 111 0 +.0035 .006062
17782649108 0 -.5 -.866025403784439 0 -.866025403784439 .5 0 .279912486323851 30
 111 106 0 104 105 112 0 +1120082402059826e-30 .00808290376865541 .2798833090176
455 -1398451953322124e-28 -805695336156819e-28 1 16 104 10 0 ?103 109 96 111 0 0
 1 31 112 107 0 109 111 113 0 +.0035 .00606217782649108 0 .5 .866025403784439 0
 -.866025403784439 .5 0 .287914917987936 16 109 12 0 ?106 90 104 112 0 0 1 30 11
3 108 0 90 112 94 0 +.00700000000000261 -.004041451884325875 .2798833090176455 -
3389247323172075e-28 -195653013449652e-27 1 16 90 15 0 ?89 83 109 113 0 0 1 31 9
4 109 0 83 113 114 0 +.007 -751157299368579e-33 0 -1 1073081856240826e-31 0 1073
081856240826e-31 1 0 .279912486323851 31 114 110 0 93 94 115 0 +.006999999999999
9 0 0 -1 0 0 0 0 1 .287914917987936 16 93 19 0 ?76 116 83 114 0 0 1 30 115 111 0
 116 114 117 0 +1123854955460674e-30 -.00808290376865541 .2798833090176455 -1406
417023037452e-28 814573521679208e-28 1 16 116 22 0 ?118 119 93 115 0 0 1 31 117
 112 0 119 115 120 0 +.0035 -.00606217782649107 0 -.5 .866025403784439 0 .866025
403784439 .5 0 .279912486323851 16 119 25 0 ?67 121 116 117 0 0 1 31 120 113 0 1
21 117 122 0 +.0035 -.00606217782649107 0 .5 -.866025403784439 0 .86602540378443
9 .5 0 .2879149179879365 16 121 26 0 ?123 124 119 120 0 0 1 30 122 114 0 124 120
 125 0 +-.007 -.004041451884328675 .2798833090176455 443909276119463e-29 1646903
414403205e-28 1 16 124 29 0 ?126 127 121 122 0 0 1 31 125 115 0 127 122 128 0 +-
.0035 -.00606217782649107 0 .5 .866025403784439 0 .866025403784439 -.5 0 .279912
486323851 16 127 32 0 ?61 129 124 125 0 0 1 31 128 116 0 129 125 130 0 +-.0035 -
.00606217782649107 0 -.5 -.866025403784439 0 .866025403784439 -.5 0 .28791491798
7936 16 129 33 0 ?131 132 127 128 0 0 1 30 130 117 0 132 128 133 0 +-.007 .00404
1451884327385 .2798833090176455 443909276119463e-29 255247833768691e-29 1 16 132
 36 0 ?134 135 129 130 0 0 1 31 133 118 0 135 130 136 0 +-.007 0 0 1 0 0 0 0 1 .
279912486323851 16 135 39 0 ?55 137 132 133 0 0 1 31 136 119 0 137 133 138 0 +-.
007 0 0 -1 0 0 0 0 1 .287914917987936 16 137 40 0 ?139 100 135 136 0 0 1 31 138
 120 0 100 136 140 0 +-.0035 .00606217782649108 0 .5 -.866025403784439 0 -.86602
5403784439 -.5 0 .279912486323851 16 100 43 0 ?49 141 137 138 0 0 1 31 140 121 0
 141 138 142 0 +-.0035 .00606217782649108 0 -.5 .866025403784439 0 -.86602540378
4439 -.5 0 .287914917987936 16 141 44 0 ?70 143 100 140 0 0 1 31 142 122 0 143 1
40 144 0 +0 0 .2879818658236965 0 0 1 -1 0 0 .00323186582369664 16 143 47 0 ?43
 145 141 142 0 0 1 31 144 123 0 145 142 146 0 +0 0 .2799553535833885 0 0 1 1 0 0
 .005 16 145 52 0 ?40 147 143 144 0 0 1 31 146 124 0 147 144 148 0 +0 0 .2725 0
 0 1 1 0 0 .005 16 147 57 0 ?37 149 145 146 0 0 1 31 148 125 0 149 146 150 0 +0
 0 .272 0 0 -1 1 0 0 .0045 16 149 62 0 ?34 151 147 148 0 0 1 31 150 126 0 151 14
8 17 0 +0 0 .272 0 0 1 1 0 0 .002525 16 151 65 0 ?29 21 149 150 0 0 1 31 17 127
 0 21 150 6 0 +0 0 .272425 0 0 1 1 0 0 .0021 16 21 73 0 ?25 9 151 17 0 0 1 17 29
 0 152 29 29 26 153 151 0 153 +15 152 64 0 29 154 155 17 153 0 156 153 153 26 29
 151 0 0 -15 156 71 0 153 157 0 14 157 70 158 ?159 160 27 4 161 -0 0 159 160 19
 81 1 158 180 162 157 163 0 164 165 166 14 159 67 164 ?154 157 167 4 168 +0 0 15
4 157 19 14 160 75 165 ?157 14 23 4 16 -0 0 157 14 19 15 27 72 0 25 157 156 52 1
61 140 0 157 168 16 0 +0 0 .272425 0 0 -1 .0021 .70710678118654 .707106781186556
 -1 0 0 13 19 2 0 0 0 0 0 0 8 14 14 14 80 169 ?160 0 170 4 5 -0 0 160 0 19 81 1
 169 186 162 14 171 0 165 0 172 15 170 82 0 24 14 173 17 24 0 170 24 24 10 20 9
 0 0 -15 173 81 0 43 14 0 17 43 0 173 43 43 41 174 143 0 174 +17 174 0 175 174 1
74 41 43 143 0 0 -15 175 46 0 174 176 0 14 176 45 177 ?178 97 179 4 180 +0 0 178
 97 19 81 1 177 165 162 176 181 0 182 183 184 14 178 41 182 ?185 176 186 4 187 +
0 0 185 176 19 14 97 50 183 ?176 188 91 4 189 -0 0 176 188 19 15 179 49 0 76 176
 175 53 180 135 0 176 187 189 0 +0 0 0 .288 612323399573677e-31 0 1 1 0 -6123233
99573677e-31 50 187 134 0 178 190 180 0 +789739483236496e-33 .00808290376865477
 .272 -.5 .866025403784439 0 0 0 1 53 189 136 0 97 180 191 0 +0 0 0 .28 61232339
9573677e-31 0 1 1 0 -612323399573677e-31 51 191 137 0 188 189 192 0 +0 0 .287914
917987936 0 0 1 .005 1 0 0 14 188 55 193 ?97 154 194 4 191 +0 0 97 154 19 50 192
 138 0 154 191 168 0 +0 0 .272 0 0 -1 1 0 0 14 154 60 195 ?188 159 152 4 192 +0
 0 188 159 19 52 168 139 0 159 192 161 0 +0 0 .2725 0 0 1 .005 .70710678118657 .
707106781186525 1 0 0 81 1 195 174 162 154 196 0 193 164 197 80 1 162 198 199 80
15 0 0 0 0 3 5 0 0 0 FFFFTFFFFFFFFF2 81 2 196 173 198 154 200 195 201 202 203 20
4 81 1 193 171 162 188 201 0 183 195 205 81 1 164 177 162 159 202 0 195 158 206
 83 1 197 0 81 2 202 176 198 159 207 164 196 163 208 209 83 1 206 0 80 2 198 210
 211 8014 0 0 0 0 3 5 0 0 0 FFFFTFFFFFFFFF2 1 81 1 207 175 212 159 0 202 200 213
 214 81 2 163 179 198 157 213 158 202 215 216 217 83 4 208 .72944252070442 0 .72
944252070442 .72944252070442 82 1 209 1 81 1 213 178 212 157 0 163 207 218 219 8
1 2 215 182 198 160 218 165 163 171 220 221 83 4 216 .72944252070442 0 .72944252
070442 .72944252070442 82 1 217 1 81 1 218 181 212 160 0 215 213 222 223 81 1 16
5 183 162 160 215 0 158 169 224 81 2 171 185 198 14 222 169 215 0 225 226 83 4 2
20 .72944252070442 0 .72944252070442 .72944252070442 82 1 221 1 81 1 222 184 212
 14 0 171 218 0 227 83 4 225 .72944252070442 0 .72944252070442 .72944252070442 8
2 1 226 1 80 1 212 0 228 8001 0 0 0 0 3 5 0 0 0 FFFFTFTFFFFFFF2 83 3 227 .745098
039215686 .737254901960784 .729411764705882 79 15 228 SDL/TYSA_COLOUR83 1 224 0
 83 3 223 .745098039215686 .737254901960784 .729411764705882 83 3 219 .745098039
215686 .737254901960784 .729411764705882 81 1 200 172 212 154 0 196 229 207 230
 83 3 214 .745098039215686 .737254901960784 .729411764705882 81 1 229 169 212 18
8 0 201 231 200 232 83 3 230 .745098039215686 .737254901960784 .729411764705882
 81 2 201 170 198 188 229 193 233 196 234 235 81 1 231 166 212 97 0 233 236 229
 237 83 3 232 .745098039215686 .737254901960784 .729411764705882 81 2 233 167 19
8 97 231 183 181 201 238 239 81 1 236 163 212 176 0 181 240 231 241 83 3 237 .74
5098039215686 .737254901960784 .729411764705882 81 2 181 164 198 176 236 177 242
 233 243 244 81 1 240 160 212 178 0 242 245 236 246 83 3 241 .745098039215686 .7
37254901960784 .729411764705882 81 2 242 161 198 178 240 182 247 181 248 249 81
 1 245 157 212 185 0 247 250 240 251 83 3 246 .745098039215686 .737254901960784
 .729411764705882 14 185 34 252 ?253 178 254 4 190 +0 0 253 178 19 81 2 247 158
 198 185 245 252 255 242 256 257 81 1 250 154 212 253 0 255 258 245 259 83 3 251
 .745098039215686 .737254901960784 .729411764705882 14 253 27 260 ?261 185 262 4
 263 +0 0 261 185 19 81 2 255 155 198 253 250 260 264 247 265 266 81 1 258 151 2
12 261 0 264 267 250 268 83 3 259 .745098039215686 .737254901960784 .72941176470
5882 14 261 20 269 ?85 253 270 4 271 +0 0 85 253 19 81 2 264 152 198 261 258 269
 272 255 273 274 81 1 267 148 212 85 0 272 275 258 276 83 3 268 .745098039215686
 .737254901960784 .729411764705882 14 85 13 277 ?107 261 79 4 278 +0 0 107 261 1
9 81 2 272 149 198 85 267 277 279 264 280 281 81 1 275 145 212 107 0 279 0 267 2
82 83 3 276 .745098039215686 .737254901960784 .729411764705882 14 107 3 283 ?0 8
5 102 4 284 +0 0 0 85 19 81 2 279 146 198 107 275 283 0 272 285 286 83 3 282 .74
5098039215686 .737254901960784 .729411764705882 81 1 283 147 162 107 279 0 0 277
 287 83 4 285 .72944252070442 0 .72944252070442 .72944252070442 82 1 286 1 81 1
 277 150 162 85 272 0 283 269 288 83 1 287 0 81 1 269 153 162 261 264 0 277 260
 289 83 1 288 0 81 1 260 156 162 253 255 0 269 252 290 83 1 289 0 81 1 252 159 1
62 185 247 0 260 182 291 83 1 290 0 81 1 182 162 162 178 242 0 252 177 292 83 1
 291 0 83 1 292 0 50 284 129 0 107 0 278 0 +.007 .004041451884327385 .272 .5 .86
6025403784439 0 0 0 -1 50 278 130 0 85 284 271 0 +.007 -.004041451884327385 .272
 1 -1073081856240826e-31 0 0 0 -1 50 271 131 0 261 278 263 0 +-2031822013650555e
-33 -.00808290376865476 .272 .5 -.866025403784439 0 0 0 -1 50 263 132 0 253 271
 190 0 +-.007 -.00404145188432738 .272 -.5 -.866025403784439 0 0 0 -1 50 190 133
 0 185 263 187 0 +-.007 .004041451884327385 .272 -1 0 0 0 0 1 83 4 280 .72944252
070442 0 .72944252070442 .72944252070442 82 1 281 1 83 4 273 .72944252070442 0 .
72944252070442 .72944252070442 82 1 274 1 15 270 21 0 293 261 0 17 293 0 270 67
 123 59 118 116 0 0 -17 67 0 270 89 293 65 92 119 0 82 +17 123 0 270 293 89 56 6
4 121 0 118 +17 118 0 262 131 61 56 293 116 0 0 +15 262 28 0 294 253 0 17 131 0
 262 294 118 50 58 129 0 126 +17 61 0 262 118 294 59 295 127 0 92 +17 294 0 262
 61 131 53 126 124 0 0 -17 295 0 91 99 92 53 61 127 0 294 -17 92 0 91 295 82 59
 67 119 0 293 -17 99 0 91 73 295 47 55 135 0 296 -17 55 0 254 126 296 53 99 135
 0 295 +17 296 0 254 55 139 47 134 132 0 0 -15 254 35 0 296 185 0 17 139 0 254 2
96 126 44 52 137 0 134 +17 134 0 186 70 49 44 296 132 0 0 +15 186 42 0 101 178 0
 17 70 0 186 101 134 68 46 141 0 108 +17 49 0 186 134 101 47 73 100 0 99 +17 101
 0 186 49 70 71 103 104 0 95 -17 103 0 102 106 95 68 101 104 0 0 +17 46 0 179 52
 108 44 70 141 0 139 -17 108 0 179 46 76 68 106 109 0 103 -17 76 0 179 108 64 74
 86 93 0 106 +17 64 0 179 76 58 62 123 121 0 86 -17 86 0 79 81 80 62 76 93 0 89
 -17 89 0 270 123 67 62 81 90 0 0 +17 58 0 179 64 52 56 131 129 0 123 -17 52 0 1
79 58 46 50 139 137 0 131 -17 126 0 254 139 55 50 294 124 0 0 +83 4 265 .7294425
2070442 0 .72944252070442 .72944252070442 82 1 266 1 83 4 256 .72944252070442 0
 .72944252070442 .72944252070442 82 1 257 1 83 4 248 .72944252070442 0 .72944252
070442 .72944252070442 82 1 249 1 83 4 243 .72944252070442 0 .72944252070442 .72
944252070442 82 1 244 1 81 1 183 168 162 97 233 0 177 193 297 83 4 238 .72944252
070442 0 .72944252070442 .72944252070442 82 1 239 1 83 1 297 0 83 4 234 .7294425
2070442 0 .72944252070442 .72944252070442 82 1 235 1 79 21 211 SDL/TYSA_REFLECTI
VITY83 1 205 0 83 4 203 .72944252070442 0 .72944252070442 .72944252070442 82 1 2
04 1 79 21 199 SDL/TYSA_TRANSLUCENCY15 194 59 0 298 188 299 17 298 0 194 298 298
 38 40 145 0 0 -15 299 56 0 37 188 0 17 37 0 299 37 37 35 300 147 0 300 +17 300
 0 167 300 300 35 37 147 0 0 -15 167 69 0 300 159 301 15 301 68 0 302 159 0 17 3
02 0 301 302 302 30 34 149 0 0 -17 34 0 155 34 34 30 302 149 0 302 +15 155 61 0
 34 154 0 17 40 0 98 40 40 38 298 145 0 298 +15 98 51 0 40 97 0 83 1 184 0 83 1
 172 0 51 16 141 0 160 161 5 0 +0 0 .288 0 0 -1 .0021 1 0 0 15 23 77 0 20 160 30
3 15 303 76 0 28 160 0 17 28 0 303 28 28 22 25 21 0 0 -83 1 166 0 19 15 83 0 1 0
 8 4 S0 74 20 13 6 0 0 304 12 222 171 169 2 0 0 0 0 0 0 0 0 0 0 0 0 0 0 81 1 304
 143 305 1 0 12 0 0 306 81 1 12 144 307 1 304 2 0 0 308 80 1 307 162 309 8041 0
 0 0 0 3 5 0 0 0 TTTFFFFFFFFFFF2 83 1 308 0 79 23 309 SDL/TYSA_TRANSLUCENCY_280
 1 305 212 310 8040 0 0 0 0 3 5 0 0 0 TTTFFFFFFFFFFF2 83 3 306 .745098039215686
 .737254901960784 .729411764705882 79 17 310 SDL/TYSA_COLOUR_280 1 11 311 312 80
17 0 0 0 0 0 0 0 0 0 TTTTTTTTTTTTTF3 79 13 312 SDL/TYSA_NAME1 0 
